%TF.GenerationSoftware,KiCad,Pcbnew,9.0.0*%
%TF.CreationDate,2025-04-18T15:13:59+03:00*%
%TF.ProjectId,valkyriev3,76616c6b-7972-4696-9576-332e6b696361,rev?*%
%TF.SameCoordinates,Original*%
%TF.FileFunction,Drillmap*%
%TF.FilePolarity,Positive*%
%FSLAX45Y45*%
G04 Gerber Fmt 4.5, Leading zero omitted, Abs format (unit mm)*
G04 Created by KiCad (PCBNEW 9.0.0) date 2025-04-18 15:13:59*
%MOMM*%
%LPD*%
G01*
G04 APERTURE LIST*
%ADD10C,0.050000*%
%ADD11C,0.200000*%
%ADD12C,0.100000*%
%ADD13C,0.150000*%
%ADD14C,0.170000*%
%ADD15C,0.190000*%
%ADD16C,0.320000*%
G04 APERTURE END LIST*
D10*
X16763639Y-14579600D02*
G75*
G02*
X16712839Y-14630399I-50799J0D01*
G01*
X9764121Y-4681581D02*
G75*
G02*
X9814921Y-4630781I50799J1D01*
G01*
X16763639Y-14579600D02*
X16763639Y-4681581D01*
X16712840Y-4630781D02*
X9814921Y-4630781D01*
X9764121Y-4681580D02*
X9764121Y-14579919D01*
X9814921Y-14630400D02*
G75*
G02*
X9764120Y-14579600I-1J50800D01*
G01*
X16712839Y-4630781D02*
G75*
G02*
X16763639Y-4681581I1J-50799D01*
G01*
X9814921Y-14630400D02*
X16712839Y-14630400D01*
D11*
D12*
X9992360Y-6593840D02*
X10012680Y-6614160D01*
X10012680Y-6593840D02*
X9992360Y-6614160D01*
X10010140Y-5387340D02*
X10030460Y-5407660D01*
X10030460Y-5387340D02*
X10010140Y-5407660D01*
X10010140Y-5895340D02*
X10030460Y-5915660D01*
X10030460Y-5895340D02*
X10010140Y-5915660D01*
X10010140Y-6403340D02*
X10030460Y-6423660D01*
X10030460Y-6403340D02*
X10010140Y-6423660D01*
X10010140Y-7927340D02*
X10030460Y-7947660D01*
X10030460Y-7927340D02*
X10010140Y-7947660D01*
X10010140Y-8435340D02*
X10030460Y-8455660D01*
X10030460Y-8435340D02*
X10010140Y-8455660D01*
X10010140Y-9451340D02*
X10030460Y-9471660D01*
X10030460Y-9451340D02*
X10010140Y-9471660D01*
X10010140Y-10975340D02*
X10030460Y-10995660D01*
X10030460Y-10975340D02*
X10010140Y-10995660D01*
X10010140Y-11483340D02*
X10030460Y-11503660D01*
X10030460Y-11483340D02*
X10010140Y-11503660D01*
X10010140Y-11991340D02*
X10030460Y-12011660D01*
X10030460Y-11991340D02*
X10010140Y-12011660D01*
X10010140Y-13007340D02*
X10030460Y-13027660D01*
X10030460Y-13007340D02*
X10010140Y-13027660D01*
X10010140Y-13515340D02*
X10030460Y-13535660D01*
X10030460Y-13515340D02*
X10010140Y-13535660D01*
X10010140Y-14023340D02*
X10030460Y-14043660D01*
X10030460Y-14023340D02*
X10010140Y-14043660D01*
X10033000Y-11216640D02*
X10053320Y-11236960D01*
X10053320Y-11216640D02*
X10033000Y-11236960D01*
X10109200Y-10723880D02*
X10129520Y-10744200D01*
X10129520Y-10723880D02*
X10109200Y-10744200D01*
X10165080Y-11623040D02*
X10185400Y-11643360D01*
X10185400Y-11623040D02*
X10165080Y-11643360D01*
X10165080Y-11673840D02*
X10185400Y-11694160D01*
X10185400Y-11673840D02*
X10165080Y-11694160D01*
X10215880Y-6593840D02*
X10236200Y-6614160D01*
X10236200Y-6593840D02*
X10215880Y-6614160D01*
X10215880Y-11623040D02*
X10236200Y-11643360D01*
X10236200Y-11623040D02*
X10215880Y-11643360D01*
X10215880Y-11673840D02*
X10236200Y-11694160D01*
X10236200Y-11673840D02*
X10215880Y-11694160D01*
X10292080Y-11028680D02*
X10312400Y-11049000D01*
X10312400Y-11028680D02*
X10292080Y-11049000D01*
X10292080Y-11130280D02*
X10312400Y-11150600D01*
X10312400Y-11130280D02*
X10292080Y-11150600D01*
X10317480Y-12232640D02*
X10337800Y-12252960D01*
X10337800Y-12232640D02*
X10317480Y-12252960D01*
X10332720Y-6797040D02*
X10353040Y-6817360D01*
X10353040Y-6797040D02*
X10332720Y-6817360D01*
X10347960Y-11623040D02*
X10368280Y-11643360D01*
X10368280Y-11623040D02*
X10347960Y-11643360D01*
X10449560Y-12202160D02*
X10469880Y-12222480D01*
X10469880Y-12202160D02*
X10449560Y-12222480D01*
X10459720Y-6050280D02*
X10480040Y-6070600D01*
X10480040Y-6050280D02*
X10459720Y-6070600D01*
X10464800Y-7035800D02*
X10485120Y-7056120D01*
X10485120Y-7035800D02*
X10464800Y-7056120D01*
X10464800Y-7086600D02*
X10485120Y-7106920D01*
X10485120Y-7086600D02*
X10464800Y-7106920D01*
X10495280Y-10988040D02*
X10515600Y-11008360D01*
X10515600Y-10988040D02*
X10495280Y-11008360D01*
X10495280Y-11623040D02*
X10515600Y-11643360D01*
X10515600Y-11623040D02*
X10495280Y-11643360D01*
X10518140Y-5387340D02*
X10538460Y-5407660D01*
X10538460Y-5387340D02*
X10518140Y-5407660D01*
X10518140Y-6911340D02*
X10538460Y-6931660D01*
X10538460Y-6911340D02*
X10518140Y-6931660D01*
X10518140Y-8435340D02*
X10538460Y-8455660D01*
X10538460Y-8435340D02*
X10518140Y-8455660D01*
X10518140Y-8943340D02*
X10538460Y-8963660D01*
X10538460Y-8943340D02*
X10518140Y-8963660D01*
X10518140Y-13007340D02*
X10538460Y-13027660D01*
X10538460Y-13007340D02*
X10518140Y-13027660D01*
X10518140Y-13515340D02*
X10538460Y-13535660D01*
X10538460Y-13515340D02*
X10518140Y-13535660D01*
X10518140Y-14023340D02*
X10538460Y-14043660D01*
X10538460Y-14023340D02*
X10518140Y-14043660D01*
X10518140Y-14480540D02*
X10538460Y-14500860D01*
X10538460Y-14480540D02*
X10518140Y-14500860D01*
X10525760Y-7249160D02*
X10546080Y-7269480D01*
X10546080Y-7249160D02*
X10525760Y-7269480D01*
X10525760Y-7299960D02*
X10546080Y-7320280D01*
X10546080Y-7299960D02*
X10525760Y-7320280D01*
X10525760Y-7350760D02*
X10546080Y-7371080D01*
X10546080Y-7350760D02*
X10525760Y-7371080D01*
X10612120Y-9865360D02*
X10632440Y-9885680D01*
X10632440Y-9865360D02*
X10612120Y-9885680D01*
X10612120Y-9916160D02*
X10632440Y-9936480D01*
X10632440Y-9916160D02*
X10612120Y-9936480D01*
X10612120Y-9966960D02*
X10632440Y-9987280D01*
X10632440Y-9966960D02*
X10612120Y-9987280D01*
X10622280Y-9281160D02*
X10642600Y-9301480D01*
X10642600Y-9281160D02*
X10622280Y-9301480D01*
X10622280Y-9723120D02*
X10642600Y-9743440D01*
X10642600Y-9723120D02*
X10622280Y-9743440D01*
X10622280Y-9763760D02*
X10642600Y-9784080D01*
X10642600Y-9763760D02*
X10622280Y-9784080D01*
X10637520Y-11623040D02*
X10657840Y-11643360D01*
X10657840Y-11623040D02*
X10637520Y-11643360D01*
X10662920Y-9865360D02*
X10683240Y-9885680D01*
X10683240Y-9865360D02*
X10662920Y-9885680D01*
X10662920Y-9916160D02*
X10683240Y-9936480D01*
X10683240Y-9916160D02*
X10662920Y-9936480D01*
X10662920Y-9966960D02*
X10683240Y-9987280D01*
X10683240Y-9966960D02*
X10662920Y-9987280D01*
X10673080Y-9723120D02*
X10693400Y-9743440D01*
X10693400Y-9723120D02*
X10673080Y-9743440D01*
X10673080Y-9763760D02*
X10693400Y-9784080D01*
X10693400Y-9763760D02*
X10673080Y-9784080D01*
X10678160Y-9230360D02*
X10698480Y-9250680D01*
X10698480Y-9230360D02*
X10678160Y-9250680D01*
X10678160Y-9281160D02*
X10698480Y-9301480D01*
X10698480Y-9281160D02*
X10678160Y-9301480D01*
X10723880Y-11003280D02*
X10744200Y-11023600D01*
X10744200Y-11003280D02*
X10723880Y-11023600D01*
X10734040Y-9230360D02*
X10754360Y-9250680D01*
X10754360Y-9230360D02*
X10734040Y-9250680D01*
X10744200Y-10017760D02*
X10764520Y-10038080D01*
X10764520Y-10017760D02*
X10744200Y-10038080D01*
X10744200Y-10165080D02*
X10764520Y-10185400D01*
X10764520Y-10165080D02*
X10744200Y-10185400D01*
X10754360Y-11343640D02*
X10774680Y-11363960D01*
X10774680Y-11343640D02*
X10754360Y-11363960D01*
X10754360Y-11394440D02*
X10774680Y-11414760D01*
X10774680Y-11394440D02*
X10754360Y-11414760D01*
X10805160Y-11343640D02*
X10825480Y-11363960D01*
X10825480Y-11343640D02*
X10805160Y-11363960D01*
X10805160Y-11394440D02*
X10825480Y-11414760D01*
X10825480Y-11394440D02*
X10805160Y-11414760D01*
X10825540Y-9519860D02*
X10845860Y-9540180D01*
X10845860Y-9519860D02*
X10825540Y-9540180D01*
X10850880Y-11104880D02*
X10871200Y-11125200D01*
X10871200Y-11104880D02*
X10850880Y-11125200D01*
X10850880Y-11206480D02*
X10871200Y-11226800D01*
X10871200Y-11206480D02*
X10850880Y-11226800D01*
X10866120Y-12029440D02*
X10886440Y-12049760D01*
X10886440Y-12029440D02*
X10866120Y-12049760D01*
X10922000Y-12029440D02*
X10942320Y-12049760D01*
X10942320Y-12029440D02*
X10922000Y-12049760D01*
X10972800Y-9906000D02*
X10993120Y-9926320D01*
X10993120Y-9906000D02*
X10972800Y-9926320D01*
X10977880Y-7061200D02*
X10998200Y-7081520D01*
X10998200Y-7061200D02*
X10977880Y-7081520D01*
X10977880Y-7112000D02*
X10998200Y-7132320D01*
X10998200Y-7112000D02*
X10977880Y-7132320D01*
X10977880Y-7162800D02*
X10998200Y-7183120D01*
X10998200Y-7162800D02*
X10977880Y-7183120D01*
X10977880Y-7213600D02*
X10998200Y-7233920D01*
X10998200Y-7213600D02*
X10977880Y-7233920D01*
X10977880Y-7264400D02*
X10998200Y-7284720D01*
X10998200Y-7264400D02*
X10977880Y-7284720D01*
X10977880Y-7315200D02*
X10998200Y-7335520D01*
X10998200Y-7315200D02*
X10977880Y-7335520D01*
X11023600Y-9906000D02*
X11043920Y-9926320D01*
X11043920Y-9906000D02*
X11023600Y-9926320D01*
X11026140Y-5387340D02*
X11046460Y-5407660D01*
X11046460Y-5387340D02*
X11026140Y-5407660D01*
X11026140Y-6403340D02*
X11046460Y-6423660D01*
X11046460Y-6403340D02*
X11026140Y-6423660D01*
X11026140Y-7927340D02*
X11046460Y-7947660D01*
X11046460Y-7927340D02*
X11026140Y-7947660D01*
X11026140Y-8943340D02*
X11046460Y-8963660D01*
X11046460Y-8943340D02*
X11026140Y-8963660D01*
X11026140Y-13007340D02*
X11046460Y-13027660D01*
X11046460Y-13007340D02*
X11026140Y-13027660D01*
X11026140Y-13515340D02*
X11046460Y-13535660D01*
X11046460Y-13515340D02*
X11026140Y-13535660D01*
X11026140Y-14023340D02*
X11046460Y-14043660D01*
X11046460Y-14023340D02*
X11026140Y-14043660D01*
X11026140Y-14480540D02*
X11046460Y-14500860D01*
X11046460Y-14480540D02*
X11026140Y-14500860D01*
X11028680Y-7061200D02*
X11049000Y-7081520D01*
X11049000Y-7061200D02*
X11028680Y-7081520D01*
X11028680Y-7112000D02*
X11049000Y-7132320D01*
X11049000Y-7112000D02*
X11028680Y-7132320D01*
X11028680Y-7162800D02*
X11049000Y-7183120D01*
X11049000Y-7162800D02*
X11028680Y-7183120D01*
X11028680Y-7213600D02*
X11049000Y-7233920D01*
X11049000Y-7213600D02*
X11028680Y-7233920D01*
X11028680Y-7264400D02*
X11049000Y-7284720D01*
X11049000Y-7264400D02*
X11028680Y-7284720D01*
X11028680Y-7315200D02*
X11049000Y-7335520D01*
X11049000Y-7315200D02*
X11028680Y-7335520D01*
X11028680Y-7366000D02*
X11049000Y-7386320D01*
X11049000Y-7366000D02*
X11028680Y-7386320D01*
X11079480Y-7061200D02*
X11099800Y-7081520D01*
X11099800Y-7061200D02*
X11079480Y-7081520D01*
X11079480Y-7112000D02*
X11099800Y-7132320D01*
X11099800Y-7112000D02*
X11079480Y-7132320D01*
X11079480Y-7162800D02*
X11099800Y-7183120D01*
X11099800Y-7162800D02*
X11079480Y-7183120D01*
X11079480Y-7213600D02*
X11099800Y-7233920D01*
X11099800Y-7213600D02*
X11079480Y-7233920D01*
X11079480Y-7264400D02*
X11099800Y-7284720D01*
X11099800Y-7264400D02*
X11079480Y-7284720D01*
X11079480Y-7315200D02*
X11099800Y-7335520D01*
X11099800Y-7315200D02*
X11079480Y-7335520D01*
X11079480Y-7366000D02*
X11099800Y-7386320D01*
X11099800Y-7366000D02*
X11079480Y-7386320D01*
X11079480Y-7416800D02*
X11099800Y-7437120D01*
X11099800Y-7416800D02*
X11079480Y-7437120D01*
X11079480Y-7498080D02*
X11099800Y-7518400D01*
X11099800Y-7498080D02*
X11079480Y-7518400D01*
X11079480Y-7548880D02*
X11099800Y-7569200D01*
X11099800Y-7548880D02*
X11079480Y-7569200D01*
X11125200Y-12288520D02*
X11145520Y-12308840D01*
X11145520Y-12288520D02*
X11125200Y-12308840D01*
X11125200Y-12339320D02*
X11145520Y-12359640D01*
X11145520Y-12339320D02*
X11125200Y-12359640D01*
X11125200Y-12390120D02*
X11145520Y-12410440D01*
X11145520Y-12390120D02*
X11125200Y-12410440D01*
X11125200Y-12440920D02*
X11145520Y-12461240D01*
X11145520Y-12440920D02*
X11125200Y-12461240D01*
X11125200Y-12491720D02*
X11145520Y-12512040D01*
X11145520Y-12491720D02*
X11125200Y-12512040D01*
X11130280Y-7061200D02*
X11150600Y-7081520D01*
X11150600Y-7061200D02*
X11130280Y-7081520D01*
X11130280Y-7112000D02*
X11150600Y-7132320D01*
X11150600Y-7112000D02*
X11130280Y-7132320D01*
X11130280Y-7162800D02*
X11150600Y-7183120D01*
X11150600Y-7162800D02*
X11130280Y-7183120D01*
X11130280Y-7213600D02*
X11150600Y-7233920D01*
X11150600Y-7213600D02*
X11130280Y-7233920D01*
X11130280Y-7264400D02*
X11150600Y-7284720D01*
X11150600Y-7264400D02*
X11130280Y-7284720D01*
X11130280Y-7315200D02*
X11150600Y-7335520D01*
X11150600Y-7315200D02*
X11130280Y-7335520D01*
X11130280Y-7366000D02*
X11150600Y-7386320D01*
X11150600Y-7366000D02*
X11130280Y-7386320D01*
X11130280Y-7416800D02*
X11150600Y-7437120D01*
X11150600Y-7416800D02*
X11130280Y-7437120D01*
X11130280Y-7498080D02*
X11150600Y-7518400D01*
X11150600Y-7498080D02*
X11130280Y-7518400D01*
X11130280Y-7548880D02*
X11150600Y-7569200D01*
X11150600Y-7548880D02*
X11130280Y-7569200D01*
X11150600Y-8773160D02*
X11170920Y-8793480D01*
X11170920Y-8773160D02*
X11150600Y-8793480D01*
X11216640Y-10271760D02*
X11236960Y-10292080D01*
X11236960Y-10271760D02*
X11216640Y-10292080D01*
X11374120Y-8437880D02*
X11394440Y-8458200D01*
X11394440Y-8437880D02*
X11374120Y-8458200D01*
X11384280Y-8905240D02*
X11404600Y-8925560D01*
X11404600Y-8905240D02*
X11384280Y-8925560D01*
X11430000Y-6060440D02*
X11450320Y-6080760D01*
X11450320Y-6060440D02*
X11430000Y-6080760D01*
X11430000Y-6111240D02*
X11450320Y-6131560D01*
X11450320Y-6111240D02*
X11430000Y-6131560D01*
X11430000Y-6162040D02*
X11450320Y-6182360D01*
X11450320Y-6162040D02*
X11430000Y-6182360D01*
X11430000Y-6212840D02*
X11450320Y-6233160D01*
X11450320Y-6212840D02*
X11430000Y-6233160D01*
X11430000Y-6263640D02*
X11450320Y-6283960D01*
X11450320Y-6263640D02*
X11430000Y-6283960D01*
X11430000Y-6314440D02*
X11450320Y-6334760D01*
X11450320Y-6314440D02*
X11430000Y-6334760D01*
X11432540Y-10975340D02*
X11452860Y-10995660D01*
X11452860Y-10975340D02*
X11432540Y-10995660D01*
X11450320Y-8905240D02*
X11470640Y-8925560D01*
X11470640Y-8905240D02*
X11450320Y-8925560D01*
X11480800Y-6060440D02*
X11501120Y-6080760D01*
X11501120Y-6060440D02*
X11480800Y-6080760D01*
X11480800Y-6111240D02*
X11501120Y-6131560D01*
X11501120Y-6111240D02*
X11480800Y-6131560D01*
X11480800Y-6162040D02*
X11501120Y-6182360D01*
X11501120Y-6162040D02*
X11480800Y-6182360D01*
X11480800Y-6212840D02*
X11501120Y-6233160D01*
X11501120Y-6212840D02*
X11480800Y-6233160D01*
X11480800Y-6263640D02*
X11501120Y-6283960D01*
X11501120Y-6263640D02*
X11480800Y-6283960D01*
X11480800Y-6314440D02*
X11501120Y-6334760D01*
X11501120Y-6314440D02*
X11480800Y-6334760D01*
X11506200Y-12293600D02*
X11526520Y-12313920D01*
X11526520Y-12293600D02*
X11506200Y-12313920D01*
X11506200Y-12344400D02*
X11526520Y-12364720D01*
X11526520Y-12344400D02*
X11506200Y-12364720D01*
X11506200Y-12395200D02*
X11526520Y-12415520D01*
X11526520Y-12395200D02*
X11506200Y-12415520D01*
X11506200Y-12446000D02*
X11526520Y-12466320D01*
X11526520Y-12446000D02*
X11506200Y-12466320D01*
X11506200Y-12496800D02*
X11526520Y-12517120D01*
X11526520Y-12496800D02*
X11506200Y-12517120D01*
X11506200Y-12547600D02*
X11526520Y-12567920D01*
X11526520Y-12547600D02*
X11506200Y-12567920D01*
X11534140Y-5387340D02*
X11554460Y-5407660D01*
X11554460Y-5387340D02*
X11534140Y-5407660D01*
X11534140Y-5895340D02*
X11554460Y-5915660D01*
X11554460Y-5895340D02*
X11534140Y-5915660D01*
X11534140Y-6403340D02*
X11554460Y-6423660D01*
X11554460Y-6403340D02*
X11534140Y-6423660D01*
X11534140Y-8943340D02*
X11554460Y-8963660D01*
X11554460Y-8943340D02*
X11534140Y-8963660D01*
X11534140Y-9959340D02*
X11554460Y-9979660D01*
X11554460Y-9959340D02*
X11534140Y-9979660D01*
X11534140Y-11483340D02*
X11554460Y-11503660D01*
X11554460Y-11483340D02*
X11534140Y-11503660D01*
X11534140Y-11991340D02*
X11554460Y-12011660D01*
X11554460Y-11991340D02*
X11534140Y-12011660D01*
X11534140Y-13515340D02*
X11554460Y-13535660D01*
X11554460Y-13515340D02*
X11534140Y-13535660D01*
X11534140Y-14480540D02*
X11554460Y-14500860D01*
X11554460Y-14480540D02*
X11534140Y-14500860D01*
X11653520Y-7061200D02*
X11673840Y-7081520D01*
X11673840Y-7061200D02*
X11653520Y-7081520D01*
X11653520Y-7112000D02*
X11673840Y-7132320D01*
X11673840Y-7112000D02*
X11653520Y-7132320D01*
X11689080Y-9215120D02*
X11709400Y-9235440D01*
X11709400Y-9215120D02*
X11689080Y-9235440D01*
X11689080Y-9392920D02*
X11709400Y-9413240D01*
X11709400Y-9392920D02*
X11689080Y-9413240D01*
X11689080Y-9555480D02*
X11709400Y-9575800D01*
X11709400Y-9555480D02*
X11689080Y-9575800D01*
X11689080Y-9733280D02*
X11709400Y-9753600D01*
X11709400Y-9733280D02*
X11689080Y-9753600D01*
X11704320Y-7061200D02*
X11724640Y-7081520D01*
X11724640Y-7061200D02*
X11704320Y-7081520D01*
X11704320Y-7112000D02*
X11724640Y-7132320D01*
X11724640Y-7112000D02*
X11704320Y-7132320D01*
X11724640Y-8651240D02*
X11744960Y-8671560D01*
X11744960Y-8651240D02*
X11724640Y-8671560D01*
X11729720Y-8864600D02*
X11750040Y-8884920D01*
X11750040Y-8864600D02*
X11729720Y-8884920D01*
X11755120Y-7061200D02*
X11775440Y-7081520D01*
X11775440Y-7061200D02*
X11755120Y-7081520D01*
X11755120Y-7112000D02*
X11775440Y-7132320D01*
X11775440Y-7112000D02*
X11755120Y-7132320D01*
X11775440Y-10850880D02*
X11795760Y-10871200D01*
X11795760Y-10850880D02*
X11775440Y-10871200D01*
X11785600Y-6065520D02*
X11805920Y-6085840D01*
X11805920Y-6065520D02*
X11785600Y-6085840D01*
X11785600Y-6116320D02*
X11805920Y-6136640D01*
X11805920Y-6116320D02*
X11785600Y-6136640D01*
X11785600Y-6167120D02*
X11805920Y-6187440D01*
X11805920Y-6167120D02*
X11785600Y-6187440D01*
X11785600Y-6217920D02*
X11805920Y-6238240D01*
X11805920Y-6217920D02*
X11785600Y-6238240D01*
X11785600Y-6268720D02*
X11805920Y-6289040D01*
X11805920Y-6268720D02*
X11785600Y-6289040D01*
X11785600Y-6319520D02*
X11805920Y-6339840D01*
X11805920Y-6319520D02*
X11785600Y-6339840D01*
X11831320Y-8458200D02*
X11851640Y-8478520D01*
X11851640Y-8458200D02*
X11831320Y-8478520D01*
X11836400Y-6065520D02*
X11856720Y-6085840D01*
X11856720Y-6065520D02*
X11836400Y-6085840D01*
X11836400Y-6116320D02*
X11856720Y-6136640D01*
X11856720Y-6116320D02*
X11836400Y-6136640D01*
X11836400Y-6167120D02*
X11856720Y-6187440D01*
X11856720Y-6167120D02*
X11836400Y-6187440D01*
X11836400Y-6217920D02*
X11856720Y-6238240D01*
X11856720Y-6217920D02*
X11836400Y-6238240D01*
X11836400Y-6268720D02*
X11856720Y-6289040D01*
X11856720Y-6268720D02*
X11836400Y-6289040D01*
X11836400Y-6319520D02*
X11856720Y-6339840D01*
X11856720Y-6319520D02*
X11836400Y-6339840D01*
X11861800Y-9215120D02*
X11882120Y-9235440D01*
X11882120Y-9215120D02*
X11861800Y-9235440D01*
X11861800Y-9392920D02*
X11882120Y-9413240D01*
X11882120Y-9392920D02*
X11861800Y-9413240D01*
X11861800Y-9555480D02*
X11882120Y-9575800D01*
X11882120Y-9555480D02*
X11861800Y-9575800D01*
X11861800Y-9733280D02*
X11882120Y-9753600D01*
X11882120Y-9733280D02*
X11861800Y-9753600D01*
X11861800Y-10673080D02*
X11882120Y-10693400D01*
X11882120Y-10673080D02*
X11861800Y-10693400D01*
X11861800Y-14452600D02*
X11882120Y-14472920D01*
X11882120Y-14452600D02*
X11861800Y-14472920D01*
X11887200Y-8524240D02*
X11907520Y-8544560D01*
X11907520Y-8524240D02*
X11887200Y-8544560D01*
X11887200Y-8864600D02*
X11907520Y-8884920D01*
X11907520Y-8864600D02*
X11887200Y-8884920D01*
X11912600Y-14452600D02*
X11932920Y-14472920D01*
X11932920Y-14452600D02*
X11912600Y-14472920D01*
X11963400Y-14452600D02*
X11983720Y-14472920D01*
X11983720Y-14452600D02*
X11963400Y-14472920D01*
X12024360Y-9215120D02*
X12044680Y-9235440D01*
X12044680Y-9215120D02*
X12024360Y-9235440D01*
X12024360Y-9555480D02*
X12044680Y-9575800D01*
X12044680Y-9555480D02*
X12024360Y-9575800D01*
X12029440Y-9387840D02*
X12049760Y-9408160D01*
X12049760Y-9387840D02*
X12029440Y-9408160D01*
X12029440Y-9733280D02*
X12049760Y-9753600D01*
X12049760Y-9733280D02*
X12029440Y-9753600D01*
X12042140Y-4879340D02*
X12062460Y-4899660D01*
X12062460Y-4879340D02*
X12042140Y-4899660D01*
X12042140Y-5387340D02*
X12062460Y-5407660D01*
X12062460Y-5387340D02*
X12042140Y-5407660D01*
X12042140Y-5895340D02*
X12062460Y-5915660D01*
X12062460Y-5895340D02*
X12042140Y-5915660D01*
X12042140Y-6403340D02*
X12062460Y-6423660D01*
X12062460Y-6403340D02*
X12042140Y-6423660D01*
X12065000Y-5552440D02*
X12085320Y-5572760D01*
X12085320Y-5552440D02*
X12065000Y-5572760D01*
X12065000Y-5603240D02*
X12085320Y-5623560D01*
X12085320Y-5603240D02*
X12065000Y-5623560D01*
X12115800Y-5552440D02*
X12136120Y-5572760D01*
X12136120Y-5552440D02*
X12115800Y-5572760D01*
X12115800Y-5603240D02*
X12136120Y-5623560D01*
X12136120Y-5603240D02*
X12115800Y-5623560D01*
X12131040Y-8864600D02*
X12151360Y-8884920D01*
X12151360Y-8864600D02*
X12131040Y-8884920D01*
X12166600Y-5552440D02*
X12186920Y-5572760D01*
X12186920Y-5552440D02*
X12166600Y-5572760D01*
X12166600Y-5603240D02*
X12186920Y-5623560D01*
X12186920Y-5603240D02*
X12166600Y-5623560D01*
X12207240Y-9215120D02*
X12227560Y-9235440D01*
X12227560Y-9215120D02*
X12207240Y-9235440D01*
X12207240Y-9392920D02*
X12227560Y-9413240D01*
X12227560Y-9392920D02*
X12207240Y-9413240D01*
X12207240Y-9555480D02*
X12227560Y-9575800D01*
X12227560Y-9555480D02*
X12207240Y-9575800D01*
X12207240Y-9733280D02*
X12227560Y-9753600D01*
X12227560Y-9733280D02*
X12207240Y-9753600D01*
X12212320Y-8864600D02*
X12232640Y-8884920D01*
X12232640Y-8864600D02*
X12212320Y-8884920D01*
X12217400Y-5552440D02*
X12237720Y-5572760D01*
X12237720Y-5552440D02*
X12217400Y-5572760D01*
X12217400Y-5603240D02*
X12237720Y-5623560D01*
X12237720Y-5603240D02*
X12217400Y-5623560D01*
X12268200Y-5552440D02*
X12288520Y-5572760D01*
X12288520Y-5552440D02*
X12268200Y-5572760D01*
X12268200Y-5603240D02*
X12288520Y-5623560D01*
X12288520Y-5603240D02*
X12268200Y-5623560D01*
X12283440Y-6720840D02*
X12303760Y-6741160D01*
X12303760Y-6720840D02*
X12283440Y-6741160D01*
X12283440Y-6771640D02*
X12303760Y-6791960D01*
X12303760Y-6771640D02*
X12283440Y-6791960D01*
X12283440Y-6822440D02*
X12303760Y-6842760D01*
X12303760Y-6822440D02*
X12283440Y-6842760D01*
X12319000Y-5552440D02*
X12339320Y-5572760D01*
X12339320Y-5552440D02*
X12319000Y-5572760D01*
X12319000Y-5603240D02*
X12339320Y-5623560D01*
X12339320Y-5603240D02*
X12319000Y-5623560D01*
X12321540Y-6682740D02*
X12341860Y-6703060D01*
X12341860Y-6682740D02*
X12321540Y-6703060D01*
X12324080Y-10281920D02*
X12344400Y-10302240D01*
X12344400Y-10281920D02*
X12324080Y-10302240D01*
X12334240Y-6746240D02*
X12354560Y-6766560D01*
X12354560Y-6746240D02*
X12334240Y-6766560D01*
X12354560Y-10911840D02*
X12374880Y-10932160D01*
X12374880Y-10911840D02*
X12354560Y-10932160D01*
X12359640Y-6644640D02*
X12379960Y-6664960D01*
X12379960Y-6644640D02*
X12359640Y-6664960D01*
X12372340Y-6708140D02*
X12392660Y-6728460D01*
X12392660Y-6708140D02*
X12372340Y-6728460D01*
X12397740Y-6606540D02*
X12418060Y-6626860D01*
X12418060Y-6606540D02*
X12397740Y-6626860D01*
X12410440Y-6670040D02*
X12430760Y-6690360D01*
X12430760Y-6670040D02*
X12410440Y-6690360D01*
X12410440Y-6995160D02*
X12430760Y-7015480D01*
X12430760Y-6995160D02*
X12410440Y-7015480D01*
X12435840Y-11617960D02*
X12456160Y-11638280D01*
X12456160Y-11617960D02*
X12435840Y-11638280D01*
X12448540Y-6581140D02*
X12468860Y-6601460D01*
X12468860Y-6581140D02*
X12448540Y-6601460D01*
X12448540Y-6631940D02*
X12468860Y-6652260D01*
X12468860Y-6631940D02*
X12448540Y-6652260D01*
X12461240Y-6944360D02*
X12481560Y-6964680D01*
X12481560Y-6944360D02*
X12461240Y-6964680D01*
X12461240Y-6995160D02*
X12481560Y-7015480D01*
X12481560Y-6995160D02*
X12461240Y-7015480D01*
X12506960Y-10937240D02*
X12527280Y-10957560D01*
X12527280Y-10937240D02*
X12506960Y-10957560D01*
X12512040Y-6893560D02*
X12532360Y-6913880D01*
X12532360Y-6893560D02*
X12512040Y-6913880D01*
X12512040Y-6944360D02*
X12532360Y-6964680D01*
X12532360Y-6944360D02*
X12512040Y-6964680D01*
X12512040Y-6995160D02*
X12532360Y-7015480D01*
X12532360Y-6995160D02*
X12512040Y-7015480D01*
X12542520Y-10596880D02*
X12562840Y-10617200D01*
X12562840Y-10596880D02*
X12542520Y-10617200D01*
X12550140Y-4879340D02*
X12570460Y-4899660D01*
X12570460Y-4879340D02*
X12550140Y-4899660D01*
X12550140Y-5387340D02*
X12570460Y-5407660D01*
X12570460Y-5387340D02*
X12550140Y-5407660D01*
X12550140Y-12499340D02*
X12570460Y-12519660D01*
X12570460Y-12499340D02*
X12550140Y-12519660D01*
X12550140Y-13007340D02*
X12570460Y-13027660D01*
X12570460Y-13007340D02*
X12550140Y-13027660D01*
X12550140Y-14480540D02*
X12570460Y-14500860D01*
X12570460Y-14480540D02*
X12550140Y-14500860D01*
X12562840Y-6842760D02*
X12583160Y-6863080D01*
X12583160Y-6842760D02*
X12562840Y-6863080D01*
X12562840Y-6893560D02*
X12583160Y-6913880D01*
X12583160Y-6893560D02*
X12562840Y-6913880D01*
X12562840Y-6944360D02*
X12583160Y-6964680D01*
X12583160Y-6944360D02*
X12562840Y-6964680D01*
X12562840Y-6995160D02*
X12583160Y-7015480D01*
X12583160Y-6995160D02*
X12562840Y-7015480D01*
X12567920Y-8849360D02*
X12588240Y-8869680D01*
X12588240Y-8849360D02*
X12567920Y-8869680D01*
X12700000Y-10596880D02*
X12720320Y-10617200D01*
X12720320Y-10596880D02*
X12700000Y-10617200D01*
X12745720Y-8712200D02*
X12766040Y-8732520D01*
X12766040Y-8712200D02*
X12745720Y-8732520D01*
X12745720Y-8763000D02*
X12766040Y-8783320D01*
X12766040Y-8763000D02*
X12745720Y-8783320D01*
X12755880Y-8981440D02*
X12776200Y-9001760D01*
X12776200Y-8981440D02*
X12755880Y-9001760D01*
X12755880Y-9032240D02*
X12776200Y-9052560D01*
X12776200Y-9032240D02*
X12755880Y-9052560D01*
X12776200Y-8097520D02*
X12796520Y-8117840D01*
X12796520Y-8097520D02*
X12776200Y-8117840D01*
X12776200Y-8148320D02*
X12796520Y-8168640D01*
X12796520Y-8148320D02*
X12776200Y-8168640D01*
X12776200Y-8199120D02*
X12796520Y-8219440D01*
X12796520Y-8199120D02*
X12776200Y-8219440D01*
X12776200Y-8249920D02*
X12796520Y-8270240D01*
X12796520Y-8249920D02*
X12776200Y-8270240D01*
X12776200Y-8300720D02*
X12796520Y-8321040D01*
X12796520Y-8300720D02*
X12776200Y-8321040D01*
X12776200Y-8351520D02*
X12796520Y-8371840D01*
X12796520Y-8351520D02*
X12776200Y-8371840D01*
X12776200Y-8402320D02*
X12796520Y-8422640D01*
X12796520Y-8402320D02*
X12776200Y-8422640D01*
X12776200Y-8453120D02*
X12796520Y-8473440D01*
X12796520Y-8453120D02*
X12776200Y-8473440D01*
X12781280Y-9276080D02*
X12801600Y-9296400D01*
X12801600Y-9276080D02*
X12781280Y-9296400D01*
X12781280Y-9377680D02*
X12801600Y-9398000D01*
X12801600Y-9377680D02*
X12781280Y-9398000D01*
X12781280Y-9479280D02*
X12801600Y-9499600D01*
X12801600Y-9479280D02*
X12781280Y-9499600D01*
X12781280Y-9580880D02*
X12801600Y-9601200D01*
X12801600Y-9580880D02*
X12781280Y-9601200D01*
X12781280Y-9682480D02*
X12801600Y-9702800D01*
X12801600Y-9682480D02*
X12781280Y-9702800D01*
X12781280Y-9784080D02*
X12801600Y-9804400D01*
X12801600Y-9784080D02*
X12781280Y-9804400D01*
X12781280Y-9900920D02*
X12801600Y-9921240D01*
X12801600Y-9900920D02*
X12781280Y-9921240D01*
X12781280Y-10088880D02*
X12801600Y-10109200D01*
X12801600Y-10088880D02*
X12781280Y-10109200D01*
X12796520Y-8712200D02*
X12816840Y-8732520D01*
X12816840Y-8712200D02*
X12796520Y-8732520D01*
X12796520Y-8763000D02*
X12816840Y-8783320D01*
X12816840Y-8763000D02*
X12796520Y-8783320D01*
X12806680Y-8930640D02*
X12827000Y-8950960D01*
X12827000Y-8930640D02*
X12806680Y-8950960D01*
X12806680Y-8981440D02*
X12827000Y-9001760D01*
X12827000Y-8981440D02*
X12806680Y-9001760D01*
X12827000Y-8097520D02*
X12847320Y-8117840D01*
X12847320Y-8097520D02*
X12827000Y-8117840D01*
X12827000Y-8148320D02*
X12847320Y-8168640D01*
X12847320Y-8148320D02*
X12827000Y-8168640D01*
X12827000Y-8199120D02*
X12847320Y-8219440D01*
X12847320Y-8199120D02*
X12827000Y-8219440D01*
X12827000Y-8249920D02*
X12847320Y-8270240D01*
X12847320Y-8249920D02*
X12827000Y-8270240D01*
X12827000Y-8300720D02*
X12847320Y-8321040D01*
X12847320Y-8300720D02*
X12827000Y-8321040D01*
X12827000Y-8351520D02*
X12847320Y-8371840D01*
X12847320Y-8351520D02*
X12827000Y-8371840D01*
X12827000Y-8402320D02*
X12847320Y-8422640D01*
X12847320Y-8402320D02*
X12827000Y-8422640D01*
X12827000Y-8453120D02*
X12847320Y-8473440D01*
X12847320Y-8453120D02*
X12827000Y-8473440D01*
X12827000Y-10911840D02*
X12847320Y-10932160D01*
X12847320Y-10911840D02*
X12827000Y-10932160D01*
X12837160Y-6593840D02*
X12857480Y-6614160D01*
X12857480Y-6593840D02*
X12837160Y-6614160D01*
X12847320Y-8600440D02*
X12867640Y-8620760D01*
X12867640Y-8600440D02*
X12847320Y-8620760D01*
X12847320Y-8651240D02*
X12867640Y-8671560D01*
X12867640Y-8651240D02*
X12847320Y-8671560D01*
X12847320Y-9118600D02*
X12867640Y-9138920D01*
X12867640Y-9118600D02*
X12847320Y-9138920D01*
X12857480Y-8874760D02*
X12877800Y-8895080D01*
X12877800Y-8874760D02*
X12857480Y-8895080D01*
X12857480Y-8925560D02*
X12877800Y-8945880D01*
X12877800Y-8925560D02*
X12857480Y-8945880D01*
X12887960Y-6593840D02*
X12908280Y-6614160D01*
X12908280Y-6593840D02*
X12887960Y-6614160D01*
X12898120Y-8600440D02*
X12918440Y-8620760D01*
X12918440Y-8600440D02*
X12898120Y-8620760D01*
X12898120Y-8651240D02*
X12918440Y-8671560D01*
X12918440Y-8651240D02*
X12898120Y-8671560D01*
X12913360Y-11617960D02*
X12933680Y-11638280D01*
X12933680Y-11617960D02*
X12913360Y-11638280D01*
X12938760Y-6593840D02*
X12959080Y-6614160D01*
X12959080Y-6593840D02*
X12938760Y-6614160D01*
X12974320Y-8453120D02*
X12994640Y-8473440D01*
X12994640Y-8453120D02*
X12974320Y-8473440D01*
X12979400Y-10937240D02*
X12999720Y-10957560D01*
X12999720Y-10937240D02*
X12979400Y-10957560D01*
X12989560Y-6593840D02*
X13009880Y-6614160D01*
X13009880Y-6593840D02*
X12989560Y-6614160D01*
X13002260Y-8745220D02*
X13022580Y-8765540D01*
X13022580Y-8745220D02*
X13002260Y-8765540D01*
X13040360Y-6593840D02*
X13060680Y-6614160D01*
X13060680Y-6593840D02*
X13040360Y-6614160D01*
X13050520Y-8503920D02*
X13070840Y-8524240D01*
X13070840Y-8503920D02*
X13050520Y-8524240D01*
X13058140Y-4879340D02*
X13078460Y-4899660D01*
X13078460Y-4879340D02*
X13058140Y-4899660D01*
X13058140Y-10467340D02*
X13078460Y-10487660D01*
X13078460Y-10467340D02*
X13058140Y-10487660D01*
X13058140Y-12499340D02*
X13078460Y-12519660D01*
X13078460Y-12499340D02*
X13058140Y-12519660D01*
X13058140Y-13007340D02*
X13078460Y-13027660D01*
X13078460Y-13007340D02*
X13058140Y-13027660D01*
X13058140Y-14480540D02*
X13078460Y-14500860D01*
X13078460Y-14480540D02*
X13058140Y-14500860D01*
X13147040Y-6606540D02*
X13167360Y-6626860D01*
X13167360Y-6606540D02*
X13147040Y-6626860D01*
X13147040Y-6657340D02*
X13167360Y-6677660D01*
X13167360Y-6657340D02*
X13147040Y-6677660D01*
X13172440Y-8816340D02*
X13192760Y-8836660D01*
X13192760Y-8816340D02*
X13172440Y-8836660D01*
X13197840Y-6581140D02*
X13218160Y-6601460D01*
X13218160Y-6581140D02*
X13197840Y-6601460D01*
X13197840Y-6631940D02*
X13218160Y-6652260D01*
X13218160Y-6631940D02*
X13197840Y-6652260D01*
X13197840Y-6682740D02*
X13218160Y-6703060D01*
X13218160Y-6682740D02*
X13197840Y-6703060D01*
X13197840Y-7807960D02*
X13218160Y-7828280D01*
X13218160Y-7807960D02*
X13197840Y-7828280D01*
X13197840Y-8295640D02*
X13218160Y-8315960D01*
X13218160Y-8295640D02*
X13197840Y-8315960D01*
X13248640Y-6606540D02*
X13268960Y-6626860D01*
X13268960Y-6606540D02*
X13248640Y-6626860D01*
X13248640Y-6657340D02*
X13268960Y-6677660D01*
X13268960Y-6657340D02*
X13248640Y-6677660D01*
X13274040Y-6827520D02*
X13294360Y-6847840D01*
X13294360Y-6827520D02*
X13274040Y-6847840D01*
X13304520Y-10911840D02*
X13324840Y-10932160D01*
X13324840Y-10911840D02*
X13304520Y-10932160D01*
X13319760Y-6852920D02*
X13340080Y-6873240D01*
X13340080Y-6852920D02*
X13319760Y-6873240D01*
X13319760Y-7106920D02*
X13340080Y-7127240D01*
X13340080Y-7106920D02*
X13319760Y-7127240D01*
X13319760Y-7157720D02*
X13340080Y-7178040D01*
X13340080Y-7157720D02*
X13319760Y-7178040D01*
X13370560Y-6852920D02*
X13390880Y-6873240D01*
X13390880Y-6852920D02*
X13370560Y-6873240D01*
X13370560Y-7106920D02*
X13390880Y-7127240D01*
X13390880Y-7106920D02*
X13370560Y-7127240D01*
X13370560Y-7157720D02*
X13390880Y-7178040D01*
X13390880Y-7157720D02*
X13370560Y-7178040D01*
X13390880Y-11617960D02*
X13411200Y-11638280D01*
X13411200Y-11617960D02*
X13390880Y-11638280D01*
X13406120Y-6314440D02*
X13426440Y-6334760D01*
X13426440Y-6314440D02*
X13406120Y-6334760D01*
X13421360Y-7106920D02*
X13441680Y-7127240D01*
X13441680Y-7106920D02*
X13421360Y-7127240D01*
X13421360Y-7157720D02*
X13441680Y-7178040D01*
X13441680Y-7157720D02*
X13421360Y-7178040D01*
X13451840Y-10937240D02*
X13472160Y-10957560D01*
X13472160Y-10937240D02*
X13451840Y-10957560D01*
X13467080Y-8326120D02*
X13487400Y-8346440D01*
X13487400Y-8326120D02*
X13467080Y-8346440D01*
X13467080Y-8376920D02*
X13487400Y-8397240D01*
X13487400Y-8376920D02*
X13467080Y-8397240D01*
X13517880Y-8326120D02*
X13538200Y-8346440D01*
X13538200Y-8326120D02*
X13517880Y-8346440D01*
X13517880Y-8376920D02*
X13538200Y-8397240D01*
X13538200Y-8376920D02*
X13517880Y-8397240D01*
X13566140Y-10467340D02*
X13586460Y-10487660D01*
X13586460Y-10467340D02*
X13566140Y-10487660D01*
X13566140Y-12499340D02*
X13586460Y-12519660D01*
X13586460Y-12499340D02*
X13566140Y-12519660D01*
X13566140Y-13007340D02*
X13586460Y-13027660D01*
X13586460Y-13007340D02*
X13566140Y-13027660D01*
X13566140Y-13515340D02*
X13586460Y-13535660D01*
X13586460Y-13515340D02*
X13566140Y-13535660D01*
X13566140Y-14023340D02*
X13586460Y-14043660D01*
X13586460Y-14023340D02*
X13566140Y-14043660D01*
X13566140Y-14480540D02*
X13586460Y-14500860D01*
X13586460Y-14480540D02*
X13566140Y-14500860D01*
X13568680Y-8326120D02*
X13589000Y-8346440D01*
X13589000Y-8326120D02*
X13568680Y-8346440D01*
X13568680Y-8376920D02*
X13589000Y-8397240D01*
X13589000Y-8376920D02*
X13568680Y-8397240D01*
X13624560Y-7030720D02*
X13644880Y-7051040D01*
X13644880Y-7030720D02*
X13624560Y-7051040D01*
X13675360Y-7030720D02*
X13695680Y-7051040D01*
X13695680Y-7030720D02*
X13675360Y-7051040D01*
X13680440Y-6350000D02*
X13700760Y-6370320D01*
X13700760Y-6350000D02*
X13680440Y-6370320D01*
X13680440Y-6400800D02*
X13700760Y-6421120D01*
X13700760Y-6400800D02*
X13680440Y-6421120D01*
X13700760Y-8585200D02*
X13721080Y-8605520D01*
X13721080Y-8585200D02*
X13700760Y-8605520D01*
X13700760Y-8691880D02*
X13721080Y-8712200D01*
X13721080Y-8691880D02*
X13700760Y-8712200D01*
X13726160Y-7030720D02*
X13746480Y-7051040D01*
X13746480Y-7030720D02*
X13726160Y-7051040D01*
X13731240Y-6350000D02*
X13751560Y-6370320D01*
X13751560Y-6350000D02*
X13731240Y-6370320D01*
X13731240Y-6400800D02*
X13751560Y-6421120D01*
X13751560Y-6400800D02*
X13731240Y-6421120D01*
X13771880Y-7371080D02*
X13792200Y-7391400D01*
X13792200Y-7371080D02*
X13771880Y-7391400D01*
X13771880Y-7421880D02*
X13792200Y-7442200D01*
X13792200Y-7421880D02*
X13771880Y-7442200D01*
X13782040Y-6350000D02*
X13802360Y-6370320D01*
X13802360Y-6350000D02*
X13782040Y-6370320D01*
X13782040Y-6400800D02*
X13802360Y-6421120D01*
X13802360Y-6400800D02*
X13782040Y-6421120D01*
X13822680Y-6985000D02*
X13843000Y-7005320D01*
X13843000Y-6985000D02*
X13822680Y-7005320D01*
X13822680Y-7371080D02*
X13843000Y-7391400D01*
X13843000Y-7371080D02*
X13822680Y-7391400D01*
X13822680Y-7421880D02*
X13843000Y-7442200D01*
X13843000Y-7421880D02*
X13822680Y-7442200D01*
X13873480Y-8412480D02*
X13893800Y-8432800D01*
X13893800Y-8412480D02*
X13873480Y-8432800D01*
X13873480Y-8691880D02*
X13893800Y-8712200D01*
X13893800Y-8691880D02*
X13873480Y-8712200D01*
X14074140Y-4879340D02*
X14094460Y-4899660D01*
X14094460Y-4879340D02*
X14074140Y-4899660D01*
X14074140Y-6403340D02*
X14094460Y-6423660D01*
X14094460Y-6403340D02*
X14074140Y-6423660D01*
X14074140Y-8943340D02*
X14094460Y-8963660D01*
X14094460Y-8943340D02*
X14074140Y-8963660D01*
X14074140Y-9451340D02*
X14094460Y-9471660D01*
X14094460Y-9451340D02*
X14074140Y-9471660D01*
X14074140Y-9959340D02*
X14094460Y-9979660D01*
X14094460Y-9959340D02*
X14074140Y-9979660D01*
X14074140Y-10467340D02*
X14094460Y-10487660D01*
X14094460Y-10467340D02*
X14074140Y-10487660D01*
X14074140Y-10975340D02*
X14094460Y-10995660D01*
X14094460Y-10975340D02*
X14074140Y-10995660D01*
X14074140Y-11483340D02*
X14094460Y-11503660D01*
X14094460Y-11483340D02*
X14074140Y-11503660D01*
X14074140Y-13515340D02*
X14094460Y-13535660D01*
X14094460Y-13515340D02*
X14074140Y-13535660D01*
X14074140Y-14023340D02*
X14094460Y-14043660D01*
X14094460Y-14023340D02*
X14074140Y-14043660D01*
X14074140Y-14480540D02*
X14094460Y-14500860D01*
X14094460Y-14480540D02*
X14074140Y-14500860D01*
X14086840Y-12461240D02*
X14107160Y-12481560D01*
X14107160Y-12461240D02*
X14086840Y-12481560D01*
X14107160Y-12115800D02*
X14127480Y-12136120D01*
X14127480Y-12115800D02*
X14107160Y-12136120D01*
X14117320Y-13111480D02*
X14137640Y-13131800D01*
X14137640Y-13111480D02*
X14117320Y-13131800D01*
X14117320Y-13162280D02*
X14137640Y-13182600D01*
X14137640Y-13162280D02*
X14117320Y-13182600D01*
X14157960Y-12115800D02*
X14178280Y-12136120D01*
X14178280Y-12115800D02*
X14157960Y-12136120D01*
X14208760Y-12115800D02*
X14229080Y-12136120D01*
X14229080Y-12115800D02*
X14208760Y-12136120D01*
X14239240Y-7096760D02*
X14259560Y-7117080D01*
X14259560Y-7096760D02*
X14239240Y-7117080D01*
X14239240Y-7147560D02*
X14259560Y-7167880D01*
X14259560Y-7147560D02*
X14239240Y-7167880D01*
X14239240Y-7198360D02*
X14259560Y-7218680D01*
X14259560Y-7198360D02*
X14239240Y-7218680D01*
X14239240Y-12461240D02*
X14259560Y-12481560D01*
X14259560Y-12461240D02*
X14239240Y-12481560D01*
X14259560Y-12115800D02*
X14279880Y-12136120D01*
X14279880Y-12115800D02*
X14259560Y-12136120D01*
X14290040Y-7096760D02*
X14310360Y-7117080D01*
X14310360Y-7096760D02*
X14290040Y-7117080D01*
X14290040Y-7147560D02*
X14310360Y-7167880D01*
X14310360Y-7147560D02*
X14290040Y-7167880D01*
X14290040Y-7198360D02*
X14310360Y-7218680D01*
X14310360Y-7198360D02*
X14290040Y-7218680D01*
X14310360Y-12115800D02*
X14330680Y-12136120D01*
X14330680Y-12115800D02*
X14310360Y-12136120D01*
X14582140Y-6403340D02*
X14602460Y-6423660D01*
X14602460Y-6403340D02*
X14582140Y-6423660D01*
X14582140Y-6911340D02*
X14602460Y-6931660D01*
X14602460Y-6911340D02*
X14582140Y-6931660D01*
X14582140Y-7419340D02*
X14602460Y-7439660D01*
X14602460Y-7419340D02*
X14582140Y-7439660D01*
X14582140Y-7927340D02*
X14602460Y-7947660D01*
X14602460Y-7927340D02*
X14582140Y-7947660D01*
X14582140Y-8435340D02*
X14602460Y-8455660D01*
X14602460Y-8435340D02*
X14582140Y-8455660D01*
X14582140Y-8943340D02*
X14602460Y-8963660D01*
X14602460Y-8943340D02*
X14582140Y-8963660D01*
X14582140Y-9451340D02*
X14602460Y-9471660D01*
X14602460Y-9451340D02*
X14582140Y-9471660D01*
X14582140Y-9959340D02*
X14602460Y-9979660D01*
X14602460Y-9959340D02*
X14582140Y-9979660D01*
X14582140Y-14023340D02*
X14602460Y-14043660D01*
X14602460Y-14023340D02*
X14582140Y-14043660D01*
X14582140Y-14480540D02*
X14602460Y-14500860D01*
X14602460Y-14480540D02*
X14582140Y-14500860D01*
X14625320Y-12217400D02*
X14645640Y-12237720D01*
X14645640Y-12217400D02*
X14625320Y-12237720D01*
X14798040Y-10485120D02*
X14818360Y-10505440D01*
X14818360Y-10485120D02*
X14798040Y-10505440D01*
X14798040Y-10535920D02*
X14818360Y-10556240D01*
X14818360Y-10535920D02*
X14798040Y-10556240D01*
X14848840Y-10485120D02*
X14869160Y-10505440D01*
X14869160Y-10485120D02*
X14848840Y-10505440D01*
X14848840Y-10535920D02*
X14869160Y-10556240D01*
X14869160Y-10535920D02*
X14848840Y-10556240D01*
X14874240Y-6410960D02*
X14894560Y-6431280D01*
X14894560Y-6410960D02*
X14874240Y-6431280D01*
X14899640Y-10485120D02*
X14919960Y-10505440D01*
X14919960Y-10485120D02*
X14899640Y-10505440D01*
X14899640Y-10535920D02*
X14919960Y-10556240D01*
X14919960Y-10535920D02*
X14899640Y-10556240D01*
X14940280Y-13091160D02*
X14960600Y-13111480D01*
X14960600Y-13091160D02*
X14940280Y-13111480D01*
X15062200Y-6304280D02*
X15082520Y-6324600D01*
X15082520Y-6304280D02*
X15062200Y-6324600D01*
X15090140Y-6911340D02*
X15110460Y-6931660D01*
X15110460Y-6911340D02*
X15090140Y-6931660D01*
X15090140Y-7419340D02*
X15110460Y-7439660D01*
X15110460Y-7419340D02*
X15090140Y-7439660D01*
X15090140Y-7927340D02*
X15110460Y-7947660D01*
X15110460Y-7927340D02*
X15090140Y-7947660D01*
X15090140Y-8435340D02*
X15110460Y-8455660D01*
X15110460Y-8435340D02*
X15090140Y-8455660D01*
X15090140Y-8943340D02*
X15110460Y-8963660D01*
X15110460Y-8943340D02*
X15090140Y-8963660D01*
X15090140Y-9451340D02*
X15110460Y-9471660D01*
X15110460Y-9451340D02*
X15090140Y-9471660D01*
X15090140Y-9959340D02*
X15110460Y-9979660D01*
X15110460Y-9959340D02*
X15090140Y-9979660D01*
X15090140Y-10975340D02*
X15110460Y-10995660D01*
X15110460Y-10975340D02*
X15090140Y-10995660D01*
X15090140Y-11483340D02*
X15110460Y-11503660D01*
X15110460Y-11483340D02*
X15090140Y-11503660D01*
X15090140Y-11991340D02*
X15110460Y-12011660D01*
X15110460Y-11991340D02*
X15090140Y-12011660D01*
X15090140Y-14023340D02*
X15110460Y-14043660D01*
X15110460Y-14023340D02*
X15090140Y-14043660D01*
X15090140Y-14480540D02*
X15110460Y-14500860D01*
X15110460Y-14480540D02*
X15090140Y-14500860D01*
X15346680Y-6390640D02*
X15367000Y-6410960D01*
X15367000Y-6390640D02*
X15346680Y-6410960D01*
X15346680Y-6441440D02*
X15367000Y-6461760D01*
X15367000Y-6441440D02*
X15346680Y-6461760D01*
X15397480Y-6390640D02*
X15417800Y-6410960D01*
X15417800Y-6390640D02*
X15397480Y-6410960D01*
X15397480Y-6441440D02*
X15417800Y-6461760D01*
X15417800Y-6441440D02*
X15397480Y-6461760D01*
X15448280Y-6390640D02*
X15468600Y-6410960D01*
X15468600Y-6390640D02*
X15448280Y-6410960D01*
X15448280Y-6441440D02*
X15468600Y-6461760D01*
X15468600Y-6441440D02*
X15448280Y-6461760D01*
X15598140Y-4879340D02*
X15618460Y-4899660D01*
X15618460Y-4879340D02*
X15598140Y-4899660D01*
X15598140Y-5387340D02*
X15618460Y-5407660D01*
X15618460Y-5387340D02*
X15598140Y-5407660D01*
X15598140Y-6911340D02*
X15618460Y-6931660D01*
X15618460Y-6911340D02*
X15598140Y-6931660D01*
X15598140Y-7419340D02*
X15618460Y-7439660D01*
X15618460Y-7419340D02*
X15598140Y-7439660D01*
X15598140Y-7927340D02*
X15618460Y-7947660D01*
X15618460Y-7927340D02*
X15598140Y-7947660D01*
X15598140Y-8435340D02*
X15618460Y-8455660D01*
X15618460Y-8435340D02*
X15598140Y-8455660D01*
X15598140Y-8943340D02*
X15618460Y-8963660D01*
X15618460Y-8943340D02*
X15598140Y-8963660D01*
X15598140Y-9451340D02*
X15618460Y-9471660D01*
X15618460Y-9451340D02*
X15598140Y-9471660D01*
X15598140Y-9959340D02*
X15618460Y-9979660D01*
X15618460Y-9959340D02*
X15598140Y-9979660D01*
X15598140Y-10975340D02*
X15618460Y-10995660D01*
X15618460Y-10975340D02*
X15598140Y-10995660D01*
X15598140Y-11483340D02*
X15618460Y-11503660D01*
X15618460Y-11483340D02*
X15598140Y-11503660D01*
X15598140Y-11991340D02*
X15618460Y-12011660D01*
X15618460Y-11991340D02*
X15598140Y-12011660D01*
X15598140Y-12499340D02*
X15618460Y-12519660D01*
X15618460Y-12499340D02*
X15598140Y-12519660D01*
X15598140Y-13007340D02*
X15618460Y-13027660D01*
X15618460Y-13007340D02*
X15598140Y-13027660D01*
X15598140Y-14023340D02*
X15618460Y-14043660D01*
X15618460Y-14023340D02*
X15598140Y-14043660D01*
X15598140Y-14480540D02*
X15618460Y-14500860D01*
X15618460Y-14480540D02*
X15598140Y-14500860D01*
X15641320Y-10485120D02*
X15661640Y-10505440D01*
X15661640Y-10485120D02*
X15641320Y-10505440D01*
X15641320Y-10535920D02*
X15661640Y-10556240D01*
X15661640Y-10535920D02*
X15641320Y-10556240D01*
X15692120Y-10485120D02*
X15712440Y-10505440D01*
X15712440Y-10485120D02*
X15692120Y-10505440D01*
X15692120Y-10535920D02*
X15712440Y-10556240D01*
X15712440Y-10535920D02*
X15692120Y-10556240D01*
X15742920Y-10485120D02*
X15763240Y-10505440D01*
X15763240Y-10485120D02*
X15742920Y-10505440D01*
X15742920Y-10535920D02*
X15763240Y-10556240D01*
X15763240Y-10535920D02*
X15742920Y-10556240D01*
X15895320Y-10485120D02*
X15915640Y-10505440D01*
X15915640Y-10485120D02*
X15895320Y-10505440D01*
X15895320Y-10535920D02*
X15915640Y-10556240D01*
X15915640Y-10535920D02*
X15895320Y-10556240D01*
X15946120Y-10485120D02*
X15966440Y-10505440D01*
X15966440Y-10485120D02*
X15946120Y-10505440D01*
X15946120Y-10535920D02*
X15966440Y-10556240D01*
X15966440Y-10535920D02*
X15946120Y-10556240D01*
X15996920Y-10485120D02*
X16017240Y-10505440D01*
X16017240Y-10485120D02*
X15996920Y-10505440D01*
X15996920Y-10535920D02*
X16017240Y-10556240D01*
X16017240Y-10535920D02*
X15996920Y-10556240D01*
X16106140Y-5387340D02*
X16126460Y-5407660D01*
X16126460Y-5387340D02*
X16106140Y-5407660D01*
X16106140Y-6911340D02*
X16126460Y-6931660D01*
X16126460Y-6911340D02*
X16106140Y-6931660D01*
X16106140Y-7419340D02*
X16126460Y-7439660D01*
X16126460Y-7419340D02*
X16106140Y-7439660D01*
X16106140Y-7927340D02*
X16126460Y-7947660D01*
X16126460Y-7927340D02*
X16106140Y-7947660D01*
X16106140Y-8435340D02*
X16126460Y-8455660D01*
X16126460Y-8435340D02*
X16106140Y-8455660D01*
X16106140Y-8943340D02*
X16126460Y-8963660D01*
X16126460Y-8943340D02*
X16106140Y-8963660D01*
X16106140Y-9451340D02*
X16126460Y-9471660D01*
X16126460Y-9451340D02*
X16106140Y-9471660D01*
X16106140Y-9959340D02*
X16126460Y-9979660D01*
X16126460Y-9959340D02*
X16106140Y-9979660D01*
X16106140Y-10975340D02*
X16126460Y-10995660D01*
X16126460Y-10975340D02*
X16106140Y-10995660D01*
X16106140Y-11483340D02*
X16126460Y-11503660D01*
X16126460Y-11483340D02*
X16106140Y-11503660D01*
X16106140Y-11991340D02*
X16126460Y-12011660D01*
X16126460Y-11991340D02*
X16106140Y-12011660D01*
X16106140Y-12499340D02*
X16126460Y-12519660D01*
X16126460Y-12499340D02*
X16106140Y-12519660D01*
X16106140Y-13007340D02*
X16126460Y-13027660D01*
X16126460Y-13007340D02*
X16106140Y-13027660D01*
X16106140Y-13515340D02*
X16126460Y-13535660D01*
X16126460Y-13515340D02*
X16106140Y-13535660D01*
X16106140Y-14023340D02*
X16126460Y-14043660D01*
X16126460Y-14023340D02*
X16106140Y-14043660D01*
X16106140Y-14480540D02*
X16126460Y-14500860D01*
X16126460Y-14480540D02*
X16106140Y-14500860D01*
X16245840Y-7340600D02*
X16266160Y-7360920D01*
X16266160Y-7340600D02*
X16245840Y-7360920D01*
X16245840Y-7391400D02*
X16266160Y-7411720D01*
X16266160Y-7391400D02*
X16245840Y-7411720D01*
X16245840Y-7442200D02*
X16266160Y-7462520D01*
X16266160Y-7442200D02*
X16245840Y-7462520D01*
X16296640Y-7340600D02*
X16316960Y-7360920D01*
X16316960Y-7340600D02*
X16296640Y-7360920D01*
X16296640Y-7391400D02*
X16316960Y-7411720D01*
X16316960Y-7391400D02*
X16296640Y-7411720D01*
X16296640Y-7442200D02*
X16316960Y-7462520D01*
X16316960Y-7442200D02*
X16296640Y-7462520D01*
X16614140Y-5387340D02*
X16634460Y-5407660D01*
X16634460Y-5387340D02*
X16614140Y-5407660D01*
X16614140Y-5895340D02*
X16634460Y-5915660D01*
X16634460Y-5895340D02*
X16614140Y-5915660D01*
X16614140Y-6403340D02*
X16634460Y-6423660D01*
X16634460Y-6403340D02*
X16614140Y-6423660D01*
X16614140Y-6911340D02*
X16634460Y-6931660D01*
X16634460Y-6911340D02*
X16614140Y-6931660D01*
X16614140Y-9451340D02*
X16634460Y-9471660D01*
X16634460Y-9451340D02*
X16614140Y-9471660D01*
X16614140Y-9959340D02*
X16634460Y-9979660D01*
X16634460Y-9959340D02*
X16614140Y-9979660D01*
X16614140Y-10467340D02*
X16634460Y-10487660D01*
X16634460Y-10467340D02*
X16614140Y-10487660D01*
X16614140Y-10975340D02*
X16634460Y-10995660D01*
X16634460Y-10975340D02*
X16614140Y-10995660D01*
X16614140Y-11483340D02*
X16634460Y-11503660D01*
X16634460Y-11483340D02*
X16614140Y-11503660D01*
X16614140Y-11991340D02*
X16634460Y-12011660D01*
X16634460Y-11991340D02*
X16614140Y-12011660D01*
X16614140Y-12499340D02*
X16634460Y-12519660D01*
X16634460Y-12499340D02*
X16614140Y-12519660D01*
X16614140Y-13515340D02*
X16634460Y-13535660D01*
X16634460Y-13515340D02*
X16614140Y-13535660D01*
X16614140Y-14023340D02*
X16634460Y-14043660D01*
X16634460Y-14023340D02*
X16614140Y-14043660D01*
X16614140Y-14480540D02*
X16634460Y-14500860D01*
X16634460Y-14480540D02*
X16614140Y-14500860D01*
X11631515Y-14102656D02*
G75*
G02*
X11611115Y-14102656I-10200J0D01*
G01*
X11611115Y-14102656D02*
G75*
G02*
X11631515Y-14102656I10200J0D01*
G01*
X11645461Y-13998981D02*
G75*
G02*
X11625061Y-13998981I-10200J0D01*
G01*
X11625061Y-13998981D02*
G75*
G02*
X11645461Y-13998981I10200J0D01*
G01*
X11685489Y-13902343D02*
G75*
G02*
X11665089Y-13902343I-10200J0D01*
G01*
X11665089Y-13902343D02*
G75*
G02*
X11685489Y-13902343I10200J0D01*
G01*
X11731485Y-14105110D02*
G75*
G02*
X11711085Y-14105110I-10200J0D01*
G01*
X11711085Y-14105110D02*
G75*
G02*
X11731485Y-14105110I10200J0D01*
G01*
X11741838Y-14025652D02*
G75*
G02*
X11721438Y-14025652I-10200J0D01*
G01*
X11721438Y-14025652D02*
G75*
G02*
X11741838Y-14025652I10200J0D01*
G01*
X11750673Y-13817438D02*
G75*
G02*
X11730273Y-13817438I-10200J0D01*
G01*
X11730273Y-13817438D02*
G75*
G02*
X11750673Y-13817438I10200J0D01*
G01*
X11772498Y-13951633D02*
G75*
G02*
X11752098Y-13951633I-10200J0D01*
G01*
X11752098Y-13951633D02*
G75*
G02*
X11772498Y-13951633I10200J0D01*
G01*
X11821362Y-13888127D02*
G75*
G02*
X11800962Y-13888127I-10200J0D01*
G01*
X11800962Y-13888127D02*
G75*
G02*
X11821362Y-13888127I10200J0D01*
G01*
X11833843Y-13753989D02*
G75*
G02*
X11813443Y-13753989I-10200J0D01*
G01*
X11813443Y-13753989D02*
G75*
G02*
X11833843Y-13753989I10200J0D01*
G01*
X11883133Y-13840998D02*
G75*
G02*
X11862733Y-13840998I-10200J0D01*
G01*
X11862733Y-13840998D02*
G75*
G02*
X11883133Y-13840998I10200J0D01*
G01*
X11930481Y-13713961D02*
G75*
G02*
X11910081Y-13713961I-10200J0D01*
G01*
X11910081Y-13713961D02*
G75*
G02*
X11930481Y-13713961I10200J0D01*
G01*
X11957152Y-13810338D02*
G75*
G02*
X11936752Y-13810338I-10200J0D01*
G01*
X11936752Y-13810338D02*
G75*
G02*
X11957152Y-13810338I10200J0D01*
G01*
X12034156Y-13700015D02*
G75*
G02*
X12013756Y-13700015I-10200J0D01*
G01*
X12013756Y-13700015D02*
G75*
G02*
X12034156Y-13700015I10200J0D01*
G01*
X12036610Y-13799985D02*
G75*
G02*
X12016210Y-13799985I-10200J0D01*
G01*
X12016210Y-13799985D02*
G75*
G02*
X12036610Y-13799985I10200J0D01*
G01*
X12117865Y-13700000D02*
G75*
G02*
X12097465Y-13700000I-10200J0D01*
G01*
X12097465Y-13700000D02*
G75*
G02*
X12117865Y-13700000I10200J0D01*
G01*
X12117865Y-13800000D02*
G75*
G02*
X12097465Y-13800000I-10200J0D01*
G01*
X12097465Y-13800000D02*
G75*
G02*
X12117865Y-13800000I10200J0D01*
G01*
X12200346Y-13700000D02*
G75*
G02*
X12179946Y-13700000I-10200J0D01*
G01*
X12179946Y-13700000D02*
G75*
G02*
X12200346Y-13700000I10200J0D01*
G01*
X12200346Y-13800000D02*
G75*
G02*
X12179946Y-13800000I-10200J0D01*
G01*
X12179946Y-13800000D02*
G75*
G02*
X12200346Y-13800000I10200J0D01*
G01*
X12282828Y-13700000D02*
G75*
G02*
X12262428Y-13700000I-10200J0D01*
G01*
X12262428Y-13700000D02*
G75*
G02*
X12282828Y-13700000I10200J0D01*
G01*
X12282828Y-13800000D02*
G75*
G02*
X12262428Y-13800000I-10200J0D01*
G01*
X12262428Y-13800000D02*
G75*
G02*
X12282828Y-13800000I10200J0D01*
G01*
X12365310Y-13700000D02*
G75*
G02*
X12344910Y-13700000I-10200J0D01*
G01*
X12344910Y-13700000D02*
G75*
G02*
X12365310Y-13700000I10200J0D01*
G01*
X12365310Y-13800000D02*
G75*
G02*
X12344910Y-13800000I-10200J0D01*
G01*
X12344910Y-13800000D02*
G75*
G02*
X12365310Y-13800000I10200J0D01*
G01*
X12447792Y-13700000D02*
G75*
G02*
X12427392Y-13700000I-10200J0D01*
G01*
X12427392Y-13700000D02*
G75*
G02*
X12447792Y-13700000I10200J0D01*
G01*
X12447792Y-13800000D02*
G75*
G02*
X12427392Y-13800000I-10200J0D01*
G01*
X12427392Y-13800000D02*
G75*
G02*
X12447792Y-13800000I10200J0D01*
G01*
X12530273Y-13700000D02*
G75*
G02*
X12509873Y-13700000I-10200J0D01*
G01*
X12509873Y-13700000D02*
G75*
G02*
X12530273Y-13700000I10200J0D01*
G01*
X12530273Y-13800000D02*
G75*
G02*
X12509873Y-13800000I-10200J0D01*
G01*
X12509873Y-13800000D02*
G75*
G02*
X12530273Y-13800000I10200J0D01*
G01*
X12612755Y-13700000D02*
G75*
G02*
X12592355Y-13700000I-10200J0D01*
G01*
X12592355Y-13700000D02*
G75*
G02*
X12612755Y-13700000I10200J0D01*
G01*
X12612755Y-13800000D02*
G75*
G02*
X12592355Y-13800000I-10200J0D01*
G01*
X12592355Y-13800000D02*
G75*
G02*
X12612755Y-13800000I10200J0D01*
G01*
X10010800Y-9070620D02*
X10010800Y-9130620D01*
X9980800Y-9100620D02*
X10040800Y-9100620D01*
X10050800Y-9070620D02*
X9970800Y-9070620D01*
X9970800Y-9130620D02*
G75*
G02*
X9970800Y-9070620I0J30000D01*
G01*
X9970800Y-9130620D02*
X10050800Y-9130620D01*
X10050800Y-9130620D02*
G75*
G03*
X10050800Y-9070620I0J30000D01*
G01*
X10010800Y-9934620D02*
X10010800Y-9994620D01*
X9980800Y-9964620D02*
X10040800Y-9964620D01*
X10050800Y-9934620D02*
X9970800Y-9934620D01*
X9970800Y-9994620D02*
G75*
G02*
X9970800Y-9934620I0J30000D01*
G01*
X9970800Y-9994620D02*
X10050800Y-9994620D01*
X10050800Y-9994620D02*
G75*
G03*
X10050800Y-9934620I0J30000D01*
G01*
X10428800Y-9070620D02*
X10428800Y-9130620D01*
X10398800Y-9100620D02*
X10458800Y-9100620D01*
X10483800Y-9070620D02*
X10373800Y-9070620D01*
X10373800Y-9130620D02*
G75*
G02*
X10373800Y-9070620I0J30000D01*
G01*
X10373800Y-9130620D02*
X10483800Y-9130620D01*
X10483800Y-9130620D02*
G75*
G03*
X10483800Y-9070620I0J30000D01*
G01*
X10428800Y-9934620D02*
X10428800Y-9994620D01*
X10398800Y-9964620D02*
X10458800Y-9964620D01*
X10483800Y-9934620D02*
X10373800Y-9934620D01*
X10373800Y-9994620D02*
G75*
G02*
X10373800Y-9934620I0J30000D01*
G01*
X10373800Y-9994620D02*
X10483800Y-9994620D01*
X10483800Y-9994620D02*
G75*
G03*
X10483800Y-9934620I0J30000D01*
G01*
X10230916Y-13179856D02*
X10230916Y-13109144D01*
X10160204Y-13109144D01*
X10160204Y-13179856D01*
X10230916Y-13179856D01*
X10230916Y-13433856D02*
X10230916Y-13363144D01*
X10160204Y-13363144D01*
X10160204Y-13433856D01*
X10230916Y-13433856D01*
X10230916Y-13687856D02*
X10230916Y-13617144D01*
X10160204Y-13617144D01*
X10160204Y-13687856D01*
X10230916Y-13687856D01*
X10486856Y-4800756D02*
X10486856Y-4730044D01*
X10416144Y-4730044D01*
X10416144Y-4800756D01*
X10486856Y-4800756D01*
X10534296Y-7905216D02*
X10534296Y-7834504D01*
X10463584Y-7834504D01*
X10463584Y-7905216D01*
X10534296Y-7905216D01*
X10534296Y-8665216D02*
X10534296Y-8594504D01*
X10463584Y-8594504D01*
X10463584Y-8665216D01*
X10534296Y-8665216D01*
X11239296Y-11254536D02*
X11239296Y-11183824D01*
X11168584Y-11183824D01*
X11168584Y-11254536D01*
X11239296Y-11254536D01*
X11239296Y-11508536D02*
X11239296Y-11437824D01*
X11168584Y-11437824D01*
X11168584Y-11508536D01*
X11239296Y-11508536D01*
X11239296Y-11762536D02*
X11239296Y-11691824D01*
X11168584Y-11691824D01*
X11168584Y-11762536D01*
X11239296Y-11762536D01*
X11586856Y-4800756D02*
X11586856Y-4730044D01*
X11516144Y-4730044D01*
X11516144Y-4800756D01*
X11586856Y-4800756D01*
X13528216Y-4797096D02*
X13528216Y-4726384D01*
X13457504Y-4726384D01*
X13457504Y-4797096D01*
X13528216Y-4797096D01*
X13637056Y-9110776D02*
X13637056Y-9040064D01*
X13566344Y-9040064D01*
X13566344Y-9110776D01*
X13637056Y-9110776D01*
X13637056Y-9364776D02*
X13637056Y-9294064D01*
X13566344Y-9294064D01*
X13566344Y-9364776D01*
X13637056Y-9364776D01*
X13637056Y-9618776D02*
X13637056Y-9548064D01*
X13566344Y-9548064D01*
X13566344Y-9618776D01*
X13637056Y-9618776D01*
X13637056Y-9872776D02*
X13637056Y-9802064D01*
X13566344Y-9802064D01*
X13566344Y-9872776D01*
X13637056Y-9872776D01*
X13637056Y-10126776D02*
X13637056Y-10056064D01*
X13566344Y-10056064D01*
X13566344Y-10126776D01*
X13637056Y-10126776D01*
X14618276Y-13601976D02*
X14618276Y-13531264D01*
X14547564Y-13531264D01*
X14547564Y-13601976D01*
X14618276Y-13601976D01*
X14628216Y-4797096D02*
X14628216Y-4726384D01*
X14557504Y-4726384D01*
X14557504Y-4797096D01*
X14628216Y-4797096D01*
X14756776Y-13885976D02*
X14756776Y-13815264D01*
X14686064Y-13815264D01*
X14686064Y-13885976D01*
X14756776Y-13885976D01*
X14895276Y-13601976D02*
X14895276Y-13531264D01*
X14824564Y-13531264D01*
X14824564Y-13601976D01*
X14895276Y-13601976D01*
X14995716Y-4797096D02*
X14995716Y-4726384D01*
X14925004Y-4726384D01*
X14925004Y-4797096D01*
X14995716Y-4797096D01*
X15033776Y-13885976D02*
X15033776Y-13815264D01*
X14963064Y-13815264D01*
X14963064Y-13885976D01*
X15033776Y-13885976D01*
X15172276Y-13601976D02*
X15172276Y-13531264D01*
X15101564Y-13531264D01*
X15101564Y-13601976D01*
X15172276Y-13601976D01*
X15310776Y-13885976D02*
X15310776Y-13815264D01*
X15240064Y-13815264D01*
X15240064Y-13885976D01*
X15310776Y-13885976D01*
X15420136Y-12420396D02*
X15420136Y-12349684D01*
X15349424Y-12349684D01*
X15349424Y-12420396D01*
X15420136Y-12420396D01*
X15420136Y-12674396D02*
X15420136Y-12603684D01*
X15349424Y-12603684D01*
X15349424Y-12674396D01*
X15420136Y-12674396D01*
X15420136Y-12928396D02*
X15420136Y-12857684D01*
X15349424Y-12857684D01*
X15349424Y-12928396D01*
X15420136Y-12928396D01*
X15449276Y-13601976D02*
X15449276Y-13531264D01*
X15378564Y-13531264D01*
X15378564Y-13601976D01*
X15449276Y-13601976D01*
X15587776Y-13885976D02*
X15587776Y-13815264D01*
X15517064Y-13815264D01*
X15517064Y-13885976D01*
X15587776Y-13885976D01*
X15726276Y-13601976D02*
X15726276Y-13531264D01*
X15655564Y-13531264D01*
X15655564Y-13601976D01*
X15726276Y-13601976D01*
X16095716Y-4797096D02*
X16095716Y-4726384D01*
X16025004Y-4726384D01*
X16025004Y-4797096D01*
X16095716Y-4797096D01*
D13*
X12850000Y-13825000D02*
X12925000Y-13750000D01*
X12850000Y-13675000D01*
X12775000Y-13750000D01*
X12850000Y-13825000D01*
X14600000Y-11475000D02*
X14675000Y-11400000D01*
X14600000Y-11325000D01*
X14525000Y-11400000D01*
X14600000Y-11475000D01*
D14*
X12511000Y-13411000D02*
X12681000Y-13581000D01*
X12681000Y-13411000D02*
X12511000Y-13581000D01*
X12681000Y-13496000D02*
G75*
G02*
X12511000Y-13496000I-85000J0D01*
G01*
X12511000Y-13496000D02*
G75*
G02*
X12681000Y-13496000I85000J0D01*
G01*
X12511000Y-13919000D02*
X12681000Y-14089000D01*
X12681000Y-13919000D02*
X12511000Y-14089000D01*
X12681000Y-14004000D02*
G75*
G02*
X12511000Y-14004000I-85000J0D01*
G01*
X12511000Y-14004000D02*
G75*
G02*
X12681000Y-14004000I85000J0D01*
G01*
X13019000Y-13411000D02*
X13189000Y-13581000D01*
X13189000Y-13411000D02*
X13019000Y-13581000D01*
X13189000Y-13496000D02*
G75*
G02*
X13019000Y-13496000I-85000J0D01*
G01*
X13019000Y-13496000D02*
G75*
G02*
X13189000Y-13496000I85000J0D01*
G01*
X13019000Y-13919000D02*
X13189000Y-14089000D01*
X13189000Y-13919000D02*
X13019000Y-14089000D01*
X13189000Y-14004000D02*
G75*
G02*
X13019000Y-14004000I-85000J0D01*
G01*
X13019000Y-14004000D02*
G75*
G02*
X13189000Y-14004000I85000J0D01*
G01*
X14261000Y-11061000D02*
X14431000Y-11231000D01*
X14431000Y-11061000D02*
X14261000Y-11231000D01*
X14431000Y-11146000D02*
G75*
G02*
X14261000Y-11146000I-85000J0D01*
G01*
X14261000Y-11146000D02*
G75*
G02*
X14431000Y-11146000I85000J0D01*
G01*
X14261000Y-11569000D02*
X14431000Y-11739000D01*
X14431000Y-11569000D02*
X14261000Y-11739000D01*
X14431000Y-11654000D02*
G75*
G02*
X14261000Y-11654000I-85000J0D01*
G01*
X14261000Y-11654000D02*
G75*
G02*
X14431000Y-11654000I85000J0D01*
G01*
X14769000Y-11061000D02*
X14939000Y-11231000D01*
X14939000Y-11061000D02*
X14769000Y-11231000D01*
X14939000Y-11146000D02*
G75*
G02*
X14769000Y-11146000I-85000J0D01*
G01*
X14769000Y-11146000D02*
G75*
G02*
X14939000Y-11146000I85000J0D01*
G01*
X14769000Y-11569000D02*
X14939000Y-11739000D01*
X14939000Y-11569000D02*
X14769000Y-11739000D01*
X14939000Y-11654000D02*
G75*
G02*
X14769000Y-11654000I-85000J0D01*
G01*
X14769000Y-11654000D02*
G75*
G02*
X14939000Y-11654000I85000J0D01*
G01*
D15*
X10656500Y-5670400D02*
X10846500Y-5860400D01*
X10846500Y-5670400D02*
X10656500Y-5860400D01*
X10751500Y-5670400D02*
X10751500Y-5860400D01*
X10656500Y-5765400D02*
X10846500Y-5765400D01*
X11156500Y-5670400D02*
X11346500Y-5860400D01*
X11346500Y-5670400D02*
X11156500Y-5860400D01*
X11251500Y-5670400D02*
X11251500Y-5860400D01*
X11156500Y-5765400D02*
X11346500Y-5765400D01*
X13697860Y-5666740D02*
X13887860Y-5856740D01*
X13887860Y-5666740D02*
X13697860Y-5856740D01*
X13792860Y-5666740D02*
X13792860Y-5856740D01*
X13697860Y-5761740D02*
X13887860Y-5761740D01*
X14197860Y-5666740D02*
X14387860Y-5856740D01*
X14387860Y-5666740D02*
X14197860Y-5856740D01*
X14292860Y-5666740D02*
X14292860Y-5856740D01*
X14197860Y-5761740D02*
X14387860Y-5761740D01*
X15165360Y-5666740D02*
X15355360Y-5856740D01*
X15355360Y-5666740D02*
X15165360Y-5856740D01*
X15260360Y-5666740D02*
X15260360Y-5856740D01*
X15165360Y-5761740D02*
X15355360Y-5761740D01*
X15665360Y-5666740D02*
X15855360Y-5856740D01*
X15855360Y-5666740D02*
X15665360Y-5856740D01*
X15760360Y-5666740D02*
X15760360Y-5856740D01*
X15665360Y-5761740D02*
X15855360Y-5761740D01*
D16*
X13726920Y-13548620D02*
X14046920Y-13868620D01*
X14046920Y-13548620D02*
X13726920Y-13868620D01*
X14000058Y-13821758D02*
X14000058Y-13595482D01*
X13773782Y-13595482D01*
X13773782Y-13821758D01*
X14000058Y-13821758D01*
X16226920Y-13548620D02*
X16546920Y-13868620D01*
X16546920Y-13548620D02*
X16226920Y-13868620D01*
X16500058Y-13821758D02*
X16500058Y-13595482D01*
X16273782Y-13595482D01*
X16273782Y-13821758D01*
X16500058Y-13821758D01*
D11*
X10022398Y-14944384D02*
X10022398Y-14744384D01*
X10022398Y-14744384D02*
X10070017Y-14744384D01*
X10070017Y-14744384D02*
X10098588Y-14753908D01*
X10098588Y-14753908D02*
X10117636Y-14772955D01*
X10117636Y-14772955D02*
X10127160Y-14792003D01*
X10127160Y-14792003D02*
X10136684Y-14830098D01*
X10136684Y-14830098D02*
X10136684Y-14858669D01*
X10136684Y-14858669D02*
X10127160Y-14896765D01*
X10127160Y-14896765D02*
X10117636Y-14915812D01*
X10117636Y-14915812D02*
X10098588Y-14934860D01*
X10098588Y-14934860D02*
X10070017Y-14944384D01*
X10070017Y-14944384D02*
X10022398Y-14944384D01*
X10222398Y-14944384D02*
X10222398Y-14811050D01*
X10222398Y-14849146D02*
X10231922Y-14830098D01*
X10231922Y-14830098D02*
X10241445Y-14820574D01*
X10241445Y-14820574D02*
X10260493Y-14811050D01*
X10260493Y-14811050D02*
X10279541Y-14811050D01*
X10346207Y-14944384D02*
X10346207Y-14811050D01*
X10346207Y-14744384D02*
X10336684Y-14753908D01*
X10336684Y-14753908D02*
X10346207Y-14763431D01*
X10346207Y-14763431D02*
X10355731Y-14753908D01*
X10355731Y-14753908D02*
X10346207Y-14744384D01*
X10346207Y-14744384D02*
X10346207Y-14763431D01*
X10470017Y-14944384D02*
X10450969Y-14934860D01*
X10450969Y-14934860D02*
X10441445Y-14915812D01*
X10441445Y-14915812D02*
X10441445Y-14744384D01*
X10574779Y-14944384D02*
X10555731Y-14934860D01*
X10555731Y-14934860D02*
X10546207Y-14915812D01*
X10546207Y-14915812D02*
X10546207Y-14744384D01*
X10803350Y-14944384D02*
X10803350Y-14744384D01*
X10803350Y-14744384D02*
X10870017Y-14887241D01*
X10870017Y-14887241D02*
X10936684Y-14744384D01*
X10936684Y-14744384D02*
X10936684Y-14944384D01*
X11117636Y-14944384D02*
X11117636Y-14839622D01*
X11117636Y-14839622D02*
X11108112Y-14820574D01*
X11108112Y-14820574D02*
X11089065Y-14811050D01*
X11089065Y-14811050D02*
X11050969Y-14811050D01*
X11050969Y-14811050D02*
X11031922Y-14820574D01*
X11117636Y-14934860D02*
X11098588Y-14944384D01*
X11098588Y-14944384D02*
X11050969Y-14944384D01*
X11050969Y-14944384D02*
X11031922Y-14934860D01*
X11031922Y-14934860D02*
X11022398Y-14915812D01*
X11022398Y-14915812D02*
X11022398Y-14896765D01*
X11022398Y-14896765D02*
X11031922Y-14877717D01*
X11031922Y-14877717D02*
X11050969Y-14868193D01*
X11050969Y-14868193D02*
X11098588Y-14868193D01*
X11098588Y-14868193D02*
X11117636Y-14858669D01*
X11212874Y-14811050D02*
X11212874Y-15011050D01*
X11212874Y-14820574D02*
X11231922Y-14811050D01*
X11231922Y-14811050D02*
X11270017Y-14811050D01*
X11270017Y-14811050D02*
X11289064Y-14820574D01*
X11289064Y-14820574D02*
X11298588Y-14830098D01*
X11298588Y-14830098D02*
X11308112Y-14849146D01*
X11308112Y-14849146D02*
X11308112Y-14906288D01*
X11308112Y-14906288D02*
X11298588Y-14925336D01*
X11298588Y-14925336D02*
X11289064Y-14934860D01*
X11289064Y-14934860D02*
X11270017Y-14944384D01*
X11270017Y-14944384D02*
X11231922Y-14944384D01*
X11231922Y-14944384D02*
X11212874Y-14934860D01*
X11393826Y-14925336D02*
X11403350Y-14934860D01*
X11403350Y-14934860D02*
X11393826Y-14944384D01*
X11393826Y-14944384D02*
X11384303Y-14934860D01*
X11384303Y-14934860D02*
X11393826Y-14925336D01*
X11393826Y-14925336D02*
X11393826Y-14944384D01*
X11393826Y-14820574D02*
X11403350Y-14830098D01*
X11403350Y-14830098D02*
X11393826Y-14839622D01*
X11393826Y-14839622D02*
X11384303Y-14830098D01*
X11384303Y-14830098D02*
X11393826Y-14820574D01*
X11393826Y-14820574D02*
X11393826Y-14839622D01*
D12*
X9741301Y-15262740D02*
X9761621Y-15283060D01*
X9761621Y-15262740D02*
X9741301Y-15283060D01*
D11*
X10060493Y-15164384D02*
X10079541Y-15164384D01*
X10079541Y-15164384D02*
X10098588Y-15173908D01*
X10098588Y-15173908D02*
X10108112Y-15183431D01*
X10108112Y-15183431D02*
X10117636Y-15202479D01*
X10117636Y-15202479D02*
X10127160Y-15240574D01*
X10127160Y-15240574D02*
X10127160Y-15288193D01*
X10127160Y-15288193D02*
X10117636Y-15326288D01*
X10117636Y-15326288D02*
X10108112Y-15345336D01*
X10108112Y-15345336D02*
X10098588Y-15354860D01*
X10098588Y-15354860D02*
X10079541Y-15364384D01*
X10079541Y-15364384D02*
X10060493Y-15364384D01*
X10060493Y-15364384D02*
X10041445Y-15354860D01*
X10041445Y-15354860D02*
X10031922Y-15345336D01*
X10031922Y-15345336D02*
X10022398Y-15326288D01*
X10022398Y-15326288D02*
X10012874Y-15288193D01*
X10012874Y-15288193D02*
X10012874Y-15240574D01*
X10012874Y-15240574D02*
X10022398Y-15202479D01*
X10022398Y-15202479D02*
X10031922Y-15183431D01*
X10031922Y-15183431D02*
X10041445Y-15173908D01*
X10041445Y-15173908D02*
X10060493Y-15164384D01*
X10212874Y-15345336D02*
X10222398Y-15354860D01*
X10222398Y-15354860D02*
X10212874Y-15364384D01*
X10212874Y-15364384D02*
X10203350Y-15354860D01*
X10203350Y-15354860D02*
X10212874Y-15345336D01*
X10212874Y-15345336D02*
X10212874Y-15364384D01*
X10298588Y-15183431D02*
X10308112Y-15173908D01*
X10308112Y-15173908D02*
X10327160Y-15164384D01*
X10327160Y-15164384D02*
X10374779Y-15164384D01*
X10374779Y-15164384D02*
X10393826Y-15173908D01*
X10393826Y-15173908D02*
X10403350Y-15183431D01*
X10403350Y-15183431D02*
X10412874Y-15202479D01*
X10412874Y-15202479D02*
X10412874Y-15221527D01*
X10412874Y-15221527D02*
X10403350Y-15250098D01*
X10403350Y-15250098D02*
X10289065Y-15364384D01*
X10289065Y-15364384D02*
X10412874Y-15364384D01*
X10536684Y-15164384D02*
X10555731Y-15164384D01*
X10555731Y-15164384D02*
X10574779Y-15173908D01*
X10574779Y-15173908D02*
X10584303Y-15183431D01*
X10584303Y-15183431D02*
X10593826Y-15202479D01*
X10593826Y-15202479D02*
X10603350Y-15240574D01*
X10603350Y-15240574D02*
X10603350Y-15288193D01*
X10603350Y-15288193D02*
X10593826Y-15326288D01*
X10593826Y-15326288D02*
X10584303Y-15345336D01*
X10584303Y-15345336D02*
X10574779Y-15354860D01*
X10574779Y-15354860D02*
X10555731Y-15364384D01*
X10555731Y-15364384D02*
X10536684Y-15364384D01*
X10536684Y-15364384D02*
X10517636Y-15354860D01*
X10517636Y-15354860D02*
X10508112Y-15345336D01*
X10508112Y-15345336D02*
X10498588Y-15326288D01*
X10498588Y-15326288D02*
X10489065Y-15288193D01*
X10489065Y-15288193D02*
X10489065Y-15240574D01*
X10489065Y-15240574D02*
X10498588Y-15202479D01*
X10498588Y-15202479D02*
X10508112Y-15183431D01*
X10508112Y-15183431D02*
X10517636Y-15173908D01*
X10517636Y-15173908D02*
X10536684Y-15164384D01*
X10670017Y-15164384D02*
X10793826Y-15164384D01*
X10793826Y-15164384D02*
X10727160Y-15240574D01*
X10727160Y-15240574D02*
X10755731Y-15240574D01*
X10755731Y-15240574D02*
X10774779Y-15250098D01*
X10774779Y-15250098D02*
X10784303Y-15259622D01*
X10784303Y-15259622D02*
X10793826Y-15278669D01*
X10793826Y-15278669D02*
X10793826Y-15326288D01*
X10793826Y-15326288D02*
X10784303Y-15345336D01*
X10784303Y-15345336D02*
X10774779Y-15354860D01*
X10774779Y-15354860D02*
X10755731Y-15364384D01*
X10755731Y-15364384D02*
X10698588Y-15364384D01*
X10698588Y-15364384D02*
X10679541Y-15354860D01*
X10679541Y-15354860D02*
X10670017Y-15345336D01*
X10879541Y-15364384D02*
X10879541Y-15231050D01*
X10879541Y-15250098D02*
X10889065Y-15240574D01*
X10889065Y-15240574D02*
X10908112Y-15231050D01*
X10908112Y-15231050D02*
X10936684Y-15231050D01*
X10936684Y-15231050D02*
X10955731Y-15240574D01*
X10955731Y-15240574D02*
X10965255Y-15259622D01*
X10965255Y-15259622D02*
X10965255Y-15364384D01*
X10965255Y-15259622D02*
X10974779Y-15240574D01*
X10974779Y-15240574D02*
X10993826Y-15231050D01*
X10993826Y-15231050D02*
X11022398Y-15231050D01*
X11022398Y-15231050D02*
X11041446Y-15240574D01*
X11041446Y-15240574D02*
X11050969Y-15259622D01*
X11050969Y-15259622D02*
X11050969Y-15364384D01*
X11146207Y-15364384D02*
X11146207Y-15231050D01*
X11146207Y-15250098D02*
X11155731Y-15240574D01*
X11155731Y-15240574D02*
X11174779Y-15231050D01*
X11174779Y-15231050D02*
X11203350Y-15231050D01*
X11203350Y-15231050D02*
X11222398Y-15240574D01*
X11222398Y-15240574D02*
X11231922Y-15259622D01*
X11231922Y-15259622D02*
X11231922Y-15364384D01*
X11231922Y-15259622D02*
X11241445Y-15240574D01*
X11241445Y-15240574D02*
X11260493Y-15231050D01*
X11260493Y-15231050D02*
X11289064Y-15231050D01*
X11289064Y-15231050D02*
X11308112Y-15240574D01*
X11308112Y-15240574D02*
X11317636Y-15259622D01*
X11317636Y-15259622D02*
X11317636Y-15364384D01*
X11708112Y-15154860D02*
X11536684Y-15412003D01*
X11965255Y-15164384D02*
X11984303Y-15164384D01*
X11984303Y-15164384D02*
X12003350Y-15173908D01*
X12003350Y-15173908D02*
X12012874Y-15183431D01*
X12012874Y-15183431D02*
X12022398Y-15202479D01*
X12022398Y-15202479D02*
X12031922Y-15240574D01*
X12031922Y-15240574D02*
X12031922Y-15288193D01*
X12031922Y-15288193D02*
X12022398Y-15326288D01*
X12022398Y-15326288D02*
X12012874Y-15345336D01*
X12012874Y-15345336D02*
X12003350Y-15354860D01*
X12003350Y-15354860D02*
X11984303Y-15364384D01*
X11984303Y-15364384D02*
X11965255Y-15364384D01*
X11965255Y-15364384D02*
X11946207Y-15354860D01*
X11946207Y-15354860D02*
X11936684Y-15345336D01*
X11936684Y-15345336D02*
X11927160Y-15326288D01*
X11927160Y-15326288D02*
X11917636Y-15288193D01*
X11917636Y-15288193D02*
X11917636Y-15240574D01*
X11917636Y-15240574D02*
X11927160Y-15202479D01*
X11927160Y-15202479D02*
X11936684Y-15183431D01*
X11936684Y-15183431D02*
X11946207Y-15173908D01*
X11946207Y-15173908D02*
X11965255Y-15164384D01*
X12117636Y-15345336D02*
X12127160Y-15354860D01*
X12127160Y-15354860D02*
X12117636Y-15364384D01*
X12117636Y-15364384D02*
X12108112Y-15354860D01*
X12108112Y-15354860D02*
X12117636Y-15345336D01*
X12117636Y-15345336D02*
X12117636Y-15364384D01*
X12250969Y-15164384D02*
X12270017Y-15164384D01*
X12270017Y-15164384D02*
X12289065Y-15173908D01*
X12289065Y-15173908D02*
X12298588Y-15183431D01*
X12298588Y-15183431D02*
X12308112Y-15202479D01*
X12308112Y-15202479D02*
X12317636Y-15240574D01*
X12317636Y-15240574D02*
X12317636Y-15288193D01*
X12317636Y-15288193D02*
X12308112Y-15326288D01*
X12308112Y-15326288D02*
X12298588Y-15345336D01*
X12298588Y-15345336D02*
X12289065Y-15354860D01*
X12289065Y-15354860D02*
X12270017Y-15364384D01*
X12270017Y-15364384D02*
X12250969Y-15364384D01*
X12250969Y-15364384D02*
X12231922Y-15354860D01*
X12231922Y-15354860D02*
X12222398Y-15345336D01*
X12222398Y-15345336D02*
X12212874Y-15326288D01*
X12212874Y-15326288D02*
X12203350Y-15288193D01*
X12203350Y-15288193D02*
X12203350Y-15240574D01*
X12203350Y-15240574D02*
X12212874Y-15202479D01*
X12212874Y-15202479D02*
X12222398Y-15183431D01*
X12222398Y-15183431D02*
X12231922Y-15173908D01*
X12231922Y-15173908D02*
X12250969Y-15164384D01*
X12441446Y-15164384D02*
X12460493Y-15164384D01*
X12460493Y-15164384D02*
X12479541Y-15173908D01*
X12479541Y-15173908D02*
X12489065Y-15183431D01*
X12489065Y-15183431D02*
X12498588Y-15202479D01*
X12498588Y-15202479D02*
X12508112Y-15240574D01*
X12508112Y-15240574D02*
X12508112Y-15288193D01*
X12508112Y-15288193D02*
X12498588Y-15326288D01*
X12498588Y-15326288D02*
X12489065Y-15345336D01*
X12489065Y-15345336D02*
X12479541Y-15354860D01*
X12479541Y-15354860D02*
X12460493Y-15364384D01*
X12460493Y-15364384D02*
X12441446Y-15364384D01*
X12441446Y-15364384D02*
X12422398Y-15354860D01*
X12422398Y-15354860D02*
X12412874Y-15345336D01*
X12412874Y-15345336D02*
X12403350Y-15326288D01*
X12403350Y-15326288D02*
X12393827Y-15288193D01*
X12393827Y-15288193D02*
X12393827Y-15240574D01*
X12393827Y-15240574D02*
X12403350Y-15202479D01*
X12403350Y-15202479D02*
X12412874Y-15183431D01*
X12412874Y-15183431D02*
X12422398Y-15173908D01*
X12422398Y-15173908D02*
X12441446Y-15164384D01*
X12622398Y-15250098D02*
X12603350Y-15240574D01*
X12603350Y-15240574D02*
X12593827Y-15231050D01*
X12593827Y-15231050D02*
X12584303Y-15212003D01*
X12584303Y-15212003D02*
X12584303Y-15202479D01*
X12584303Y-15202479D02*
X12593827Y-15183431D01*
X12593827Y-15183431D02*
X12603350Y-15173908D01*
X12603350Y-15173908D02*
X12622398Y-15164384D01*
X12622398Y-15164384D02*
X12660493Y-15164384D01*
X12660493Y-15164384D02*
X12679541Y-15173908D01*
X12679541Y-15173908D02*
X12689065Y-15183431D01*
X12689065Y-15183431D02*
X12698588Y-15202479D01*
X12698588Y-15202479D02*
X12698588Y-15212003D01*
X12698588Y-15212003D02*
X12689065Y-15231050D01*
X12689065Y-15231050D02*
X12679541Y-15240574D01*
X12679541Y-15240574D02*
X12660493Y-15250098D01*
X12660493Y-15250098D02*
X12622398Y-15250098D01*
X12622398Y-15250098D02*
X12603350Y-15259622D01*
X12603350Y-15259622D02*
X12593827Y-15269146D01*
X12593827Y-15269146D02*
X12584303Y-15288193D01*
X12584303Y-15288193D02*
X12584303Y-15326288D01*
X12584303Y-15326288D02*
X12593827Y-15345336D01*
X12593827Y-15345336D02*
X12603350Y-15354860D01*
X12603350Y-15354860D02*
X12622398Y-15364384D01*
X12622398Y-15364384D02*
X12660493Y-15364384D01*
X12660493Y-15364384D02*
X12679541Y-15354860D01*
X12679541Y-15354860D02*
X12689065Y-15345336D01*
X12689065Y-15345336D02*
X12698588Y-15326288D01*
X12698588Y-15326288D02*
X12698588Y-15288193D01*
X12698588Y-15288193D02*
X12689065Y-15269146D01*
X12689065Y-15269146D02*
X12679541Y-15259622D01*
X12679541Y-15259622D02*
X12660493Y-15250098D01*
X12822398Y-15164384D02*
X12841446Y-15164384D01*
X12841446Y-15164384D02*
X12860493Y-15173908D01*
X12860493Y-15173908D02*
X12870017Y-15183431D01*
X12870017Y-15183431D02*
X12879541Y-15202479D01*
X12879541Y-15202479D02*
X12889065Y-15240574D01*
X12889065Y-15240574D02*
X12889065Y-15288193D01*
X12889065Y-15288193D02*
X12879541Y-15326288D01*
X12879541Y-15326288D02*
X12870017Y-15345336D01*
X12870017Y-15345336D02*
X12860493Y-15354860D01*
X12860493Y-15354860D02*
X12841446Y-15364384D01*
X12841446Y-15364384D02*
X12822398Y-15364384D01*
X12822398Y-15364384D02*
X12803350Y-15354860D01*
X12803350Y-15354860D02*
X12793827Y-15345336D01*
X12793827Y-15345336D02*
X12784303Y-15326288D01*
X12784303Y-15326288D02*
X12774779Y-15288193D01*
X12774779Y-15288193D02*
X12774779Y-15240574D01*
X12774779Y-15240574D02*
X12784303Y-15202479D01*
X12784303Y-15202479D02*
X12793827Y-15183431D01*
X12793827Y-15183431D02*
X12803350Y-15173908D01*
X12803350Y-15173908D02*
X12822398Y-15164384D01*
X12965255Y-15164384D02*
X12965255Y-15202479D01*
X13041446Y-15164384D02*
X13041446Y-15202479D01*
X13336684Y-15440574D02*
X13327160Y-15431050D01*
X13327160Y-15431050D02*
X13308112Y-15402479D01*
X13308112Y-15402479D02*
X13298589Y-15383431D01*
X13298589Y-15383431D02*
X13289065Y-15354860D01*
X13289065Y-15354860D02*
X13279541Y-15307241D01*
X13279541Y-15307241D02*
X13279541Y-15269146D01*
X13279541Y-15269146D02*
X13289065Y-15221527D01*
X13289065Y-15221527D02*
X13298589Y-15192955D01*
X13298589Y-15192955D02*
X13308112Y-15173908D01*
X13308112Y-15173908D02*
X13327160Y-15145336D01*
X13327160Y-15145336D02*
X13336684Y-15135812D01*
X13498589Y-15231050D02*
X13498589Y-15364384D01*
X13450969Y-15154860D02*
X13403350Y-15297717D01*
X13403350Y-15297717D02*
X13527160Y-15297717D01*
X13631922Y-15250098D02*
X13612874Y-15240574D01*
X13612874Y-15240574D02*
X13603350Y-15231050D01*
X13603350Y-15231050D02*
X13593827Y-15212003D01*
X13593827Y-15212003D02*
X13593827Y-15202479D01*
X13593827Y-15202479D02*
X13603350Y-15183431D01*
X13603350Y-15183431D02*
X13612874Y-15173908D01*
X13612874Y-15173908D02*
X13631922Y-15164384D01*
X13631922Y-15164384D02*
X13670017Y-15164384D01*
X13670017Y-15164384D02*
X13689065Y-15173908D01*
X13689065Y-15173908D02*
X13698589Y-15183431D01*
X13698589Y-15183431D02*
X13708112Y-15202479D01*
X13708112Y-15202479D02*
X13708112Y-15212003D01*
X13708112Y-15212003D02*
X13698589Y-15231050D01*
X13698589Y-15231050D02*
X13689065Y-15240574D01*
X13689065Y-15240574D02*
X13670017Y-15250098D01*
X13670017Y-15250098D02*
X13631922Y-15250098D01*
X13631922Y-15250098D02*
X13612874Y-15259622D01*
X13612874Y-15259622D02*
X13603350Y-15269146D01*
X13603350Y-15269146D02*
X13593827Y-15288193D01*
X13593827Y-15288193D02*
X13593827Y-15326288D01*
X13593827Y-15326288D02*
X13603350Y-15345336D01*
X13603350Y-15345336D02*
X13612874Y-15354860D01*
X13612874Y-15354860D02*
X13631922Y-15364384D01*
X13631922Y-15364384D02*
X13670017Y-15364384D01*
X13670017Y-15364384D02*
X13689065Y-15354860D01*
X13689065Y-15354860D02*
X13698589Y-15345336D01*
X13698589Y-15345336D02*
X13708112Y-15326288D01*
X13708112Y-15326288D02*
X13708112Y-15288193D01*
X13708112Y-15288193D02*
X13698589Y-15269146D01*
X13698589Y-15269146D02*
X13689065Y-15259622D01*
X13689065Y-15259622D02*
X13670017Y-15250098D01*
X13898589Y-15364384D02*
X13784303Y-15364384D01*
X13841446Y-15364384D02*
X13841446Y-15164384D01*
X13841446Y-15164384D02*
X13822398Y-15192955D01*
X13822398Y-15192955D02*
X13803350Y-15212003D01*
X13803350Y-15212003D02*
X13784303Y-15221527D01*
X14136684Y-15364384D02*
X14136684Y-15164384D01*
X14222398Y-15364384D02*
X14222398Y-15259622D01*
X14222398Y-15259622D02*
X14212874Y-15240574D01*
X14212874Y-15240574D02*
X14193827Y-15231050D01*
X14193827Y-15231050D02*
X14165255Y-15231050D01*
X14165255Y-15231050D02*
X14146208Y-15240574D01*
X14146208Y-15240574D02*
X14136684Y-15250098D01*
X14346208Y-15364384D02*
X14327160Y-15354860D01*
X14327160Y-15354860D02*
X14317636Y-15345336D01*
X14317636Y-15345336D02*
X14308112Y-15326288D01*
X14308112Y-15326288D02*
X14308112Y-15269146D01*
X14308112Y-15269146D02*
X14317636Y-15250098D01*
X14317636Y-15250098D02*
X14327160Y-15240574D01*
X14327160Y-15240574D02*
X14346208Y-15231050D01*
X14346208Y-15231050D02*
X14374779Y-15231050D01*
X14374779Y-15231050D02*
X14393827Y-15240574D01*
X14393827Y-15240574D02*
X14403351Y-15250098D01*
X14403351Y-15250098D02*
X14412874Y-15269146D01*
X14412874Y-15269146D02*
X14412874Y-15326288D01*
X14412874Y-15326288D02*
X14403351Y-15345336D01*
X14403351Y-15345336D02*
X14393827Y-15354860D01*
X14393827Y-15354860D02*
X14374779Y-15364384D01*
X14374779Y-15364384D02*
X14346208Y-15364384D01*
X14527160Y-15364384D02*
X14508112Y-15354860D01*
X14508112Y-15354860D02*
X14498589Y-15335812D01*
X14498589Y-15335812D02*
X14498589Y-15164384D01*
X14679541Y-15354860D02*
X14660493Y-15364384D01*
X14660493Y-15364384D02*
X14622398Y-15364384D01*
X14622398Y-15364384D02*
X14603351Y-15354860D01*
X14603351Y-15354860D02*
X14593827Y-15335812D01*
X14593827Y-15335812D02*
X14593827Y-15259622D01*
X14593827Y-15259622D02*
X14603351Y-15240574D01*
X14603351Y-15240574D02*
X14622398Y-15231050D01*
X14622398Y-15231050D02*
X14660493Y-15231050D01*
X14660493Y-15231050D02*
X14679541Y-15240574D01*
X14679541Y-15240574D02*
X14689065Y-15259622D01*
X14689065Y-15259622D02*
X14689065Y-15278669D01*
X14689065Y-15278669D02*
X14593827Y-15297717D01*
X14765255Y-15354860D02*
X14784303Y-15364384D01*
X14784303Y-15364384D02*
X14822398Y-15364384D01*
X14822398Y-15364384D02*
X14841446Y-15354860D01*
X14841446Y-15354860D02*
X14850970Y-15335812D01*
X14850970Y-15335812D02*
X14850970Y-15326288D01*
X14850970Y-15326288D02*
X14841446Y-15307241D01*
X14841446Y-15307241D02*
X14822398Y-15297717D01*
X14822398Y-15297717D02*
X14793827Y-15297717D01*
X14793827Y-15297717D02*
X14774779Y-15288193D01*
X14774779Y-15288193D02*
X14765255Y-15269146D01*
X14765255Y-15269146D02*
X14765255Y-15259622D01*
X14765255Y-15259622D02*
X14774779Y-15240574D01*
X14774779Y-15240574D02*
X14793827Y-15231050D01*
X14793827Y-15231050D02*
X14822398Y-15231050D01*
X14822398Y-15231050D02*
X14841446Y-15240574D01*
X14917636Y-15440574D02*
X14927160Y-15431050D01*
X14927160Y-15431050D02*
X14946208Y-15402479D01*
X14946208Y-15402479D02*
X14955732Y-15383431D01*
X14955732Y-15383431D02*
X14965255Y-15354860D01*
X14965255Y-15354860D02*
X14974779Y-15307241D01*
X14974779Y-15307241D02*
X14974779Y-15269146D01*
X14974779Y-15269146D02*
X14965255Y-15221527D01*
X14965255Y-15221527D02*
X14955732Y-15192955D01*
X14955732Y-15192955D02*
X14946208Y-15173908D01*
X14946208Y-15173908D02*
X14927160Y-15145336D01*
X14927160Y-15145336D02*
X14917636Y-15135812D01*
D12*
X9761621Y-15536900D02*
G75*
G02*
X9741221Y-15536900I-10200J0D01*
G01*
X9741221Y-15536900D02*
G75*
G02*
X9761621Y-15536900I10200J0D01*
G01*
D11*
X10060493Y-15428384D02*
X10079541Y-15428384D01*
X10079541Y-15428384D02*
X10098588Y-15437908D01*
X10098588Y-15437908D02*
X10108112Y-15447431D01*
X10108112Y-15447431D02*
X10117636Y-15466479D01*
X10117636Y-15466479D02*
X10127160Y-15504574D01*
X10127160Y-15504574D02*
X10127160Y-15552193D01*
X10127160Y-15552193D02*
X10117636Y-15590288D01*
X10117636Y-15590288D02*
X10108112Y-15609336D01*
X10108112Y-15609336D02*
X10098588Y-15618860D01*
X10098588Y-15618860D02*
X10079541Y-15628384D01*
X10079541Y-15628384D02*
X10060493Y-15628384D01*
X10060493Y-15628384D02*
X10041445Y-15618860D01*
X10041445Y-15618860D02*
X10031922Y-15609336D01*
X10031922Y-15609336D02*
X10022398Y-15590288D01*
X10022398Y-15590288D02*
X10012874Y-15552193D01*
X10012874Y-15552193D02*
X10012874Y-15504574D01*
X10012874Y-15504574D02*
X10022398Y-15466479D01*
X10022398Y-15466479D02*
X10031922Y-15447431D01*
X10031922Y-15447431D02*
X10041445Y-15437908D01*
X10041445Y-15437908D02*
X10060493Y-15428384D01*
X10212874Y-15609336D02*
X10222398Y-15618860D01*
X10222398Y-15618860D02*
X10212874Y-15628384D01*
X10212874Y-15628384D02*
X10203350Y-15618860D01*
X10203350Y-15618860D02*
X10212874Y-15609336D01*
X10212874Y-15609336D02*
X10212874Y-15628384D01*
X10298588Y-15447431D02*
X10308112Y-15437908D01*
X10308112Y-15437908D02*
X10327160Y-15428384D01*
X10327160Y-15428384D02*
X10374779Y-15428384D01*
X10374779Y-15428384D02*
X10393826Y-15437908D01*
X10393826Y-15437908D02*
X10403350Y-15447431D01*
X10403350Y-15447431D02*
X10412874Y-15466479D01*
X10412874Y-15466479D02*
X10412874Y-15485527D01*
X10412874Y-15485527D02*
X10403350Y-15514098D01*
X10403350Y-15514098D02*
X10289065Y-15628384D01*
X10289065Y-15628384D02*
X10412874Y-15628384D01*
X10536684Y-15428384D02*
X10555731Y-15428384D01*
X10555731Y-15428384D02*
X10574779Y-15437908D01*
X10574779Y-15437908D02*
X10584303Y-15447431D01*
X10584303Y-15447431D02*
X10593826Y-15466479D01*
X10593826Y-15466479D02*
X10603350Y-15504574D01*
X10603350Y-15504574D02*
X10603350Y-15552193D01*
X10603350Y-15552193D02*
X10593826Y-15590288D01*
X10593826Y-15590288D02*
X10584303Y-15609336D01*
X10584303Y-15609336D02*
X10574779Y-15618860D01*
X10574779Y-15618860D02*
X10555731Y-15628384D01*
X10555731Y-15628384D02*
X10536684Y-15628384D01*
X10536684Y-15628384D02*
X10517636Y-15618860D01*
X10517636Y-15618860D02*
X10508112Y-15609336D01*
X10508112Y-15609336D02*
X10498588Y-15590288D01*
X10498588Y-15590288D02*
X10489065Y-15552193D01*
X10489065Y-15552193D02*
X10489065Y-15504574D01*
X10489065Y-15504574D02*
X10498588Y-15466479D01*
X10498588Y-15466479D02*
X10508112Y-15447431D01*
X10508112Y-15447431D02*
X10517636Y-15437908D01*
X10517636Y-15437908D02*
X10536684Y-15428384D01*
X10774779Y-15495050D02*
X10774779Y-15628384D01*
X10727160Y-15418860D02*
X10679541Y-15561717D01*
X10679541Y-15561717D02*
X10803350Y-15561717D01*
X10879541Y-15628384D02*
X10879541Y-15495050D01*
X10879541Y-15514098D02*
X10889065Y-15504574D01*
X10889065Y-15504574D02*
X10908112Y-15495050D01*
X10908112Y-15495050D02*
X10936684Y-15495050D01*
X10936684Y-15495050D02*
X10955731Y-15504574D01*
X10955731Y-15504574D02*
X10965255Y-15523622D01*
X10965255Y-15523622D02*
X10965255Y-15628384D01*
X10965255Y-15523622D02*
X10974779Y-15504574D01*
X10974779Y-15504574D02*
X10993826Y-15495050D01*
X10993826Y-15495050D02*
X11022398Y-15495050D01*
X11022398Y-15495050D02*
X11041446Y-15504574D01*
X11041446Y-15504574D02*
X11050969Y-15523622D01*
X11050969Y-15523622D02*
X11050969Y-15628384D01*
X11146207Y-15628384D02*
X11146207Y-15495050D01*
X11146207Y-15514098D02*
X11155731Y-15504574D01*
X11155731Y-15504574D02*
X11174779Y-15495050D01*
X11174779Y-15495050D02*
X11203350Y-15495050D01*
X11203350Y-15495050D02*
X11222398Y-15504574D01*
X11222398Y-15504574D02*
X11231922Y-15523622D01*
X11231922Y-15523622D02*
X11231922Y-15628384D01*
X11231922Y-15523622D02*
X11241445Y-15504574D01*
X11241445Y-15504574D02*
X11260493Y-15495050D01*
X11260493Y-15495050D02*
X11289064Y-15495050D01*
X11289064Y-15495050D02*
X11308112Y-15504574D01*
X11308112Y-15504574D02*
X11317636Y-15523622D01*
X11317636Y-15523622D02*
X11317636Y-15628384D01*
X11708112Y-15418860D02*
X11536684Y-15676003D01*
X11965255Y-15428384D02*
X11984303Y-15428384D01*
X11984303Y-15428384D02*
X12003350Y-15437908D01*
X12003350Y-15437908D02*
X12012874Y-15447431D01*
X12012874Y-15447431D02*
X12022398Y-15466479D01*
X12022398Y-15466479D02*
X12031922Y-15504574D01*
X12031922Y-15504574D02*
X12031922Y-15552193D01*
X12031922Y-15552193D02*
X12022398Y-15590288D01*
X12022398Y-15590288D02*
X12012874Y-15609336D01*
X12012874Y-15609336D02*
X12003350Y-15618860D01*
X12003350Y-15618860D02*
X11984303Y-15628384D01*
X11984303Y-15628384D02*
X11965255Y-15628384D01*
X11965255Y-15628384D02*
X11946207Y-15618860D01*
X11946207Y-15618860D02*
X11936684Y-15609336D01*
X11936684Y-15609336D02*
X11927160Y-15590288D01*
X11927160Y-15590288D02*
X11917636Y-15552193D01*
X11917636Y-15552193D02*
X11917636Y-15504574D01*
X11917636Y-15504574D02*
X11927160Y-15466479D01*
X11927160Y-15466479D02*
X11936684Y-15447431D01*
X11936684Y-15447431D02*
X11946207Y-15437908D01*
X11946207Y-15437908D02*
X11965255Y-15428384D01*
X12117636Y-15609336D02*
X12127160Y-15618860D01*
X12127160Y-15618860D02*
X12117636Y-15628384D01*
X12117636Y-15628384D02*
X12108112Y-15618860D01*
X12108112Y-15618860D02*
X12117636Y-15609336D01*
X12117636Y-15609336D02*
X12117636Y-15628384D01*
X12250969Y-15428384D02*
X12270017Y-15428384D01*
X12270017Y-15428384D02*
X12289065Y-15437908D01*
X12289065Y-15437908D02*
X12298588Y-15447431D01*
X12298588Y-15447431D02*
X12308112Y-15466479D01*
X12308112Y-15466479D02*
X12317636Y-15504574D01*
X12317636Y-15504574D02*
X12317636Y-15552193D01*
X12317636Y-15552193D02*
X12308112Y-15590288D01*
X12308112Y-15590288D02*
X12298588Y-15609336D01*
X12298588Y-15609336D02*
X12289065Y-15618860D01*
X12289065Y-15618860D02*
X12270017Y-15628384D01*
X12270017Y-15628384D02*
X12250969Y-15628384D01*
X12250969Y-15628384D02*
X12231922Y-15618860D01*
X12231922Y-15618860D02*
X12222398Y-15609336D01*
X12222398Y-15609336D02*
X12212874Y-15590288D01*
X12212874Y-15590288D02*
X12203350Y-15552193D01*
X12203350Y-15552193D02*
X12203350Y-15504574D01*
X12203350Y-15504574D02*
X12212874Y-15466479D01*
X12212874Y-15466479D02*
X12222398Y-15447431D01*
X12222398Y-15447431D02*
X12231922Y-15437908D01*
X12231922Y-15437908D02*
X12250969Y-15428384D01*
X12441446Y-15428384D02*
X12460493Y-15428384D01*
X12460493Y-15428384D02*
X12479541Y-15437908D01*
X12479541Y-15437908D02*
X12489065Y-15447431D01*
X12489065Y-15447431D02*
X12498588Y-15466479D01*
X12498588Y-15466479D02*
X12508112Y-15504574D01*
X12508112Y-15504574D02*
X12508112Y-15552193D01*
X12508112Y-15552193D02*
X12498588Y-15590288D01*
X12498588Y-15590288D02*
X12489065Y-15609336D01*
X12489065Y-15609336D02*
X12479541Y-15618860D01*
X12479541Y-15618860D02*
X12460493Y-15628384D01*
X12460493Y-15628384D02*
X12441446Y-15628384D01*
X12441446Y-15628384D02*
X12422398Y-15618860D01*
X12422398Y-15618860D02*
X12412874Y-15609336D01*
X12412874Y-15609336D02*
X12403350Y-15590288D01*
X12403350Y-15590288D02*
X12393827Y-15552193D01*
X12393827Y-15552193D02*
X12393827Y-15504574D01*
X12393827Y-15504574D02*
X12403350Y-15466479D01*
X12403350Y-15466479D02*
X12412874Y-15447431D01*
X12412874Y-15447431D02*
X12422398Y-15437908D01*
X12422398Y-15437908D02*
X12441446Y-15428384D01*
X12622398Y-15514098D02*
X12603350Y-15504574D01*
X12603350Y-15504574D02*
X12593827Y-15495050D01*
X12593827Y-15495050D02*
X12584303Y-15476003D01*
X12584303Y-15476003D02*
X12584303Y-15466479D01*
X12584303Y-15466479D02*
X12593827Y-15447431D01*
X12593827Y-15447431D02*
X12603350Y-15437908D01*
X12603350Y-15437908D02*
X12622398Y-15428384D01*
X12622398Y-15428384D02*
X12660493Y-15428384D01*
X12660493Y-15428384D02*
X12679541Y-15437908D01*
X12679541Y-15437908D02*
X12689065Y-15447431D01*
X12689065Y-15447431D02*
X12698588Y-15466479D01*
X12698588Y-15466479D02*
X12698588Y-15476003D01*
X12698588Y-15476003D02*
X12689065Y-15495050D01*
X12689065Y-15495050D02*
X12679541Y-15504574D01*
X12679541Y-15504574D02*
X12660493Y-15514098D01*
X12660493Y-15514098D02*
X12622398Y-15514098D01*
X12622398Y-15514098D02*
X12603350Y-15523622D01*
X12603350Y-15523622D02*
X12593827Y-15533146D01*
X12593827Y-15533146D02*
X12584303Y-15552193D01*
X12584303Y-15552193D02*
X12584303Y-15590288D01*
X12584303Y-15590288D02*
X12593827Y-15609336D01*
X12593827Y-15609336D02*
X12603350Y-15618860D01*
X12603350Y-15618860D02*
X12622398Y-15628384D01*
X12622398Y-15628384D02*
X12660493Y-15628384D01*
X12660493Y-15628384D02*
X12679541Y-15618860D01*
X12679541Y-15618860D02*
X12689065Y-15609336D01*
X12689065Y-15609336D02*
X12698588Y-15590288D01*
X12698588Y-15590288D02*
X12698588Y-15552193D01*
X12698588Y-15552193D02*
X12689065Y-15533146D01*
X12689065Y-15533146D02*
X12679541Y-15523622D01*
X12679541Y-15523622D02*
X12660493Y-15514098D01*
X12822398Y-15428384D02*
X12841446Y-15428384D01*
X12841446Y-15428384D02*
X12860493Y-15437908D01*
X12860493Y-15437908D02*
X12870017Y-15447431D01*
X12870017Y-15447431D02*
X12879541Y-15466479D01*
X12879541Y-15466479D02*
X12889065Y-15504574D01*
X12889065Y-15504574D02*
X12889065Y-15552193D01*
X12889065Y-15552193D02*
X12879541Y-15590288D01*
X12879541Y-15590288D02*
X12870017Y-15609336D01*
X12870017Y-15609336D02*
X12860493Y-15618860D01*
X12860493Y-15618860D02*
X12841446Y-15628384D01*
X12841446Y-15628384D02*
X12822398Y-15628384D01*
X12822398Y-15628384D02*
X12803350Y-15618860D01*
X12803350Y-15618860D02*
X12793827Y-15609336D01*
X12793827Y-15609336D02*
X12784303Y-15590288D01*
X12784303Y-15590288D02*
X12774779Y-15552193D01*
X12774779Y-15552193D02*
X12774779Y-15504574D01*
X12774779Y-15504574D02*
X12784303Y-15466479D01*
X12784303Y-15466479D02*
X12793827Y-15447431D01*
X12793827Y-15447431D02*
X12803350Y-15437908D01*
X12803350Y-15437908D02*
X12822398Y-15428384D01*
X12965255Y-15428384D02*
X12965255Y-15466479D01*
X13041446Y-15428384D02*
X13041446Y-15466479D01*
X13336684Y-15704574D02*
X13327160Y-15695050D01*
X13327160Y-15695050D02*
X13308112Y-15666479D01*
X13308112Y-15666479D02*
X13298589Y-15647431D01*
X13298589Y-15647431D02*
X13289065Y-15618860D01*
X13289065Y-15618860D02*
X13279541Y-15571241D01*
X13279541Y-15571241D02*
X13279541Y-15533146D01*
X13279541Y-15533146D02*
X13289065Y-15485527D01*
X13289065Y-15485527D02*
X13298589Y-15456955D01*
X13298589Y-15456955D02*
X13308112Y-15437908D01*
X13308112Y-15437908D02*
X13327160Y-15409336D01*
X13327160Y-15409336D02*
X13336684Y-15399812D01*
X13403350Y-15447431D02*
X13412874Y-15437908D01*
X13412874Y-15437908D02*
X13431922Y-15428384D01*
X13431922Y-15428384D02*
X13479541Y-15428384D01*
X13479541Y-15428384D02*
X13498589Y-15437908D01*
X13498589Y-15437908D02*
X13508112Y-15447431D01*
X13508112Y-15447431D02*
X13517636Y-15466479D01*
X13517636Y-15466479D02*
X13517636Y-15485527D01*
X13517636Y-15485527D02*
X13508112Y-15514098D01*
X13508112Y-15514098D02*
X13393827Y-15628384D01*
X13393827Y-15628384D02*
X13517636Y-15628384D01*
X13631922Y-15514098D02*
X13612874Y-15504574D01*
X13612874Y-15504574D02*
X13603350Y-15495050D01*
X13603350Y-15495050D02*
X13593827Y-15476003D01*
X13593827Y-15476003D02*
X13593827Y-15466479D01*
X13593827Y-15466479D02*
X13603350Y-15447431D01*
X13603350Y-15447431D02*
X13612874Y-15437908D01*
X13612874Y-15437908D02*
X13631922Y-15428384D01*
X13631922Y-15428384D02*
X13670017Y-15428384D01*
X13670017Y-15428384D02*
X13689065Y-15437908D01*
X13689065Y-15437908D02*
X13698589Y-15447431D01*
X13698589Y-15447431D02*
X13708112Y-15466479D01*
X13708112Y-15466479D02*
X13708112Y-15476003D01*
X13708112Y-15476003D02*
X13698589Y-15495050D01*
X13698589Y-15495050D02*
X13689065Y-15504574D01*
X13689065Y-15504574D02*
X13670017Y-15514098D01*
X13670017Y-15514098D02*
X13631922Y-15514098D01*
X13631922Y-15514098D02*
X13612874Y-15523622D01*
X13612874Y-15523622D02*
X13603350Y-15533146D01*
X13603350Y-15533146D02*
X13593827Y-15552193D01*
X13593827Y-15552193D02*
X13593827Y-15590288D01*
X13593827Y-15590288D02*
X13603350Y-15609336D01*
X13603350Y-15609336D02*
X13612874Y-15618860D01*
X13612874Y-15618860D02*
X13631922Y-15628384D01*
X13631922Y-15628384D02*
X13670017Y-15628384D01*
X13670017Y-15628384D02*
X13689065Y-15618860D01*
X13689065Y-15618860D02*
X13698589Y-15609336D01*
X13698589Y-15609336D02*
X13708112Y-15590288D01*
X13708112Y-15590288D02*
X13708112Y-15552193D01*
X13708112Y-15552193D02*
X13698589Y-15533146D01*
X13698589Y-15533146D02*
X13689065Y-15523622D01*
X13689065Y-15523622D02*
X13670017Y-15514098D01*
X13946208Y-15628384D02*
X13946208Y-15428384D01*
X14031922Y-15628384D02*
X14031922Y-15523622D01*
X14031922Y-15523622D02*
X14022398Y-15504574D01*
X14022398Y-15504574D02*
X14003351Y-15495050D01*
X14003351Y-15495050D02*
X13974779Y-15495050D01*
X13974779Y-15495050D02*
X13955731Y-15504574D01*
X13955731Y-15504574D02*
X13946208Y-15514098D01*
X14155731Y-15628384D02*
X14136684Y-15618860D01*
X14136684Y-15618860D02*
X14127160Y-15609336D01*
X14127160Y-15609336D02*
X14117636Y-15590288D01*
X14117636Y-15590288D02*
X14117636Y-15533146D01*
X14117636Y-15533146D02*
X14127160Y-15514098D01*
X14127160Y-15514098D02*
X14136684Y-15504574D01*
X14136684Y-15504574D02*
X14155731Y-15495050D01*
X14155731Y-15495050D02*
X14184303Y-15495050D01*
X14184303Y-15495050D02*
X14203351Y-15504574D01*
X14203351Y-15504574D02*
X14212874Y-15514098D01*
X14212874Y-15514098D02*
X14222398Y-15533146D01*
X14222398Y-15533146D02*
X14222398Y-15590288D01*
X14222398Y-15590288D02*
X14212874Y-15609336D01*
X14212874Y-15609336D02*
X14203351Y-15618860D01*
X14203351Y-15618860D02*
X14184303Y-15628384D01*
X14184303Y-15628384D02*
X14155731Y-15628384D01*
X14336684Y-15628384D02*
X14317636Y-15618860D01*
X14317636Y-15618860D02*
X14308112Y-15599812D01*
X14308112Y-15599812D02*
X14308112Y-15428384D01*
X14489065Y-15618860D02*
X14470017Y-15628384D01*
X14470017Y-15628384D02*
X14431922Y-15628384D01*
X14431922Y-15628384D02*
X14412874Y-15618860D01*
X14412874Y-15618860D02*
X14403351Y-15599812D01*
X14403351Y-15599812D02*
X14403351Y-15523622D01*
X14403351Y-15523622D02*
X14412874Y-15504574D01*
X14412874Y-15504574D02*
X14431922Y-15495050D01*
X14431922Y-15495050D02*
X14470017Y-15495050D01*
X14470017Y-15495050D02*
X14489065Y-15504574D01*
X14489065Y-15504574D02*
X14498589Y-15523622D01*
X14498589Y-15523622D02*
X14498589Y-15542669D01*
X14498589Y-15542669D02*
X14403351Y-15561717D01*
X14574779Y-15618860D02*
X14593827Y-15628384D01*
X14593827Y-15628384D02*
X14631922Y-15628384D01*
X14631922Y-15628384D02*
X14650970Y-15618860D01*
X14650970Y-15618860D02*
X14660493Y-15599812D01*
X14660493Y-15599812D02*
X14660493Y-15590288D01*
X14660493Y-15590288D02*
X14650970Y-15571241D01*
X14650970Y-15571241D02*
X14631922Y-15561717D01*
X14631922Y-15561717D02*
X14603351Y-15561717D01*
X14603351Y-15561717D02*
X14584303Y-15552193D01*
X14584303Y-15552193D02*
X14574779Y-15533146D01*
X14574779Y-15533146D02*
X14574779Y-15523622D01*
X14574779Y-15523622D02*
X14584303Y-15504574D01*
X14584303Y-15504574D02*
X14603351Y-15495050D01*
X14603351Y-15495050D02*
X14631922Y-15495050D01*
X14631922Y-15495050D02*
X14650970Y-15504574D01*
X14727160Y-15704574D02*
X14736684Y-15695050D01*
X14736684Y-15695050D02*
X14755732Y-15666479D01*
X14755732Y-15666479D02*
X14765255Y-15647431D01*
X14765255Y-15647431D02*
X14774779Y-15618860D01*
X14774779Y-15618860D02*
X14784303Y-15571241D01*
X14784303Y-15571241D02*
X14784303Y-15533146D01*
X14784303Y-15533146D02*
X14774779Y-15485527D01*
X14774779Y-15485527D02*
X14765255Y-15456955D01*
X14765255Y-15456955D02*
X14755732Y-15437908D01*
X14755732Y-15437908D02*
X14736684Y-15409336D01*
X14736684Y-15409336D02*
X14727160Y-15399812D01*
D12*
X9731621Y-15770900D02*
X9731621Y-15830900D01*
X9701621Y-15800900D02*
X9761621Y-15800900D01*
D11*
X10060493Y-15692384D02*
X10079541Y-15692384D01*
X10079541Y-15692384D02*
X10098588Y-15701908D01*
X10098588Y-15701908D02*
X10108112Y-15711431D01*
X10108112Y-15711431D02*
X10117636Y-15730479D01*
X10117636Y-15730479D02*
X10127160Y-15768574D01*
X10127160Y-15768574D02*
X10127160Y-15816193D01*
X10127160Y-15816193D02*
X10117636Y-15854288D01*
X10117636Y-15854288D02*
X10108112Y-15873336D01*
X10108112Y-15873336D02*
X10098588Y-15882860D01*
X10098588Y-15882860D02*
X10079541Y-15892384D01*
X10079541Y-15892384D02*
X10060493Y-15892384D01*
X10060493Y-15892384D02*
X10041445Y-15882860D01*
X10041445Y-15882860D02*
X10031922Y-15873336D01*
X10031922Y-15873336D02*
X10022398Y-15854288D01*
X10022398Y-15854288D02*
X10012874Y-15816193D01*
X10012874Y-15816193D02*
X10012874Y-15768574D01*
X10012874Y-15768574D02*
X10022398Y-15730479D01*
X10022398Y-15730479D02*
X10031922Y-15711431D01*
X10031922Y-15711431D02*
X10041445Y-15701908D01*
X10041445Y-15701908D02*
X10060493Y-15692384D01*
X10212874Y-15873336D02*
X10222398Y-15882860D01*
X10222398Y-15882860D02*
X10212874Y-15892384D01*
X10212874Y-15892384D02*
X10203350Y-15882860D01*
X10203350Y-15882860D02*
X10212874Y-15873336D01*
X10212874Y-15873336D02*
X10212874Y-15892384D01*
X10393826Y-15692384D02*
X10355731Y-15692384D01*
X10355731Y-15692384D02*
X10336684Y-15701908D01*
X10336684Y-15701908D02*
X10327160Y-15711431D01*
X10327160Y-15711431D02*
X10308112Y-15740003D01*
X10308112Y-15740003D02*
X10298588Y-15778098D01*
X10298588Y-15778098D02*
X10298588Y-15854288D01*
X10298588Y-15854288D02*
X10308112Y-15873336D01*
X10308112Y-15873336D02*
X10317636Y-15882860D01*
X10317636Y-15882860D02*
X10336684Y-15892384D01*
X10336684Y-15892384D02*
X10374779Y-15892384D01*
X10374779Y-15892384D02*
X10393826Y-15882860D01*
X10393826Y-15882860D02*
X10403350Y-15873336D01*
X10403350Y-15873336D02*
X10412874Y-15854288D01*
X10412874Y-15854288D02*
X10412874Y-15806669D01*
X10412874Y-15806669D02*
X10403350Y-15787622D01*
X10403350Y-15787622D02*
X10393826Y-15778098D01*
X10393826Y-15778098D02*
X10374779Y-15768574D01*
X10374779Y-15768574D02*
X10336684Y-15768574D01*
X10336684Y-15768574D02*
X10317636Y-15778098D01*
X10317636Y-15778098D02*
X10308112Y-15787622D01*
X10308112Y-15787622D02*
X10298588Y-15806669D01*
X10536684Y-15692384D02*
X10555731Y-15692384D01*
X10555731Y-15692384D02*
X10574779Y-15701908D01*
X10574779Y-15701908D02*
X10584303Y-15711431D01*
X10584303Y-15711431D02*
X10593826Y-15730479D01*
X10593826Y-15730479D02*
X10603350Y-15768574D01*
X10603350Y-15768574D02*
X10603350Y-15816193D01*
X10603350Y-15816193D02*
X10593826Y-15854288D01*
X10593826Y-15854288D02*
X10584303Y-15873336D01*
X10584303Y-15873336D02*
X10574779Y-15882860D01*
X10574779Y-15882860D02*
X10555731Y-15892384D01*
X10555731Y-15892384D02*
X10536684Y-15892384D01*
X10536684Y-15892384D02*
X10517636Y-15882860D01*
X10517636Y-15882860D02*
X10508112Y-15873336D01*
X10508112Y-15873336D02*
X10498588Y-15854288D01*
X10498588Y-15854288D02*
X10489065Y-15816193D01*
X10489065Y-15816193D02*
X10489065Y-15768574D01*
X10489065Y-15768574D02*
X10498588Y-15730479D01*
X10498588Y-15730479D02*
X10508112Y-15711431D01*
X10508112Y-15711431D02*
X10517636Y-15701908D01*
X10517636Y-15701908D02*
X10536684Y-15692384D01*
X10727160Y-15692384D02*
X10746207Y-15692384D01*
X10746207Y-15692384D02*
X10765255Y-15701908D01*
X10765255Y-15701908D02*
X10774779Y-15711431D01*
X10774779Y-15711431D02*
X10784303Y-15730479D01*
X10784303Y-15730479D02*
X10793826Y-15768574D01*
X10793826Y-15768574D02*
X10793826Y-15816193D01*
X10793826Y-15816193D02*
X10784303Y-15854288D01*
X10784303Y-15854288D02*
X10774779Y-15873336D01*
X10774779Y-15873336D02*
X10765255Y-15882860D01*
X10765255Y-15882860D02*
X10746207Y-15892384D01*
X10746207Y-15892384D02*
X10727160Y-15892384D01*
X10727160Y-15892384D02*
X10708112Y-15882860D01*
X10708112Y-15882860D02*
X10698588Y-15873336D01*
X10698588Y-15873336D02*
X10689065Y-15854288D01*
X10689065Y-15854288D02*
X10679541Y-15816193D01*
X10679541Y-15816193D02*
X10679541Y-15768574D01*
X10679541Y-15768574D02*
X10689065Y-15730479D01*
X10689065Y-15730479D02*
X10698588Y-15711431D01*
X10698588Y-15711431D02*
X10708112Y-15701908D01*
X10708112Y-15701908D02*
X10727160Y-15692384D01*
X10879541Y-15892384D02*
X10879541Y-15759050D01*
X10879541Y-15778098D02*
X10889065Y-15768574D01*
X10889065Y-15768574D02*
X10908112Y-15759050D01*
X10908112Y-15759050D02*
X10936684Y-15759050D01*
X10936684Y-15759050D02*
X10955731Y-15768574D01*
X10955731Y-15768574D02*
X10965255Y-15787622D01*
X10965255Y-15787622D02*
X10965255Y-15892384D01*
X10965255Y-15787622D02*
X10974779Y-15768574D01*
X10974779Y-15768574D02*
X10993826Y-15759050D01*
X10993826Y-15759050D02*
X11022398Y-15759050D01*
X11022398Y-15759050D02*
X11041446Y-15768574D01*
X11041446Y-15768574D02*
X11050969Y-15787622D01*
X11050969Y-15787622D02*
X11050969Y-15892384D01*
X11146207Y-15892384D02*
X11146207Y-15759050D01*
X11146207Y-15778098D02*
X11155731Y-15768574D01*
X11155731Y-15768574D02*
X11174779Y-15759050D01*
X11174779Y-15759050D02*
X11203350Y-15759050D01*
X11203350Y-15759050D02*
X11222398Y-15768574D01*
X11222398Y-15768574D02*
X11231922Y-15787622D01*
X11231922Y-15787622D02*
X11231922Y-15892384D01*
X11231922Y-15787622D02*
X11241445Y-15768574D01*
X11241445Y-15768574D02*
X11260493Y-15759050D01*
X11260493Y-15759050D02*
X11289064Y-15759050D01*
X11289064Y-15759050D02*
X11308112Y-15768574D01*
X11308112Y-15768574D02*
X11317636Y-15787622D01*
X11317636Y-15787622D02*
X11317636Y-15892384D01*
X11708112Y-15682860D02*
X11536684Y-15940003D01*
X11965255Y-15692384D02*
X11984303Y-15692384D01*
X11984303Y-15692384D02*
X12003350Y-15701908D01*
X12003350Y-15701908D02*
X12012874Y-15711431D01*
X12012874Y-15711431D02*
X12022398Y-15730479D01*
X12022398Y-15730479D02*
X12031922Y-15768574D01*
X12031922Y-15768574D02*
X12031922Y-15816193D01*
X12031922Y-15816193D02*
X12022398Y-15854288D01*
X12022398Y-15854288D02*
X12012874Y-15873336D01*
X12012874Y-15873336D02*
X12003350Y-15882860D01*
X12003350Y-15882860D02*
X11984303Y-15892384D01*
X11984303Y-15892384D02*
X11965255Y-15892384D01*
X11965255Y-15892384D02*
X11946207Y-15882860D01*
X11946207Y-15882860D02*
X11936684Y-15873336D01*
X11936684Y-15873336D02*
X11927160Y-15854288D01*
X11927160Y-15854288D02*
X11917636Y-15816193D01*
X11917636Y-15816193D02*
X11917636Y-15768574D01*
X11917636Y-15768574D02*
X11927160Y-15730479D01*
X11927160Y-15730479D02*
X11936684Y-15711431D01*
X11936684Y-15711431D02*
X11946207Y-15701908D01*
X11946207Y-15701908D02*
X11965255Y-15692384D01*
X12117636Y-15873336D02*
X12127160Y-15882860D01*
X12127160Y-15882860D02*
X12117636Y-15892384D01*
X12117636Y-15892384D02*
X12108112Y-15882860D01*
X12108112Y-15882860D02*
X12117636Y-15873336D01*
X12117636Y-15873336D02*
X12117636Y-15892384D01*
X12250969Y-15692384D02*
X12270017Y-15692384D01*
X12270017Y-15692384D02*
X12289065Y-15701908D01*
X12289065Y-15701908D02*
X12298588Y-15711431D01*
X12298588Y-15711431D02*
X12308112Y-15730479D01*
X12308112Y-15730479D02*
X12317636Y-15768574D01*
X12317636Y-15768574D02*
X12317636Y-15816193D01*
X12317636Y-15816193D02*
X12308112Y-15854288D01*
X12308112Y-15854288D02*
X12298588Y-15873336D01*
X12298588Y-15873336D02*
X12289065Y-15882860D01*
X12289065Y-15882860D02*
X12270017Y-15892384D01*
X12270017Y-15892384D02*
X12250969Y-15892384D01*
X12250969Y-15892384D02*
X12231922Y-15882860D01*
X12231922Y-15882860D02*
X12222398Y-15873336D01*
X12222398Y-15873336D02*
X12212874Y-15854288D01*
X12212874Y-15854288D02*
X12203350Y-15816193D01*
X12203350Y-15816193D02*
X12203350Y-15768574D01*
X12203350Y-15768574D02*
X12212874Y-15730479D01*
X12212874Y-15730479D02*
X12222398Y-15711431D01*
X12222398Y-15711431D02*
X12231922Y-15701908D01*
X12231922Y-15701908D02*
X12250969Y-15692384D01*
X12393827Y-15711431D02*
X12403350Y-15701908D01*
X12403350Y-15701908D02*
X12422398Y-15692384D01*
X12422398Y-15692384D02*
X12470017Y-15692384D01*
X12470017Y-15692384D02*
X12489065Y-15701908D01*
X12489065Y-15701908D02*
X12498588Y-15711431D01*
X12498588Y-15711431D02*
X12508112Y-15730479D01*
X12508112Y-15730479D02*
X12508112Y-15749527D01*
X12508112Y-15749527D02*
X12498588Y-15778098D01*
X12498588Y-15778098D02*
X12384303Y-15892384D01*
X12384303Y-15892384D02*
X12508112Y-15892384D01*
X12574779Y-15692384D02*
X12698588Y-15692384D01*
X12698588Y-15692384D02*
X12631922Y-15768574D01*
X12631922Y-15768574D02*
X12660493Y-15768574D01*
X12660493Y-15768574D02*
X12679541Y-15778098D01*
X12679541Y-15778098D02*
X12689065Y-15787622D01*
X12689065Y-15787622D02*
X12698588Y-15806669D01*
X12698588Y-15806669D02*
X12698588Y-15854288D01*
X12698588Y-15854288D02*
X12689065Y-15873336D01*
X12689065Y-15873336D02*
X12679541Y-15882860D01*
X12679541Y-15882860D02*
X12660493Y-15892384D01*
X12660493Y-15892384D02*
X12603350Y-15892384D01*
X12603350Y-15892384D02*
X12584303Y-15882860D01*
X12584303Y-15882860D02*
X12574779Y-15873336D01*
X12870017Y-15692384D02*
X12831922Y-15692384D01*
X12831922Y-15692384D02*
X12812874Y-15701908D01*
X12812874Y-15701908D02*
X12803350Y-15711431D01*
X12803350Y-15711431D02*
X12784303Y-15740003D01*
X12784303Y-15740003D02*
X12774779Y-15778098D01*
X12774779Y-15778098D02*
X12774779Y-15854288D01*
X12774779Y-15854288D02*
X12784303Y-15873336D01*
X12784303Y-15873336D02*
X12793827Y-15882860D01*
X12793827Y-15882860D02*
X12812874Y-15892384D01*
X12812874Y-15892384D02*
X12850969Y-15892384D01*
X12850969Y-15892384D02*
X12870017Y-15882860D01*
X12870017Y-15882860D02*
X12879541Y-15873336D01*
X12879541Y-15873336D02*
X12889065Y-15854288D01*
X12889065Y-15854288D02*
X12889065Y-15806669D01*
X12889065Y-15806669D02*
X12879541Y-15787622D01*
X12879541Y-15787622D02*
X12870017Y-15778098D01*
X12870017Y-15778098D02*
X12850969Y-15768574D01*
X12850969Y-15768574D02*
X12812874Y-15768574D01*
X12812874Y-15768574D02*
X12793827Y-15778098D01*
X12793827Y-15778098D02*
X12784303Y-15787622D01*
X12784303Y-15787622D02*
X12774779Y-15806669D01*
X12965255Y-15692384D02*
X12965255Y-15730479D01*
X13041446Y-15692384D02*
X13041446Y-15730479D01*
X13336684Y-15968574D02*
X13327160Y-15959050D01*
X13327160Y-15959050D02*
X13308112Y-15930479D01*
X13308112Y-15930479D02*
X13298589Y-15911431D01*
X13298589Y-15911431D02*
X13289065Y-15882860D01*
X13289065Y-15882860D02*
X13279541Y-15835241D01*
X13279541Y-15835241D02*
X13279541Y-15797146D01*
X13279541Y-15797146D02*
X13289065Y-15749527D01*
X13289065Y-15749527D02*
X13298589Y-15720955D01*
X13298589Y-15720955D02*
X13308112Y-15701908D01*
X13308112Y-15701908D02*
X13327160Y-15673336D01*
X13327160Y-15673336D02*
X13336684Y-15663812D01*
X13450969Y-15692384D02*
X13470017Y-15692384D01*
X13470017Y-15692384D02*
X13489065Y-15701908D01*
X13489065Y-15701908D02*
X13498589Y-15711431D01*
X13498589Y-15711431D02*
X13508112Y-15730479D01*
X13508112Y-15730479D02*
X13517636Y-15768574D01*
X13517636Y-15768574D02*
X13517636Y-15816193D01*
X13517636Y-15816193D02*
X13508112Y-15854288D01*
X13508112Y-15854288D02*
X13498589Y-15873336D01*
X13498589Y-15873336D02*
X13489065Y-15882860D01*
X13489065Y-15882860D02*
X13470017Y-15892384D01*
X13470017Y-15892384D02*
X13450969Y-15892384D01*
X13450969Y-15892384D02*
X13431922Y-15882860D01*
X13431922Y-15882860D02*
X13422398Y-15873336D01*
X13422398Y-15873336D02*
X13412874Y-15854288D01*
X13412874Y-15854288D02*
X13403350Y-15816193D01*
X13403350Y-15816193D02*
X13403350Y-15768574D01*
X13403350Y-15768574D02*
X13412874Y-15730479D01*
X13412874Y-15730479D02*
X13422398Y-15711431D01*
X13422398Y-15711431D02*
X13431922Y-15701908D01*
X13431922Y-15701908D02*
X13450969Y-15692384D01*
X13755731Y-15892384D02*
X13755731Y-15692384D01*
X13841446Y-15892384D02*
X13841446Y-15787622D01*
X13841446Y-15787622D02*
X13831922Y-15768574D01*
X13831922Y-15768574D02*
X13812874Y-15759050D01*
X13812874Y-15759050D02*
X13784303Y-15759050D01*
X13784303Y-15759050D02*
X13765255Y-15768574D01*
X13765255Y-15768574D02*
X13755731Y-15778098D01*
X13965255Y-15892384D02*
X13946208Y-15882860D01*
X13946208Y-15882860D02*
X13936684Y-15873336D01*
X13936684Y-15873336D02*
X13927160Y-15854288D01*
X13927160Y-15854288D02*
X13927160Y-15797146D01*
X13927160Y-15797146D02*
X13936684Y-15778098D01*
X13936684Y-15778098D02*
X13946208Y-15768574D01*
X13946208Y-15768574D02*
X13965255Y-15759050D01*
X13965255Y-15759050D02*
X13993827Y-15759050D01*
X13993827Y-15759050D02*
X14012874Y-15768574D01*
X14012874Y-15768574D02*
X14022398Y-15778098D01*
X14022398Y-15778098D02*
X14031922Y-15797146D01*
X14031922Y-15797146D02*
X14031922Y-15854288D01*
X14031922Y-15854288D02*
X14022398Y-15873336D01*
X14022398Y-15873336D02*
X14012874Y-15882860D01*
X14012874Y-15882860D02*
X13993827Y-15892384D01*
X13993827Y-15892384D02*
X13965255Y-15892384D01*
X14146208Y-15892384D02*
X14127160Y-15882860D01*
X14127160Y-15882860D02*
X14117636Y-15863812D01*
X14117636Y-15863812D02*
X14117636Y-15692384D01*
X14298589Y-15882860D02*
X14279541Y-15892384D01*
X14279541Y-15892384D02*
X14241446Y-15892384D01*
X14241446Y-15892384D02*
X14222398Y-15882860D01*
X14222398Y-15882860D02*
X14212874Y-15863812D01*
X14212874Y-15863812D02*
X14212874Y-15787622D01*
X14212874Y-15787622D02*
X14222398Y-15768574D01*
X14222398Y-15768574D02*
X14241446Y-15759050D01*
X14241446Y-15759050D02*
X14279541Y-15759050D01*
X14279541Y-15759050D02*
X14298589Y-15768574D01*
X14298589Y-15768574D02*
X14308112Y-15787622D01*
X14308112Y-15787622D02*
X14308112Y-15806669D01*
X14308112Y-15806669D02*
X14212874Y-15825717D01*
X14384303Y-15882860D02*
X14403351Y-15892384D01*
X14403351Y-15892384D02*
X14441446Y-15892384D01*
X14441446Y-15892384D02*
X14460493Y-15882860D01*
X14460493Y-15882860D02*
X14470017Y-15863812D01*
X14470017Y-15863812D02*
X14470017Y-15854288D01*
X14470017Y-15854288D02*
X14460493Y-15835241D01*
X14460493Y-15835241D02*
X14441446Y-15825717D01*
X14441446Y-15825717D02*
X14412874Y-15825717D01*
X14412874Y-15825717D02*
X14393827Y-15816193D01*
X14393827Y-15816193D02*
X14384303Y-15797146D01*
X14384303Y-15797146D02*
X14384303Y-15787622D01*
X14384303Y-15787622D02*
X14393827Y-15768574D01*
X14393827Y-15768574D02*
X14412874Y-15759050D01*
X14412874Y-15759050D02*
X14441446Y-15759050D01*
X14441446Y-15759050D02*
X14460493Y-15768574D01*
X14708113Y-15816193D02*
X14860494Y-15816193D01*
X14784303Y-15892384D02*
X14784303Y-15740003D01*
X15193827Y-15759050D02*
X15193827Y-15892384D01*
X15146208Y-15682860D02*
X15098589Y-15825717D01*
X15098589Y-15825717D02*
X15222398Y-15825717D01*
X15441446Y-15882860D02*
X15460494Y-15892384D01*
X15460494Y-15892384D02*
X15498589Y-15892384D01*
X15498589Y-15892384D02*
X15517636Y-15882860D01*
X15517636Y-15882860D02*
X15527160Y-15863812D01*
X15527160Y-15863812D02*
X15527160Y-15854288D01*
X15527160Y-15854288D02*
X15517636Y-15835241D01*
X15517636Y-15835241D02*
X15498589Y-15825717D01*
X15498589Y-15825717D02*
X15470017Y-15825717D01*
X15470017Y-15825717D02*
X15450970Y-15816193D01*
X15450970Y-15816193D02*
X15441446Y-15797146D01*
X15441446Y-15797146D02*
X15441446Y-15787622D01*
X15441446Y-15787622D02*
X15450970Y-15768574D01*
X15450970Y-15768574D02*
X15470017Y-15759050D01*
X15470017Y-15759050D02*
X15498589Y-15759050D01*
X15498589Y-15759050D02*
X15517636Y-15768574D01*
X15641446Y-15892384D02*
X15622398Y-15882860D01*
X15622398Y-15882860D02*
X15612875Y-15863812D01*
X15612875Y-15863812D02*
X15612875Y-15692384D01*
X15746208Y-15892384D02*
X15727160Y-15882860D01*
X15727160Y-15882860D02*
X15717636Y-15873336D01*
X15717636Y-15873336D02*
X15708113Y-15854288D01*
X15708113Y-15854288D02*
X15708113Y-15797146D01*
X15708113Y-15797146D02*
X15717636Y-15778098D01*
X15717636Y-15778098D02*
X15727160Y-15768574D01*
X15727160Y-15768574D02*
X15746208Y-15759050D01*
X15746208Y-15759050D02*
X15774779Y-15759050D01*
X15774779Y-15759050D02*
X15793827Y-15768574D01*
X15793827Y-15768574D02*
X15803351Y-15778098D01*
X15803351Y-15778098D02*
X15812875Y-15797146D01*
X15812875Y-15797146D02*
X15812875Y-15854288D01*
X15812875Y-15854288D02*
X15803351Y-15873336D01*
X15803351Y-15873336D02*
X15793827Y-15882860D01*
X15793827Y-15882860D02*
X15774779Y-15892384D01*
X15774779Y-15892384D02*
X15746208Y-15892384D01*
X15870017Y-15759050D02*
X15946208Y-15759050D01*
X15898589Y-15692384D02*
X15898589Y-15863812D01*
X15898589Y-15863812D02*
X15908113Y-15882860D01*
X15908113Y-15882860D02*
X15927160Y-15892384D01*
X15927160Y-15892384D02*
X15946208Y-15892384D01*
X16003351Y-15882860D02*
X16022398Y-15892384D01*
X16022398Y-15892384D02*
X16060494Y-15892384D01*
X16060494Y-15892384D02*
X16079541Y-15882860D01*
X16079541Y-15882860D02*
X16089065Y-15863812D01*
X16089065Y-15863812D02*
X16089065Y-15854288D01*
X16089065Y-15854288D02*
X16079541Y-15835241D01*
X16079541Y-15835241D02*
X16060494Y-15825717D01*
X16060494Y-15825717D02*
X16031922Y-15825717D01*
X16031922Y-15825717D02*
X16012875Y-15816193D01*
X16012875Y-15816193D02*
X16003351Y-15797146D01*
X16003351Y-15797146D02*
X16003351Y-15787622D01*
X16003351Y-15787622D02*
X16012875Y-15768574D01*
X16012875Y-15768574D02*
X16031922Y-15759050D01*
X16031922Y-15759050D02*
X16060494Y-15759050D01*
X16060494Y-15759050D02*
X16079541Y-15768574D01*
X16155732Y-15968574D02*
X16165256Y-15959050D01*
X16165256Y-15959050D02*
X16184303Y-15930479D01*
X16184303Y-15930479D02*
X16193827Y-15911431D01*
X16193827Y-15911431D02*
X16203351Y-15882860D01*
X16203351Y-15882860D02*
X16212875Y-15835241D01*
X16212875Y-15835241D02*
X16212875Y-15797146D01*
X16212875Y-15797146D02*
X16203351Y-15749527D01*
X16203351Y-15749527D02*
X16193827Y-15720955D01*
X16193827Y-15720955D02*
X16184303Y-15701908D01*
X16184303Y-15701908D02*
X16165256Y-15673336D01*
X16165256Y-15673336D02*
X16155732Y-15663812D01*
D12*
X9746977Y-16100256D02*
X9746977Y-16029544D01*
X9676265Y-16029544D01*
X9676265Y-16100256D01*
X9746977Y-16100256D01*
D11*
X10127160Y-16156384D02*
X10012874Y-16156384D01*
X10070017Y-16156384D02*
X10070017Y-15956384D01*
X10070017Y-15956384D02*
X10050969Y-15984955D01*
X10050969Y-15984955D02*
X10031922Y-16004003D01*
X10031922Y-16004003D02*
X10012874Y-16013527D01*
X10212874Y-16137336D02*
X10222398Y-16146860D01*
X10222398Y-16146860D02*
X10212874Y-16156384D01*
X10212874Y-16156384D02*
X10203350Y-16146860D01*
X10203350Y-16146860D02*
X10212874Y-16137336D01*
X10212874Y-16137336D02*
X10212874Y-16156384D01*
X10346207Y-15956384D02*
X10365255Y-15956384D01*
X10365255Y-15956384D02*
X10384303Y-15965908D01*
X10384303Y-15965908D02*
X10393826Y-15975431D01*
X10393826Y-15975431D02*
X10403350Y-15994479D01*
X10403350Y-15994479D02*
X10412874Y-16032574D01*
X10412874Y-16032574D02*
X10412874Y-16080193D01*
X10412874Y-16080193D02*
X10403350Y-16118288D01*
X10403350Y-16118288D02*
X10393826Y-16137336D01*
X10393826Y-16137336D02*
X10384303Y-16146860D01*
X10384303Y-16146860D02*
X10365255Y-16156384D01*
X10365255Y-16156384D02*
X10346207Y-16156384D01*
X10346207Y-16156384D02*
X10327160Y-16146860D01*
X10327160Y-16146860D02*
X10317636Y-16137336D01*
X10317636Y-16137336D02*
X10308112Y-16118288D01*
X10308112Y-16118288D02*
X10298588Y-16080193D01*
X10298588Y-16080193D02*
X10298588Y-16032574D01*
X10298588Y-16032574D02*
X10308112Y-15994479D01*
X10308112Y-15994479D02*
X10317636Y-15975431D01*
X10317636Y-15975431D02*
X10327160Y-15965908D01*
X10327160Y-15965908D02*
X10346207Y-15956384D01*
X10536684Y-15956384D02*
X10555731Y-15956384D01*
X10555731Y-15956384D02*
X10574779Y-15965908D01*
X10574779Y-15965908D02*
X10584303Y-15975431D01*
X10584303Y-15975431D02*
X10593826Y-15994479D01*
X10593826Y-15994479D02*
X10603350Y-16032574D01*
X10603350Y-16032574D02*
X10603350Y-16080193D01*
X10603350Y-16080193D02*
X10593826Y-16118288D01*
X10593826Y-16118288D02*
X10584303Y-16137336D01*
X10584303Y-16137336D02*
X10574779Y-16146860D01*
X10574779Y-16146860D02*
X10555731Y-16156384D01*
X10555731Y-16156384D02*
X10536684Y-16156384D01*
X10536684Y-16156384D02*
X10517636Y-16146860D01*
X10517636Y-16146860D02*
X10508112Y-16137336D01*
X10508112Y-16137336D02*
X10498588Y-16118288D01*
X10498588Y-16118288D02*
X10489065Y-16080193D01*
X10489065Y-16080193D02*
X10489065Y-16032574D01*
X10489065Y-16032574D02*
X10498588Y-15994479D01*
X10498588Y-15994479D02*
X10508112Y-15975431D01*
X10508112Y-15975431D02*
X10517636Y-15965908D01*
X10517636Y-15965908D02*
X10536684Y-15956384D01*
X10727160Y-15956384D02*
X10746207Y-15956384D01*
X10746207Y-15956384D02*
X10765255Y-15965908D01*
X10765255Y-15965908D02*
X10774779Y-15975431D01*
X10774779Y-15975431D02*
X10784303Y-15994479D01*
X10784303Y-15994479D02*
X10793826Y-16032574D01*
X10793826Y-16032574D02*
X10793826Y-16080193D01*
X10793826Y-16080193D02*
X10784303Y-16118288D01*
X10784303Y-16118288D02*
X10774779Y-16137336D01*
X10774779Y-16137336D02*
X10765255Y-16146860D01*
X10765255Y-16146860D02*
X10746207Y-16156384D01*
X10746207Y-16156384D02*
X10727160Y-16156384D01*
X10727160Y-16156384D02*
X10708112Y-16146860D01*
X10708112Y-16146860D02*
X10698588Y-16137336D01*
X10698588Y-16137336D02*
X10689065Y-16118288D01*
X10689065Y-16118288D02*
X10679541Y-16080193D01*
X10679541Y-16080193D02*
X10679541Y-16032574D01*
X10679541Y-16032574D02*
X10689065Y-15994479D01*
X10689065Y-15994479D02*
X10698588Y-15975431D01*
X10698588Y-15975431D02*
X10708112Y-15965908D01*
X10708112Y-15965908D02*
X10727160Y-15956384D01*
X10879541Y-16156384D02*
X10879541Y-16023050D01*
X10879541Y-16042098D02*
X10889065Y-16032574D01*
X10889065Y-16032574D02*
X10908112Y-16023050D01*
X10908112Y-16023050D02*
X10936684Y-16023050D01*
X10936684Y-16023050D02*
X10955731Y-16032574D01*
X10955731Y-16032574D02*
X10965255Y-16051622D01*
X10965255Y-16051622D02*
X10965255Y-16156384D01*
X10965255Y-16051622D02*
X10974779Y-16032574D01*
X10974779Y-16032574D02*
X10993826Y-16023050D01*
X10993826Y-16023050D02*
X11022398Y-16023050D01*
X11022398Y-16023050D02*
X11041446Y-16032574D01*
X11041446Y-16032574D02*
X11050969Y-16051622D01*
X11050969Y-16051622D02*
X11050969Y-16156384D01*
X11146207Y-16156384D02*
X11146207Y-16023050D01*
X11146207Y-16042098D02*
X11155731Y-16032574D01*
X11155731Y-16032574D02*
X11174779Y-16023050D01*
X11174779Y-16023050D02*
X11203350Y-16023050D01*
X11203350Y-16023050D02*
X11222398Y-16032574D01*
X11222398Y-16032574D02*
X11231922Y-16051622D01*
X11231922Y-16051622D02*
X11231922Y-16156384D01*
X11231922Y-16051622D02*
X11241445Y-16032574D01*
X11241445Y-16032574D02*
X11260493Y-16023050D01*
X11260493Y-16023050D02*
X11289064Y-16023050D01*
X11289064Y-16023050D02*
X11308112Y-16032574D01*
X11308112Y-16032574D02*
X11317636Y-16051622D01*
X11317636Y-16051622D02*
X11317636Y-16156384D01*
X11708112Y-15946860D02*
X11536684Y-16204003D01*
X11965255Y-15956384D02*
X11984303Y-15956384D01*
X11984303Y-15956384D02*
X12003350Y-15965908D01*
X12003350Y-15965908D02*
X12012874Y-15975431D01*
X12012874Y-15975431D02*
X12022398Y-15994479D01*
X12022398Y-15994479D02*
X12031922Y-16032574D01*
X12031922Y-16032574D02*
X12031922Y-16080193D01*
X12031922Y-16080193D02*
X12022398Y-16118288D01*
X12022398Y-16118288D02*
X12012874Y-16137336D01*
X12012874Y-16137336D02*
X12003350Y-16146860D01*
X12003350Y-16146860D02*
X11984303Y-16156384D01*
X11984303Y-16156384D02*
X11965255Y-16156384D01*
X11965255Y-16156384D02*
X11946207Y-16146860D01*
X11946207Y-16146860D02*
X11936684Y-16137336D01*
X11936684Y-16137336D02*
X11927160Y-16118288D01*
X11927160Y-16118288D02*
X11917636Y-16080193D01*
X11917636Y-16080193D02*
X11917636Y-16032574D01*
X11917636Y-16032574D02*
X11927160Y-15994479D01*
X11927160Y-15994479D02*
X11936684Y-15975431D01*
X11936684Y-15975431D02*
X11946207Y-15965908D01*
X11946207Y-15965908D02*
X11965255Y-15956384D01*
X12117636Y-16137336D02*
X12127160Y-16146860D01*
X12127160Y-16146860D02*
X12117636Y-16156384D01*
X12117636Y-16156384D02*
X12108112Y-16146860D01*
X12108112Y-16146860D02*
X12117636Y-16137336D01*
X12117636Y-16137336D02*
X12117636Y-16156384D01*
X12250969Y-15956384D02*
X12270017Y-15956384D01*
X12270017Y-15956384D02*
X12289065Y-15965908D01*
X12289065Y-15965908D02*
X12298588Y-15975431D01*
X12298588Y-15975431D02*
X12308112Y-15994479D01*
X12308112Y-15994479D02*
X12317636Y-16032574D01*
X12317636Y-16032574D02*
X12317636Y-16080193D01*
X12317636Y-16080193D02*
X12308112Y-16118288D01*
X12308112Y-16118288D02*
X12298588Y-16137336D01*
X12298588Y-16137336D02*
X12289065Y-16146860D01*
X12289065Y-16146860D02*
X12270017Y-16156384D01*
X12270017Y-16156384D02*
X12250969Y-16156384D01*
X12250969Y-16156384D02*
X12231922Y-16146860D01*
X12231922Y-16146860D02*
X12222398Y-16137336D01*
X12222398Y-16137336D02*
X12212874Y-16118288D01*
X12212874Y-16118288D02*
X12203350Y-16080193D01*
X12203350Y-16080193D02*
X12203350Y-16032574D01*
X12203350Y-16032574D02*
X12212874Y-15994479D01*
X12212874Y-15994479D02*
X12222398Y-15975431D01*
X12222398Y-15975431D02*
X12231922Y-15965908D01*
X12231922Y-15965908D02*
X12250969Y-15956384D01*
X12384303Y-15956384D02*
X12508112Y-15956384D01*
X12508112Y-15956384D02*
X12441446Y-16032574D01*
X12441446Y-16032574D02*
X12470017Y-16032574D01*
X12470017Y-16032574D02*
X12489065Y-16042098D01*
X12489065Y-16042098D02*
X12498588Y-16051622D01*
X12498588Y-16051622D02*
X12508112Y-16070669D01*
X12508112Y-16070669D02*
X12508112Y-16118288D01*
X12508112Y-16118288D02*
X12498588Y-16137336D01*
X12498588Y-16137336D02*
X12489065Y-16146860D01*
X12489065Y-16146860D02*
X12470017Y-16156384D01*
X12470017Y-16156384D02*
X12412874Y-16156384D01*
X12412874Y-16156384D02*
X12393827Y-16146860D01*
X12393827Y-16146860D02*
X12384303Y-16137336D01*
X12603350Y-16156384D02*
X12641446Y-16156384D01*
X12641446Y-16156384D02*
X12660493Y-16146860D01*
X12660493Y-16146860D02*
X12670017Y-16137336D01*
X12670017Y-16137336D02*
X12689065Y-16108765D01*
X12689065Y-16108765D02*
X12698588Y-16070669D01*
X12698588Y-16070669D02*
X12698588Y-15994479D01*
X12698588Y-15994479D02*
X12689065Y-15975431D01*
X12689065Y-15975431D02*
X12679541Y-15965908D01*
X12679541Y-15965908D02*
X12660493Y-15956384D01*
X12660493Y-15956384D02*
X12622398Y-15956384D01*
X12622398Y-15956384D02*
X12603350Y-15965908D01*
X12603350Y-15965908D02*
X12593827Y-15975431D01*
X12593827Y-15975431D02*
X12584303Y-15994479D01*
X12584303Y-15994479D02*
X12584303Y-16042098D01*
X12584303Y-16042098D02*
X12593827Y-16061146D01*
X12593827Y-16061146D02*
X12603350Y-16070669D01*
X12603350Y-16070669D02*
X12622398Y-16080193D01*
X12622398Y-16080193D02*
X12660493Y-16080193D01*
X12660493Y-16080193D02*
X12679541Y-16070669D01*
X12679541Y-16070669D02*
X12689065Y-16061146D01*
X12689065Y-16061146D02*
X12698588Y-16042098D01*
X12870017Y-16023050D02*
X12870017Y-16156384D01*
X12822398Y-15946860D02*
X12774779Y-16089717D01*
X12774779Y-16089717D02*
X12898588Y-16089717D01*
X12965255Y-15956384D02*
X12965255Y-15994479D01*
X13041446Y-15956384D02*
X13041446Y-15994479D01*
X13336684Y-16232574D02*
X13327160Y-16223050D01*
X13327160Y-16223050D02*
X13308112Y-16194479D01*
X13308112Y-16194479D02*
X13298589Y-16175431D01*
X13298589Y-16175431D02*
X13289065Y-16146860D01*
X13289065Y-16146860D02*
X13279541Y-16099241D01*
X13279541Y-16099241D02*
X13279541Y-16061146D01*
X13279541Y-16061146D02*
X13289065Y-16013527D01*
X13289065Y-16013527D02*
X13298589Y-15984955D01*
X13298589Y-15984955D02*
X13308112Y-15965908D01*
X13308112Y-15965908D02*
X13327160Y-15937336D01*
X13327160Y-15937336D02*
X13336684Y-15927812D01*
X13393827Y-15956384D02*
X13517636Y-15956384D01*
X13517636Y-15956384D02*
X13450969Y-16032574D01*
X13450969Y-16032574D02*
X13479541Y-16032574D01*
X13479541Y-16032574D02*
X13498589Y-16042098D01*
X13498589Y-16042098D02*
X13508112Y-16051622D01*
X13508112Y-16051622D02*
X13517636Y-16070669D01*
X13517636Y-16070669D02*
X13517636Y-16118288D01*
X13517636Y-16118288D02*
X13508112Y-16137336D01*
X13508112Y-16137336D02*
X13498589Y-16146860D01*
X13498589Y-16146860D02*
X13479541Y-16156384D01*
X13479541Y-16156384D02*
X13422398Y-16156384D01*
X13422398Y-16156384D02*
X13403350Y-16146860D01*
X13403350Y-16146860D02*
X13393827Y-16137336D01*
X13708112Y-16156384D02*
X13593827Y-16156384D01*
X13650969Y-16156384D02*
X13650969Y-15956384D01*
X13650969Y-15956384D02*
X13631922Y-15984955D01*
X13631922Y-15984955D02*
X13612874Y-16004003D01*
X13612874Y-16004003D02*
X13593827Y-16013527D01*
X13946208Y-16156384D02*
X13946208Y-15956384D01*
X14031922Y-16156384D02*
X14031922Y-16051622D01*
X14031922Y-16051622D02*
X14022398Y-16032574D01*
X14022398Y-16032574D02*
X14003351Y-16023050D01*
X14003351Y-16023050D02*
X13974779Y-16023050D01*
X13974779Y-16023050D02*
X13955731Y-16032574D01*
X13955731Y-16032574D02*
X13946208Y-16042098D01*
X14155731Y-16156384D02*
X14136684Y-16146860D01*
X14136684Y-16146860D02*
X14127160Y-16137336D01*
X14127160Y-16137336D02*
X14117636Y-16118288D01*
X14117636Y-16118288D02*
X14117636Y-16061146D01*
X14117636Y-16061146D02*
X14127160Y-16042098D01*
X14127160Y-16042098D02*
X14136684Y-16032574D01*
X14136684Y-16032574D02*
X14155731Y-16023050D01*
X14155731Y-16023050D02*
X14184303Y-16023050D01*
X14184303Y-16023050D02*
X14203351Y-16032574D01*
X14203351Y-16032574D02*
X14212874Y-16042098D01*
X14212874Y-16042098D02*
X14222398Y-16061146D01*
X14222398Y-16061146D02*
X14222398Y-16118288D01*
X14222398Y-16118288D02*
X14212874Y-16137336D01*
X14212874Y-16137336D02*
X14203351Y-16146860D01*
X14203351Y-16146860D02*
X14184303Y-16156384D01*
X14184303Y-16156384D02*
X14155731Y-16156384D01*
X14336684Y-16156384D02*
X14317636Y-16146860D01*
X14317636Y-16146860D02*
X14308112Y-16127812D01*
X14308112Y-16127812D02*
X14308112Y-15956384D01*
X14489065Y-16146860D02*
X14470017Y-16156384D01*
X14470017Y-16156384D02*
X14431922Y-16156384D01*
X14431922Y-16156384D02*
X14412874Y-16146860D01*
X14412874Y-16146860D02*
X14403351Y-16127812D01*
X14403351Y-16127812D02*
X14403351Y-16051622D01*
X14403351Y-16051622D02*
X14412874Y-16032574D01*
X14412874Y-16032574D02*
X14431922Y-16023050D01*
X14431922Y-16023050D02*
X14470017Y-16023050D01*
X14470017Y-16023050D02*
X14489065Y-16032574D01*
X14489065Y-16032574D02*
X14498589Y-16051622D01*
X14498589Y-16051622D02*
X14498589Y-16070669D01*
X14498589Y-16070669D02*
X14403351Y-16089717D01*
X14574779Y-16146860D02*
X14593827Y-16156384D01*
X14593827Y-16156384D02*
X14631922Y-16156384D01*
X14631922Y-16156384D02*
X14650970Y-16146860D01*
X14650970Y-16146860D02*
X14660493Y-16127812D01*
X14660493Y-16127812D02*
X14660493Y-16118288D01*
X14660493Y-16118288D02*
X14650970Y-16099241D01*
X14650970Y-16099241D02*
X14631922Y-16089717D01*
X14631922Y-16089717D02*
X14603351Y-16089717D01*
X14603351Y-16089717D02*
X14584303Y-16080193D01*
X14584303Y-16080193D02*
X14574779Y-16061146D01*
X14574779Y-16061146D02*
X14574779Y-16051622D01*
X14574779Y-16051622D02*
X14584303Y-16032574D01*
X14584303Y-16032574D02*
X14603351Y-16023050D01*
X14603351Y-16023050D02*
X14631922Y-16023050D01*
X14631922Y-16023050D02*
X14650970Y-16032574D01*
X14727160Y-16232574D02*
X14736684Y-16223050D01*
X14736684Y-16223050D02*
X14755732Y-16194479D01*
X14755732Y-16194479D02*
X14765255Y-16175431D01*
X14765255Y-16175431D02*
X14774779Y-16146860D01*
X14774779Y-16146860D02*
X14784303Y-16099241D01*
X14784303Y-16099241D02*
X14784303Y-16061146D01*
X14784303Y-16061146D02*
X14774779Y-16013527D01*
X14774779Y-16013527D02*
X14765255Y-15984955D01*
X14765255Y-15984955D02*
X14755732Y-15965908D01*
X14755732Y-15965908D02*
X14736684Y-15937336D01*
X14736684Y-15937336D02*
X14727160Y-15927812D01*
D13*
X9686621Y-16403900D02*
X9761621Y-16328900D01*
X9686621Y-16253900D01*
X9611621Y-16328900D01*
X9686621Y-16403900D01*
D11*
X10127160Y-16420384D02*
X10012874Y-16420384D01*
X10070017Y-16420384D02*
X10070017Y-16220384D01*
X10070017Y-16220384D02*
X10050969Y-16248955D01*
X10050969Y-16248955D02*
X10031922Y-16268003D01*
X10031922Y-16268003D02*
X10012874Y-16277527D01*
X10212874Y-16401336D02*
X10222398Y-16410860D01*
X10222398Y-16410860D02*
X10212874Y-16420384D01*
X10212874Y-16420384D02*
X10203350Y-16410860D01*
X10203350Y-16410860D02*
X10212874Y-16401336D01*
X10212874Y-16401336D02*
X10212874Y-16420384D01*
X10403350Y-16220384D02*
X10308112Y-16220384D01*
X10308112Y-16220384D02*
X10298588Y-16315622D01*
X10298588Y-16315622D02*
X10308112Y-16306098D01*
X10308112Y-16306098D02*
X10327160Y-16296574D01*
X10327160Y-16296574D02*
X10374779Y-16296574D01*
X10374779Y-16296574D02*
X10393826Y-16306098D01*
X10393826Y-16306098D02*
X10403350Y-16315622D01*
X10403350Y-16315622D02*
X10412874Y-16334669D01*
X10412874Y-16334669D02*
X10412874Y-16382288D01*
X10412874Y-16382288D02*
X10403350Y-16401336D01*
X10403350Y-16401336D02*
X10393826Y-16410860D01*
X10393826Y-16410860D02*
X10374779Y-16420384D01*
X10374779Y-16420384D02*
X10327160Y-16420384D01*
X10327160Y-16420384D02*
X10308112Y-16410860D01*
X10308112Y-16410860D02*
X10298588Y-16401336D01*
X10536684Y-16220384D02*
X10555731Y-16220384D01*
X10555731Y-16220384D02*
X10574779Y-16229908D01*
X10574779Y-16229908D02*
X10584303Y-16239431D01*
X10584303Y-16239431D02*
X10593826Y-16258479D01*
X10593826Y-16258479D02*
X10603350Y-16296574D01*
X10603350Y-16296574D02*
X10603350Y-16344193D01*
X10603350Y-16344193D02*
X10593826Y-16382288D01*
X10593826Y-16382288D02*
X10584303Y-16401336D01*
X10584303Y-16401336D02*
X10574779Y-16410860D01*
X10574779Y-16410860D02*
X10555731Y-16420384D01*
X10555731Y-16420384D02*
X10536684Y-16420384D01*
X10536684Y-16420384D02*
X10517636Y-16410860D01*
X10517636Y-16410860D02*
X10508112Y-16401336D01*
X10508112Y-16401336D02*
X10498588Y-16382288D01*
X10498588Y-16382288D02*
X10489065Y-16344193D01*
X10489065Y-16344193D02*
X10489065Y-16296574D01*
X10489065Y-16296574D02*
X10498588Y-16258479D01*
X10498588Y-16258479D02*
X10508112Y-16239431D01*
X10508112Y-16239431D02*
X10517636Y-16229908D01*
X10517636Y-16229908D02*
X10536684Y-16220384D01*
X10727160Y-16220384D02*
X10746207Y-16220384D01*
X10746207Y-16220384D02*
X10765255Y-16229908D01*
X10765255Y-16229908D02*
X10774779Y-16239431D01*
X10774779Y-16239431D02*
X10784303Y-16258479D01*
X10784303Y-16258479D02*
X10793826Y-16296574D01*
X10793826Y-16296574D02*
X10793826Y-16344193D01*
X10793826Y-16344193D02*
X10784303Y-16382288D01*
X10784303Y-16382288D02*
X10774779Y-16401336D01*
X10774779Y-16401336D02*
X10765255Y-16410860D01*
X10765255Y-16410860D02*
X10746207Y-16420384D01*
X10746207Y-16420384D02*
X10727160Y-16420384D01*
X10727160Y-16420384D02*
X10708112Y-16410860D01*
X10708112Y-16410860D02*
X10698588Y-16401336D01*
X10698588Y-16401336D02*
X10689065Y-16382288D01*
X10689065Y-16382288D02*
X10679541Y-16344193D01*
X10679541Y-16344193D02*
X10679541Y-16296574D01*
X10679541Y-16296574D02*
X10689065Y-16258479D01*
X10689065Y-16258479D02*
X10698588Y-16239431D01*
X10698588Y-16239431D02*
X10708112Y-16229908D01*
X10708112Y-16229908D02*
X10727160Y-16220384D01*
X10879541Y-16420384D02*
X10879541Y-16287050D01*
X10879541Y-16306098D02*
X10889065Y-16296574D01*
X10889065Y-16296574D02*
X10908112Y-16287050D01*
X10908112Y-16287050D02*
X10936684Y-16287050D01*
X10936684Y-16287050D02*
X10955731Y-16296574D01*
X10955731Y-16296574D02*
X10965255Y-16315622D01*
X10965255Y-16315622D02*
X10965255Y-16420384D01*
X10965255Y-16315622D02*
X10974779Y-16296574D01*
X10974779Y-16296574D02*
X10993826Y-16287050D01*
X10993826Y-16287050D02*
X11022398Y-16287050D01*
X11022398Y-16287050D02*
X11041446Y-16296574D01*
X11041446Y-16296574D02*
X11050969Y-16315622D01*
X11050969Y-16315622D02*
X11050969Y-16420384D01*
X11146207Y-16420384D02*
X11146207Y-16287050D01*
X11146207Y-16306098D02*
X11155731Y-16296574D01*
X11155731Y-16296574D02*
X11174779Y-16287050D01*
X11174779Y-16287050D02*
X11203350Y-16287050D01*
X11203350Y-16287050D02*
X11222398Y-16296574D01*
X11222398Y-16296574D02*
X11231922Y-16315622D01*
X11231922Y-16315622D02*
X11231922Y-16420384D01*
X11231922Y-16315622D02*
X11241445Y-16296574D01*
X11241445Y-16296574D02*
X11260493Y-16287050D01*
X11260493Y-16287050D02*
X11289064Y-16287050D01*
X11289064Y-16287050D02*
X11308112Y-16296574D01*
X11308112Y-16296574D02*
X11317636Y-16315622D01*
X11317636Y-16315622D02*
X11317636Y-16420384D01*
X11708112Y-16210860D02*
X11536684Y-16468003D01*
X11965255Y-16220384D02*
X11984303Y-16220384D01*
X11984303Y-16220384D02*
X12003350Y-16229908D01*
X12003350Y-16229908D02*
X12012874Y-16239431D01*
X12012874Y-16239431D02*
X12022398Y-16258479D01*
X12022398Y-16258479D02*
X12031922Y-16296574D01*
X12031922Y-16296574D02*
X12031922Y-16344193D01*
X12031922Y-16344193D02*
X12022398Y-16382288D01*
X12022398Y-16382288D02*
X12012874Y-16401336D01*
X12012874Y-16401336D02*
X12003350Y-16410860D01*
X12003350Y-16410860D02*
X11984303Y-16420384D01*
X11984303Y-16420384D02*
X11965255Y-16420384D01*
X11965255Y-16420384D02*
X11946207Y-16410860D01*
X11946207Y-16410860D02*
X11936684Y-16401336D01*
X11936684Y-16401336D02*
X11927160Y-16382288D01*
X11927160Y-16382288D02*
X11917636Y-16344193D01*
X11917636Y-16344193D02*
X11917636Y-16296574D01*
X11917636Y-16296574D02*
X11927160Y-16258479D01*
X11927160Y-16258479D02*
X11936684Y-16239431D01*
X11936684Y-16239431D02*
X11946207Y-16229908D01*
X11946207Y-16229908D02*
X11965255Y-16220384D01*
X12117636Y-16401336D02*
X12127160Y-16410860D01*
X12127160Y-16410860D02*
X12117636Y-16420384D01*
X12117636Y-16420384D02*
X12108112Y-16410860D01*
X12108112Y-16410860D02*
X12117636Y-16401336D01*
X12117636Y-16401336D02*
X12117636Y-16420384D01*
X12250969Y-16220384D02*
X12270017Y-16220384D01*
X12270017Y-16220384D02*
X12289065Y-16229908D01*
X12289065Y-16229908D02*
X12298588Y-16239431D01*
X12298588Y-16239431D02*
X12308112Y-16258479D01*
X12308112Y-16258479D02*
X12317636Y-16296574D01*
X12317636Y-16296574D02*
X12317636Y-16344193D01*
X12317636Y-16344193D02*
X12308112Y-16382288D01*
X12308112Y-16382288D02*
X12298588Y-16401336D01*
X12298588Y-16401336D02*
X12289065Y-16410860D01*
X12289065Y-16410860D02*
X12270017Y-16420384D01*
X12270017Y-16420384D02*
X12250969Y-16420384D01*
X12250969Y-16420384D02*
X12231922Y-16410860D01*
X12231922Y-16410860D02*
X12222398Y-16401336D01*
X12222398Y-16401336D02*
X12212874Y-16382288D01*
X12212874Y-16382288D02*
X12203350Y-16344193D01*
X12203350Y-16344193D02*
X12203350Y-16296574D01*
X12203350Y-16296574D02*
X12212874Y-16258479D01*
X12212874Y-16258479D02*
X12222398Y-16239431D01*
X12222398Y-16239431D02*
X12231922Y-16229908D01*
X12231922Y-16229908D02*
X12250969Y-16220384D01*
X12498588Y-16220384D02*
X12403350Y-16220384D01*
X12403350Y-16220384D02*
X12393827Y-16315622D01*
X12393827Y-16315622D02*
X12403350Y-16306098D01*
X12403350Y-16306098D02*
X12422398Y-16296574D01*
X12422398Y-16296574D02*
X12470017Y-16296574D01*
X12470017Y-16296574D02*
X12489065Y-16306098D01*
X12489065Y-16306098D02*
X12498588Y-16315622D01*
X12498588Y-16315622D02*
X12508112Y-16334669D01*
X12508112Y-16334669D02*
X12508112Y-16382288D01*
X12508112Y-16382288D02*
X12498588Y-16401336D01*
X12498588Y-16401336D02*
X12489065Y-16410860D01*
X12489065Y-16410860D02*
X12470017Y-16420384D01*
X12470017Y-16420384D02*
X12422398Y-16420384D01*
X12422398Y-16420384D02*
X12403350Y-16410860D01*
X12403350Y-16410860D02*
X12393827Y-16401336D01*
X12603350Y-16420384D02*
X12641446Y-16420384D01*
X12641446Y-16420384D02*
X12660493Y-16410860D01*
X12660493Y-16410860D02*
X12670017Y-16401336D01*
X12670017Y-16401336D02*
X12689065Y-16372765D01*
X12689065Y-16372765D02*
X12698588Y-16334669D01*
X12698588Y-16334669D02*
X12698588Y-16258479D01*
X12698588Y-16258479D02*
X12689065Y-16239431D01*
X12689065Y-16239431D02*
X12679541Y-16229908D01*
X12679541Y-16229908D02*
X12660493Y-16220384D01*
X12660493Y-16220384D02*
X12622398Y-16220384D01*
X12622398Y-16220384D02*
X12603350Y-16229908D01*
X12603350Y-16229908D02*
X12593827Y-16239431D01*
X12593827Y-16239431D02*
X12584303Y-16258479D01*
X12584303Y-16258479D02*
X12584303Y-16306098D01*
X12584303Y-16306098D02*
X12593827Y-16325146D01*
X12593827Y-16325146D02*
X12603350Y-16334669D01*
X12603350Y-16334669D02*
X12622398Y-16344193D01*
X12622398Y-16344193D02*
X12660493Y-16344193D01*
X12660493Y-16344193D02*
X12679541Y-16334669D01*
X12679541Y-16334669D02*
X12689065Y-16325146D01*
X12689065Y-16325146D02*
X12698588Y-16306098D01*
X12889065Y-16420384D02*
X12774779Y-16420384D01*
X12831922Y-16420384D02*
X12831922Y-16220384D01*
X12831922Y-16220384D02*
X12812874Y-16248955D01*
X12812874Y-16248955D02*
X12793827Y-16268003D01*
X12793827Y-16268003D02*
X12774779Y-16277527D01*
X12965255Y-16220384D02*
X12965255Y-16258479D01*
X13041446Y-16220384D02*
X13041446Y-16258479D01*
X13336684Y-16496574D02*
X13327160Y-16487050D01*
X13327160Y-16487050D02*
X13308112Y-16458479D01*
X13308112Y-16458479D02*
X13298589Y-16439431D01*
X13298589Y-16439431D02*
X13289065Y-16410860D01*
X13289065Y-16410860D02*
X13279541Y-16363241D01*
X13279541Y-16363241D02*
X13279541Y-16325146D01*
X13279541Y-16325146D02*
X13289065Y-16277527D01*
X13289065Y-16277527D02*
X13298589Y-16248955D01*
X13298589Y-16248955D02*
X13308112Y-16229908D01*
X13308112Y-16229908D02*
X13327160Y-16201336D01*
X13327160Y-16201336D02*
X13336684Y-16191812D01*
X13403350Y-16239431D02*
X13412874Y-16229908D01*
X13412874Y-16229908D02*
X13431922Y-16220384D01*
X13431922Y-16220384D02*
X13479541Y-16220384D01*
X13479541Y-16220384D02*
X13498589Y-16229908D01*
X13498589Y-16229908D02*
X13508112Y-16239431D01*
X13508112Y-16239431D02*
X13517636Y-16258479D01*
X13517636Y-16258479D02*
X13517636Y-16277527D01*
X13517636Y-16277527D02*
X13508112Y-16306098D01*
X13508112Y-16306098D02*
X13393827Y-16420384D01*
X13393827Y-16420384D02*
X13517636Y-16420384D01*
X13755731Y-16420384D02*
X13755731Y-16220384D01*
X13841446Y-16420384D02*
X13841446Y-16315622D01*
X13841446Y-16315622D02*
X13831922Y-16296574D01*
X13831922Y-16296574D02*
X13812874Y-16287050D01*
X13812874Y-16287050D02*
X13784303Y-16287050D01*
X13784303Y-16287050D02*
X13765255Y-16296574D01*
X13765255Y-16296574D02*
X13755731Y-16306098D01*
X13965255Y-16420384D02*
X13946208Y-16410860D01*
X13946208Y-16410860D02*
X13936684Y-16401336D01*
X13936684Y-16401336D02*
X13927160Y-16382288D01*
X13927160Y-16382288D02*
X13927160Y-16325146D01*
X13927160Y-16325146D02*
X13936684Y-16306098D01*
X13936684Y-16306098D02*
X13946208Y-16296574D01*
X13946208Y-16296574D02*
X13965255Y-16287050D01*
X13965255Y-16287050D02*
X13993827Y-16287050D01*
X13993827Y-16287050D02*
X14012874Y-16296574D01*
X14012874Y-16296574D02*
X14022398Y-16306098D01*
X14022398Y-16306098D02*
X14031922Y-16325146D01*
X14031922Y-16325146D02*
X14031922Y-16382288D01*
X14031922Y-16382288D02*
X14022398Y-16401336D01*
X14022398Y-16401336D02*
X14012874Y-16410860D01*
X14012874Y-16410860D02*
X13993827Y-16420384D01*
X13993827Y-16420384D02*
X13965255Y-16420384D01*
X14146208Y-16420384D02*
X14127160Y-16410860D01*
X14127160Y-16410860D02*
X14117636Y-16391812D01*
X14117636Y-16391812D02*
X14117636Y-16220384D01*
X14298589Y-16410860D02*
X14279541Y-16420384D01*
X14279541Y-16420384D02*
X14241446Y-16420384D01*
X14241446Y-16420384D02*
X14222398Y-16410860D01*
X14222398Y-16410860D02*
X14212874Y-16391812D01*
X14212874Y-16391812D02*
X14212874Y-16315622D01*
X14212874Y-16315622D02*
X14222398Y-16296574D01*
X14222398Y-16296574D02*
X14241446Y-16287050D01*
X14241446Y-16287050D02*
X14279541Y-16287050D01*
X14279541Y-16287050D02*
X14298589Y-16296574D01*
X14298589Y-16296574D02*
X14308112Y-16315622D01*
X14308112Y-16315622D02*
X14308112Y-16334669D01*
X14308112Y-16334669D02*
X14212874Y-16353717D01*
X14384303Y-16410860D02*
X14403351Y-16420384D01*
X14403351Y-16420384D02*
X14441446Y-16420384D01*
X14441446Y-16420384D02*
X14460493Y-16410860D01*
X14460493Y-16410860D02*
X14470017Y-16391812D01*
X14470017Y-16391812D02*
X14470017Y-16382288D01*
X14470017Y-16382288D02*
X14460493Y-16363241D01*
X14460493Y-16363241D02*
X14441446Y-16353717D01*
X14441446Y-16353717D02*
X14412874Y-16353717D01*
X14412874Y-16353717D02*
X14393827Y-16344193D01*
X14393827Y-16344193D02*
X14384303Y-16325146D01*
X14384303Y-16325146D02*
X14384303Y-16315622D01*
X14384303Y-16315622D02*
X14393827Y-16296574D01*
X14393827Y-16296574D02*
X14412874Y-16287050D01*
X14412874Y-16287050D02*
X14441446Y-16287050D01*
X14441446Y-16287050D02*
X14460493Y-16296574D01*
X14536684Y-16496574D02*
X14546208Y-16487050D01*
X14546208Y-16487050D02*
X14565255Y-16458479D01*
X14565255Y-16458479D02*
X14574779Y-16439431D01*
X14574779Y-16439431D02*
X14584303Y-16410860D01*
X14584303Y-16410860D02*
X14593827Y-16363241D01*
X14593827Y-16363241D02*
X14593827Y-16325146D01*
X14593827Y-16325146D02*
X14584303Y-16277527D01*
X14584303Y-16277527D02*
X14574779Y-16248955D01*
X14574779Y-16248955D02*
X14565255Y-16229908D01*
X14565255Y-16229908D02*
X14546208Y-16201336D01*
X14546208Y-16201336D02*
X14536684Y-16191812D01*
D14*
X9591621Y-16513900D02*
X9761621Y-16683900D01*
X9761621Y-16513900D02*
X9591621Y-16683900D01*
X9761621Y-16598900D02*
G75*
G02*
X9591621Y-16598900I-85000J0D01*
G01*
X9591621Y-16598900D02*
G75*
G02*
X9761621Y-16598900I85000J0D01*
G01*
D11*
X10127160Y-16690384D02*
X10012874Y-16690384D01*
X10070017Y-16690384D02*
X10070017Y-16490384D01*
X10070017Y-16490384D02*
X10050969Y-16518955D01*
X10050969Y-16518955D02*
X10031922Y-16538003D01*
X10031922Y-16538003D02*
X10012874Y-16547527D01*
X10212874Y-16671336D02*
X10222398Y-16680860D01*
X10222398Y-16680860D02*
X10212874Y-16690384D01*
X10212874Y-16690384D02*
X10203350Y-16680860D01*
X10203350Y-16680860D02*
X10212874Y-16671336D01*
X10212874Y-16671336D02*
X10212874Y-16690384D01*
X10289065Y-16490384D02*
X10422398Y-16490384D01*
X10422398Y-16490384D02*
X10336684Y-16690384D01*
X10536684Y-16490384D02*
X10555731Y-16490384D01*
X10555731Y-16490384D02*
X10574779Y-16499908D01*
X10574779Y-16499908D02*
X10584303Y-16509431D01*
X10584303Y-16509431D02*
X10593826Y-16528479D01*
X10593826Y-16528479D02*
X10603350Y-16566574D01*
X10603350Y-16566574D02*
X10603350Y-16614193D01*
X10603350Y-16614193D02*
X10593826Y-16652288D01*
X10593826Y-16652288D02*
X10584303Y-16671336D01*
X10584303Y-16671336D02*
X10574779Y-16680860D01*
X10574779Y-16680860D02*
X10555731Y-16690384D01*
X10555731Y-16690384D02*
X10536684Y-16690384D01*
X10536684Y-16690384D02*
X10517636Y-16680860D01*
X10517636Y-16680860D02*
X10508112Y-16671336D01*
X10508112Y-16671336D02*
X10498588Y-16652288D01*
X10498588Y-16652288D02*
X10489065Y-16614193D01*
X10489065Y-16614193D02*
X10489065Y-16566574D01*
X10489065Y-16566574D02*
X10498588Y-16528479D01*
X10498588Y-16528479D02*
X10508112Y-16509431D01*
X10508112Y-16509431D02*
X10517636Y-16499908D01*
X10517636Y-16499908D02*
X10536684Y-16490384D01*
X10727160Y-16490384D02*
X10746207Y-16490384D01*
X10746207Y-16490384D02*
X10765255Y-16499908D01*
X10765255Y-16499908D02*
X10774779Y-16509431D01*
X10774779Y-16509431D02*
X10784303Y-16528479D01*
X10784303Y-16528479D02*
X10793826Y-16566574D01*
X10793826Y-16566574D02*
X10793826Y-16614193D01*
X10793826Y-16614193D02*
X10784303Y-16652288D01*
X10784303Y-16652288D02*
X10774779Y-16671336D01*
X10774779Y-16671336D02*
X10765255Y-16680860D01*
X10765255Y-16680860D02*
X10746207Y-16690384D01*
X10746207Y-16690384D02*
X10727160Y-16690384D01*
X10727160Y-16690384D02*
X10708112Y-16680860D01*
X10708112Y-16680860D02*
X10698588Y-16671336D01*
X10698588Y-16671336D02*
X10689065Y-16652288D01*
X10689065Y-16652288D02*
X10679541Y-16614193D01*
X10679541Y-16614193D02*
X10679541Y-16566574D01*
X10679541Y-16566574D02*
X10689065Y-16528479D01*
X10689065Y-16528479D02*
X10698588Y-16509431D01*
X10698588Y-16509431D02*
X10708112Y-16499908D01*
X10708112Y-16499908D02*
X10727160Y-16490384D01*
X10879541Y-16690384D02*
X10879541Y-16557050D01*
X10879541Y-16576098D02*
X10889065Y-16566574D01*
X10889065Y-16566574D02*
X10908112Y-16557050D01*
X10908112Y-16557050D02*
X10936684Y-16557050D01*
X10936684Y-16557050D02*
X10955731Y-16566574D01*
X10955731Y-16566574D02*
X10965255Y-16585622D01*
X10965255Y-16585622D02*
X10965255Y-16690384D01*
X10965255Y-16585622D02*
X10974779Y-16566574D01*
X10974779Y-16566574D02*
X10993826Y-16557050D01*
X10993826Y-16557050D02*
X11022398Y-16557050D01*
X11022398Y-16557050D02*
X11041446Y-16566574D01*
X11041446Y-16566574D02*
X11050969Y-16585622D01*
X11050969Y-16585622D02*
X11050969Y-16690384D01*
X11146207Y-16690384D02*
X11146207Y-16557050D01*
X11146207Y-16576098D02*
X11155731Y-16566574D01*
X11155731Y-16566574D02*
X11174779Y-16557050D01*
X11174779Y-16557050D02*
X11203350Y-16557050D01*
X11203350Y-16557050D02*
X11222398Y-16566574D01*
X11222398Y-16566574D02*
X11231922Y-16585622D01*
X11231922Y-16585622D02*
X11231922Y-16690384D01*
X11231922Y-16585622D02*
X11241445Y-16566574D01*
X11241445Y-16566574D02*
X11260493Y-16557050D01*
X11260493Y-16557050D02*
X11289064Y-16557050D01*
X11289064Y-16557050D02*
X11308112Y-16566574D01*
X11308112Y-16566574D02*
X11317636Y-16585622D01*
X11317636Y-16585622D02*
X11317636Y-16690384D01*
X11708112Y-16480860D02*
X11536684Y-16738003D01*
X11965255Y-16490384D02*
X11984303Y-16490384D01*
X11984303Y-16490384D02*
X12003350Y-16499908D01*
X12003350Y-16499908D02*
X12012874Y-16509431D01*
X12012874Y-16509431D02*
X12022398Y-16528479D01*
X12022398Y-16528479D02*
X12031922Y-16566574D01*
X12031922Y-16566574D02*
X12031922Y-16614193D01*
X12031922Y-16614193D02*
X12022398Y-16652288D01*
X12022398Y-16652288D02*
X12012874Y-16671336D01*
X12012874Y-16671336D02*
X12003350Y-16680860D01*
X12003350Y-16680860D02*
X11984303Y-16690384D01*
X11984303Y-16690384D02*
X11965255Y-16690384D01*
X11965255Y-16690384D02*
X11946207Y-16680860D01*
X11946207Y-16680860D02*
X11936684Y-16671336D01*
X11936684Y-16671336D02*
X11927160Y-16652288D01*
X11927160Y-16652288D02*
X11917636Y-16614193D01*
X11917636Y-16614193D02*
X11917636Y-16566574D01*
X11917636Y-16566574D02*
X11927160Y-16528479D01*
X11927160Y-16528479D02*
X11936684Y-16509431D01*
X11936684Y-16509431D02*
X11946207Y-16499908D01*
X11946207Y-16499908D02*
X11965255Y-16490384D01*
X12117636Y-16671336D02*
X12127160Y-16680860D01*
X12127160Y-16680860D02*
X12117636Y-16690384D01*
X12117636Y-16690384D02*
X12108112Y-16680860D01*
X12108112Y-16680860D02*
X12117636Y-16671336D01*
X12117636Y-16671336D02*
X12117636Y-16690384D01*
X12250969Y-16490384D02*
X12270017Y-16490384D01*
X12270017Y-16490384D02*
X12289065Y-16499908D01*
X12289065Y-16499908D02*
X12298588Y-16509431D01*
X12298588Y-16509431D02*
X12308112Y-16528479D01*
X12308112Y-16528479D02*
X12317636Y-16566574D01*
X12317636Y-16566574D02*
X12317636Y-16614193D01*
X12317636Y-16614193D02*
X12308112Y-16652288D01*
X12308112Y-16652288D02*
X12298588Y-16671336D01*
X12298588Y-16671336D02*
X12289065Y-16680860D01*
X12289065Y-16680860D02*
X12270017Y-16690384D01*
X12270017Y-16690384D02*
X12250969Y-16690384D01*
X12250969Y-16690384D02*
X12231922Y-16680860D01*
X12231922Y-16680860D02*
X12222398Y-16671336D01*
X12222398Y-16671336D02*
X12212874Y-16652288D01*
X12212874Y-16652288D02*
X12203350Y-16614193D01*
X12203350Y-16614193D02*
X12203350Y-16566574D01*
X12203350Y-16566574D02*
X12212874Y-16528479D01*
X12212874Y-16528479D02*
X12222398Y-16509431D01*
X12222398Y-16509431D02*
X12231922Y-16499908D01*
X12231922Y-16499908D02*
X12250969Y-16490384D01*
X12489065Y-16490384D02*
X12450969Y-16490384D01*
X12450969Y-16490384D02*
X12431922Y-16499908D01*
X12431922Y-16499908D02*
X12422398Y-16509431D01*
X12422398Y-16509431D02*
X12403350Y-16538003D01*
X12403350Y-16538003D02*
X12393827Y-16576098D01*
X12393827Y-16576098D02*
X12393827Y-16652288D01*
X12393827Y-16652288D02*
X12403350Y-16671336D01*
X12403350Y-16671336D02*
X12412874Y-16680860D01*
X12412874Y-16680860D02*
X12431922Y-16690384D01*
X12431922Y-16690384D02*
X12470017Y-16690384D01*
X12470017Y-16690384D02*
X12489065Y-16680860D01*
X12489065Y-16680860D02*
X12498588Y-16671336D01*
X12498588Y-16671336D02*
X12508112Y-16652288D01*
X12508112Y-16652288D02*
X12508112Y-16604669D01*
X12508112Y-16604669D02*
X12498588Y-16585622D01*
X12498588Y-16585622D02*
X12489065Y-16576098D01*
X12489065Y-16576098D02*
X12470017Y-16566574D01*
X12470017Y-16566574D02*
X12431922Y-16566574D01*
X12431922Y-16566574D02*
X12412874Y-16576098D01*
X12412874Y-16576098D02*
X12403350Y-16585622D01*
X12403350Y-16585622D02*
X12393827Y-16604669D01*
X12679541Y-16490384D02*
X12641446Y-16490384D01*
X12641446Y-16490384D02*
X12622398Y-16499908D01*
X12622398Y-16499908D02*
X12612874Y-16509431D01*
X12612874Y-16509431D02*
X12593827Y-16538003D01*
X12593827Y-16538003D02*
X12584303Y-16576098D01*
X12584303Y-16576098D02*
X12584303Y-16652288D01*
X12584303Y-16652288D02*
X12593827Y-16671336D01*
X12593827Y-16671336D02*
X12603350Y-16680860D01*
X12603350Y-16680860D02*
X12622398Y-16690384D01*
X12622398Y-16690384D02*
X12660493Y-16690384D01*
X12660493Y-16690384D02*
X12679541Y-16680860D01*
X12679541Y-16680860D02*
X12689065Y-16671336D01*
X12689065Y-16671336D02*
X12698588Y-16652288D01*
X12698588Y-16652288D02*
X12698588Y-16604669D01*
X12698588Y-16604669D02*
X12689065Y-16585622D01*
X12689065Y-16585622D02*
X12679541Y-16576098D01*
X12679541Y-16576098D02*
X12660493Y-16566574D01*
X12660493Y-16566574D02*
X12622398Y-16566574D01*
X12622398Y-16566574D02*
X12603350Y-16576098D01*
X12603350Y-16576098D02*
X12593827Y-16585622D01*
X12593827Y-16585622D02*
X12584303Y-16604669D01*
X12793827Y-16690384D02*
X12831922Y-16690384D01*
X12831922Y-16690384D02*
X12850969Y-16680860D01*
X12850969Y-16680860D02*
X12860493Y-16671336D01*
X12860493Y-16671336D02*
X12879541Y-16642765D01*
X12879541Y-16642765D02*
X12889065Y-16604669D01*
X12889065Y-16604669D02*
X12889065Y-16528479D01*
X12889065Y-16528479D02*
X12879541Y-16509431D01*
X12879541Y-16509431D02*
X12870017Y-16499908D01*
X12870017Y-16499908D02*
X12850969Y-16490384D01*
X12850969Y-16490384D02*
X12812874Y-16490384D01*
X12812874Y-16490384D02*
X12793827Y-16499908D01*
X12793827Y-16499908D02*
X12784303Y-16509431D01*
X12784303Y-16509431D02*
X12774779Y-16528479D01*
X12774779Y-16528479D02*
X12774779Y-16576098D01*
X12774779Y-16576098D02*
X12784303Y-16595146D01*
X12784303Y-16595146D02*
X12793827Y-16604669D01*
X12793827Y-16604669D02*
X12812874Y-16614193D01*
X12812874Y-16614193D02*
X12850969Y-16614193D01*
X12850969Y-16614193D02*
X12870017Y-16604669D01*
X12870017Y-16604669D02*
X12879541Y-16595146D01*
X12879541Y-16595146D02*
X12889065Y-16576098D01*
X12965255Y-16490384D02*
X12965255Y-16528479D01*
X13041446Y-16490384D02*
X13041446Y-16528479D01*
X13336684Y-16766574D02*
X13327160Y-16757050D01*
X13327160Y-16757050D02*
X13308112Y-16728479D01*
X13308112Y-16728479D02*
X13298589Y-16709431D01*
X13298589Y-16709431D02*
X13289065Y-16680860D01*
X13289065Y-16680860D02*
X13279541Y-16633241D01*
X13279541Y-16633241D02*
X13279541Y-16595146D01*
X13279541Y-16595146D02*
X13289065Y-16547527D01*
X13289065Y-16547527D02*
X13298589Y-16518955D01*
X13298589Y-16518955D02*
X13308112Y-16499908D01*
X13308112Y-16499908D02*
X13327160Y-16471336D01*
X13327160Y-16471336D02*
X13336684Y-16461812D01*
X13441446Y-16576098D02*
X13422398Y-16566574D01*
X13422398Y-16566574D02*
X13412874Y-16557050D01*
X13412874Y-16557050D02*
X13403350Y-16538003D01*
X13403350Y-16538003D02*
X13403350Y-16528479D01*
X13403350Y-16528479D02*
X13412874Y-16509431D01*
X13412874Y-16509431D02*
X13422398Y-16499908D01*
X13422398Y-16499908D02*
X13441446Y-16490384D01*
X13441446Y-16490384D02*
X13479541Y-16490384D01*
X13479541Y-16490384D02*
X13498589Y-16499908D01*
X13498589Y-16499908D02*
X13508112Y-16509431D01*
X13508112Y-16509431D02*
X13517636Y-16528479D01*
X13517636Y-16528479D02*
X13517636Y-16538003D01*
X13517636Y-16538003D02*
X13508112Y-16557050D01*
X13508112Y-16557050D02*
X13498589Y-16566574D01*
X13498589Y-16566574D02*
X13479541Y-16576098D01*
X13479541Y-16576098D02*
X13441446Y-16576098D01*
X13441446Y-16576098D02*
X13422398Y-16585622D01*
X13422398Y-16585622D02*
X13412874Y-16595146D01*
X13412874Y-16595146D02*
X13403350Y-16614193D01*
X13403350Y-16614193D02*
X13403350Y-16652288D01*
X13403350Y-16652288D02*
X13412874Y-16671336D01*
X13412874Y-16671336D02*
X13422398Y-16680860D01*
X13422398Y-16680860D02*
X13441446Y-16690384D01*
X13441446Y-16690384D02*
X13479541Y-16690384D01*
X13479541Y-16690384D02*
X13498589Y-16680860D01*
X13498589Y-16680860D02*
X13508112Y-16671336D01*
X13508112Y-16671336D02*
X13517636Y-16652288D01*
X13517636Y-16652288D02*
X13517636Y-16614193D01*
X13517636Y-16614193D02*
X13508112Y-16595146D01*
X13508112Y-16595146D02*
X13498589Y-16585622D01*
X13498589Y-16585622D02*
X13479541Y-16576098D01*
X13755731Y-16690384D02*
X13755731Y-16490384D01*
X13841446Y-16690384D02*
X13841446Y-16585622D01*
X13841446Y-16585622D02*
X13831922Y-16566574D01*
X13831922Y-16566574D02*
X13812874Y-16557050D01*
X13812874Y-16557050D02*
X13784303Y-16557050D01*
X13784303Y-16557050D02*
X13765255Y-16566574D01*
X13765255Y-16566574D02*
X13755731Y-16576098D01*
X13965255Y-16690384D02*
X13946208Y-16680860D01*
X13946208Y-16680860D02*
X13936684Y-16671336D01*
X13936684Y-16671336D02*
X13927160Y-16652288D01*
X13927160Y-16652288D02*
X13927160Y-16595146D01*
X13927160Y-16595146D02*
X13936684Y-16576098D01*
X13936684Y-16576098D02*
X13946208Y-16566574D01*
X13946208Y-16566574D02*
X13965255Y-16557050D01*
X13965255Y-16557050D02*
X13993827Y-16557050D01*
X13993827Y-16557050D02*
X14012874Y-16566574D01*
X14012874Y-16566574D02*
X14022398Y-16576098D01*
X14022398Y-16576098D02*
X14031922Y-16595146D01*
X14031922Y-16595146D02*
X14031922Y-16652288D01*
X14031922Y-16652288D02*
X14022398Y-16671336D01*
X14022398Y-16671336D02*
X14012874Y-16680860D01*
X14012874Y-16680860D02*
X13993827Y-16690384D01*
X13993827Y-16690384D02*
X13965255Y-16690384D01*
X14146208Y-16690384D02*
X14127160Y-16680860D01*
X14127160Y-16680860D02*
X14117636Y-16661812D01*
X14117636Y-16661812D02*
X14117636Y-16490384D01*
X14298589Y-16680860D02*
X14279541Y-16690384D01*
X14279541Y-16690384D02*
X14241446Y-16690384D01*
X14241446Y-16690384D02*
X14222398Y-16680860D01*
X14222398Y-16680860D02*
X14212874Y-16661812D01*
X14212874Y-16661812D02*
X14212874Y-16585622D01*
X14212874Y-16585622D02*
X14222398Y-16566574D01*
X14222398Y-16566574D02*
X14241446Y-16557050D01*
X14241446Y-16557050D02*
X14279541Y-16557050D01*
X14279541Y-16557050D02*
X14298589Y-16566574D01*
X14298589Y-16566574D02*
X14308112Y-16585622D01*
X14308112Y-16585622D02*
X14308112Y-16604669D01*
X14308112Y-16604669D02*
X14212874Y-16623717D01*
X14384303Y-16680860D02*
X14403351Y-16690384D01*
X14403351Y-16690384D02*
X14441446Y-16690384D01*
X14441446Y-16690384D02*
X14460493Y-16680860D01*
X14460493Y-16680860D02*
X14470017Y-16661812D01*
X14470017Y-16661812D02*
X14470017Y-16652288D01*
X14470017Y-16652288D02*
X14460493Y-16633241D01*
X14460493Y-16633241D02*
X14441446Y-16623717D01*
X14441446Y-16623717D02*
X14412874Y-16623717D01*
X14412874Y-16623717D02*
X14393827Y-16614193D01*
X14393827Y-16614193D02*
X14384303Y-16595146D01*
X14384303Y-16595146D02*
X14384303Y-16585622D01*
X14384303Y-16585622D02*
X14393827Y-16566574D01*
X14393827Y-16566574D02*
X14412874Y-16557050D01*
X14412874Y-16557050D02*
X14441446Y-16557050D01*
X14441446Y-16557050D02*
X14460493Y-16566574D01*
X14536684Y-16766574D02*
X14546208Y-16757050D01*
X14546208Y-16757050D02*
X14565255Y-16728479D01*
X14565255Y-16728479D02*
X14574779Y-16709431D01*
X14574779Y-16709431D02*
X14584303Y-16680860D01*
X14584303Y-16680860D02*
X14593827Y-16633241D01*
X14593827Y-16633241D02*
X14593827Y-16595146D01*
X14593827Y-16595146D02*
X14584303Y-16547527D01*
X14584303Y-16547527D02*
X14574779Y-16518955D01*
X14574779Y-16518955D02*
X14565255Y-16499908D01*
X14565255Y-16499908D02*
X14546208Y-16471336D01*
X14546208Y-16471336D02*
X14536684Y-16461812D01*
D15*
X9571621Y-16793900D02*
X9761621Y-16983900D01*
X9761621Y-16793900D02*
X9571621Y-16983900D01*
X9666621Y-16793900D02*
X9666621Y-16983900D01*
X9571621Y-16888900D02*
X9761621Y-16888900D01*
D11*
X10127160Y-16980384D02*
X10012874Y-16980384D01*
X10070017Y-16980384D02*
X10070017Y-16780384D01*
X10070017Y-16780384D02*
X10050969Y-16808955D01*
X10050969Y-16808955D02*
X10031922Y-16828003D01*
X10031922Y-16828003D02*
X10012874Y-16837527D01*
X10212874Y-16961336D02*
X10222398Y-16970860D01*
X10222398Y-16970860D02*
X10212874Y-16980384D01*
X10212874Y-16980384D02*
X10203350Y-16970860D01*
X10203350Y-16970860D02*
X10212874Y-16961336D01*
X10212874Y-16961336D02*
X10212874Y-16980384D01*
X10317636Y-16980384D02*
X10355731Y-16980384D01*
X10355731Y-16980384D02*
X10374779Y-16970860D01*
X10374779Y-16970860D02*
X10384303Y-16961336D01*
X10384303Y-16961336D02*
X10403350Y-16932765D01*
X10403350Y-16932765D02*
X10412874Y-16894670D01*
X10412874Y-16894670D02*
X10412874Y-16818479D01*
X10412874Y-16818479D02*
X10403350Y-16799431D01*
X10403350Y-16799431D02*
X10393826Y-16789908D01*
X10393826Y-16789908D02*
X10374779Y-16780384D01*
X10374779Y-16780384D02*
X10336684Y-16780384D01*
X10336684Y-16780384D02*
X10317636Y-16789908D01*
X10317636Y-16789908D02*
X10308112Y-16799431D01*
X10308112Y-16799431D02*
X10298588Y-16818479D01*
X10298588Y-16818479D02*
X10298588Y-16866098D01*
X10298588Y-16866098D02*
X10308112Y-16885146D01*
X10308112Y-16885146D02*
X10317636Y-16894670D01*
X10317636Y-16894670D02*
X10336684Y-16904193D01*
X10336684Y-16904193D02*
X10374779Y-16904193D01*
X10374779Y-16904193D02*
X10393826Y-16894670D01*
X10393826Y-16894670D02*
X10403350Y-16885146D01*
X10403350Y-16885146D02*
X10412874Y-16866098D01*
X10536684Y-16780384D02*
X10555731Y-16780384D01*
X10555731Y-16780384D02*
X10574779Y-16789908D01*
X10574779Y-16789908D02*
X10584303Y-16799431D01*
X10584303Y-16799431D02*
X10593826Y-16818479D01*
X10593826Y-16818479D02*
X10603350Y-16856574D01*
X10603350Y-16856574D02*
X10603350Y-16904193D01*
X10603350Y-16904193D02*
X10593826Y-16942289D01*
X10593826Y-16942289D02*
X10584303Y-16961336D01*
X10584303Y-16961336D02*
X10574779Y-16970860D01*
X10574779Y-16970860D02*
X10555731Y-16980384D01*
X10555731Y-16980384D02*
X10536684Y-16980384D01*
X10536684Y-16980384D02*
X10517636Y-16970860D01*
X10517636Y-16970860D02*
X10508112Y-16961336D01*
X10508112Y-16961336D02*
X10498588Y-16942289D01*
X10498588Y-16942289D02*
X10489065Y-16904193D01*
X10489065Y-16904193D02*
X10489065Y-16856574D01*
X10489065Y-16856574D02*
X10498588Y-16818479D01*
X10498588Y-16818479D02*
X10508112Y-16799431D01*
X10508112Y-16799431D02*
X10517636Y-16789908D01*
X10517636Y-16789908D02*
X10536684Y-16780384D01*
X10727160Y-16780384D02*
X10746207Y-16780384D01*
X10746207Y-16780384D02*
X10765255Y-16789908D01*
X10765255Y-16789908D02*
X10774779Y-16799431D01*
X10774779Y-16799431D02*
X10784303Y-16818479D01*
X10784303Y-16818479D02*
X10793826Y-16856574D01*
X10793826Y-16856574D02*
X10793826Y-16904193D01*
X10793826Y-16904193D02*
X10784303Y-16942289D01*
X10784303Y-16942289D02*
X10774779Y-16961336D01*
X10774779Y-16961336D02*
X10765255Y-16970860D01*
X10765255Y-16970860D02*
X10746207Y-16980384D01*
X10746207Y-16980384D02*
X10727160Y-16980384D01*
X10727160Y-16980384D02*
X10708112Y-16970860D01*
X10708112Y-16970860D02*
X10698588Y-16961336D01*
X10698588Y-16961336D02*
X10689065Y-16942289D01*
X10689065Y-16942289D02*
X10679541Y-16904193D01*
X10679541Y-16904193D02*
X10679541Y-16856574D01*
X10679541Y-16856574D02*
X10689065Y-16818479D01*
X10689065Y-16818479D02*
X10698588Y-16799431D01*
X10698588Y-16799431D02*
X10708112Y-16789908D01*
X10708112Y-16789908D02*
X10727160Y-16780384D01*
X10879541Y-16980384D02*
X10879541Y-16847050D01*
X10879541Y-16866098D02*
X10889065Y-16856574D01*
X10889065Y-16856574D02*
X10908112Y-16847050D01*
X10908112Y-16847050D02*
X10936684Y-16847050D01*
X10936684Y-16847050D02*
X10955731Y-16856574D01*
X10955731Y-16856574D02*
X10965255Y-16875622D01*
X10965255Y-16875622D02*
X10965255Y-16980384D01*
X10965255Y-16875622D02*
X10974779Y-16856574D01*
X10974779Y-16856574D02*
X10993826Y-16847050D01*
X10993826Y-16847050D02*
X11022398Y-16847050D01*
X11022398Y-16847050D02*
X11041446Y-16856574D01*
X11041446Y-16856574D02*
X11050969Y-16875622D01*
X11050969Y-16875622D02*
X11050969Y-16980384D01*
X11146207Y-16980384D02*
X11146207Y-16847050D01*
X11146207Y-16866098D02*
X11155731Y-16856574D01*
X11155731Y-16856574D02*
X11174779Y-16847050D01*
X11174779Y-16847050D02*
X11203350Y-16847050D01*
X11203350Y-16847050D02*
X11222398Y-16856574D01*
X11222398Y-16856574D02*
X11231922Y-16875622D01*
X11231922Y-16875622D02*
X11231922Y-16980384D01*
X11231922Y-16875622D02*
X11241445Y-16856574D01*
X11241445Y-16856574D02*
X11260493Y-16847050D01*
X11260493Y-16847050D02*
X11289064Y-16847050D01*
X11289064Y-16847050D02*
X11308112Y-16856574D01*
X11308112Y-16856574D02*
X11317636Y-16875622D01*
X11317636Y-16875622D02*
X11317636Y-16980384D01*
X11708112Y-16770860D02*
X11536684Y-17028003D01*
X11965255Y-16780384D02*
X11984303Y-16780384D01*
X11984303Y-16780384D02*
X12003350Y-16789908D01*
X12003350Y-16789908D02*
X12012874Y-16799431D01*
X12012874Y-16799431D02*
X12022398Y-16818479D01*
X12022398Y-16818479D02*
X12031922Y-16856574D01*
X12031922Y-16856574D02*
X12031922Y-16904193D01*
X12031922Y-16904193D02*
X12022398Y-16942289D01*
X12022398Y-16942289D02*
X12012874Y-16961336D01*
X12012874Y-16961336D02*
X12003350Y-16970860D01*
X12003350Y-16970860D02*
X11984303Y-16980384D01*
X11984303Y-16980384D02*
X11965255Y-16980384D01*
X11965255Y-16980384D02*
X11946207Y-16970860D01*
X11946207Y-16970860D02*
X11936684Y-16961336D01*
X11936684Y-16961336D02*
X11927160Y-16942289D01*
X11927160Y-16942289D02*
X11917636Y-16904193D01*
X11917636Y-16904193D02*
X11917636Y-16856574D01*
X11917636Y-16856574D02*
X11927160Y-16818479D01*
X11927160Y-16818479D02*
X11936684Y-16799431D01*
X11936684Y-16799431D02*
X11946207Y-16789908D01*
X11946207Y-16789908D02*
X11965255Y-16780384D01*
X12117636Y-16961336D02*
X12127160Y-16970860D01*
X12127160Y-16970860D02*
X12117636Y-16980384D01*
X12117636Y-16980384D02*
X12108112Y-16970860D01*
X12108112Y-16970860D02*
X12117636Y-16961336D01*
X12117636Y-16961336D02*
X12117636Y-16980384D01*
X12250969Y-16780384D02*
X12270017Y-16780384D01*
X12270017Y-16780384D02*
X12289065Y-16789908D01*
X12289065Y-16789908D02*
X12298588Y-16799431D01*
X12298588Y-16799431D02*
X12308112Y-16818479D01*
X12308112Y-16818479D02*
X12317636Y-16856574D01*
X12317636Y-16856574D02*
X12317636Y-16904193D01*
X12317636Y-16904193D02*
X12308112Y-16942289D01*
X12308112Y-16942289D02*
X12298588Y-16961336D01*
X12298588Y-16961336D02*
X12289065Y-16970860D01*
X12289065Y-16970860D02*
X12270017Y-16980384D01*
X12270017Y-16980384D02*
X12250969Y-16980384D01*
X12250969Y-16980384D02*
X12231922Y-16970860D01*
X12231922Y-16970860D02*
X12222398Y-16961336D01*
X12222398Y-16961336D02*
X12212874Y-16942289D01*
X12212874Y-16942289D02*
X12203350Y-16904193D01*
X12203350Y-16904193D02*
X12203350Y-16856574D01*
X12203350Y-16856574D02*
X12212874Y-16818479D01*
X12212874Y-16818479D02*
X12222398Y-16799431D01*
X12222398Y-16799431D02*
X12231922Y-16789908D01*
X12231922Y-16789908D02*
X12250969Y-16780384D01*
X12384303Y-16780384D02*
X12517636Y-16780384D01*
X12517636Y-16780384D02*
X12431922Y-16980384D01*
X12679541Y-16847050D02*
X12679541Y-16980384D01*
X12631922Y-16770860D02*
X12584303Y-16913717D01*
X12584303Y-16913717D02*
X12708112Y-16913717D01*
X12812874Y-16866098D02*
X12793827Y-16856574D01*
X12793827Y-16856574D02*
X12784303Y-16847050D01*
X12784303Y-16847050D02*
X12774779Y-16828003D01*
X12774779Y-16828003D02*
X12774779Y-16818479D01*
X12774779Y-16818479D02*
X12784303Y-16799431D01*
X12784303Y-16799431D02*
X12793827Y-16789908D01*
X12793827Y-16789908D02*
X12812874Y-16780384D01*
X12812874Y-16780384D02*
X12850969Y-16780384D01*
X12850969Y-16780384D02*
X12870017Y-16789908D01*
X12870017Y-16789908D02*
X12879541Y-16799431D01*
X12879541Y-16799431D02*
X12889065Y-16818479D01*
X12889065Y-16818479D02*
X12889065Y-16828003D01*
X12889065Y-16828003D02*
X12879541Y-16847050D01*
X12879541Y-16847050D02*
X12870017Y-16856574D01*
X12870017Y-16856574D02*
X12850969Y-16866098D01*
X12850969Y-16866098D02*
X12812874Y-16866098D01*
X12812874Y-16866098D02*
X12793827Y-16875622D01*
X12793827Y-16875622D02*
X12784303Y-16885146D01*
X12784303Y-16885146D02*
X12774779Y-16904193D01*
X12774779Y-16904193D02*
X12774779Y-16942289D01*
X12774779Y-16942289D02*
X12784303Y-16961336D01*
X12784303Y-16961336D02*
X12793827Y-16970860D01*
X12793827Y-16970860D02*
X12812874Y-16980384D01*
X12812874Y-16980384D02*
X12850969Y-16980384D01*
X12850969Y-16980384D02*
X12870017Y-16970860D01*
X12870017Y-16970860D02*
X12879541Y-16961336D01*
X12879541Y-16961336D02*
X12889065Y-16942289D01*
X12889065Y-16942289D02*
X12889065Y-16904193D01*
X12889065Y-16904193D02*
X12879541Y-16885146D01*
X12879541Y-16885146D02*
X12870017Y-16875622D01*
X12870017Y-16875622D02*
X12850969Y-16866098D01*
X12965255Y-16780384D02*
X12965255Y-16818479D01*
X13041446Y-16780384D02*
X13041446Y-16818479D01*
X13336684Y-17056574D02*
X13327160Y-17047050D01*
X13327160Y-17047050D02*
X13308112Y-17018479D01*
X13308112Y-17018479D02*
X13298589Y-16999431D01*
X13298589Y-16999431D02*
X13289065Y-16970860D01*
X13289065Y-16970860D02*
X13279541Y-16923241D01*
X13279541Y-16923241D02*
X13279541Y-16885146D01*
X13279541Y-16885146D02*
X13289065Y-16837527D01*
X13289065Y-16837527D02*
X13298589Y-16808955D01*
X13298589Y-16808955D02*
X13308112Y-16789908D01*
X13308112Y-16789908D02*
X13327160Y-16761336D01*
X13327160Y-16761336D02*
X13336684Y-16751812D01*
X13498589Y-16780384D02*
X13460493Y-16780384D01*
X13460493Y-16780384D02*
X13441446Y-16789908D01*
X13441446Y-16789908D02*
X13431922Y-16799431D01*
X13431922Y-16799431D02*
X13412874Y-16828003D01*
X13412874Y-16828003D02*
X13403350Y-16866098D01*
X13403350Y-16866098D02*
X13403350Y-16942289D01*
X13403350Y-16942289D02*
X13412874Y-16961336D01*
X13412874Y-16961336D02*
X13422398Y-16970860D01*
X13422398Y-16970860D02*
X13441446Y-16980384D01*
X13441446Y-16980384D02*
X13479541Y-16980384D01*
X13479541Y-16980384D02*
X13498589Y-16970860D01*
X13498589Y-16970860D02*
X13508112Y-16961336D01*
X13508112Y-16961336D02*
X13517636Y-16942289D01*
X13517636Y-16942289D02*
X13517636Y-16894670D01*
X13517636Y-16894670D02*
X13508112Y-16875622D01*
X13508112Y-16875622D02*
X13498589Y-16866098D01*
X13498589Y-16866098D02*
X13479541Y-16856574D01*
X13479541Y-16856574D02*
X13441446Y-16856574D01*
X13441446Y-16856574D02*
X13422398Y-16866098D01*
X13422398Y-16866098D02*
X13412874Y-16875622D01*
X13412874Y-16875622D02*
X13403350Y-16894670D01*
X13755731Y-16980384D02*
X13755731Y-16780384D01*
X13841446Y-16980384D02*
X13841446Y-16875622D01*
X13841446Y-16875622D02*
X13831922Y-16856574D01*
X13831922Y-16856574D02*
X13812874Y-16847050D01*
X13812874Y-16847050D02*
X13784303Y-16847050D01*
X13784303Y-16847050D02*
X13765255Y-16856574D01*
X13765255Y-16856574D02*
X13755731Y-16866098D01*
X13965255Y-16980384D02*
X13946208Y-16970860D01*
X13946208Y-16970860D02*
X13936684Y-16961336D01*
X13936684Y-16961336D02*
X13927160Y-16942289D01*
X13927160Y-16942289D02*
X13927160Y-16885146D01*
X13927160Y-16885146D02*
X13936684Y-16866098D01*
X13936684Y-16866098D02*
X13946208Y-16856574D01*
X13946208Y-16856574D02*
X13965255Y-16847050D01*
X13965255Y-16847050D02*
X13993827Y-16847050D01*
X13993827Y-16847050D02*
X14012874Y-16856574D01*
X14012874Y-16856574D02*
X14022398Y-16866098D01*
X14022398Y-16866098D02*
X14031922Y-16885146D01*
X14031922Y-16885146D02*
X14031922Y-16942289D01*
X14031922Y-16942289D02*
X14022398Y-16961336D01*
X14022398Y-16961336D02*
X14012874Y-16970860D01*
X14012874Y-16970860D02*
X13993827Y-16980384D01*
X13993827Y-16980384D02*
X13965255Y-16980384D01*
X14146208Y-16980384D02*
X14127160Y-16970860D01*
X14127160Y-16970860D02*
X14117636Y-16951812D01*
X14117636Y-16951812D02*
X14117636Y-16780384D01*
X14298589Y-16970860D02*
X14279541Y-16980384D01*
X14279541Y-16980384D02*
X14241446Y-16980384D01*
X14241446Y-16980384D02*
X14222398Y-16970860D01*
X14222398Y-16970860D02*
X14212874Y-16951812D01*
X14212874Y-16951812D02*
X14212874Y-16875622D01*
X14212874Y-16875622D02*
X14222398Y-16856574D01*
X14222398Y-16856574D02*
X14241446Y-16847050D01*
X14241446Y-16847050D02*
X14279541Y-16847050D01*
X14279541Y-16847050D02*
X14298589Y-16856574D01*
X14298589Y-16856574D02*
X14308112Y-16875622D01*
X14308112Y-16875622D02*
X14308112Y-16894670D01*
X14308112Y-16894670D02*
X14212874Y-16913717D01*
X14384303Y-16970860D02*
X14403351Y-16980384D01*
X14403351Y-16980384D02*
X14441446Y-16980384D01*
X14441446Y-16980384D02*
X14460493Y-16970860D01*
X14460493Y-16970860D02*
X14470017Y-16951812D01*
X14470017Y-16951812D02*
X14470017Y-16942289D01*
X14470017Y-16942289D02*
X14460493Y-16923241D01*
X14460493Y-16923241D02*
X14441446Y-16913717D01*
X14441446Y-16913717D02*
X14412874Y-16913717D01*
X14412874Y-16913717D02*
X14393827Y-16904193D01*
X14393827Y-16904193D02*
X14384303Y-16885146D01*
X14384303Y-16885146D02*
X14384303Y-16875622D01*
X14384303Y-16875622D02*
X14393827Y-16856574D01*
X14393827Y-16856574D02*
X14412874Y-16847050D01*
X14412874Y-16847050D02*
X14441446Y-16847050D01*
X14441446Y-16847050D02*
X14460493Y-16856574D01*
X14536684Y-17056574D02*
X14546208Y-17047050D01*
X14546208Y-17047050D02*
X14565255Y-17018479D01*
X14565255Y-17018479D02*
X14574779Y-16999431D01*
X14574779Y-16999431D02*
X14584303Y-16970860D01*
X14584303Y-16970860D02*
X14593827Y-16923241D01*
X14593827Y-16923241D02*
X14593827Y-16885146D01*
X14593827Y-16885146D02*
X14584303Y-16837527D01*
X14584303Y-16837527D02*
X14574779Y-16808955D01*
X14574779Y-16808955D02*
X14565255Y-16789908D01*
X14565255Y-16789908D02*
X14546208Y-16761336D01*
X14546208Y-16761336D02*
X14536684Y-16751812D01*
X9561621Y-17098900D02*
X9761621Y-17298900D01*
X9761621Y-17098900D02*
X9561621Y-17298900D01*
X9732332Y-17269611D02*
X9732332Y-17128189D01*
X9590910Y-17128189D01*
X9590910Y-17269611D01*
X9732332Y-17269611D01*
X10003350Y-17090384D02*
X10127160Y-17090384D01*
X10127160Y-17090384D02*
X10060493Y-17166574D01*
X10060493Y-17166574D02*
X10089065Y-17166574D01*
X10089065Y-17166574D02*
X10108112Y-17176098D01*
X10108112Y-17176098D02*
X10117636Y-17185622D01*
X10117636Y-17185622D02*
X10127160Y-17204670D01*
X10127160Y-17204670D02*
X10127160Y-17252289D01*
X10127160Y-17252289D02*
X10117636Y-17271336D01*
X10117636Y-17271336D02*
X10108112Y-17280860D01*
X10108112Y-17280860D02*
X10089065Y-17290384D01*
X10089065Y-17290384D02*
X10031922Y-17290384D01*
X10031922Y-17290384D02*
X10012874Y-17280860D01*
X10012874Y-17280860D02*
X10003350Y-17271336D01*
X10212874Y-17271336D02*
X10222398Y-17280860D01*
X10222398Y-17280860D02*
X10212874Y-17290384D01*
X10212874Y-17290384D02*
X10203350Y-17280860D01*
X10203350Y-17280860D02*
X10212874Y-17271336D01*
X10212874Y-17271336D02*
X10212874Y-17290384D01*
X10298588Y-17109431D02*
X10308112Y-17099908D01*
X10308112Y-17099908D02*
X10327160Y-17090384D01*
X10327160Y-17090384D02*
X10374779Y-17090384D01*
X10374779Y-17090384D02*
X10393826Y-17099908D01*
X10393826Y-17099908D02*
X10403350Y-17109431D01*
X10403350Y-17109431D02*
X10412874Y-17128479D01*
X10412874Y-17128479D02*
X10412874Y-17147527D01*
X10412874Y-17147527D02*
X10403350Y-17176098D01*
X10403350Y-17176098D02*
X10289065Y-17290384D01*
X10289065Y-17290384D02*
X10412874Y-17290384D01*
X10536684Y-17090384D02*
X10555731Y-17090384D01*
X10555731Y-17090384D02*
X10574779Y-17099908D01*
X10574779Y-17099908D02*
X10584303Y-17109431D01*
X10584303Y-17109431D02*
X10593826Y-17128479D01*
X10593826Y-17128479D02*
X10603350Y-17166574D01*
X10603350Y-17166574D02*
X10603350Y-17214193D01*
X10603350Y-17214193D02*
X10593826Y-17252289D01*
X10593826Y-17252289D02*
X10584303Y-17271336D01*
X10584303Y-17271336D02*
X10574779Y-17280860D01*
X10574779Y-17280860D02*
X10555731Y-17290384D01*
X10555731Y-17290384D02*
X10536684Y-17290384D01*
X10536684Y-17290384D02*
X10517636Y-17280860D01*
X10517636Y-17280860D02*
X10508112Y-17271336D01*
X10508112Y-17271336D02*
X10498588Y-17252289D01*
X10498588Y-17252289D02*
X10489065Y-17214193D01*
X10489065Y-17214193D02*
X10489065Y-17166574D01*
X10489065Y-17166574D02*
X10498588Y-17128479D01*
X10498588Y-17128479D02*
X10508112Y-17109431D01*
X10508112Y-17109431D02*
X10517636Y-17099908D01*
X10517636Y-17099908D02*
X10536684Y-17090384D01*
X10727160Y-17090384D02*
X10746207Y-17090384D01*
X10746207Y-17090384D02*
X10765255Y-17099908D01*
X10765255Y-17099908D02*
X10774779Y-17109431D01*
X10774779Y-17109431D02*
X10784303Y-17128479D01*
X10784303Y-17128479D02*
X10793826Y-17166574D01*
X10793826Y-17166574D02*
X10793826Y-17214193D01*
X10793826Y-17214193D02*
X10784303Y-17252289D01*
X10784303Y-17252289D02*
X10774779Y-17271336D01*
X10774779Y-17271336D02*
X10765255Y-17280860D01*
X10765255Y-17280860D02*
X10746207Y-17290384D01*
X10746207Y-17290384D02*
X10727160Y-17290384D01*
X10727160Y-17290384D02*
X10708112Y-17280860D01*
X10708112Y-17280860D02*
X10698588Y-17271336D01*
X10698588Y-17271336D02*
X10689065Y-17252289D01*
X10689065Y-17252289D02*
X10679541Y-17214193D01*
X10679541Y-17214193D02*
X10679541Y-17166574D01*
X10679541Y-17166574D02*
X10689065Y-17128479D01*
X10689065Y-17128479D02*
X10698588Y-17109431D01*
X10698588Y-17109431D02*
X10708112Y-17099908D01*
X10708112Y-17099908D02*
X10727160Y-17090384D01*
X10879541Y-17290384D02*
X10879541Y-17157050D01*
X10879541Y-17176098D02*
X10889065Y-17166574D01*
X10889065Y-17166574D02*
X10908112Y-17157050D01*
X10908112Y-17157050D02*
X10936684Y-17157050D01*
X10936684Y-17157050D02*
X10955731Y-17166574D01*
X10955731Y-17166574D02*
X10965255Y-17185622D01*
X10965255Y-17185622D02*
X10965255Y-17290384D01*
X10965255Y-17185622D02*
X10974779Y-17166574D01*
X10974779Y-17166574D02*
X10993826Y-17157050D01*
X10993826Y-17157050D02*
X11022398Y-17157050D01*
X11022398Y-17157050D02*
X11041446Y-17166574D01*
X11041446Y-17166574D02*
X11050969Y-17185622D01*
X11050969Y-17185622D02*
X11050969Y-17290384D01*
X11146207Y-17290384D02*
X11146207Y-17157050D01*
X11146207Y-17176098D02*
X11155731Y-17166574D01*
X11155731Y-17166574D02*
X11174779Y-17157050D01*
X11174779Y-17157050D02*
X11203350Y-17157050D01*
X11203350Y-17157050D02*
X11222398Y-17166574D01*
X11222398Y-17166574D02*
X11231922Y-17185622D01*
X11231922Y-17185622D02*
X11231922Y-17290384D01*
X11231922Y-17185622D02*
X11241445Y-17166574D01*
X11241445Y-17166574D02*
X11260493Y-17157050D01*
X11260493Y-17157050D02*
X11289064Y-17157050D01*
X11289064Y-17157050D02*
X11308112Y-17166574D01*
X11308112Y-17166574D02*
X11317636Y-17185622D01*
X11317636Y-17185622D02*
X11317636Y-17290384D01*
X11708112Y-17080860D02*
X11536684Y-17338003D01*
X11965255Y-17090384D02*
X11984303Y-17090384D01*
X11984303Y-17090384D02*
X12003350Y-17099908D01*
X12003350Y-17099908D02*
X12012874Y-17109431D01*
X12012874Y-17109431D02*
X12022398Y-17128479D01*
X12022398Y-17128479D02*
X12031922Y-17166574D01*
X12031922Y-17166574D02*
X12031922Y-17214193D01*
X12031922Y-17214193D02*
X12022398Y-17252289D01*
X12022398Y-17252289D02*
X12012874Y-17271336D01*
X12012874Y-17271336D02*
X12003350Y-17280860D01*
X12003350Y-17280860D02*
X11984303Y-17290384D01*
X11984303Y-17290384D02*
X11965255Y-17290384D01*
X11965255Y-17290384D02*
X11946207Y-17280860D01*
X11946207Y-17280860D02*
X11936684Y-17271336D01*
X11936684Y-17271336D02*
X11927160Y-17252289D01*
X11927160Y-17252289D02*
X11917636Y-17214193D01*
X11917636Y-17214193D02*
X11917636Y-17166574D01*
X11917636Y-17166574D02*
X11927160Y-17128479D01*
X11927160Y-17128479D02*
X11936684Y-17109431D01*
X11936684Y-17109431D02*
X11946207Y-17099908D01*
X11946207Y-17099908D02*
X11965255Y-17090384D01*
X12117636Y-17271336D02*
X12127160Y-17280860D01*
X12127160Y-17280860D02*
X12117636Y-17290384D01*
X12117636Y-17290384D02*
X12108112Y-17280860D01*
X12108112Y-17280860D02*
X12117636Y-17271336D01*
X12117636Y-17271336D02*
X12117636Y-17290384D01*
X12317636Y-17290384D02*
X12203350Y-17290384D01*
X12260493Y-17290384D02*
X12260493Y-17090384D01*
X12260493Y-17090384D02*
X12241446Y-17118955D01*
X12241446Y-17118955D02*
X12222398Y-17138003D01*
X12222398Y-17138003D02*
X12203350Y-17147527D01*
X12393827Y-17109431D02*
X12403350Y-17099908D01*
X12403350Y-17099908D02*
X12422398Y-17090384D01*
X12422398Y-17090384D02*
X12470017Y-17090384D01*
X12470017Y-17090384D02*
X12489065Y-17099908D01*
X12489065Y-17099908D02*
X12498588Y-17109431D01*
X12498588Y-17109431D02*
X12508112Y-17128479D01*
X12508112Y-17128479D02*
X12508112Y-17147527D01*
X12508112Y-17147527D02*
X12498588Y-17176098D01*
X12498588Y-17176098D02*
X12384303Y-17290384D01*
X12384303Y-17290384D02*
X12508112Y-17290384D01*
X12679541Y-17090384D02*
X12641446Y-17090384D01*
X12641446Y-17090384D02*
X12622398Y-17099908D01*
X12622398Y-17099908D02*
X12612874Y-17109431D01*
X12612874Y-17109431D02*
X12593827Y-17138003D01*
X12593827Y-17138003D02*
X12584303Y-17176098D01*
X12584303Y-17176098D02*
X12584303Y-17252289D01*
X12584303Y-17252289D02*
X12593827Y-17271336D01*
X12593827Y-17271336D02*
X12603350Y-17280860D01*
X12603350Y-17280860D02*
X12622398Y-17290384D01*
X12622398Y-17290384D02*
X12660493Y-17290384D01*
X12660493Y-17290384D02*
X12679541Y-17280860D01*
X12679541Y-17280860D02*
X12689065Y-17271336D01*
X12689065Y-17271336D02*
X12698588Y-17252289D01*
X12698588Y-17252289D02*
X12698588Y-17204670D01*
X12698588Y-17204670D02*
X12689065Y-17185622D01*
X12689065Y-17185622D02*
X12679541Y-17176098D01*
X12679541Y-17176098D02*
X12660493Y-17166574D01*
X12660493Y-17166574D02*
X12622398Y-17166574D01*
X12622398Y-17166574D02*
X12603350Y-17176098D01*
X12603350Y-17176098D02*
X12593827Y-17185622D01*
X12593827Y-17185622D02*
X12584303Y-17204670D01*
X12822398Y-17090384D02*
X12841446Y-17090384D01*
X12841446Y-17090384D02*
X12860493Y-17099908D01*
X12860493Y-17099908D02*
X12870017Y-17109431D01*
X12870017Y-17109431D02*
X12879541Y-17128479D01*
X12879541Y-17128479D02*
X12889065Y-17166574D01*
X12889065Y-17166574D02*
X12889065Y-17214193D01*
X12889065Y-17214193D02*
X12879541Y-17252289D01*
X12879541Y-17252289D02*
X12870017Y-17271336D01*
X12870017Y-17271336D02*
X12860493Y-17280860D01*
X12860493Y-17280860D02*
X12841446Y-17290384D01*
X12841446Y-17290384D02*
X12822398Y-17290384D01*
X12822398Y-17290384D02*
X12803350Y-17280860D01*
X12803350Y-17280860D02*
X12793827Y-17271336D01*
X12793827Y-17271336D02*
X12784303Y-17252289D01*
X12784303Y-17252289D02*
X12774779Y-17214193D01*
X12774779Y-17214193D02*
X12774779Y-17166574D01*
X12774779Y-17166574D02*
X12784303Y-17128479D01*
X12784303Y-17128479D02*
X12793827Y-17109431D01*
X12793827Y-17109431D02*
X12803350Y-17099908D01*
X12803350Y-17099908D02*
X12822398Y-17090384D01*
X12965255Y-17090384D02*
X12965255Y-17128479D01*
X13041446Y-17090384D02*
X13041446Y-17128479D01*
X13336684Y-17366574D02*
X13327160Y-17357050D01*
X13327160Y-17357050D02*
X13308112Y-17328479D01*
X13308112Y-17328479D02*
X13298589Y-17309431D01*
X13298589Y-17309431D02*
X13289065Y-17280860D01*
X13289065Y-17280860D02*
X13279541Y-17233241D01*
X13279541Y-17233241D02*
X13279541Y-17195146D01*
X13279541Y-17195146D02*
X13289065Y-17147527D01*
X13289065Y-17147527D02*
X13298589Y-17118955D01*
X13298589Y-17118955D02*
X13308112Y-17099908D01*
X13308112Y-17099908D02*
X13327160Y-17071336D01*
X13327160Y-17071336D02*
X13336684Y-17061812D01*
X13403350Y-17109431D02*
X13412874Y-17099908D01*
X13412874Y-17099908D02*
X13431922Y-17090384D01*
X13431922Y-17090384D02*
X13479541Y-17090384D01*
X13479541Y-17090384D02*
X13498589Y-17099908D01*
X13498589Y-17099908D02*
X13508112Y-17109431D01*
X13508112Y-17109431D02*
X13517636Y-17128479D01*
X13517636Y-17128479D02*
X13517636Y-17147527D01*
X13517636Y-17147527D02*
X13508112Y-17176098D01*
X13508112Y-17176098D02*
X13393827Y-17290384D01*
X13393827Y-17290384D02*
X13517636Y-17290384D01*
X13755731Y-17290384D02*
X13755731Y-17090384D01*
X13841446Y-17290384D02*
X13841446Y-17185622D01*
X13841446Y-17185622D02*
X13831922Y-17166574D01*
X13831922Y-17166574D02*
X13812874Y-17157050D01*
X13812874Y-17157050D02*
X13784303Y-17157050D01*
X13784303Y-17157050D02*
X13765255Y-17166574D01*
X13765255Y-17166574D02*
X13755731Y-17176098D01*
X13965255Y-17290384D02*
X13946208Y-17280860D01*
X13946208Y-17280860D02*
X13936684Y-17271336D01*
X13936684Y-17271336D02*
X13927160Y-17252289D01*
X13927160Y-17252289D02*
X13927160Y-17195146D01*
X13927160Y-17195146D02*
X13936684Y-17176098D01*
X13936684Y-17176098D02*
X13946208Y-17166574D01*
X13946208Y-17166574D02*
X13965255Y-17157050D01*
X13965255Y-17157050D02*
X13993827Y-17157050D01*
X13993827Y-17157050D02*
X14012874Y-17166574D01*
X14012874Y-17166574D02*
X14022398Y-17176098D01*
X14022398Y-17176098D02*
X14031922Y-17195146D01*
X14031922Y-17195146D02*
X14031922Y-17252289D01*
X14031922Y-17252289D02*
X14022398Y-17271336D01*
X14022398Y-17271336D02*
X14012874Y-17280860D01*
X14012874Y-17280860D02*
X13993827Y-17290384D01*
X13993827Y-17290384D02*
X13965255Y-17290384D01*
X14146208Y-17290384D02*
X14127160Y-17280860D01*
X14127160Y-17280860D02*
X14117636Y-17261812D01*
X14117636Y-17261812D02*
X14117636Y-17090384D01*
X14298589Y-17280860D02*
X14279541Y-17290384D01*
X14279541Y-17290384D02*
X14241446Y-17290384D01*
X14241446Y-17290384D02*
X14222398Y-17280860D01*
X14222398Y-17280860D02*
X14212874Y-17261812D01*
X14212874Y-17261812D02*
X14212874Y-17185622D01*
X14212874Y-17185622D02*
X14222398Y-17166574D01*
X14222398Y-17166574D02*
X14241446Y-17157050D01*
X14241446Y-17157050D02*
X14279541Y-17157050D01*
X14279541Y-17157050D02*
X14298589Y-17166574D01*
X14298589Y-17166574D02*
X14308112Y-17185622D01*
X14308112Y-17185622D02*
X14308112Y-17204670D01*
X14308112Y-17204670D02*
X14212874Y-17223717D01*
X14384303Y-17280860D02*
X14403351Y-17290384D01*
X14403351Y-17290384D02*
X14441446Y-17290384D01*
X14441446Y-17290384D02*
X14460493Y-17280860D01*
X14460493Y-17280860D02*
X14470017Y-17261812D01*
X14470017Y-17261812D02*
X14470017Y-17252289D01*
X14470017Y-17252289D02*
X14460493Y-17233241D01*
X14460493Y-17233241D02*
X14441446Y-17223717D01*
X14441446Y-17223717D02*
X14412874Y-17223717D01*
X14412874Y-17223717D02*
X14393827Y-17214193D01*
X14393827Y-17214193D02*
X14384303Y-17195146D01*
X14384303Y-17195146D02*
X14384303Y-17185622D01*
X14384303Y-17185622D02*
X14393827Y-17166574D01*
X14393827Y-17166574D02*
X14412874Y-17157050D01*
X14412874Y-17157050D02*
X14441446Y-17157050D01*
X14441446Y-17157050D02*
X14460493Y-17166574D01*
X14536684Y-17366574D02*
X14546208Y-17357050D01*
X14546208Y-17357050D02*
X14565255Y-17328479D01*
X14565255Y-17328479D02*
X14574779Y-17309431D01*
X14574779Y-17309431D02*
X14584303Y-17280860D01*
X14584303Y-17280860D02*
X14593827Y-17233241D01*
X14593827Y-17233241D02*
X14593827Y-17195146D01*
X14593827Y-17195146D02*
X14584303Y-17147527D01*
X14584303Y-17147527D02*
X14574779Y-17118955D01*
X14574779Y-17118955D02*
X14565255Y-17099908D01*
X14565255Y-17099908D02*
X14546208Y-17071336D01*
X14546208Y-17071336D02*
X14536684Y-17061812D01*
M02*
