%TF.GenerationSoftware,KiCad,Pcbnew,9.0.0*%
%TF.CreationDate,2025-04-18T15:12:49+03:00*%
%TF.ProjectId,valkyriev3,76616c6b-7972-4696-9576-332e6b696361,rev?*%
%TF.SameCoordinates,Original*%
%TF.FileFunction,Copper,L2,Inr*%
%TF.FilePolarity,Positive*%
%FSLAX46Y46*%
G04 Gerber Fmt 4.6, Leading zero omitted, Abs format (unit mm)*
G04 Created by KiCad (PCBNEW 9.0.0) date 2025-04-18 15:12:49*
%MOMM*%
%LPD*%
G01*
G04 APERTURE LIST*
G04 Aperture macros list*
%AMRoundRect*
0 Rectangle with rounded corners*
0 $1 Rounding radius*
0 $2 $3 $4 $5 $6 $7 $8 $9 X,Y pos of 4 corners*
0 Add a 4 corners polygon primitive as box body*
4,1,4,$2,$3,$4,$5,$6,$7,$8,$9,$2,$3,0*
0 Add four circle primitives for the rounded corners*
1,1,$1+$1,$2,$3*
1,1,$1+$1,$4,$5*
1,1,$1+$1,$6,$7*
1,1,$1+$1,$8,$9*
0 Add four rect primitives between the rounded corners*
20,1,$1+$1,$2,$3,$4,$5,0*
20,1,$1+$1,$4,$5,$6,$7,0*
20,1,$1+$1,$6,$7,$8,$9,0*
20,1,$1+$1,$8,$9,$2,$3,0*%
G04 Aperture macros list end*
%TA.AperFunction,ComponentPad*%
%ADD10C,1.400000*%
%TD*%
%TA.AperFunction,ComponentPad*%
%ADD11RoundRect,0.770000X-0.980000X-0.980000X0.980000X-0.980000X0.980000X0.980000X-0.980000X0.980000X0*%
%TD*%
%TA.AperFunction,ComponentPad*%
%ADD12C,3.500000*%
%TD*%
%TA.AperFunction,HeatsinkPad*%
%ADD13O,2.100000X1.000000*%
%TD*%
%TA.AperFunction,HeatsinkPad*%
%ADD14O,1.800000X1.000000*%
%TD*%
%TA.AperFunction,ComponentPad*%
%ADD15C,4.000000*%
%TD*%
%TA.AperFunction,ComponentPad*%
%ADD16R,1.600000X1.600000*%
%TD*%
%TA.AperFunction,ComponentPad*%
%ADD17C,1.600000*%
%TD*%
%TA.AperFunction,ComponentPad*%
%ADD18R,1.700000X1.700000*%
%TD*%
%TA.AperFunction,ComponentPad*%
%ADD19O,1.700000X1.700000*%
%TD*%
%TA.AperFunction,ComponentPad*%
%ADD20C,2.050000*%
%TD*%
%TA.AperFunction,ComponentPad*%
%ADD21C,2.250000*%
%TD*%
%TA.AperFunction,ComponentPad*%
%ADD22R,2.000000X2.000000*%
%TD*%
%TA.AperFunction,ComponentPad*%
%ADD23C,2.000000*%
%TD*%
%TA.AperFunction,ViaPad*%
%ADD24C,0.457200*%
%TD*%
%TA.AperFunction,ViaPad*%
%ADD25C,0.458000*%
%TD*%
G04 APERTURE END LIST*
D10*
%TO.N,*%
%TO.C,J6*%
X104515000Y-47654000D03*
X115515000Y-47654000D03*
D11*
%TO.N,GND*%
X112515000Y-57654000D03*
D12*
%TO.N,VBATT*%
X107515000Y-57654000D03*
%TD*%
D13*
%TO.N,GND*%
%TO.C,J1*%
X104288000Y-91006200D03*
D14*
X100108000Y-91006200D03*
D13*
X104288000Y-99646200D03*
D14*
X100108000Y-99646200D03*
%TD*%
D10*
%TO.N,*%
%TO.C,J7*%
X149603600Y-47617400D03*
X160603600Y-47617400D03*
D11*
%TO.N,/Connectors/DROGUE_ANODE*%
X157603600Y-57617400D03*
D12*
%TO.N,VIN*%
X152603600Y-57617400D03*
%TD*%
D15*
%TO.N,GND*%
%TO.C,J2*%
X138869200Y-137086200D03*
X163869200Y-137086200D03*
D16*
%TO.N,unconnected-(J2-Pad1)*%
X145829200Y-135666200D03*
D17*
%TO.N,/MCU/RS232_TXD*%
X148599200Y-135666200D03*
%TO.N,/MCU/RS232_RXD*%
X151369200Y-135666200D03*
%TO.N,unconnected-(J2-Pad4)*%
X154139200Y-135666200D03*
%TO.N,GND*%
X156909200Y-135666200D03*
%TO.N,unconnected-(J2-Pad6)*%
X147214200Y-138506200D03*
%TO.N,unconnected-(J2-Pad7)*%
X149984200Y-138506200D03*
%TO.N,unconnected-(J2-Pad8)*%
X152754200Y-138506200D03*
%TO.N,unconnected-(J2-Pad9)*%
X155524200Y-138506200D03*
%TD*%
D10*
%TO.N,*%
%TO.C,J5*%
X134928600Y-47617400D03*
X145928600Y-47617400D03*
D11*
%TO.N,/Connectors/MAIN_ANODE*%
X142928600Y-57617400D03*
D12*
%TO.N,VIN*%
X137928600Y-57617400D03*
%TD*%
D18*
%TO.N,+5V*%
%TO.C,J9*%
X136017000Y-90754200D03*
D19*
%TO.N,+3V3*%
X136017000Y-93294200D03*
%TO.N,GND*%
X136017000Y-95834200D03*
%TO.N,ESP_TXD1*%
X136017000Y-98374200D03*
%TO.N,ESP_RXD1*%
X136017000Y-100914200D03*
%TD*%
D18*
%TO.N,ESP_SDA*%
%TO.C,J10*%
X112039400Y-112191800D03*
D19*
%TO.N,ESP_SCL*%
X112039400Y-114731800D03*
%TO.N,GND*%
X112039400Y-117271800D03*
%TD*%
D20*
%TO.N,/Communications/LORA_ANT*%
%TO.C,J4*%
X146000000Y-114000000D03*
D21*
%TO.N,GND*%
X143460000Y-116540000D03*
X148540000Y-116540000D03*
X143460000Y-111460000D03*
X148540000Y-111460000D03*
%TD*%
D22*
%TO.N,+5V*%
%TO.C,BZ1*%
X104989400Y-86298600D03*
D23*
%TO.N,/MCU/BUZZER_C*%
X104989400Y-78698600D03*
%TD*%
D18*
%TO.N,ESP_RXD0*%
%TO.C,J11*%
X153847800Y-123850400D03*
D19*
%TO.N,ESP_TXD0*%
X153847800Y-126390400D03*
%TO.N,GND*%
X153847800Y-128930400D03*
%TD*%
D20*
%TO.N,/GPS/GPS_ANT*%
%TO.C,J3*%
X128500000Y-137500000D03*
D21*
%TO.N,GND*%
X131040000Y-140040000D03*
X131040000Y-134960000D03*
X125960000Y-140040000D03*
X125960000Y-134960000D03*
%TD*%
D18*
%TO.N,ESP_TXD2*%
%TO.C,J8*%
X101955600Y-136525000D03*
D19*
%TO.N,ESP_RXD2*%
X101955600Y-133985000D03*
%TO.N,GND*%
X101955600Y-131445000D03*
%TD*%
D24*
%TO.N,GND*%
X127914400Y-94894400D03*
X166243000Y-144907000D03*
X115163600Y-124053600D03*
X105283000Y-144907000D03*
X117957600Y-62788800D03*
X120396000Y-93980000D03*
D25*
X125200732Y-138000000D03*
D24*
X125780800Y-88595200D03*
D25*
X116213150Y-141026560D03*
D24*
X162560000Y-74523600D03*
X128168400Y-89408000D03*
X106730800Y-99771200D03*
X132842000Y-68376800D03*
X103276400Y-122428000D03*
X127914400Y-99110800D03*
X120523000Y-53975000D03*
X145923000Y-69215000D03*
X122275600Y-56134000D03*
X127914400Y-100990400D03*
D25*
X121901465Y-138000000D03*
D24*
X161163000Y-144907000D03*
X135280400Y-83870800D03*
X162560000Y-73507600D03*
X115443000Y-120015000D03*
X100203000Y-64135000D03*
X140970000Y-124714000D03*
X161163000Y-89535000D03*
X122174000Y-95656400D03*
X143002000Y-72085200D03*
D25*
X117622977Y-139516335D03*
D24*
X128371600Y-84632800D03*
X100203000Y-53975000D03*
X134315200Y-71678800D03*
X101193600Y-107340400D03*
X115163600Y-124561600D03*
X117652800Y-71221600D03*
X134010400Y-116281200D03*
X128981200Y-66040000D03*
X128371600Y-84124800D03*
X127863600Y-82600800D03*
D25*
X118111622Y-138881272D03*
D24*
X115443000Y-64135000D03*
X166243000Y-120015000D03*
X106730800Y-98755200D03*
X156083000Y-48895000D03*
X128676400Y-89357200D03*
X118465600Y-61264800D03*
X124460000Y-116281200D03*
X130683000Y-104775000D03*
X151003000Y-144907000D03*
X100025200Y-66040000D03*
X135763000Y-130175000D03*
X117957600Y-61264800D03*
X120523000Y-64135000D03*
D25*
X124375916Y-138000000D03*
D24*
X116992400Y-94030800D03*
X156514800Y-105460800D03*
X135763000Y-144907000D03*
X109321600Y-120396000D03*
X133299200Y-71678800D03*
X130505200Y-66040000D03*
X136347200Y-70408800D03*
X107543600Y-100279200D03*
X137363200Y-70408800D03*
X161163000Y-74295000D03*
X145923000Y-94615000D03*
X146354800Y-122275600D03*
X161163000Y-140335000D03*
X116636800Y-70713600D03*
X100203000Y-135255000D03*
X166243000Y-59055000D03*
X142494000Y-124714000D03*
X128371600Y-83616800D03*
X161163000Y-99695000D03*
D25*
X117316383Y-140256522D03*
D24*
X145923000Y-79375000D03*
X156083000Y-94615000D03*
X125603000Y-130175000D03*
X107543600Y-101752400D03*
X134772400Y-83870800D03*
X127863600Y-82092800D03*
X117957600Y-60756800D03*
X159562800Y-105460800D03*
X114401600Y-60706000D03*
X131826000Y-88265000D03*
X127558800Y-87223600D03*
X118719600Y-94030800D03*
X143002000Y-71069200D03*
X127863600Y-84124800D03*
X115443000Y-144907000D03*
X149098000Y-105460800D03*
X133807200Y-68630800D03*
X120751600Y-55626000D03*
X159054800Y-105460800D03*
X118719600Y-92252800D03*
X137922000Y-64109600D03*
X163068000Y-73507600D03*
X161163000Y-94615000D03*
X166243000Y-114935000D03*
X156083000Y-69215000D03*
X148590000Y-104952800D03*
X115443000Y-114935000D03*
X118465600Y-61772800D03*
X127914400Y-95910400D03*
X118465600Y-62280800D03*
X150723600Y-63144400D03*
X142494000Y-71577200D03*
X129489200Y-66040000D03*
X103428800Y-68072000D03*
X129082800Y-86614000D03*
X108357000Y-95300200D03*
D25*
X123551099Y-138000000D03*
D24*
X120396000Y-97434400D03*
X128473200Y-66040000D03*
X128066800Y-87731600D03*
X116636800Y-71221600D03*
X119735600Y-144627600D03*
X105283000Y-89535000D03*
X123342400Y-102920800D03*
X128574800Y-91287600D03*
X127863600Y-83616800D03*
X161163000Y-53975000D03*
X105283000Y-130175000D03*
X127914400Y-96926400D03*
X145923000Y-89535000D03*
X166243000Y-140335000D03*
X115443000Y-99695000D03*
X100203000Y-94615000D03*
X140843000Y-144907000D03*
X127558800Y-87731600D03*
X125603000Y-144907000D03*
X112268000Y-102819200D03*
X130683000Y-130175000D03*
X100203000Y-79375000D03*
X122783600Y-56134000D03*
X111404400Y-75082400D03*
X163068000Y-74523600D03*
X134772400Y-83362800D03*
X145923000Y-84455000D03*
X125603000Y-125095000D03*
X143002000Y-71577200D03*
X140843000Y-114935000D03*
X148590000Y-105460800D03*
X123291600Y-55626000D03*
X129997200Y-66040000D03*
D25*
X126025549Y-138000000D03*
D24*
X166243000Y-125095000D03*
X114401600Y-61214000D03*
X127863600Y-84632800D03*
X151003000Y-140335000D03*
X117957600Y-63296800D03*
X105283000Y-140335000D03*
X135763000Y-104775000D03*
X122174000Y-94030800D03*
X156083000Y-114935000D03*
X166243000Y-135255000D03*
X104698800Y-60604400D03*
X149504400Y-131013200D03*
X117652800Y-70713600D03*
X161163000Y-109855000D03*
X106222800Y-99263200D03*
X135788400Y-83362800D03*
X140843000Y-135255000D03*
D25*
X118236434Y-137539892D03*
D24*
X140843000Y-48895000D03*
X110896400Y-75082400D03*
X145923000Y-99695000D03*
X121259600Y-55626000D03*
X151003000Y-89535000D03*
X110363000Y-140335000D03*
X114401600Y-62738000D03*
X142494000Y-71069200D03*
X135788400Y-83870800D03*
X128574800Y-86614000D03*
X163068000Y-74015600D03*
X140843000Y-64135000D03*
X128371600Y-81584800D03*
X127914400Y-92862400D03*
X136906000Y-63601600D03*
X151003000Y-69215000D03*
X137922000Y-63601600D03*
D25*
X116752892Y-139023433D03*
D24*
X100203000Y-114935000D03*
X166243000Y-104775000D03*
X128371600Y-82600800D03*
X105054400Y-109982000D03*
X110363000Y-144907000D03*
D25*
X123551099Y-137000000D03*
D24*
X161163000Y-120015000D03*
X160070800Y-104952800D03*
X133299200Y-68630800D03*
X113842800Y-84480400D03*
X118719600Y-95656400D03*
X137414000Y-63601600D03*
X105359200Y-73101200D03*
X154584400Y-64516000D03*
X106476800Y-116332000D03*
X130683000Y-144907000D03*
X129082800Y-86106000D03*
X127101600Y-106070400D03*
X122275600Y-55626000D03*
X151003000Y-120015000D03*
D25*
X124375916Y-137000000D03*
D24*
X114401600Y-62230000D03*
X105359200Y-72593200D03*
X151003000Y-99695000D03*
X122783600Y-55626000D03*
X166243000Y-64135000D03*
X115163600Y-123037600D03*
X115163600Y-125577600D03*
X151003000Y-114935000D03*
X166243000Y-99695000D03*
X127914400Y-93878400D03*
X120523000Y-48895000D03*
X100203000Y-84455000D03*
D25*
X121076648Y-137000000D03*
D24*
X125603000Y-53975000D03*
D25*
X119202809Y-137139606D03*
X121076648Y-138000000D03*
D24*
X121767600Y-56134000D03*
X140843000Y-140335000D03*
X127660400Y-89916000D03*
X156083000Y-144907000D03*
X166243000Y-53975000D03*
X135280400Y-83362800D03*
X105054400Y-116332000D03*
X127863600Y-81076800D03*
X135763000Y-140335000D03*
X105283000Y-53975000D03*
X162560000Y-74015600D03*
X156083000Y-109855000D03*
X111607600Y-87833200D03*
D25*
X120239564Y-137000151D03*
D24*
X115443000Y-53975000D03*
X121767600Y-55626000D03*
D25*
X122726282Y-137000000D03*
D24*
X127863600Y-81584800D03*
X121259600Y-56134000D03*
X127863600Y-83108800D03*
X117957600Y-62280800D03*
X110363000Y-53975000D03*
X128371600Y-83108800D03*
X166243000Y-94615000D03*
X145923000Y-74295000D03*
X115443000Y-89535000D03*
X115443000Y-59055000D03*
X161163000Y-84455000D03*
X136906000Y-64109600D03*
X110363000Y-135255000D03*
X115163600Y-125069600D03*
X114909600Y-61722000D03*
D25*
X118729334Y-138409979D03*
D24*
X161163000Y-125095000D03*
X115163600Y-123545600D03*
D25*
X116352607Y-139989806D03*
D24*
X118719600Y-144627600D03*
X100203000Y-109855000D03*
X145923000Y-64135000D03*
X130683000Y-125095000D03*
X156083000Y-79375000D03*
X117144800Y-70713600D03*
D25*
X125200732Y-137000000D03*
D24*
X110896400Y-75590400D03*
X151003000Y-94615000D03*
X148082000Y-104952800D03*
X105359200Y-73609200D03*
X161163000Y-135255000D03*
X120523000Y-59055000D03*
X136855200Y-70408800D03*
X157530800Y-104952800D03*
X110363000Y-89535000D03*
X105283000Y-84455000D03*
X105283000Y-135255000D03*
X159562800Y-104952800D03*
X120751600Y-56134000D03*
X159054800Y-104952800D03*
X161163000Y-130175000D03*
X135763000Y-135255000D03*
X166243000Y-69215000D03*
X106222800Y-98755200D03*
X100203000Y-130175000D03*
X156083000Y-53975000D03*
X134315200Y-71170800D03*
X145923000Y-140335000D03*
X118465600Y-63296800D03*
X156514800Y-104952800D03*
X114401600Y-63246000D03*
X149098000Y-104952800D03*
X129235200Y-116281200D03*
X114401600Y-61722000D03*
X117957600Y-61772800D03*
X119227600Y-144627600D03*
X157530800Y-105460800D03*
D25*
X117212848Y-141051104D03*
D24*
X118465600Y-62788800D03*
X100203000Y-120015000D03*
X106222800Y-99771200D03*
X118465600Y-60756800D03*
X127660400Y-90424000D03*
X110363000Y-64135000D03*
X103581200Y-116332000D03*
X120345200Y-92252800D03*
D25*
X119469520Y-138103384D03*
X121901465Y-137000000D03*
D24*
X130683000Y-48895000D03*
X151003000Y-109855000D03*
X156083000Y-130175000D03*
X110363000Y-79375000D03*
X156083000Y-84455000D03*
X111404400Y-75590400D03*
X145923000Y-144907000D03*
X133299200Y-71170800D03*
X154076400Y-64516000D03*
X110363000Y-130175000D03*
X161163000Y-114935000D03*
X116992400Y-95656400D03*
X116992400Y-92252800D03*
X153568400Y-64008000D03*
X114909600Y-63246000D03*
D25*
X120264100Y-137999849D03*
D24*
X156083000Y-89535000D03*
X151003000Y-74295000D03*
X157022800Y-104952800D03*
X133807200Y-71170800D03*
X140843000Y-109855000D03*
X100203000Y-140335000D03*
X160070800Y-105460800D03*
X153568400Y-64516000D03*
X100203000Y-59055000D03*
X114909600Y-61214000D03*
X148082000Y-105460800D03*
X135763000Y-125095000D03*
X154076400Y-64008000D03*
X151003000Y-79375000D03*
X156083000Y-120015000D03*
D25*
X117404728Y-138174378D03*
D24*
X137414000Y-64109600D03*
X128574800Y-86106000D03*
X156083000Y-125095000D03*
X116992400Y-97434400D03*
X117144800Y-71221600D03*
X114909600Y-60706000D03*
X128066800Y-87223600D03*
X140843000Y-104775000D03*
X123291600Y-56134000D03*
X156083000Y-99695000D03*
D25*
X122726282Y-138000000D03*
D24*
X122174000Y-97434400D03*
X157022800Y-105460800D03*
X102260400Y-66040000D03*
X133807200Y-71678800D03*
X140843000Y-89535000D03*
X151003000Y-84455000D03*
X156083000Y-140335000D03*
X105283000Y-69215000D03*
X140843000Y-99695000D03*
X166243000Y-109855000D03*
X122174000Y-92252800D03*
X125603000Y-48895000D03*
X115443000Y-135255000D03*
X140843000Y-94615000D03*
X127914400Y-97942400D03*
X128168400Y-89916000D03*
X156083000Y-74295000D03*
X161163000Y-69215000D03*
X128371600Y-82092800D03*
X128676400Y-88849200D03*
X114909600Y-62230000D03*
X106730800Y-99263200D03*
X108762800Y-120396000D03*
X120345200Y-95656400D03*
X161163000Y-79375000D03*
X114909600Y-62738000D03*
X142494000Y-72085200D03*
X118719600Y-97434400D03*
X128371600Y-81076800D03*
D25*
X126025549Y-137000000D03*
D24*
X154584400Y-64008000D03*
X108610400Y-112166400D03*
%TO.N,+5V*%
X125222000Y-69545200D03*
X107442000Y-92405200D03*
X124714000Y-70053200D03*
X125730000Y-68529200D03*
X106324400Y-92913200D03*
X106324400Y-97332800D03*
X137820400Y-74320400D03*
X106832400Y-97739200D03*
X125730000Y-70053200D03*
X138328400Y-73812400D03*
X106832400Y-97332800D03*
X138328400Y-69951600D03*
X106883200Y-92405200D03*
X106324400Y-97739200D03*
X124714000Y-69545200D03*
X125730000Y-69037200D03*
X124206000Y-70053200D03*
X106883200Y-92913200D03*
X137820400Y-73812400D03*
X138328400Y-74320400D03*
X125730000Y-69545200D03*
X125222000Y-69037200D03*
X125222000Y-70053200D03*
%TO.N,+3V3*%
X141274800Y-131216400D03*
X100431600Y-112268000D03*
X101752400Y-116332000D03*
X102260400Y-116840000D03*
X111404400Y-73253600D03*
X111353600Y-124510800D03*
X104749600Y-70459600D03*
X125526800Y-106070400D03*
X107645200Y-114046000D03*
X129895600Y-109474000D03*
X111404400Y-71729600D03*
X111404400Y-71221600D03*
X111404400Y-73761600D03*
X141274800Y-131724400D03*
X110388400Y-73253600D03*
X110896400Y-74269600D03*
X111404400Y-72237600D03*
X109880400Y-72745600D03*
X110896400Y-71221600D03*
X110388400Y-71729600D03*
X107340400Y-110134400D03*
X101752400Y-116840000D03*
X109829600Y-99161600D03*
X111353600Y-122986800D03*
X110388400Y-73761600D03*
X125171200Y-109474000D03*
X134620000Y-109474000D03*
X110896400Y-73761600D03*
X110388400Y-71221600D03*
X108153200Y-114046000D03*
X143205200Y-121259600D03*
X111353600Y-124002800D03*
X109880400Y-70713600D03*
X104749600Y-70967600D03*
X102260400Y-116332000D03*
X111404400Y-72745600D03*
X141681200Y-121259600D03*
X109880400Y-73253600D03*
X107645200Y-113538000D03*
X110388400Y-70713600D03*
X111353600Y-123494800D03*
X110896400Y-70713600D03*
X110388400Y-72237600D03*
X110388400Y-72745600D03*
X110896400Y-72237600D03*
X103022400Y-111404400D03*
X109880400Y-72237600D03*
X110337600Y-99161600D03*
X111353600Y-125018800D03*
X110896400Y-72745600D03*
X109880400Y-71221600D03*
X109880400Y-71729600D03*
X142189200Y-121259600D03*
X141173200Y-121259600D03*
X108153200Y-113538000D03*
X142697200Y-121259600D03*
X104597200Y-122123200D03*
X110896400Y-71729600D03*
X111404400Y-70713600D03*
X110896400Y-73253600D03*
X108610400Y-111150400D03*
X111404400Y-74269600D03*
%TO.N,VIN*%
X132080000Y-66421000D03*
X123698000Y-66548000D03*
X132588000Y-66167000D03*
X122936000Y-68326000D03*
X132080000Y-83058000D03*
X124587000Y-66421000D03*
X131572000Y-66167000D03*
X122936000Y-67818000D03*
X123444000Y-67564000D03*
X131572000Y-66675000D03*
X124079000Y-66167000D03*
X123317000Y-66929000D03*
X124206000Y-66802000D03*
X132080000Y-78181200D03*
X123825000Y-67183000D03*
X130124200Y-87553800D03*
X124587000Y-65913000D03*
X122936000Y-67310000D03*
X132588000Y-66675000D03*
X132080000Y-65913000D03*
X132080000Y-66929000D03*
%TO.N,ESP_RXD2*%
X118719600Y-106832400D03*
X117856000Y-108610400D03*
%TO.N,ESP_SCL*%
X113944400Y-89154000D03*
X103022400Y-110388400D03*
%TO.N,ESP_SDA*%
X114427000Y-109855000D03*
X114604800Y-89154000D03*
%TO.N,LED_USER*%
X123647200Y-109220000D03*
X118973600Y-88747600D03*
%TO.N,LED_MAIN*%
X122224800Y-88747600D03*
X128371600Y-109220000D03*
%TO.N,LED_DROGUE*%
X133146800Y-109220000D03*
X121412000Y-88747600D03*
%TO.N,OUT_MAIN*%
X117348000Y-86614000D03*
X134162800Y-63246000D03*
%TO.N,OUT_DROGUE*%
X148844000Y-64211200D03*
X117398800Y-88747600D03*
%TO.N,LORA_AUX*%
X118973600Y-85344000D03*
X130606800Y-85140800D03*
%TO.N,LORA_RESET*%
X129844800Y-84632800D03*
X118414800Y-84683600D03*
%TO.N,LORA_M1*%
X138836400Y-87020400D03*
X137109200Y-87020400D03*
%TO.N,LORA_M0*%
X137109200Y-85953600D03*
X138836400Y-84226400D03*
%TD*%
%TA.AperFunction,Conductor*%
%TO.N,GND*%
G36*
X103707111Y-46827995D02*
G01*
X103752866Y-46880799D01*
X103762810Y-46949957D01*
X103737267Y-47007927D01*
X103737517Y-47008094D01*
X103736569Y-47009511D01*
X103735925Y-47010975D01*
X103734132Y-47013158D01*
X103624118Y-47177805D01*
X103624113Y-47177814D01*
X103548333Y-47360764D01*
X103548331Y-47360772D01*
X103509700Y-47554982D01*
X103509700Y-47753017D01*
X103548331Y-47947227D01*
X103548333Y-47947235D01*
X103624113Y-48130185D01*
X103624118Y-48130194D01*
X103734132Y-48294840D01*
X103734135Y-48294844D01*
X103874155Y-48434864D01*
X103874159Y-48434867D01*
X104038805Y-48544881D01*
X104038811Y-48544884D01*
X104038812Y-48544885D01*
X104221765Y-48620667D01*
X104415982Y-48659299D01*
X104415986Y-48659300D01*
X104415987Y-48659300D01*
X104614014Y-48659300D01*
X104614015Y-48659299D01*
X104808235Y-48620667D01*
X104991188Y-48544885D01*
X105155841Y-48434867D01*
X105295867Y-48294841D01*
X105405885Y-48130188D01*
X105481667Y-47947235D01*
X105520300Y-47753013D01*
X105520300Y-47554987D01*
X105481667Y-47360765D01*
X105405885Y-47177812D01*
X105405884Y-47177811D01*
X105405881Y-47177805D01*
X105295867Y-47013158D01*
X105294075Y-47010975D01*
X105293494Y-47009607D01*
X105292483Y-47008094D01*
X105292769Y-47007902D01*
X105266762Y-46946665D01*
X105278553Y-46877798D01*
X105325705Y-46826238D01*
X105389928Y-46808310D01*
X114640072Y-46808310D01*
X114707111Y-46827995D01*
X114752866Y-46880799D01*
X114762810Y-46949957D01*
X114737267Y-47007927D01*
X114737517Y-47008094D01*
X114736569Y-47009511D01*
X114735925Y-47010975D01*
X114734132Y-47013158D01*
X114624118Y-47177805D01*
X114624113Y-47177814D01*
X114548333Y-47360764D01*
X114548331Y-47360772D01*
X114509700Y-47554982D01*
X114509700Y-47753017D01*
X114548331Y-47947227D01*
X114548333Y-47947235D01*
X114624113Y-48130185D01*
X114624118Y-48130194D01*
X114734132Y-48294840D01*
X114734135Y-48294844D01*
X114874155Y-48434864D01*
X114874159Y-48434867D01*
X115038805Y-48544881D01*
X115038811Y-48544884D01*
X115038812Y-48544885D01*
X115221765Y-48620667D01*
X115415982Y-48659299D01*
X115415986Y-48659300D01*
X115415987Y-48659300D01*
X115614014Y-48659300D01*
X115614014Y-48659299D01*
X115649385Y-48652264D01*
X115688390Y-48644506D01*
X115739830Y-48634273D01*
X115808235Y-48620667D01*
X115991188Y-48544885D01*
X116155841Y-48434867D01*
X116295867Y-48294841D01*
X116405885Y-48130188D01*
X116481667Y-47947235D01*
X116520300Y-47753013D01*
X116520300Y-47554987D01*
X116481667Y-47360765D01*
X116405885Y-47177812D01*
X116405884Y-47177811D01*
X116405881Y-47177805D01*
X116295867Y-47013158D01*
X116294075Y-47010975D01*
X116293494Y-47009607D01*
X116292483Y-47008094D01*
X116292769Y-47007902D01*
X116266762Y-46946665D01*
X116278553Y-46877798D01*
X116325705Y-46826238D01*
X116389928Y-46808310D01*
X134028165Y-46808310D01*
X134095204Y-46827995D01*
X134140959Y-46880799D01*
X134150903Y-46949957D01*
X134131267Y-47001201D01*
X134037718Y-47141205D01*
X134037713Y-47141214D01*
X133961933Y-47324164D01*
X133961931Y-47324172D01*
X133923300Y-47518382D01*
X133923300Y-47716417D01*
X133961931Y-47910627D01*
X133961933Y-47910635D01*
X134037713Y-48093585D01*
X134037718Y-48093594D01*
X134147732Y-48258240D01*
X134147735Y-48258244D01*
X134287755Y-48398264D01*
X134287759Y-48398267D01*
X134452405Y-48508281D01*
X134452411Y-48508284D01*
X134452412Y-48508285D01*
X134635365Y-48584067D01*
X134829582Y-48622699D01*
X134829586Y-48622700D01*
X134829587Y-48622700D01*
X135027614Y-48622700D01*
X135027615Y-48622699D01*
X135221835Y-48584067D01*
X135404788Y-48508285D01*
X135569441Y-48398267D01*
X135709467Y-48258241D01*
X135819485Y-48093588D01*
X135895267Y-47910635D01*
X135933900Y-47716413D01*
X135933900Y-47518387D01*
X135895267Y-47324165D01*
X135819485Y-47141212D01*
X135819484Y-47141211D01*
X135819481Y-47141205D01*
X135725933Y-47001201D01*
X135705055Y-46934523D01*
X135723539Y-46867143D01*
X135775518Y-46820453D01*
X135829035Y-46808310D01*
X145028165Y-46808310D01*
X145095204Y-46827995D01*
X145140959Y-46880799D01*
X145150903Y-46949957D01*
X145131267Y-47001201D01*
X145037718Y-47141205D01*
X145037713Y-47141214D01*
X144961933Y-47324164D01*
X144961931Y-47324172D01*
X144923300Y-47518382D01*
X144923300Y-47716417D01*
X144961931Y-47910627D01*
X144961933Y-47910635D01*
X145037713Y-48093585D01*
X145037718Y-48093594D01*
X145147732Y-48258240D01*
X145147735Y-48258244D01*
X145287755Y-48398264D01*
X145287759Y-48398267D01*
X145452405Y-48508281D01*
X145452411Y-48508284D01*
X145452412Y-48508285D01*
X145635365Y-48584067D01*
X145829582Y-48622699D01*
X145829586Y-48622700D01*
X145829587Y-48622700D01*
X146027614Y-48622700D01*
X146027615Y-48622699D01*
X146221835Y-48584067D01*
X146404788Y-48508285D01*
X146569441Y-48398267D01*
X146709467Y-48258241D01*
X146819485Y-48093588D01*
X146895267Y-47910635D01*
X146933900Y-47716413D01*
X146933900Y-47518387D01*
X146895267Y-47324165D01*
X146819485Y-47141212D01*
X146819484Y-47141211D01*
X146819481Y-47141205D01*
X146725933Y-47001201D01*
X146705055Y-46934523D01*
X146723539Y-46867143D01*
X146775518Y-46820453D01*
X146829035Y-46808310D01*
X148703165Y-46808310D01*
X148770204Y-46827995D01*
X148815959Y-46880799D01*
X148825903Y-46949957D01*
X148806267Y-47001201D01*
X148712718Y-47141205D01*
X148712713Y-47141214D01*
X148636933Y-47324164D01*
X148636931Y-47324172D01*
X148598300Y-47518382D01*
X148598300Y-47716417D01*
X148636931Y-47910627D01*
X148636933Y-47910635D01*
X148712713Y-48093585D01*
X148712718Y-48093594D01*
X148822732Y-48258240D01*
X148822735Y-48258244D01*
X148962755Y-48398264D01*
X148962759Y-48398267D01*
X149127405Y-48508281D01*
X149127411Y-48508284D01*
X149127412Y-48508285D01*
X149310365Y-48584067D01*
X149504582Y-48622699D01*
X149504586Y-48622700D01*
X149504587Y-48622700D01*
X149702614Y-48622700D01*
X149702615Y-48622699D01*
X149896835Y-48584067D01*
X150079788Y-48508285D01*
X150244441Y-48398267D01*
X150384467Y-48258241D01*
X150494485Y-48093588D01*
X150570267Y-47910635D01*
X150608900Y-47716413D01*
X150608900Y-47518387D01*
X150570267Y-47324165D01*
X150494485Y-47141212D01*
X150494484Y-47141211D01*
X150494481Y-47141205D01*
X150400933Y-47001201D01*
X150380055Y-46934523D01*
X150398539Y-46867143D01*
X150450518Y-46820453D01*
X150504035Y-46808310D01*
X159703165Y-46808310D01*
X159770204Y-46827995D01*
X159815959Y-46880799D01*
X159825903Y-46949957D01*
X159806267Y-47001201D01*
X159712718Y-47141205D01*
X159712713Y-47141214D01*
X159636933Y-47324164D01*
X159636931Y-47324172D01*
X159598300Y-47518382D01*
X159598300Y-47716417D01*
X159636931Y-47910627D01*
X159636933Y-47910635D01*
X159712713Y-48093585D01*
X159712718Y-48093594D01*
X159822732Y-48258240D01*
X159822735Y-48258244D01*
X159962755Y-48398264D01*
X159962759Y-48398267D01*
X160127405Y-48508281D01*
X160127411Y-48508284D01*
X160127412Y-48508285D01*
X160310365Y-48584067D01*
X160504582Y-48622699D01*
X160504586Y-48622700D01*
X160504587Y-48622700D01*
X160702614Y-48622700D01*
X160702615Y-48622699D01*
X160896835Y-48584067D01*
X161079788Y-48508285D01*
X161244441Y-48398267D01*
X161384467Y-48258241D01*
X161494485Y-48093588D01*
X161570267Y-47910635D01*
X161608900Y-47716413D01*
X161608900Y-47518387D01*
X161570267Y-47324165D01*
X161494485Y-47141212D01*
X161494484Y-47141211D01*
X161494481Y-47141205D01*
X161400933Y-47001201D01*
X161380055Y-46934523D01*
X161398539Y-46867143D01*
X161450518Y-46820453D01*
X161504035Y-46808310D01*
X167011890Y-46808310D01*
X167078929Y-46827995D01*
X167124684Y-46880799D01*
X167135890Y-46932310D01*
X167135890Y-145679499D01*
X167116205Y-145746538D01*
X167063401Y-145792293D01*
X167011890Y-145803499D01*
X98265710Y-145803499D01*
X98198671Y-145783814D01*
X98152916Y-145731010D01*
X98141710Y-145679499D01*
X98141710Y-143411395D01*
X99204100Y-143411395D01*
X99204100Y-143608604D01*
X99234951Y-143803389D01*
X99295890Y-143990944D01*
X99295891Y-143990947D01*
X99385424Y-144166663D01*
X99501342Y-144326209D01*
X99640791Y-144465658D01*
X99800337Y-144581576D01*
X99886520Y-144625488D01*
X99976052Y-144671108D01*
X99976055Y-144671109D01*
X100069832Y-144701578D01*
X100163612Y-144732049D01*
X100358395Y-144762900D01*
X100358396Y-144762900D01*
X100555604Y-144762900D01*
X100555605Y-144762900D01*
X100750388Y-144732049D01*
X100937947Y-144671108D01*
X101113663Y-144581576D01*
X101273209Y-144465658D01*
X101412658Y-144326209D01*
X101528576Y-144166663D01*
X101618108Y-143990947D01*
X101679049Y-143803388D01*
X101709900Y-143608605D01*
X101709900Y-143411395D01*
X101679049Y-143216612D01*
X101618108Y-143029053D01*
X101618108Y-143029052D01*
X101528575Y-142853336D01*
X101412658Y-142693791D01*
X101273209Y-142554342D01*
X101113663Y-142438424D01*
X100937947Y-142348891D01*
X100937944Y-142348890D01*
X100750389Y-142287951D01*
X100652996Y-142272525D01*
X100555605Y-142257100D01*
X100358395Y-142257100D01*
X100293467Y-142267383D01*
X100163610Y-142287951D01*
X99976055Y-142348890D01*
X99976052Y-142348891D01*
X99800336Y-142438424D01*
X99640789Y-142554343D01*
X99501343Y-142693789D01*
X99385424Y-142853336D01*
X99295891Y-143029052D01*
X99295890Y-143029055D01*
X99234951Y-143216610D01*
X99204100Y-143411395D01*
X98141710Y-143411395D01*
X98141710Y-133894076D01*
X100800300Y-133894076D01*
X100800300Y-134075923D01*
X100828748Y-134255534D01*
X100828748Y-134255537D01*
X100884940Y-134428478D01*
X100884942Y-134428481D01*
X100967499Y-134590509D01*
X101074387Y-134737627D01*
X101202973Y-134866213D01*
X101350091Y-134973101D01*
X101512119Y-135055658D01*
X101512121Y-135055659D01*
X101685062Y-135111851D01*
X101685067Y-135111852D01*
X101756886Y-135123227D01*
X101820021Y-135153156D01*
X101856953Y-135212467D01*
X101855955Y-135282330D01*
X101817346Y-135340563D01*
X101753382Y-135368677D01*
X101737489Y-135369700D01*
X101060028Y-135369700D01*
X101060005Y-135369702D01*
X101034493Y-135372661D01*
X101034490Y-135372662D01*
X100930075Y-135418765D01*
X100849366Y-135499474D01*
X100803262Y-135603888D01*
X100803262Y-135603890D01*
X100800300Y-135629419D01*
X100800300Y-137420571D01*
X100800302Y-137420594D01*
X100803261Y-137446106D01*
X100803262Y-137446109D01*
X100849365Y-137550524D01*
X100849366Y-137550525D01*
X100930075Y-137631234D01*
X101034491Y-137677338D01*
X101060021Y-137680300D01*
X102851178Y-137680299D01*
X102876709Y-137677338D01*
X102981125Y-137631234D01*
X103061834Y-137550525D01*
X103107938Y-137446109D01*
X103110900Y-137420579D01*
X103110900Y-137395297D01*
X127169700Y-137395297D01*
X127169700Y-137604702D01*
X127202455Y-137811513D01*
X127239945Y-137926892D01*
X127267162Y-138010658D01*
X127362225Y-138197229D01*
X127485304Y-138366633D01*
X127633367Y-138514696D01*
X127802771Y-138637775D01*
X127989342Y-138732838D01*
X128140560Y-138781971D01*
X128188486Y-138797544D01*
X128395298Y-138830300D01*
X128395303Y-138830300D01*
X128604702Y-138830300D01*
X128811513Y-138797544D01*
X129010658Y-138732838D01*
X129197229Y-138637775D01*
X129366633Y-138514696D01*
X129462124Y-138419205D01*
X146108900Y-138419205D01*
X146108900Y-138593194D01*
X146136115Y-138765025D01*
X146189879Y-138930490D01*
X146268865Y-139085507D01*
X146371118Y-139226248D01*
X146371122Y-139226253D01*
X146494146Y-139349277D01*
X146494151Y-139349281D01*
X146616912Y-139438471D01*
X146634896Y-139451537D01*
X146789912Y-139530522D01*
X146915554Y-139571345D01*
X146955374Y-139584284D01*
X147127206Y-139611500D01*
X147127211Y-139611500D01*
X147301194Y-139611500D01*
X147473025Y-139584284D01*
X147638488Y-139530522D01*
X147793504Y-139451537D01*
X147934255Y-139349276D01*
X148057276Y-139226255D01*
X148159537Y-139085504D01*
X148238522Y-138930488D01*
X148292284Y-138765025D01*
X148297382Y-138732836D01*
X148319500Y-138593194D01*
X148319500Y-138419205D01*
X148878900Y-138419205D01*
X148878900Y-138593194D01*
X148906115Y-138765025D01*
X148959879Y-138930490D01*
X149038865Y-139085507D01*
X149141118Y-139226248D01*
X149141122Y-139226253D01*
X149264146Y-139349277D01*
X149264151Y-139349281D01*
X149386912Y-139438471D01*
X149404896Y-139451537D01*
X149559912Y-139530522D01*
X149685554Y-139571345D01*
X149725374Y-139584284D01*
X149897206Y-139611500D01*
X149897211Y-139611500D01*
X150071194Y-139611500D01*
X150243025Y-139584284D01*
X150408488Y-139530522D01*
X150563504Y-139451537D01*
X150704255Y-139349276D01*
X150827276Y-139226255D01*
X150929537Y-139085504D01*
X151008522Y-138930488D01*
X151062284Y-138765025D01*
X151067382Y-138732836D01*
X151089500Y-138593194D01*
X151089500Y-138419205D01*
X151648900Y-138419205D01*
X151648900Y-138593194D01*
X151676115Y-138765025D01*
X151729879Y-138930490D01*
X151808865Y-139085507D01*
X151911118Y-139226248D01*
X151911122Y-139226253D01*
X152034146Y-139349277D01*
X152034151Y-139349281D01*
X152156912Y-139438471D01*
X152174896Y-139451537D01*
X152329912Y-139530522D01*
X152455554Y-139571345D01*
X152495374Y-139584284D01*
X152667206Y-139611500D01*
X152667211Y-139611500D01*
X152841194Y-139611500D01*
X153013025Y-139584284D01*
X153178488Y-139530522D01*
X153333504Y-139451537D01*
X153474255Y-139349276D01*
X153597276Y-139226255D01*
X153699537Y-139085504D01*
X153778522Y-138930488D01*
X153832284Y-138765025D01*
X153837382Y-138732836D01*
X153859500Y-138593194D01*
X153859500Y-138419205D01*
X154418900Y-138419205D01*
X154418900Y-138593194D01*
X154446115Y-138765025D01*
X154499879Y-138930490D01*
X154578865Y-139085507D01*
X154681118Y-139226248D01*
X154681122Y-139226253D01*
X154804146Y-139349277D01*
X154804151Y-139349281D01*
X154926912Y-139438471D01*
X154944896Y-139451537D01*
X155099912Y-139530522D01*
X155225554Y-139571345D01*
X155265374Y-139584284D01*
X155437206Y-139611500D01*
X155437211Y-139611500D01*
X155611194Y-139611500D01*
X155783025Y-139584284D01*
X155948488Y-139530522D01*
X156103504Y-139451537D01*
X156244255Y-139349276D01*
X156367276Y-139226255D01*
X156469537Y-139085504D01*
X156548522Y-138930488D01*
X156602284Y-138765025D01*
X156607382Y-138732836D01*
X156629500Y-138593194D01*
X156629500Y-138419205D01*
X156602284Y-138247374D01*
X156585991Y-138197229D01*
X156548522Y-138081912D01*
X156469537Y-137926896D01*
X156385707Y-137811513D01*
X156367281Y-137786151D01*
X156367277Y-137786146D01*
X156244253Y-137663122D01*
X156244248Y-137663118D01*
X156103507Y-137560865D01*
X156103506Y-137560864D01*
X156103504Y-137560863D01*
X155948488Y-137481878D01*
X155905576Y-137467935D01*
X155783025Y-137428115D01*
X155611194Y-137400900D01*
X155611189Y-137400900D01*
X155437211Y-137400900D01*
X155437206Y-137400900D01*
X155265374Y-137428115D01*
X155099909Y-137481879D01*
X154944892Y-137560865D01*
X154804151Y-137663118D01*
X154804146Y-137663122D01*
X154681122Y-137786146D01*
X154681118Y-137786151D01*
X154578865Y-137926892D01*
X154499879Y-138081909D01*
X154446115Y-138247374D01*
X154418900Y-138419205D01*
X153859500Y-138419205D01*
X153832284Y-138247374D01*
X153815991Y-138197229D01*
X153778522Y-138081912D01*
X153699537Y-137926896D01*
X153615707Y-137811513D01*
X153597281Y-137786151D01*
X153597277Y-137786146D01*
X153474253Y-137663122D01*
X153474248Y-137663118D01*
X153333507Y-137560865D01*
X153333506Y-137560864D01*
X153333504Y-137560863D01*
X153178488Y-137481878D01*
X153135576Y-137467935D01*
X153013025Y-137428115D01*
X152841194Y-137400900D01*
X152841189Y-137400900D01*
X152667211Y-137400900D01*
X152667206Y-137400900D01*
X152495374Y-137428115D01*
X152329909Y-137481879D01*
X152174892Y-137560865D01*
X152034151Y-137663118D01*
X152034146Y-137663122D01*
X151911122Y-137786146D01*
X151911118Y-137786151D01*
X151808865Y-137926892D01*
X151729879Y-138081909D01*
X151676115Y-138247374D01*
X151648900Y-138419205D01*
X151089500Y-138419205D01*
X151062284Y-138247374D01*
X151045991Y-138197229D01*
X151008522Y-138081912D01*
X150929537Y-137926896D01*
X150845707Y-137811513D01*
X150827281Y-137786151D01*
X150827277Y-137786146D01*
X150704253Y-137663122D01*
X150704248Y-137663118D01*
X150563507Y-137560865D01*
X150563506Y-137560864D01*
X150563504Y-137560863D01*
X150408488Y-137481878D01*
X150365576Y-137467935D01*
X150243025Y-137428115D01*
X150071194Y-137400900D01*
X150071189Y-137400900D01*
X149897211Y-137400900D01*
X149897206Y-137400900D01*
X149725374Y-137428115D01*
X149559909Y-137481879D01*
X149404892Y-137560865D01*
X149264151Y-137663118D01*
X149264146Y-137663122D01*
X149141122Y-137786146D01*
X149141118Y-137786151D01*
X149038865Y-137926892D01*
X148959879Y-138081909D01*
X148906115Y-138247374D01*
X148878900Y-138419205D01*
X148319500Y-138419205D01*
X148292284Y-138247374D01*
X148275991Y-138197229D01*
X148238522Y-138081912D01*
X148159537Y-137926896D01*
X148075707Y-137811513D01*
X148057281Y-137786151D01*
X148057277Y-137786146D01*
X147934253Y-137663122D01*
X147934248Y-137663118D01*
X147793507Y-137560865D01*
X147793506Y-137560864D01*
X147793504Y-137560863D01*
X147638488Y-137481878D01*
X147595576Y-137467935D01*
X147473025Y-137428115D01*
X147301194Y-137400900D01*
X147301189Y-137400900D01*
X147127211Y-137400900D01*
X147127206Y-137400900D01*
X146955374Y-137428115D01*
X146789909Y-137481879D01*
X146634892Y-137560865D01*
X146494151Y-137663118D01*
X146494146Y-137663122D01*
X146371122Y-137786146D01*
X146371118Y-137786151D01*
X146268865Y-137926892D01*
X146189879Y-138081909D01*
X146136115Y-138247374D01*
X146108900Y-138419205D01*
X129462124Y-138419205D01*
X129514696Y-138366633D01*
X129637775Y-138197229D01*
X129732838Y-138010658D01*
X129797544Y-137811513D01*
X129818326Y-137680299D01*
X129830300Y-137604702D01*
X129830300Y-137395297D01*
X129797544Y-137188486D01*
X129781971Y-137140560D01*
X129732838Y-136989342D01*
X129637775Y-136802771D01*
X129514696Y-136633367D01*
X129366633Y-136485304D01*
X129197229Y-136362225D01*
X129010658Y-136267162D01*
X128944011Y-136245507D01*
X128811513Y-136202455D01*
X128604702Y-136169700D01*
X128604697Y-136169700D01*
X128395303Y-136169700D01*
X128395298Y-136169700D01*
X128188486Y-136202455D01*
X127989339Y-136267163D01*
X127802770Y-136362225D01*
X127633364Y-136485306D01*
X127485306Y-136633364D01*
X127362225Y-136802770D01*
X127267163Y-136989339D01*
X127202455Y-137188486D01*
X127169700Y-137395297D01*
X103110900Y-137395297D01*
X103110899Y-136511794D01*
X103110899Y-135629428D01*
X103110899Y-135629422D01*
X103107938Y-135603891D01*
X103061834Y-135499475D01*
X102981125Y-135418766D01*
X102955327Y-135407375D01*
X102876710Y-135372662D01*
X102851180Y-135369700D01*
X102173711Y-135369700D01*
X102106672Y-135350015D01*
X102060917Y-135297211D01*
X102050973Y-135228053D01*
X102079998Y-135164497D01*
X102138776Y-135126723D01*
X102154309Y-135123228D01*
X102226133Y-135111852D01*
X102226134Y-135111851D01*
X102226137Y-135111851D01*
X102399078Y-135055659D01*
X102399078Y-135055658D01*
X102399081Y-135055658D01*
X102561109Y-134973101D01*
X102708227Y-134866213D01*
X102753821Y-134820619D01*
X144723900Y-134820619D01*
X144723900Y-136511771D01*
X144723902Y-136511794D01*
X144726861Y-136537306D01*
X144726862Y-136537309D01*
X144772965Y-136641724D01*
X144772966Y-136641725D01*
X144853675Y-136722434D01*
X144958091Y-136768538D01*
X144983621Y-136771500D01*
X146674778Y-136771499D01*
X146700309Y-136768538D01*
X146804725Y-136722434D01*
X146885434Y-136641725D01*
X146931538Y-136537309D01*
X146934500Y-136511779D01*
X146934499Y-135579205D01*
X147493900Y-135579205D01*
X147493900Y-135753194D01*
X147521115Y-135925025D01*
X147560935Y-136047576D01*
X147574878Y-136090488D01*
X147631928Y-136202455D01*
X147653865Y-136245507D01*
X147756118Y-136386248D01*
X147756122Y-136386253D01*
X147879146Y-136509277D01*
X147879151Y-136509281D01*
X148001912Y-136598471D01*
X148019896Y-136611537D01*
X148174912Y-136690522D01*
X148300554Y-136731345D01*
X148340374Y-136744284D01*
X148512206Y-136771500D01*
X148512211Y-136771500D01*
X148686194Y-136771500D01*
X148858025Y-136744284D01*
X149023488Y-136690522D01*
X149178504Y-136611537D01*
X149319255Y-136509276D01*
X149442276Y-136386255D01*
X149544537Y-136245504D01*
X149623522Y-136090488D01*
X149677284Y-135925025D01*
X149704500Y-135753194D01*
X149704500Y-135579205D01*
X150263900Y-135579205D01*
X150263900Y-135753194D01*
X150291115Y-135925025D01*
X150330935Y-136047576D01*
X150344878Y-136090488D01*
X150401928Y-136202455D01*
X150423865Y-136245507D01*
X150526118Y-136386248D01*
X150526122Y-136386253D01*
X150649146Y-136509277D01*
X150649151Y-136509281D01*
X150771912Y-136598471D01*
X150789896Y-136611537D01*
X150944912Y-136690522D01*
X151070554Y-136731345D01*
X151110374Y-136744284D01*
X151282206Y-136771500D01*
X151282211Y-136771500D01*
X151456194Y-136771500D01*
X151628025Y-136744284D01*
X151793488Y-136690522D01*
X151948504Y-136611537D01*
X152089255Y-136509276D01*
X152212276Y-136386255D01*
X152314537Y-136245504D01*
X152393522Y-136090488D01*
X152447284Y-135925025D01*
X152474500Y-135753194D01*
X152474500Y-135579205D01*
X153033900Y-135579205D01*
X153033900Y-135753194D01*
X153061115Y-135925025D01*
X153100935Y-136047576D01*
X153114878Y-136090488D01*
X153171928Y-136202455D01*
X153193865Y-136245507D01*
X153296118Y-136386248D01*
X153296122Y-136386253D01*
X153419146Y-136509277D01*
X153419151Y-136509281D01*
X153541912Y-136598471D01*
X153559896Y-136611537D01*
X153714912Y-136690522D01*
X153840554Y-136731345D01*
X153880374Y-136744284D01*
X154052206Y-136771500D01*
X154052211Y-136771500D01*
X154226194Y-136771500D01*
X154398025Y-136744284D01*
X154563488Y-136690522D01*
X154718504Y-136611537D01*
X154859255Y-136509276D01*
X154982276Y-136386255D01*
X155084537Y-136245504D01*
X155163522Y-136090488D01*
X155217284Y-135925025D01*
X155244500Y-135753194D01*
X155244500Y-135579205D01*
X155217284Y-135407374D01*
X155198647Y-135350015D01*
X155163522Y-135241912D01*
X155084537Y-135086896D01*
X155001860Y-134973100D01*
X154982281Y-134946151D01*
X154982277Y-134946146D01*
X154859253Y-134823122D01*
X154859248Y-134823118D01*
X154718507Y-134720865D01*
X154718506Y-134720864D01*
X154718504Y-134720863D01*
X154563488Y-134641878D01*
X154520576Y-134627935D01*
X154398025Y-134588115D01*
X154226194Y-134560900D01*
X154226189Y-134560900D01*
X154052211Y-134560900D01*
X154052206Y-134560900D01*
X153880374Y-134588115D01*
X153714909Y-134641879D01*
X153559892Y-134720865D01*
X153419151Y-134823118D01*
X153419146Y-134823122D01*
X153296122Y-134946146D01*
X153296118Y-134946151D01*
X153193865Y-135086892D01*
X153114879Y-135241909D01*
X153061115Y-135407374D01*
X153033900Y-135579205D01*
X152474500Y-135579205D01*
X152447284Y-135407374D01*
X152428647Y-135350015D01*
X152393522Y-135241912D01*
X152314537Y-135086896D01*
X152231860Y-134973100D01*
X152212281Y-134946151D01*
X152212277Y-134946146D01*
X152089253Y-134823122D01*
X152089248Y-134823118D01*
X151948507Y-134720865D01*
X151948506Y-134720864D01*
X151948504Y-134720863D01*
X151793488Y-134641878D01*
X151750576Y-134627935D01*
X151628025Y-134588115D01*
X151456194Y-134560900D01*
X151456189Y-134560900D01*
X151282211Y-134560900D01*
X151282206Y-134560900D01*
X151110374Y-134588115D01*
X150944909Y-134641879D01*
X150789892Y-134720865D01*
X150649151Y-134823118D01*
X150649146Y-134823122D01*
X150526122Y-134946146D01*
X150526118Y-134946151D01*
X150423865Y-135086892D01*
X150344879Y-135241909D01*
X150291115Y-135407374D01*
X150263900Y-135579205D01*
X149704500Y-135579205D01*
X149677284Y-135407374D01*
X149658647Y-135350015D01*
X149623522Y-135241912D01*
X149544537Y-135086896D01*
X149461860Y-134973100D01*
X149442281Y-134946151D01*
X149442277Y-134946146D01*
X149319253Y-134823122D01*
X149319248Y-134823118D01*
X149178507Y-134720865D01*
X149178506Y-134720864D01*
X149178504Y-134720863D01*
X149023488Y-134641878D01*
X148980576Y-134627935D01*
X148858025Y-134588115D01*
X148686194Y-134560900D01*
X148686189Y-134560900D01*
X148512211Y-134560900D01*
X148512206Y-134560900D01*
X148340374Y-134588115D01*
X148174909Y-134641879D01*
X148019892Y-134720865D01*
X147879151Y-134823118D01*
X147879146Y-134823122D01*
X147756122Y-134946146D01*
X147756118Y-134946151D01*
X147653865Y-135086892D01*
X147574879Y-135241909D01*
X147521115Y-135407374D01*
X147493900Y-135579205D01*
X146934499Y-135579205D01*
X146934499Y-134820622D01*
X146931538Y-134795091D01*
X146885434Y-134690675D01*
X146804725Y-134609966D01*
X146760659Y-134590509D01*
X146700310Y-134563862D01*
X146674779Y-134560900D01*
X144983628Y-134560900D01*
X144983605Y-134560902D01*
X144958093Y-134563861D01*
X144958090Y-134563862D01*
X144853675Y-134609965D01*
X144772966Y-134690674D01*
X144726862Y-134795088D01*
X144726862Y-134795090D01*
X144723900Y-134820619D01*
X102753821Y-134820619D01*
X102836813Y-134737627D01*
X102943701Y-134590509D01*
X103026258Y-134428481D01*
X103082452Y-134255533D01*
X103110900Y-134075924D01*
X103110900Y-133894076D01*
X103082452Y-133714467D01*
X103082451Y-133714463D01*
X103082451Y-133714462D01*
X103026259Y-133541521D01*
X103026257Y-133541518D01*
X102943700Y-133379490D01*
X102836813Y-133232373D01*
X102708227Y-133103787D01*
X102561109Y-132996899D01*
X102399081Y-132914342D01*
X102399078Y-132914340D01*
X102226135Y-132858148D01*
X102106393Y-132839182D01*
X102046524Y-132829700D01*
X101864676Y-132829700D01*
X101804806Y-132839182D01*
X101685065Y-132858148D01*
X101685062Y-132858148D01*
X101512121Y-132914340D01*
X101512118Y-132914342D01*
X101350090Y-132996899D01*
X101266153Y-133057883D01*
X101202973Y-133103787D01*
X101202971Y-133103789D01*
X101202970Y-133103789D01*
X101074389Y-133232370D01*
X101074389Y-133232371D01*
X101074387Y-133232373D01*
X101028483Y-133295553D01*
X100967499Y-133379490D01*
X100884942Y-133541518D01*
X100884940Y-133541521D01*
X100828748Y-133714462D01*
X100828748Y-133714465D01*
X100800300Y-133894076D01*
X98141710Y-133894076D01*
X98141710Y-131146111D01*
X140740900Y-131146111D01*
X140740900Y-131286689D01*
X140777283Y-131422475D01*
X140777286Y-131422484D01*
X140777481Y-131422955D01*
X140777527Y-131423383D01*
X140779388Y-131430329D01*
X140778304Y-131430619D01*
X140784945Y-131492424D01*
X140777481Y-131517845D01*
X140777286Y-131518315D01*
X140777284Y-131518321D01*
X140777284Y-131518322D01*
X140740900Y-131654111D01*
X140740900Y-131794689D01*
X140777284Y-131930478D01*
X140847574Y-132052222D01*
X140946978Y-132151626D01*
X141068722Y-132221916D01*
X141204511Y-132258300D01*
X141204513Y-132258300D01*
X141345087Y-132258300D01*
X141345089Y-132258300D01*
X141480878Y-132221916D01*
X141602622Y-132151626D01*
X141702026Y-132052222D01*
X141772316Y-131930478D01*
X141808700Y-131794689D01*
X141808700Y-131654111D01*
X141772316Y-131518322D01*
X141772312Y-131518315D01*
X141772123Y-131517858D01*
X141772077Y-131517432D01*
X141770212Y-131510471D01*
X141771297Y-131510180D01*
X141764651Y-131448389D01*
X141772123Y-131422942D01*
X141772311Y-131422485D01*
X141772316Y-131422478D01*
X141808700Y-131286689D01*
X141808700Y-131146111D01*
X141772316Y-131010322D01*
X141702026Y-130888578D01*
X141602622Y-130789174D01*
X141480878Y-130718884D01*
X141345089Y-130682500D01*
X141204511Y-130682500D01*
X141068721Y-130718884D01*
X140946978Y-130789174D01*
X140946975Y-130789176D01*
X140847576Y-130888575D01*
X140847574Y-130888578D01*
X140777284Y-131010321D01*
X140777284Y-131010322D01*
X140740900Y-131146111D01*
X98141710Y-131146111D01*
X98141710Y-129517595D01*
X163618500Y-129517595D01*
X163618500Y-129714804D01*
X163649351Y-129909589D01*
X163710290Y-130097144D01*
X163710291Y-130097147D01*
X163799824Y-130272863D01*
X163915742Y-130432409D01*
X164055191Y-130571858D01*
X164214737Y-130687776D01*
X164275790Y-130718884D01*
X164390452Y-130777308D01*
X164390455Y-130777309D01*
X164426973Y-130789174D01*
X164578012Y-130838249D01*
X164772795Y-130869100D01*
X164772796Y-130869100D01*
X164970004Y-130869100D01*
X164970005Y-130869100D01*
X165164788Y-130838249D01*
X165352347Y-130777308D01*
X165528063Y-130687776D01*
X165687609Y-130571858D01*
X165827058Y-130432409D01*
X165942976Y-130272863D01*
X166032508Y-130097147D01*
X166093449Y-129909588D01*
X166124300Y-129714805D01*
X166124300Y-129517595D01*
X166093449Y-129322812D01*
X166032508Y-129135253D01*
X166032508Y-129135252D01*
X165942975Y-128959536D01*
X165827058Y-128799991D01*
X165687609Y-128660542D01*
X165528063Y-128544624D01*
X165352347Y-128455091D01*
X165352344Y-128455090D01*
X165164789Y-128394151D01*
X165067396Y-128378725D01*
X164970005Y-128363300D01*
X164772795Y-128363300D01*
X164707867Y-128373583D01*
X164578010Y-128394151D01*
X164390455Y-128455090D01*
X164390452Y-128455091D01*
X164214736Y-128544624D01*
X164055189Y-128660543D01*
X163915743Y-128799989D01*
X163799824Y-128959536D01*
X163710291Y-129135252D01*
X163710290Y-129135255D01*
X163649351Y-129322810D01*
X163618500Y-129517595D01*
X98141710Y-129517595D01*
X98141710Y-122916511D01*
X110819700Y-122916511D01*
X110819700Y-123057089D01*
X110856083Y-123192875D01*
X110856086Y-123192884D01*
X110856281Y-123193355D01*
X110856327Y-123193783D01*
X110858188Y-123200729D01*
X110857104Y-123201019D01*
X110863745Y-123262824D01*
X110856281Y-123288245D01*
X110856086Y-123288715D01*
X110856084Y-123288721D01*
X110856084Y-123288722D01*
X110819700Y-123424511D01*
X110819700Y-123565089D01*
X110856083Y-123700875D01*
X110856086Y-123700884D01*
X110856281Y-123701355D01*
X110856327Y-123701783D01*
X110858188Y-123708729D01*
X110857104Y-123709019D01*
X110863745Y-123770824D01*
X110856281Y-123796245D01*
X110856086Y-123796715D01*
X110856084Y-123796721D01*
X110856084Y-123796722D01*
X110819700Y-123932511D01*
X110819700Y-124073089D01*
X110856083Y-124208875D01*
X110856086Y-124208884D01*
X110856281Y-124209355D01*
X110856327Y-124209783D01*
X110858188Y-124216729D01*
X110857104Y-124217019D01*
X110863745Y-124278824D01*
X110856281Y-124304245D01*
X110856086Y-124304715D01*
X110856084Y-124304721D01*
X110856084Y-124304722D01*
X110819700Y-124440511D01*
X110819700Y-124581089D01*
X110856083Y-124716875D01*
X110856086Y-124716884D01*
X110856281Y-124717355D01*
X110856327Y-124717783D01*
X110858188Y-124724729D01*
X110857104Y-124725019D01*
X110863745Y-124786824D01*
X110856281Y-124812245D01*
X110856086Y-124812715D01*
X110856084Y-124812721D01*
X110856084Y-124812722D01*
X110819700Y-124948511D01*
X110819700Y-125089089D01*
X110856084Y-125224878D01*
X110926374Y-125346622D01*
X111025778Y-125446026D01*
X111147522Y-125516316D01*
X111283311Y-125552700D01*
X111283313Y-125552700D01*
X111423887Y-125552700D01*
X111423889Y-125552700D01*
X111559678Y-125516316D01*
X111681422Y-125446026D01*
X111780826Y-125346622D01*
X111851116Y-125224878D01*
X111887500Y-125089089D01*
X111887500Y-124948511D01*
X111851116Y-124812722D01*
X111851112Y-124812715D01*
X111850923Y-124812258D01*
X111850877Y-124811832D01*
X111849012Y-124804871D01*
X111850097Y-124804580D01*
X111843451Y-124742789D01*
X111850923Y-124717342D01*
X111851111Y-124716885D01*
X111851116Y-124716878D01*
X111887500Y-124581089D01*
X111887500Y-124440511D01*
X111851116Y-124304722D01*
X111851112Y-124304715D01*
X111850923Y-124304258D01*
X111850877Y-124303832D01*
X111849012Y-124296871D01*
X111850097Y-124296580D01*
X111843451Y-124234789D01*
X111850923Y-124209342D01*
X111851111Y-124208885D01*
X111851116Y-124208878D01*
X111887500Y-124073089D01*
X111887500Y-123932511D01*
X111851116Y-123796722D01*
X111851112Y-123796715D01*
X111850923Y-123796258D01*
X111850877Y-123795832D01*
X111849012Y-123788871D01*
X111850097Y-123788580D01*
X111843451Y-123726789D01*
X111850923Y-123701342D01*
X111851111Y-123700885D01*
X111851116Y-123700878D01*
X111887500Y-123565089D01*
X111887500Y-123424511D01*
X111851116Y-123288722D01*
X111851112Y-123288715D01*
X111850923Y-123288258D01*
X111850877Y-123287832D01*
X111849012Y-123280871D01*
X111850097Y-123280580D01*
X111843451Y-123218789D01*
X111850923Y-123193342D01*
X111851111Y-123192885D01*
X111851116Y-123192878D01*
X111887500Y-123057089D01*
X111887500Y-122954819D01*
X152692500Y-122954819D01*
X152692500Y-124745971D01*
X152692502Y-124745994D01*
X152695461Y-124771506D01*
X152695462Y-124771509D01*
X152741565Y-124875924D01*
X152741566Y-124875925D01*
X152822275Y-124956634D01*
X152926691Y-125002738D01*
X152952221Y-125005700D01*
X153629690Y-125005699D01*
X153696727Y-125025383D01*
X153742482Y-125078187D01*
X153752426Y-125147346D01*
X153723401Y-125210902D01*
X153664623Y-125248676D01*
X153649087Y-125252172D01*
X153577264Y-125263548D01*
X153577262Y-125263548D01*
X153404321Y-125319740D01*
X153404318Y-125319742D01*
X153242290Y-125402299D01*
X153182106Y-125446026D01*
X153095173Y-125509187D01*
X153095171Y-125509189D01*
X153095170Y-125509189D01*
X152966589Y-125637770D01*
X152966589Y-125637771D01*
X152966587Y-125637773D01*
X152920683Y-125700953D01*
X152859699Y-125784890D01*
X152777142Y-125946918D01*
X152777140Y-125946921D01*
X152720948Y-126119862D01*
X152720948Y-126119865D01*
X152692500Y-126299476D01*
X152692500Y-126481323D01*
X152720948Y-126660934D01*
X152720948Y-126660937D01*
X152777140Y-126833878D01*
X152777142Y-126833881D01*
X152859699Y-126995909D01*
X152966587Y-127143027D01*
X153095173Y-127271613D01*
X153242291Y-127378501D01*
X153404319Y-127461058D01*
X153404321Y-127461059D01*
X153565634Y-127513472D01*
X153577267Y-127517252D01*
X153756876Y-127545700D01*
X153756877Y-127545700D01*
X153938723Y-127545700D01*
X153938724Y-127545700D01*
X154118333Y-127517252D01*
X154118336Y-127517251D01*
X154118337Y-127517251D01*
X154291278Y-127461059D01*
X154291278Y-127461058D01*
X154291281Y-127461058D01*
X154453309Y-127378501D01*
X154600427Y-127271613D01*
X154729013Y-127143027D01*
X154835901Y-126995909D01*
X154918458Y-126833881D01*
X154974652Y-126660933D01*
X155003100Y-126481324D01*
X155003100Y-126299476D01*
X154974652Y-126119867D01*
X154974651Y-126119863D01*
X154974651Y-126119862D01*
X154918459Y-125946921D01*
X154918457Y-125946918D01*
X154835900Y-125784890D01*
X154729013Y-125637773D01*
X154600427Y-125509187D01*
X154453309Y-125402299D01*
X154291281Y-125319742D01*
X154291278Y-125319740D01*
X154118336Y-125263548D01*
X154046511Y-125252172D01*
X153983377Y-125222242D01*
X153946446Y-125162931D01*
X153947444Y-125093068D01*
X153986054Y-125034836D01*
X154050018Y-125006722D01*
X154065904Y-125005699D01*
X154743378Y-125005699D01*
X154768909Y-125002738D01*
X154873325Y-124956634D01*
X154954034Y-124875925D01*
X155000138Y-124771509D01*
X155003100Y-124745979D01*
X155003099Y-122954822D01*
X155000138Y-122929291D01*
X154954034Y-122824875D01*
X154873325Y-122744166D01*
X154873323Y-122744165D01*
X154768910Y-122698062D01*
X154743379Y-122695100D01*
X152952228Y-122695100D01*
X152952205Y-122695102D01*
X152926693Y-122698061D01*
X152926690Y-122698062D01*
X152822275Y-122744165D01*
X152741566Y-122824874D01*
X152695462Y-122929288D01*
X152695462Y-122929290D01*
X152692500Y-122954819D01*
X111887500Y-122954819D01*
X111887500Y-122916511D01*
X111851116Y-122780722D01*
X111780826Y-122658978D01*
X111681422Y-122559574D01*
X111559678Y-122489284D01*
X111423889Y-122452900D01*
X111283311Y-122452900D01*
X111147521Y-122489284D01*
X111025778Y-122559574D01*
X111025775Y-122559576D01*
X110926376Y-122658975D01*
X110926374Y-122658978D01*
X110856084Y-122780721D01*
X110856084Y-122780722D01*
X110819700Y-122916511D01*
X98141710Y-122916511D01*
X98141710Y-122052911D01*
X104063300Y-122052911D01*
X104063300Y-122193489D01*
X104099684Y-122329278D01*
X104169974Y-122451022D01*
X104269378Y-122550426D01*
X104391122Y-122620716D01*
X104526911Y-122657100D01*
X104526913Y-122657100D01*
X104667487Y-122657100D01*
X104667489Y-122657100D01*
X104803278Y-122620716D01*
X104925022Y-122550426D01*
X105024426Y-122451022D01*
X105094716Y-122329278D01*
X105131100Y-122193489D01*
X105131100Y-122052911D01*
X105094716Y-121917122D01*
X105024426Y-121795378D01*
X104925022Y-121695974D01*
X104803278Y-121625684D01*
X104667489Y-121589300D01*
X104526911Y-121589300D01*
X104391121Y-121625684D01*
X104269378Y-121695974D01*
X104269375Y-121695976D01*
X104169976Y-121795375D01*
X104169974Y-121795378D01*
X104099684Y-121917121D01*
X104099684Y-121917122D01*
X104063300Y-122052911D01*
X98141710Y-122052911D01*
X98141710Y-121189311D01*
X140639300Y-121189311D01*
X140639300Y-121329889D01*
X140675684Y-121465678D01*
X140745974Y-121587422D01*
X140845378Y-121686826D01*
X140967122Y-121757116D01*
X141102911Y-121793500D01*
X141102913Y-121793500D01*
X141243487Y-121793500D01*
X141243489Y-121793500D01*
X141379278Y-121757116D01*
X141379285Y-121757111D01*
X141379742Y-121756923D01*
X141380167Y-121756877D01*
X141387129Y-121755012D01*
X141387419Y-121756097D01*
X141449211Y-121749451D01*
X141474658Y-121756923D01*
X141475116Y-121757113D01*
X141475122Y-121757116D01*
X141610911Y-121793500D01*
X141610913Y-121793500D01*
X141751487Y-121793500D01*
X141751489Y-121793500D01*
X141887278Y-121757116D01*
X141887285Y-121757111D01*
X141887742Y-121756923D01*
X141888167Y-121756877D01*
X141895129Y-121755012D01*
X141895419Y-121756097D01*
X141957211Y-121749451D01*
X141982658Y-121756923D01*
X141983116Y-121757113D01*
X141983122Y-121757116D01*
X142118911Y-121793500D01*
X142118913Y-121793500D01*
X142259487Y-121793500D01*
X142259489Y-121793500D01*
X142395278Y-121757116D01*
X142395285Y-121757111D01*
X142395742Y-121756923D01*
X142396167Y-121756877D01*
X142403129Y-121755012D01*
X142403419Y-121756097D01*
X142465211Y-121749451D01*
X142490658Y-121756923D01*
X142491116Y-121757113D01*
X142491122Y-121757116D01*
X142626911Y-121793500D01*
X142626913Y-121793500D01*
X142767487Y-121793500D01*
X142767489Y-121793500D01*
X142903278Y-121757116D01*
X142903285Y-121757111D01*
X142903742Y-121756923D01*
X142904167Y-121756877D01*
X142911129Y-121755012D01*
X142911419Y-121756097D01*
X142973211Y-121749451D01*
X142998658Y-121756923D01*
X142999116Y-121757113D01*
X142999122Y-121757116D01*
X143134911Y-121793500D01*
X143134913Y-121793500D01*
X143275487Y-121793500D01*
X143275489Y-121793500D01*
X143411278Y-121757116D01*
X143533022Y-121686826D01*
X143632426Y-121587422D01*
X143702716Y-121465678D01*
X143739100Y-121329889D01*
X143739100Y-121189311D01*
X143702716Y-121053522D01*
X143632426Y-120931778D01*
X143533022Y-120832374D01*
X143411278Y-120762084D01*
X143275489Y-120725700D01*
X143134911Y-120725700D01*
X142999115Y-120762086D01*
X142998645Y-120762281D01*
X142998216Y-120762327D01*
X142991271Y-120764188D01*
X142990980Y-120763104D01*
X142929176Y-120769745D01*
X142903755Y-120762281D01*
X142903284Y-120762086D01*
X142903279Y-120762084D01*
X142903278Y-120762084D01*
X142767489Y-120725700D01*
X142626911Y-120725700D01*
X142491115Y-120762086D01*
X142490645Y-120762281D01*
X142490216Y-120762327D01*
X142483271Y-120764188D01*
X142482980Y-120763104D01*
X142421176Y-120769745D01*
X142395755Y-120762281D01*
X142395284Y-120762086D01*
X142395279Y-120762084D01*
X142395278Y-120762084D01*
X142259489Y-120725700D01*
X142118911Y-120725700D01*
X141983115Y-120762086D01*
X141982645Y-120762281D01*
X141982216Y-120762327D01*
X141975271Y-120764188D01*
X141974980Y-120763104D01*
X141913176Y-120769745D01*
X141887755Y-120762281D01*
X141887284Y-120762086D01*
X141887279Y-120762084D01*
X141887278Y-120762084D01*
X141751489Y-120725700D01*
X141610911Y-120725700D01*
X141475115Y-120762086D01*
X141474645Y-120762281D01*
X141474216Y-120762327D01*
X141467271Y-120764188D01*
X141466980Y-120763104D01*
X141405176Y-120769745D01*
X141379755Y-120762281D01*
X141379284Y-120762086D01*
X141379279Y-120762084D01*
X141379278Y-120762084D01*
X141243489Y-120725700D01*
X141102911Y-120725700D01*
X140967121Y-120762084D01*
X140845378Y-120832374D01*
X140845375Y-120832376D01*
X140745976Y-120931775D01*
X140745974Y-120931778D01*
X140675684Y-121053521D01*
X140675684Y-121053522D01*
X140639300Y-121189311D01*
X98141710Y-121189311D01*
X98141710Y-116261711D01*
X101218500Y-116261711D01*
X101218500Y-116402289D01*
X101254883Y-116538075D01*
X101254886Y-116538084D01*
X101255081Y-116538555D01*
X101255127Y-116538983D01*
X101256988Y-116545929D01*
X101255904Y-116546219D01*
X101262545Y-116608024D01*
X101255081Y-116633445D01*
X101254886Y-116633915D01*
X101254884Y-116633921D01*
X101254884Y-116633922D01*
X101218500Y-116769711D01*
X101218500Y-116910289D01*
X101254884Y-117046078D01*
X101325174Y-117167822D01*
X101424578Y-117267226D01*
X101546322Y-117337516D01*
X101682111Y-117373900D01*
X101682113Y-117373900D01*
X101822687Y-117373900D01*
X101822689Y-117373900D01*
X101958478Y-117337516D01*
X101958485Y-117337511D01*
X101958942Y-117337323D01*
X101959367Y-117337277D01*
X101966329Y-117335412D01*
X101966619Y-117336497D01*
X102028411Y-117329851D01*
X102053858Y-117337323D01*
X102054316Y-117337513D01*
X102054322Y-117337516D01*
X102190111Y-117373900D01*
X102190113Y-117373900D01*
X102330687Y-117373900D01*
X102330689Y-117373900D01*
X102466478Y-117337516D01*
X102588222Y-117267226D01*
X102687626Y-117167822D01*
X102757916Y-117046078D01*
X102794300Y-116910289D01*
X102794300Y-116769711D01*
X102757916Y-116633922D01*
X102757912Y-116633915D01*
X102757723Y-116633458D01*
X102757677Y-116633032D01*
X102755812Y-116626071D01*
X102756897Y-116625780D01*
X102750251Y-116563989D01*
X102757723Y-116538542D01*
X102757911Y-116538085D01*
X102757916Y-116538078D01*
X102794300Y-116402289D01*
X102794300Y-116261711D01*
X102757916Y-116125922D01*
X102687626Y-116004178D01*
X102588222Y-115904774D01*
X102466478Y-115834484D01*
X102330689Y-115798100D01*
X102190111Y-115798100D01*
X102173847Y-115802458D01*
X102054315Y-115834486D01*
X102053845Y-115834681D01*
X102053416Y-115834727D01*
X102046471Y-115836588D01*
X102046180Y-115835504D01*
X101984376Y-115842145D01*
X101958955Y-115834681D01*
X101958484Y-115834486D01*
X101958479Y-115834484D01*
X101958478Y-115834484D01*
X101822689Y-115798100D01*
X101682111Y-115798100D01*
X101546321Y-115834484D01*
X101424578Y-115904774D01*
X101424575Y-115904776D01*
X101325176Y-116004175D01*
X101325174Y-116004178D01*
X101254884Y-116125921D01*
X101254884Y-116125922D01*
X101218500Y-116261711D01*
X98141710Y-116261711D01*
X98141710Y-113467711D01*
X107111300Y-113467711D01*
X107111300Y-113608289D01*
X107147683Y-113744075D01*
X107147686Y-113744084D01*
X107147881Y-113744555D01*
X107147927Y-113744983D01*
X107149788Y-113751929D01*
X107148704Y-113752219D01*
X107155345Y-113814024D01*
X107147881Y-113839445D01*
X107147686Y-113839915D01*
X107147684Y-113839921D01*
X107147684Y-113839922D01*
X107111300Y-113975711D01*
X107111300Y-114116289D01*
X107147684Y-114252078D01*
X107217974Y-114373822D01*
X107317378Y-114473226D01*
X107439122Y-114543516D01*
X107574911Y-114579900D01*
X107574913Y-114579900D01*
X107715487Y-114579900D01*
X107715489Y-114579900D01*
X107851278Y-114543516D01*
X107851285Y-114543511D01*
X107851742Y-114543323D01*
X107852167Y-114543277D01*
X107859129Y-114541412D01*
X107859419Y-114542497D01*
X107921211Y-114535851D01*
X107946658Y-114543323D01*
X107947116Y-114543513D01*
X107947122Y-114543516D01*
X108082911Y-114579900D01*
X108082913Y-114579900D01*
X108223487Y-114579900D01*
X108223489Y-114579900D01*
X108359278Y-114543516D01*
X108481022Y-114473226D01*
X108580426Y-114373822D01*
X108650716Y-114252078D01*
X108687100Y-114116289D01*
X108687100Y-113975711D01*
X108650716Y-113839922D01*
X108650712Y-113839915D01*
X108650523Y-113839458D01*
X108650477Y-113839032D01*
X108648612Y-113832071D01*
X108649697Y-113831780D01*
X108643051Y-113769989D01*
X108650523Y-113744542D01*
X108650711Y-113744085D01*
X108650716Y-113744078D01*
X108687100Y-113608289D01*
X108687100Y-113467711D01*
X108650716Y-113331922D01*
X108580426Y-113210178D01*
X108481022Y-113110774D01*
X108359278Y-113040484D01*
X108223489Y-113004100D01*
X108082911Y-113004100D01*
X107947115Y-113040486D01*
X107946645Y-113040681D01*
X107946216Y-113040727D01*
X107939271Y-113042588D01*
X107938980Y-113041504D01*
X107877176Y-113048145D01*
X107851755Y-113040681D01*
X107851284Y-113040486D01*
X107851279Y-113040484D01*
X107851278Y-113040484D01*
X107715489Y-113004100D01*
X107574911Y-113004100D01*
X107439121Y-113040484D01*
X107317378Y-113110774D01*
X107317375Y-113110776D01*
X107217976Y-113210175D01*
X107217974Y-113210178D01*
X107147684Y-113331921D01*
X107120207Y-113434468D01*
X107111300Y-113467711D01*
X98141710Y-113467711D01*
X98141710Y-112197711D01*
X99897700Y-112197711D01*
X99897700Y-112338289D01*
X99934084Y-112474078D01*
X100004374Y-112595822D01*
X100103778Y-112695226D01*
X100225522Y-112765516D01*
X100361311Y-112801900D01*
X100361313Y-112801900D01*
X100501887Y-112801900D01*
X100501889Y-112801900D01*
X100637678Y-112765516D01*
X100759422Y-112695226D01*
X100858826Y-112595822D01*
X100929116Y-112474078D01*
X100965500Y-112338289D01*
X100965500Y-112197711D01*
X100929116Y-112061922D01*
X100858826Y-111940178D01*
X100759422Y-111840774D01*
X100637678Y-111770484D01*
X100501889Y-111734100D01*
X100361311Y-111734100D01*
X100225521Y-111770484D01*
X100103778Y-111840774D01*
X100103775Y-111840776D01*
X100004376Y-111940175D01*
X100004374Y-111940178D01*
X99934084Y-112061921D01*
X99934084Y-112061922D01*
X99897700Y-112197711D01*
X98141710Y-112197711D01*
X98141710Y-110318111D01*
X102488500Y-110318111D01*
X102488500Y-110458689D01*
X102524884Y-110594478D01*
X102595174Y-110716222D01*
X102595176Y-110716224D01*
X102687671Y-110808719D01*
X102721156Y-110870042D01*
X102716172Y-110939734D01*
X102687671Y-110984081D01*
X102595176Y-111076575D01*
X102595174Y-111076578D01*
X102524884Y-111198321D01*
X102488500Y-111334111D01*
X102488500Y-111474689D01*
X102524884Y-111610478D01*
X102595174Y-111732222D01*
X102694578Y-111831626D01*
X102816322Y-111901916D01*
X102952111Y-111938300D01*
X102952113Y-111938300D01*
X103092687Y-111938300D01*
X103092689Y-111938300D01*
X103228478Y-111901916D01*
X103350222Y-111831626D01*
X103449626Y-111732222D01*
X103519916Y-111610478D01*
X103556300Y-111474689D01*
X103556300Y-111334111D01*
X103519916Y-111198322D01*
X103519913Y-111198316D01*
X103487987Y-111143019D01*
X103487984Y-111143016D01*
X103451666Y-111080111D01*
X108076500Y-111080111D01*
X108076500Y-111220689D01*
X108112884Y-111356478D01*
X108183174Y-111478222D01*
X108282578Y-111577626D01*
X108404322Y-111647916D01*
X108540111Y-111684300D01*
X108540113Y-111684300D01*
X108680687Y-111684300D01*
X108680689Y-111684300D01*
X108816478Y-111647916D01*
X108938222Y-111577626D01*
X109037626Y-111478222D01*
X109107916Y-111356478D01*
X109124062Y-111296219D01*
X110884100Y-111296219D01*
X110884100Y-113087371D01*
X110884102Y-113087394D01*
X110887061Y-113112906D01*
X110887062Y-113112909D01*
X110933165Y-113217324D01*
X110933166Y-113217325D01*
X111013875Y-113298034D01*
X111118291Y-113344138D01*
X111143821Y-113347100D01*
X111821290Y-113347099D01*
X111888327Y-113366783D01*
X111934082Y-113419587D01*
X111944026Y-113488746D01*
X111915001Y-113552302D01*
X111856223Y-113590076D01*
X111840687Y-113593572D01*
X111768864Y-113604948D01*
X111768862Y-113604948D01*
X111595921Y-113661140D01*
X111595918Y-113661142D01*
X111433890Y-113743699D01*
X111349953Y-113804683D01*
X111286773Y-113850587D01*
X111286771Y-113850589D01*
X111286770Y-113850589D01*
X111158189Y-113979170D01*
X111158189Y-113979171D01*
X111158187Y-113979173D01*
X111112283Y-114042353D01*
X111051299Y-114126290D01*
X110968742Y-114288318D01*
X110968740Y-114288321D01*
X110912548Y-114461262D01*
X110912548Y-114461265D01*
X110884100Y-114640876D01*
X110884100Y-114822723D01*
X110912548Y-115002334D01*
X110912548Y-115002337D01*
X110968740Y-115175278D01*
X110968742Y-115175281D01*
X111051299Y-115337309D01*
X111158187Y-115484427D01*
X111286773Y-115613013D01*
X111433891Y-115719901D01*
X111595919Y-115802458D01*
X111595921Y-115802459D01*
X111718063Y-115842145D01*
X111768867Y-115858652D01*
X111948476Y-115887100D01*
X111948477Y-115887100D01*
X112130323Y-115887100D01*
X112130324Y-115887100D01*
X112309933Y-115858652D01*
X112309936Y-115858651D01*
X112309937Y-115858651D01*
X112482878Y-115802459D01*
X112482878Y-115802458D01*
X112482881Y-115802458D01*
X112644909Y-115719901D01*
X112792027Y-115613013D01*
X112920613Y-115484427D01*
X113027501Y-115337309D01*
X113110058Y-115175281D01*
X113166252Y-115002333D01*
X113194700Y-114822724D01*
X113194700Y-114640876D01*
X113166252Y-114461267D01*
X113166251Y-114461263D01*
X113166251Y-114461262D01*
X113110059Y-114288321D01*
X113110057Y-114288318D01*
X113027500Y-114126290D01*
X113020233Y-114116288D01*
X112920613Y-113979173D01*
X112836737Y-113895297D01*
X144669700Y-113895297D01*
X144669700Y-114104702D01*
X144702455Y-114311513D01*
X144750381Y-114459011D01*
X144767162Y-114510658D01*
X144862225Y-114697229D01*
X144985304Y-114866633D01*
X145133367Y-115014696D01*
X145302771Y-115137775D01*
X145489342Y-115232838D01*
X145640560Y-115281971D01*
X145688486Y-115297544D01*
X145895298Y-115330300D01*
X145895303Y-115330300D01*
X146104702Y-115330300D01*
X146311513Y-115297544D01*
X146510658Y-115232838D01*
X146697229Y-115137775D01*
X146866633Y-115014696D01*
X147014696Y-114866633D01*
X147137775Y-114697229D01*
X147232838Y-114510658D01*
X147297544Y-114311513D01*
X147301218Y-114288318D01*
X147330300Y-114104702D01*
X147330300Y-113895297D01*
X147297544Y-113688486D01*
X147271485Y-113608287D01*
X147232838Y-113489342D01*
X147137775Y-113302771D01*
X147014696Y-113133367D01*
X146866633Y-112985304D01*
X146697229Y-112862225D01*
X146510658Y-112767162D01*
X146459011Y-112750381D01*
X146311513Y-112702455D01*
X146104702Y-112669700D01*
X146104697Y-112669700D01*
X145895303Y-112669700D01*
X145895298Y-112669700D01*
X145688486Y-112702455D01*
X145489339Y-112767163D01*
X145302770Y-112862225D01*
X145133364Y-112985306D01*
X144985306Y-113133364D01*
X144862225Y-113302770D01*
X144767163Y-113489339D01*
X144702455Y-113688486D01*
X144669700Y-113895297D01*
X112836737Y-113895297D01*
X112792027Y-113850587D01*
X112644909Y-113743699D01*
X112482881Y-113661142D01*
X112482878Y-113661140D01*
X112309936Y-113604948D01*
X112238111Y-113593572D01*
X112174977Y-113563642D01*
X112138046Y-113504331D01*
X112139044Y-113434468D01*
X112177654Y-113376236D01*
X112241618Y-113348122D01*
X112257504Y-113347099D01*
X112934978Y-113347099D01*
X112960509Y-113344138D01*
X113064925Y-113298034D01*
X113145634Y-113217325D01*
X113191738Y-113112909D01*
X113194700Y-113087379D01*
X113194699Y-111296222D01*
X113191738Y-111270691D01*
X113145634Y-111166275D01*
X113064925Y-111085566D01*
X113044562Y-111076575D01*
X112960510Y-111039462D01*
X112934979Y-111036500D01*
X111143828Y-111036500D01*
X111143805Y-111036502D01*
X111118293Y-111039461D01*
X111118290Y-111039462D01*
X111013875Y-111085565D01*
X110933166Y-111166274D01*
X110887062Y-111270688D01*
X110887062Y-111270690D01*
X110884100Y-111296219D01*
X109124062Y-111296219D01*
X109144300Y-111220689D01*
X109144300Y-111080111D01*
X109107916Y-110944322D01*
X109037626Y-110822578D01*
X108938222Y-110723174D01*
X108816478Y-110652884D01*
X108680689Y-110616500D01*
X108540111Y-110616500D01*
X108404321Y-110652884D01*
X108282578Y-110723174D01*
X108282575Y-110723176D01*
X108183176Y-110822575D01*
X108183174Y-110822578D01*
X108112884Y-110944321D01*
X108112884Y-110944322D01*
X108076500Y-111080111D01*
X103451666Y-111080111D01*
X103449626Y-111076578D01*
X103353006Y-110979958D01*
X103349291Y-110975470D01*
X103337706Y-110948512D01*
X103323644Y-110922758D01*
X103324071Y-110916780D01*
X103321706Y-110911276D01*
X103326534Y-110882336D01*
X103328628Y-110853066D01*
X103332397Y-110847201D01*
X103333205Y-110842360D01*
X103341114Y-110833637D01*
X103357129Y-110808719D01*
X103449626Y-110716222D01*
X103519916Y-110594478D01*
X103556300Y-110458689D01*
X103556300Y-110318111D01*
X103519916Y-110182322D01*
X103451666Y-110064111D01*
X106806500Y-110064111D01*
X106806500Y-110204689D01*
X106842884Y-110340478D01*
X106913174Y-110462222D01*
X107012578Y-110561626D01*
X107134322Y-110631916D01*
X107270111Y-110668300D01*
X107270113Y-110668300D01*
X107410687Y-110668300D01*
X107410689Y-110668300D01*
X107546478Y-110631916D01*
X107668222Y-110561626D01*
X107767626Y-110462222D01*
X107837916Y-110340478D01*
X107874300Y-110204689D01*
X107874300Y-110064111D01*
X107837916Y-109928322D01*
X107767626Y-109806578D01*
X107745759Y-109784711D01*
X113893100Y-109784711D01*
X113893100Y-109925289D01*
X113929484Y-110061078D01*
X113999774Y-110182822D01*
X114099178Y-110282226D01*
X114220922Y-110352516D01*
X114356711Y-110388900D01*
X114356713Y-110388900D01*
X114497287Y-110388900D01*
X114497289Y-110388900D01*
X114633078Y-110352516D01*
X114754822Y-110282226D01*
X114854226Y-110182822D01*
X114924516Y-110061078D01*
X114960900Y-109925289D01*
X114960900Y-109784711D01*
X114924516Y-109648922D01*
X114854226Y-109527178D01*
X114754822Y-109427774D01*
X114633078Y-109357484D01*
X114497289Y-109321100D01*
X114356711Y-109321100D01*
X114220921Y-109357484D01*
X114099178Y-109427774D01*
X114099175Y-109427776D01*
X113999776Y-109527175D01*
X113999774Y-109527178D01*
X113929484Y-109648921D01*
X113901356Y-109753899D01*
X113893100Y-109784711D01*
X107745759Y-109784711D01*
X107668222Y-109707174D01*
X107546478Y-109636884D01*
X107410689Y-109600500D01*
X107270111Y-109600500D01*
X107134321Y-109636884D01*
X107012578Y-109707174D01*
X107012575Y-109707176D01*
X106913176Y-109806575D01*
X106913174Y-109806578D01*
X106842884Y-109928321D01*
X106831310Y-109971516D01*
X106806500Y-110064111D01*
X103451666Y-110064111D01*
X103449626Y-110060578D01*
X103350222Y-109961174D01*
X103228478Y-109890884D01*
X103092689Y-109854500D01*
X102952111Y-109854500D01*
X102816321Y-109890884D01*
X102694578Y-109961174D01*
X102694575Y-109961176D01*
X102595176Y-110060575D01*
X102595174Y-110060578D01*
X102524884Y-110182321D01*
X102524884Y-110182322D01*
X102488500Y-110318111D01*
X98141710Y-110318111D01*
X98141710Y-109149711D01*
X123113300Y-109149711D01*
X123113300Y-109290289D01*
X123149684Y-109426078D01*
X123219974Y-109547822D01*
X123319378Y-109647226D01*
X123441122Y-109717516D01*
X123576911Y-109753900D01*
X123576913Y-109753900D01*
X123717487Y-109753900D01*
X123717489Y-109753900D01*
X123853278Y-109717516D01*
X123975022Y-109647226D01*
X124074426Y-109547822D01*
X124144716Y-109426078D01*
X124150709Y-109403711D01*
X124637300Y-109403711D01*
X124637300Y-109544289D01*
X124673684Y-109680078D01*
X124743974Y-109801822D01*
X124843378Y-109901226D01*
X124965122Y-109971516D01*
X125100911Y-110007900D01*
X125100913Y-110007900D01*
X125241487Y-110007900D01*
X125241489Y-110007900D01*
X125377278Y-109971516D01*
X125499022Y-109901226D01*
X125598426Y-109801822D01*
X125668716Y-109680078D01*
X125705100Y-109544289D01*
X125705100Y-109403711D01*
X125668716Y-109267922D01*
X125600466Y-109149711D01*
X127837700Y-109149711D01*
X127837700Y-109290289D01*
X127874084Y-109426078D01*
X127944374Y-109547822D01*
X128043778Y-109647226D01*
X128165522Y-109717516D01*
X128301311Y-109753900D01*
X128301313Y-109753900D01*
X128441887Y-109753900D01*
X128441889Y-109753900D01*
X128577678Y-109717516D01*
X128699422Y-109647226D01*
X128798826Y-109547822D01*
X128869116Y-109426078D01*
X128875109Y-109403711D01*
X129361700Y-109403711D01*
X129361700Y-109544289D01*
X129398084Y-109680078D01*
X129468374Y-109801822D01*
X129567778Y-109901226D01*
X129689522Y-109971516D01*
X129825311Y-110007900D01*
X129825313Y-110007900D01*
X129965887Y-110007900D01*
X129965889Y-110007900D01*
X130101678Y-109971516D01*
X130223422Y-109901226D01*
X130322826Y-109801822D01*
X130393116Y-109680078D01*
X130429500Y-109544289D01*
X130429500Y-109403711D01*
X130393116Y-109267922D01*
X130324866Y-109149711D01*
X132612900Y-109149711D01*
X132612900Y-109290289D01*
X132649284Y-109426078D01*
X132719574Y-109547822D01*
X132818978Y-109647226D01*
X132940722Y-109717516D01*
X133076511Y-109753900D01*
X133076513Y-109753900D01*
X133217087Y-109753900D01*
X133217089Y-109753900D01*
X133352878Y-109717516D01*
X133474622Y-109647226D01*
X133574026Y-109547822D01*
X133644316Y-109426078D01*
X133650309Y-109403711D01*
X134086100Y-109403711D01*
X134086100Y-109544289D01*
X134122484Y-109680078D01*
X134192774Y-109801822D01*
X134292178Y-109901226D01*
X134413922Y-109971516D01*
X134549711Y-110007900D01*
X134549713Y-110007900D01*
X134690287Y-110007900D01*
X134690289Y-110007900D01*
X134826078Y-109971516D01*
X134947822Y-109901226D01*
X135047226Y-109801822D01*
X135117516Y-109680078D01*
X135153900Y-109544289D01*
X135153900Y-109403711D01*
X135117516Y-109267922D01*
X135047226Y-109146178D01*
X134947822Y-109046774D01*
X134826078Y-108976484D01*
X134690289Y-108940100D01*
X134549711Y-108940100D01*
X134413921Y-108976484D01*
X134292178Y-109046774D01*
X134292175Y-109046776D01*
X134192776Y-109146175D01*
X134192774Y-109146178D01*
X134122484Y-109267921D01*
X134096877Y-109363490D01*
X134086100Y-109403711D01*
X133650309Y-109403711D01*
X133680700Y-109290289D01*
X133680700Y-109149711D01*
X133644316Y-109013922D01*
X133574026Y-108892178D01*
X133474622Y-108792774D01*
X133352878Y-108722484D01*
X133217089Y-108686100D01*
X133076511Y-108686100D01*
X132940721Y-108722484D01*
X132818978Y-108792774D01*
X132818975Y-108792776D01*
X132719576Y-108892175D01*
X132719574Y-108892178D01*
X132649284Y-109013921D01*
X132640481Y-109046774D01*
X132612900Y-109149711D01*
X130324866Y-109149711D01*
X130322826Y-109146178D01*
X130223422Y-109046774D01*
X130101678Y-108976484D01*
X129965889Y-108940100D01*
X129825311Y-108940100D01*
X129689521Y-108976484D01*
X129567778Y-109046774D01*
X129567775Y-109046776D01*
X129468376Y-109146175D01*
X129468374Y-109146178D01*
X129398084Y-109267921D01*
X129372477Y-109363490D01*
X129361700Y-109403711D01*
X128875109Y-109403711D01*
X128905500Y-109290289D01*
X128905500Y-109149711D01*
X128869116Y-109013922D01*
X128798826Y-108892178D01*
X128699422Y-108792774D01*
X128577678Y-108722484D01*
X128441889Y-108686100D01*
X128301311Y-108686100D01*
X128165521Y-108722484D01*
X128043778Y-108792774D01*
X128043775Y-108792776D01*
X127944376Y-108892175D01*
X127944374Y-108892178D01*
X127874084Y-109013921D01*
X127865281Y-109046774D01*
X127837700Y-109149711D01*
X125600466Y-109149711D01*
X125598426Y-109146178D01*
X125499022Y-109046774D01*
X125377278Y-108976484D01*
X125241489Y-108940100D01*
X125100911Y-108940100D01*
X124965121Y-108976484D01*
X124843378Y-109046774D01*
X124843375Y-109046776D01*
X124743976Y-109146175D01*
X124743974Y-109146178D01*
X124673684Y-109267921D01*
X124648077Y-109363490D01*
X124637300Y-109403711D01*
X124150709Y-109403711D01*
X124181100Y-109290289D01*
X124181100Y-109149711D01*
X124144716Y-109013922D01*
X124074426Y-108892178D01*
X123975022Y-108792774D01*
X123853278Y-108722484D01*
X123717489Y-108686100D01*
X123576911Y-108686100D01*
X123441121Y-108722484D01*
X123319378Y-108792774D01*
X123319375Y-108792776D01*
X123219976Y-108892175D01*
X123219974Y-108892178D01*
X123149684Y-109013921D01*
X123140881Y-109046774D01*
X123113300Y-109149711D01*
X98141710Y-109149711D01*
X98141710Y-108540111D01*
X117322100Y-108540111D01*
X117322100Y-108680689D01*
X117358484Y-108816478D01*
X117428774Y-108938222D01*
X117528178Y-109037626D01*
X117649922Y-109107916D01*
X117785711Y-109144300D01*
X117785713Y-109144300D01*
X117926287Y-109144300D01*
X117926289Y-109144300D01*
X118062078Y-109107916D01*
X118183822Y-109037626D01*
X118283226Y-108938222D01*
X118353516Y-108816478D01*
X118389900Y-108680689D01*
X118389900Y-108540111D01*
X118353516Y-108404322D01*
X118283226Y-108282578D01*
X118183822Y-108183174D01*
X118062078Y-108112884D01*
X117926289Y-108076500D01*
X117785711Y-108076500D01*
X117649921Y-108112884D01*
X117528178Y-108183174D01*
X117528175Y-108183176D01*
X117428776Y-108282575D01*
X117428774Y-108282578D01*
X117358484Y-108404321D01*
X117358484Y-108404322D01*
X117322100Y-108540111D01*
X98141710Y-108540111D01*
X98141710Y-106762111D01*
X118185700Y-106762111D01*
X118185700Y-106902689D01*
X118222084Y-107038478D01*
X118292374Y-107160222D01*
X118391778Y-107259626D01*
X118513522Y-107329916D01*
X118649311Y-107366300D01*
X118649313Y-107366300D01*
X118789887Y-107366300D01*
X118789889Y-107366300D01*
X118925678Y-107329916D01*
X119047422Y-107259626D01*
X119146826Y-107160222D01*
X119217116Y-107038478D01*
X119253500Y-106902689D01*
X119253500Y-106762111D01*
X119217116Y-106626322D01*
X119146826Y-106504578D01*
X119047422Y-106405174D01*
X118925678Y-106334884D01*
X118789889Y-106298500D01*
X118649311Y-106298500D01*
X118513521Y-106334884D01*
X118391778Y-106405174D01*
X118391775Y-106405176D01*
X118292376Y-106504575D01*
X118292374Y-106504578D01*
X118222084Y-106626321D01*
X118222084Y-106626322D01*
X118185700Y-106762111D01*
X98141710Y-106762111D01*
X98141710Y-106000111D01*
X124992900Y-106000111D01*
X124992900Y-106140689D01*
X125029284Y-106276478D01*
X125099574Y-106398222D01*
X125198978Y-106497626D01*
X125320722Y-106567916D01*
X125456511Y-106604300D01*
X125456513Y-106604300D01*
X125597087Y-106604300D01*
X125597089Y-106604300D01*
X125732878Y-106567916D01*
X125854622Y-106497626D01*
X125954026Y-106398222D01*
X126024316Y-106276478D01*
X126060700Y-106140689D01*
X126060700Y-106000111D01*
X126024316Y-105864322D01*
X125954026Y-105742578D01*
X125854622Y-105643174D01*
X125732878Y-105572884D01*
X125597089Y-105536500D01*
X125456511Y-105536500D01*
X125320721Y-105572884D01*
X125198978Y-105643174D01*
X125198975Y-105643176D01*
X125099576Y-105742575D01*
X125099574Y-105742578D01*
X125029284Y-105864321D01*
X125029284Y-105864322D01*
X124992900Y-106000111D01*
X98141710Y-106000111D01*
X98141710Y-99091311D01*
X109295700Y-99091311D01*
X109295700Y-99231889D01*
X109332084Y-99367678D01*
X109402374Y-99489422D01*
X109501778Y-99588826D01*
X109623522Y-99659116D01*
X109759311Y-99695500D01*
X109759313Y-99695500D01*
X109899887Y-99695500D01*
X109899889Y-99695500D01*
X110035678Y-99659116D01*
X110035685Y-99659111D01*
X110036142Y-99658923D01*
X110036567Y-99658877D01*
X110043529Y-99657012D01*
X110043819Y-99658097D01*
X110105611Y-99651451D01*
X110131058Y-99658923D01*
X110131516Y-99659113D01*
X110131522Y-99659116D01*
X110267311Y-99695500D01*
X110267313Y-99695500D01*
X110407887Y-99695500D01*
X110407889Y-99695500D01*
X110543678Y-99659116D01*
X110665422Y-99588826D01*
X110764826Y-99489422D01*
X110835116Y-99367678D01*
X110871500Y-99231889D01*
X110871500Y-99091311D01*
X110835116Y-98955522D01*
X110764826Y-98833778D01*
X110665422Y-98734374D01*
X110543678Y-98664084D01*
X110407889Y-98627700D01*
X110267311Y-98627700D01*
X110141047Y-98661532D01*
X110131515Y-98664086D01*
X110131045Y-98664281D01*
X110130616Y-98664327D01*
X110123671Y-98666188D01*
X110123380Y-98665104D01*
X110061576Y-98671745D01*
X110036155Y-98664281D01*
X110035684Y-98664086D01*
X110035679Y-98664084D01*
X110035678Y-98664084D01*
X109899889Y-98627700D01*
X109759311Y-98627700D01*
X109623521Y-98664084D01*
X109501778Y-98734374D01*
X109501775Y-98734376D01*
X109402376Y-98833775D01*
X109402374Y-98833778D01*
X109332084Y-98955521D01*
X109332084Y-98955522D01*
X109295700Y-99091311D01*
X98141710Y-99091311D01*
X98141710Y-98153283D01*
X103310100Y-98153283D01*
X103310100Y-98279117D01*
X103326384Y-98339890D01*
X103342668Y-98400664D01*
X103374126Y-98455150D01*
X103405585Y-98509638D01*
X103494562Y-98598615D01*
X103603537Y-98661532D01*
X103725083Y-98694100D01*
X103725085Y-98694100D01*
X103850915Y-98694100D01*
X103850917Y-98694100D01*
X103972463Y-98661532D01*
X104081438Y-98598615D01*
X104170415Y-98509638D01*
X104233332Y-98400663D01*
X104264786Y-98283276D01*
X134861700Y-98283276D01*
X134861700Y-98465123D01*
X134890148Y-98644734D01*
X134890148Y-98644737D01*
X134946340Y-98817678D01*
X134946342Y-98817681D01*
X135028899Y-98979709D01*
X135135787Y-99126827D01*
X135264373Y-99255413D01*
X135411491Y-99362301D01*
X135573519Y-99444858D01*
X135573521Y-99444859D01*
X135734834Y-99497272D01*
X135746467Y-99501052D01*
X135860869Y-99519172D01*
X135877000Y-99521727D01*
X135940135Y-99551656D01*
X135977066Y-99610968D01*
X135976068Y-99680831D01*
X135937458Y-99739063D01*
X135877000Y-99766673D01*
X135746465Y-99787348D01*
X135746462Y-99787348D01*
X135573521Y-99843540D01*
X135573518Y-99843542D01*
X135411490Y-99926099D01*
X135327553Y-99987083D01*
X135264373Y-100032987D01*
X135264371Y-100032989D01*
X135264370Y-100032989D01*
X135135789Y-100161570D01*
X135135789Y-100161571D01*
X135135787Y-100161573D01*
X135089883Y-100224753D01*
X135028899Y-100308690D01*
X134946342Y-100470718D01*
X134946340Y-100470721D01*
X134890148Y-100643662D01*
X134890148Y-100643665D01*
X134861700Y-100823276D01*
X134861700Y-101005123D01*
X134890148Y-101184734D01*
X134890148Y-101184737D01*
X134946340Y-101357678D01*
X134946342Y-101357681D01*
X135028899Y-101519709D01*
X135135787Y-101666827D01*
X135264373Y-101795413D01*
X135411491Y-101902301D01*
X135573519Y-101984858D01*
X135573521Y-101984859D01*
X135734834Y-102037272D01*
X135746467Y-102041052D01*
X135926076Y-102069500D01*
X135926077Y-102069500D01*
X136107923Y-102069500D01*
X136107924Y-102069500D01*
X136287533Y-102041052D01*
X136287536Y-102041051D01*
X136287537Y-102041051D01*
X136460478Y-101984859D01*
X136460478Y-101984858D01*
X136460481Y-101984858D01*
X136622509Y-101902301D01*
X136769627Y-101795413D01*
X136898213Y-101666827D01*
X137005101Y-101519709D01*
X137087658Y-101357681D01*
X137143852Y-101184733D01*
X137172300Y-101005124D01*
X137172300Y-100823276D01*
X137143852Y-100643667D01*
X137143851Y-100643663D01*
X137143851Y-100643662D01*
X137087659Y-100470721D01*
X137087657Y-100470718D01*
X137005100Y-100308690D01*
X136898213Y-100161573D01*
X136769627Y-100032987D01*
X136622509Y-99926099D01*
X136460481Y-99843542D01*
X136460478Y-99843540D01*
X136287535Y-99787348D01*
X136184458Y-99771022D01*
X136156998Y-99766672D01*
X136093864Y-99736744D01*
X136056933Y-99677432D01*
X136057931Y-99607570D01*
X136096541Y-99549337D01*
X136156998Y-99521727D01*
X136287533Y-99501052D01*
X136287536Y-99501051D01*
X136287537Y-99501051D01*
X136460478Y-99444859D01*
X136460478Y-99444858D01*
X136460481Y-99444858D01*
X136622509Y-99362301D01*
X136769627Y-99255413D01*
X136898213Y-99126827D01*
X137005101Y-98979709D01*
X137087658Y-98817681D01*
X137128575Y-98691752D01*
X137143851Y-98644737D01*
X137143851Y-98644736D01*
X137143852Y-98644733D01*
X137172300Y-98465124D01*
X137172300Y-98283276D01*
X137143852Y-98103667D01*
X137143851Y-98103663D01*
X137143851Y-98103662D01*
X137087659Y-97930721D01*
X137087657Y-97930718D01*
X137083604Y-97922762D01*
X137005101Y-97768691D01*
X136898213Y-97621573D01*
X136769627Y-97492987D01*
X136622509Y-97386099D01*
X136460481Y-97303542D01*
X136460478Y-97303540D01*
X136287535Y-97247348D01*
X136167793Y-97228382D01*
X136107924Y-97218900D01*
X135926076Y-97218900D01*
X135866206Y-97228382D01*
X135746465Y-97247348D01*
X135746462Y-97247348D01*
X135573521Y-97303540D01*
X135573518Y-97303542D01*
X135411490Y-97386099D01*
X135327553Y-97447083D01*
X135264373Y-97492987D01*
X135264371Y-97492989D01*
X135264370Y-97492989D01*
X135135789Y-97621570D01*
X135135789Y-97621571D01*
X135135787Y-97621573D01*
X135101395Y-97668909D01*
X135028899Y-97768690D01*
X134946342Y-97930718D01*
X134946340Y-97930721D01*
X134890148Y-98103662D01*
X134890148Y-98103665D01*
X134861700Y-98283276D01*
X104264786Y-98283276D01*
X104265900Y-98279117D01*
X104265900Y-98153283D01*
X104233332Y-98031737D01*
X104170415Y-97922762D01*
X104081438Y-97833785D01*
X104026950Y-97802326D01*
X103972464Y-97770868D01*
X103911690Y-97754584D01*
X103850917Y-97738300D01*
X103725083Y-97738300D01*
X103603535Y-97770868D01*
X103494562Y-97833785D01*
X103494559Y-97833787D01*
X103405587Y-97922759D01*
X103405585Y-97922762D01*
X103342668Y-98031735D01*
X103310100Y-98153283D01*
X98141710Y-98153283D01*
X98141710Y-97262511D01*
X105790500Y-97262511D01*
X105790500Y-97403090D01*
X105817513Y-97503908D01*
X105817513Y-97568092D01*
X105790500Y-97668909D01*
X105790500Y-97668911D01*
X105790500Y-97809489D01*
X105826884Y-97945278D01*
X105897174Y-98067022D01*
X105996578Y-98166426D01*
X106118322Y-98236716D01*
X106254111Y-98273100D01*
X106254113Y-98273100D01*
X106394687Y-98273100D01*
X106394689Y-98273100D01*
X106530478Y-98236716D01*
X106530485Y-98236711D01*
X106530942Y-98236523D01*
X106531367Y-98236477D01*
X106538329Y-98234612D01*
X106538619Y-98235697D01*
X106600411Y-98229051D01*
X106625858Y-98236523D01*
X106626316Y-98236713D01*
X106626322Y-98236716D01*
X106762111Y-98273100D01*
X106762113Y-98273100D01*
X106902687Y-98273100D01*
X106902689Y-98273100D01*
X107038478Y-98236716D01*
X107160222Y-98166426D01*
X107259626Y-98067022D01*
X107329916Y-97945278D01*
X107366300Y-97809489D01*
X107366300Y-97668911D01*
X107339286Y-97568092D01*
X107339286Y-97503907D01*
X107366300Y-97403089D01*
X107366300Y-97262511D01*
X107329916Y-97126722D01*
X107259626Y-97004978D01*
X107160222Y-96905574D01*
X107038478Y-96835284D01*
X106902689Y-96798900D01*
X106762111Y-96798900D01*
X106626315Y-96835286D01*
X106625845Y-96835481D01*
X106625416Y-96835527D01*
X106618471Y-96837388D01*
X106618180Y-96836304D01*
X106556376Y-96842945D01*
X106530955Y-96835481D01*
X106530484Y-96835286D01*
X106530479Y-96835284D01*
X106530478Y-96835284D01*
X106394689Y-96798900D01*
X106254111Y-96798900D01*
X106118321Y-96835284D01*
X105996578Y-96905574D01*
X105996575Y-96905576D01*
X105897176Y-97004975D01*
X105897174Y-97004978D01*
X105826884Y-97126721D01*
X105790500Y-97262511D01*
X98141710Y-97262511D01*
X98141710Y-92373283D01*
X103310100Y-92373283D01*
X103310100Y-92499117D01*
X103321476Y-92541573D01*
X103342668Y-92620664D01*
X103374126Y-92675150D01*
X103405585Y-92729638D01*
X103494562Y-92818615D01*
X103603537Y-92881532D01*
X103725083Y-92914100D01*
X103725085Y-92914100D01*
X103850915Y-92914100D01*
X103850917Y-92914100D01*
X103972463Y-92881532D01*
X104039356Y-92842911D01*
X105790500Y-92842911D01*
X105790500Y-92983489D01*
X105826884Y-93119278D01*
X105897174Y-93241022D01*
X105996578Y-93340426D01*
X106118322Y-93410716D01*
X106254111Y-93447100D01*
X106254113Y-93447100D01*
X106394687Y-93447100D01*
X106394689Y-93447100D01*
X106530478Y-93410716D01*
X106541798Y-93404179D01*
X106609698Y-93387706D01*
X106665801Y-93404179D01*
X106677122Y-93410716D01*
X106812911Y-93447100D01*
X106812913Y-93447100D01*
X106953487Y-93447100D01*
X106953489Y-93447100D01*
X107089278Y-93410716D01*
X107211022Y-93340426D01*
X107310426Y-93241022D01*
X107380716Y-93119278D01*
X107404504Y-93030496D01*
X107440867Y-92970838D01*
X107503714Y-92940308D01*
X107508095Y-92939651D01*
X107512279Y-92939100D01*
X107512289Y-92939100D01*
X107648078Y-92902716D01*
X107769822Y-92832426D01*
X107869226Y-92733022D01*
X107939516Y-92611278D01*
X107975900Y-92475489D01*
X107975900Y-92334911D01*
X107939516Y-92199122D01*
X107869226Y-92077378D01*
X107769822Y-91977974D01*
X107648078Y-91907684D01*
X107512289Y-91871300D01*
X107371711Y-91871300D01*
X107235920Y-91907684D01*
X107224599Y-91914221D01*
X107156699Y-91930693D01*
X107100601Y-91914221D01*
X107089279Y-91907684D01*
X107021383Y-91889492D01*
X106953489Y-91871300D01*
X106812911Y-91871300D01*
X106677121Y-91907684D01*
X106555378Y-91977974D01*
X106555375Y-91977976D01*
X106455976Y-92077375D01*
X106455974Y-92077378D01*
X106385684Y-92199122D01*
X106379141Y-92223542D01*
X106361896Y-92287902D01*
X106325531Y-92347562D01*
X106262684Y-92378091D01*
X106258315Y-92378746D01*
X106254115Y-92379299D01*
X106118321Y-92415684D01*
X105996578Y-92485974D01*
X105996575Y-92485976D01*
X105897176Y-92585375D01*
X105897174Y-92585378D01*
X105826884Y-92707121D01*
X105816171Y-92747103D01*
X105790500Y-92842911D01*
X104039356Y-92842911D01*
X104081438Y-92818615D01*
X104170415Y-92729638D01*
X104233332Y-92620663D01*
X104265900Y-92499117D01*
X104265900Y-92373283D01*
X104233332Y-92251737D01*
X104170415Y-92142762D01*
X104081438Y-92053785D01*
X104026950Y-92022326D01*
X103972464Y-91990868D01*
X103911690Y-91974584D01*
X103850917Y-91958300D01*
X103725083Y-91958300D01*
X103603535Y-91990868D01*
X103494562Y-92053785D01*
X103494559Y-92053787D01*
X103405587Y-92142759D01*
X103405585Y-92142762D01*
X103342668Y-92251735D01*
X103328102Y-92306099D01*
X103310100Y-92373283D01*
X98141710Y-92373283D01*
X98141710Y-89858619D01*
X134861700Y-89858619D01*
X134861700Y-91649771D01*
X134861702Y-91649794D01*
X134864661Y-91675306D01*
X134864662Y-91675309D01*
X134910765Y-91779724D01*
X134910766Y-91779725D01*
X134991475Y-91860434D01*
X135095891Y-91906538D01*
X135121421Y-91909500D01*
X135798890Y-91909499D01*
X135865927Y-91929183D01*
X135911682Y-91981987D01*
X135921626Y-92051146D01*
X135892601Y-92114702D01*
X135833823Y-92152476D01*
X135818287Y-92155972D01*
X135746464Y-92167348D01*
X135746462Y-92167348D01*
X135573521Y-92223540D01*
X135573518Y-92223542D01*
X135411490Y-92306099D01*
X135371832Y-92334913D01*
X135264373Y-92412987D01*
X135264371Y-92412989D01*
X135264370Y-92412989D01*
X135135789Y-92541570D01*
X135135789Y-92541571D01*
X135135787Y-92541573D01*
X135103963Y-92585375D01*
X135028899Y-92688690D01*
X134946342Y-92850718D01*
X134946340Y-92850721D01*
X134890148Y-93023662D01*
X134890148Y-93023665D01*
X134890148Y-93023667D01*
X134861700Y-93203276D01*
X134861700Y-93385124D01*
X134871516Y-93447099D01*
X134890148Y-93564734D01*
X134890148Y-93564737D01*
X134946340Y-93737678D01*
X134946342Y-93737681D01*
X135028899Y-93899709D01*
X135135787Y-94046827D01*
X135264373Y-94175413D01*
X135411491Y-94282301D01*
X135573519Y-94364858D01*
X135573521Y-94364859D01*
X135734834Y-94417272D01*
X135746467Y-94421052D01*
X135926076Y-94449500D01*
X135926077Y-94449500D01*
X136107923Y-94449500D01*
X136107924Y-94449500D01*
X136287533Y-94421052D01*
X136287536Y-94421051D01*
X136287537Y-94421051D01*
X136460478Y-94364859D01*
X136460478Y-94364858D01*
X136460481Y-94364858D01*
X136622509Y-94282301D01*
X136769627Y-94175413D01*
X136898213Y-94046827D01*
X137005101Y-93899709D01*
X137087658Y-93737681D01*
X137143852Y-93564733D01*
X137172300Y-93385124D01*
X137172300Y-93203276D01*
X137143852Y-93023667D01*
X137143851Y-93023663D01*
X137143851Y-93023662D01*
X137087659Y-92850721D01*
X137087657Y-92850718D01*
X137083680Y-92842911D01*
X137005101Y-92688691D01*
X136898213Y-92541573D01*
X136769627Y-92412987D01*
X136622509Y-92306099D01*
X136460481Y-92223542D01*
X136460478Y-92223540D01*
X136287536Y-92167348D01*
X136215711Y-92155972D01*
X136152577Y-92126042D01*
X136115646Y-92066731D01*
X136116644Y-91996868D01*
X136155254Y-91938636D01*
X136219218Y-91910522D01*
X136235104Y-91909499D01*
X136912578Y-91909499D01*
X136938109Y-91906538D01*
X137042525Y-91860434D01*
X137123234Y-91779725D01*
X137169338Y-91675309D01*
X137172300Y-91649779D01*
X137172299Y-89858622D01*
X137169338Y-89833091D01*
X137123234Y-89728675D01*
X137042525Y-89647966D01*
X137042523Y-89647965D01*
X136938110Y-89601862D01*
X136912579Y-89598900D01*
X135121428Y-89598900D01*
X135121405Y-89598902D01*
X135095893Y-89601861D01*
X135095890Y-89601862D01*
X134991475Y-89647965D01*
X134910766Y-89728674D01*
X134864662Y-89833088D01*
X134864662Y-89833090D01*
X134861700Y-89858619D01*
X98141710Y-89858619D01*
X98141710Y-89083711D01*
X113410500Y-89083711D01*
X113410500Y-89224289D01*
X113446884Y-89360078D01*
X113517174Y-89481822D01*
X113616578Y-89581226D01*
X113738322Y-89651516D01*
X113874111Y-89687900D01*
X113874113Y-89687900D01*
X114014687Y-89687900D01*
X114014689Y-89687900D01*
X114150478Y-89651516D01*
X114156629Y-89647965D01*
X114166219Y-89642427D01*
X114212599Y-89615649D01*
X114280498Y-89599176D01*
X114336600Y-89615649D01*
X114360440Y-89629413D01*
X114398719Y-89651515D01*
X114398721Y-89651515D01*
X114398722Y-89651516D01*
X114534511Y-89687900D01*
X114534513Y-89687900D01*
X114675087Y-89687900D01*
X114675089Y-89687900D01*
X114810878Y-89651516D01*
X114932622Y-89581226D01*
X115032026Y-89481822D01*
X115102316Y-89360078D01*
X115138700Y-89224289D01*
X115138700Y-89083711D01*
X115102316Y-88947922D01*
X115032026Y-88826178D01*
X114932622Y-88726774D01*
X114846951Y-88677311D01*
X116864900Y-88677311D01*
X116864900Y-88817889D01*
X116901284Y-88953678D01*
X116971574Y-89075422D01*
X117070978Y-89174826D01*
X117192722Y-89245116D01*
X117328511Y-89281500D01*
X117328513Y-89281500D01*
X117469087Y-89281500D01*
X117469089Y-89281500D01*
X117604878Y-89245116D01*
X117726622Y-89174826D01*
X117826026Y-89075422D01*
X117896316Y-88953678D01*
X117932700Y-88817889D01*
X117932700Y-88677311D01*
X118439700Y-88677311D01*
X118439700Y-88817889D01*
X118476084Y-88953678D01*
X118546374Y-89075422D01*
X118645778Y-89174826D01*
X118767522Y-89245116D01*
X118903311Y-89281500D01*
X118903313Y-89281500D01*
X119043887Y-89281500D01*
X119043889Y-89281500D01*
X119179678Y-89245116D01*
X119301422Y-89174826D01*
X119400826Y-89075422D01*
X119471116Y-88953678D01*
X119507500Y-88817889D01*
X119507500Y-88677311D01*
X120878100Y-88677311D01*
X120878100Y-88817889D01*
X120914484Y-88953678D01*
X120984774Y-89075422D01*
X121084178Y-89174826D01*
X121205922Y-89245116D01*
X121341711Y-89281500D01*
X121341713Y-89281500D01*
X121482287Y-89281500D01*
X121482289Y-89281500D01*
X121618078Y-89245116D01*
X121739822Y-89174826D01*
X121739826Y-89174822D01*
X121742911Y-89172456D01*
X121745983Y-89171267D01*
X121746860Y-89170762D01*
X121746938Y-89170898D01*
X121808079Y-89147259D01*
X121876524Y-89161296D01*
X121893889Y-89172456D01*
X121896973Y-89174822D01*
X121896975Y-89174823D01*
X121896978Y-89174826D01*
X122018722Y-89245116D01*
X122154511Y-89281500D01*
X122154513Y-89281500D01*
X122295087Y-89281500D01*
X122295089Y-89281500D01*
X122430878Y-89245116D01*
X122552622Y-89174826D01*
X122652026Y-89075422D01*
X122722316Y-88953678D01*
X122758700Y-88817889D01*
X122758700Y-88677311D01*
X122722316Y-88541522D01*
X122652026Y-88419778D01*
X122552622Y-88320374D01*
X122430878Y-88250084D01*
X122295089Y-88213700D01*
X122154511Y-88213700D01*
X122018721Y-88250084D01*
X121896971Y-88320378D01*
X121893883Y-88322748D01*
X121890808Y-88323936D01*
X121889940Y-88324438D01*
X121889861Y-88324302D01*
X121828713Y-88347940D01*
X121760269Y-88333900D01*
X121742917Y-88322748D01*
X121739828Y-88320378D01*
X121739823Y-88320375D01*
X121739822Y-88320374D01*
X121618078Y-88250084D01*
X121482289Y-88213700D01*
X121341711Y-88213700D01*
X121205921Y-88250084D01*
X121084178Y-88320374D01*
X121084175Y-88320376D01*
X120984776Y-88419775D01*
X120984774Y-88419778D01*
X120914484Y-88541521D01*
X120914484Y-88541522D01*
X120878100Y-88677311D01*
X119507500Y-88677311D01*
X119471116Y-88541522D01*
X119400826Y-88419778D01*
X119301422Y-88320374D01*
X119179678Y-88250084D01*
X119043889Y-88213700D01*
X118903311Y-88213700D01*
X118767521Y-88250084D01*
X118645778Y-88320374D01*
X118645775Y-88320376D01*
X118546376Y-88419775D01*
X118546374Y-88419778D01*
X118476084Y-88541521D01*
X118476084Y-88541522D01*
X118439700Y-88677311D01*
X117932700Y-88677311D01*
X117896316Y-88541522D01*
X117826026Y-88419778D01*
X117726622Y-88320374D01*
X117604878Y-88250084D01*
X117469089Y-88213700D01*
X117328511Y-88213700D01*
X117192721Y-88250084D01*
X117070978Y-88320374D01*
X117070975Y-88320376D01*
X116971576Y-88419775D01*
X116971574Y-88419778D01*
X116901284Y-88541521D01*
X116901284Y-88541522D01*
X116864900Y-88677311D01*
X114846951Y-88677311D01*
X114810878Y-88656484D01*
X114675089Y-88620100D01*
X114534511Y-88620100D01*
X114398720Y-88656484D01*
X114336601Y-88692350D01*
X114268700Y-88708823D01*
X114212599Y-88692350D01*
X114150479Y-88656484D01*
X114082583Y-88638292D01*
X114014689Y-88620100D01*
X113874111Y-88620100D01*
X113738321Y-88656484D01*
X113616578Y-88726774D01*
X113616575Y-88726776D01*
X113517176Y-88826175D01*
X113517174Y-88826178D01*
X113446884Y-88947921D01*
X113412721Y-89075421D01*
X113410500Y-89083711D01*
X98141710Y-89083711D01*
X98141710Y-85253019D01*
X103684100Y-85253019D01*
X103684100Y-87344171D01*
X103684102Y-87344194D01*
X103687061Y-87369706D01*
X103687062Y-87369709D01*
X103733165Y-87474124D01*
X103733166Y-87474125D01*
X103813875Y-87554834D01*
X103918291Y-87600938D01*
X103943821Y-87603900D01*
X106034978Y-87603899D01*
X106060509Y-87600938D01*
X106164925Y-87554834D01*
X106236248Y-87483511D01*
X129590300Y-87483511D01*
X129590300Y-87624089D01*
X129626684Y-87759878D01*
X129696974Y-87881622D01*
X129796378Y-87981026D01*
X129918122Y-88051316D01*
X130053911Y-88087700D01*
X130053913Y-88087700D01*
X130194487Y-88087700D01*
X130194489Y-88087700D01*
X130330278Y-88051316D01*
X130452022Y-87981026D01*
X130551426Y-87881622D01*
X130621716Y-87759878D01*
X130658100Y-87624089D01*
X130658100Y-87483511D01*
X130621716Y-87347722D01*
X130551426Y-87225978D01*
X130452022Y-87126574D01*
X130330278Y-87056284D01*
X130194489Y-87019900D01*
X130053911Y-87019900D01*
X129918121Y-87056284D01*
X129796378Y-87126574D01*
X129796375Y-87126576D01*
X129696976Y-87225975D01*
X129696974Y-87225978D01*
X129626684Y-87347721D01*
X129605898Y-87425298D01*
X129590300Y-87483511D01*
X106236248Y-87483511D01*
X106245634Y-87474125D01*
X106291738Y-87369709D01*
X106294700Y-87344179D01*
X106294699Y-86543711D01*
X116814100Y-86543711D01*
X116814100Y-86684289D01*
X116850484Y-86820078D01*
X116920774Y-86941822D01*
X117020178Y-87041226D01*
X117141922Y-87111516D01*
X117277711Y-87147900D01*
X117277713Y-87147900D01*
X117418287Y-87147900D01*
X117418289Y-87147900D01*
X117554078Y-87111516D01*
X117675822Y-87041226D01*
X117775226Y-86941822D01*
X117845516Y-86820078D01*
X117881900Y-86684289D01*
X117881900Y-86543711D01*
X117845516Y-86407922D01*
X117775226Y-86286178D01*
X117675822Y-86186774D01*
X117554078Y-86116484D01*
X117418289Y-86080100D01*
X117277711Y-86080100D01*
X117141921Y-86116484D01*
X117020178Y-86186774D01*
X117020175Y-86186776D01*
X116920776Y-86286175D01*
X116920774Y-86286178D01*
X116850484Y-86407921D01*
X116850484Y-86407922D01*
X116814100Y-86543711D01*
X106294699Y-86543711D01*
X106294699Y-86286178D01*
X106294699Y-85883311D01*
X136575300Y-85883311D01*
X136575300Y-86023889D01*
X136611684Y-86159678D01*
X136681974Y-86281422D01*
X136781378Y-86380826D01*
X136781381Y-86380828D01*
X136787827Y-86385774D01*
X136786634Y-86387327D01*
X136827497Y-86430190D01*
X136840713Y-86498799D01*
X136814739Y-86563661D01*
X136787252Y-86587477D01*
X136787827Y-86588226D01*
X136781375Y-86593176D01*
X136681976Y-86692575D01*
X136681974Y-86692578D01*
X136611684Y-86814321D01*
X136577521Y-86941821D01*
X136575300Y-86950111D01*
X136575300Y-87090689D01*
X136611684Y-87226478D01*
X136681974Y-87348222D01*
X136781378Y-87447626D01*
X136903122Y-87517916D01*
X137038911Y-87554300D01*
X137038913Y-87554300D01*
X137179487Y-87554300D01*
X137179489Y-87554300D01*
X137315278Y-87517916D01*
X137437022Y-87447626D01*
X137536426Y-87348222D01*
X137606716Y-87226478D01*
X137643100Y-87090689D01*
X137643100Y-86950111D01*
X138302500Y-86950111D01*
X138302500Y-87090689D01*
X138338884Y-87226478D01*
X138409174Y-87348222D01*
X138508578Y-87447626D01*
X138630322Y-87517916D01*
X138766111Y-87554300D01*
X138766113Y-87554300D01*
X138906687Y-87554300D01*
X138906689Y-87554300D01*
X139042478Y-87517916D01*
X139164222Y-87447626D01*
X139263626Y-87348222D01*
X139333916Y-87226478D01*
X139370300Y-87090689D01*
X139370300Y-86950111D01*
X139333916Y-86814322D01*
X139263626Y-86692578D01*
X139164222Y-86593174D01*
X139042478Y-86522884D01*
X138906689Y-86486500D01*
X138766111Y-86486500D01*
X138630321Y-86522884D01*
X138508578Y-86593174D01*
X138508575Y-86593176D01*
X138409176Y-86692575D01*
X138409174Y-86692578D01*
X138338884Y-86814321D01*
X138304721Y-86941821D01*
X138302500Y-86950111D01*
X137643100Y-86950111D01*
X137606716Y-86814322D01*
X137536426Y-86692578D01*
X137437022Y-86593174D01*
X137437019Y-86593172D01*
X137430573Y-86588226D01*
X137431765Y-86586671D01*
X137390907Y-86543819D01*
X137377685Y-86475212D01*
X137403653Y-86410348D01*
X137431147Y-86386522D01*
X137430573Y-86385774D01*
X137437014Y-86380830D01*
X137437022Y-86380826D01*
X137536426Y-86281422D01*
X137606716Y-86159678D01*
X137643100Y-86023889D01*
X137643100Y-85883311D01*
X137606716Y-85747522D01*
X137536426Y-85625778D01*
X137437022Y-85526374D01*
X137315278Y-85456084D01*
X137179489Y-85419700D01*
X137038911Y-85419700D01*
X136903121Y-85456084D01*
X136781378Y-85526374D01*
X136781375Y-85526376D01*
X136681976Y-85625775D01*
X136681974Y-85625778D01*
X136611684Y-85747521D01*
X136586499Y-85841515D01*
X136575300Y-85883311D01*
X106294699Y-85883311D01*
X106294699Y-85253028D01*
X106294699Y-85253022D01*
X106291738Y-85227491D01*
X106245634Y-85123075D01*
X106164925Y-85042366D01*
X106094848Y-85011424D01*
X106060510Y-84996262D01*
X106034979Y-84993300D01*
X103943828Y-84993300D01*
X103943805Y-84993302D01*
X103918293Y-84996261D01*
X103918290Y-84996262D01*
X103813875Y-85042365D01*
X103733166Y-85123074D01*
X103687062Y-85227488D01*
X103687062Y-85227490D01*
X103684100Y-85253019D01*
X98141710Y-85253019D01*
X98141710Y-84613311D01*
X117880900Y-84613311D01*
X117880900Y-84753889D01*
X117917284Y-84889678D01*
X117987574Y-85011422D01*
X118086978Y-85110826D01*
X118208722Y-85181116D01*
X118344511Y-85217500D01*
X118344513Y-85217500D01*
X118347793Y-85218379D01*
X118407454Y-85254744D01*
X118437983Y-85317591D01*
X118439700Y-85338154D01*
X118439700Y-85414289D01*
X118476084Y-85550078D01*
X118546374Y-85671822D01*
X118645778Y-85771226D01*
X118767522Y-85841516D01*
X118903311Y-85877900D01*
X118903313Y-85877900D01*
X119043887Y-85877900D01*
X119043889Y-85877900D01*
X119179678Y-85841516D01*
X119301422Y-85771226D01*
X119400826Y-85671822D01*
X119471116Y-85550078D01*
X119507500Y-85414289D01*
X119507500Y-85273711D01*
X119471116Y-85137922D01*
X119400826Y-85016178D01*
X119301422Y-84916774D01*
X119179678Y-84846484D01*
X119084372Y-84820947D01*
X119040606Y-84809220D01*
X119021139Y-84797354D01*
X118999678Y-84789664D01*
X118991875Y-84779516D01*
X118980946Y-84772855D01*
X118970984Y-84752348D01*
X118957088Y-84734276D01*
X118953882Y-84717141D01*
X118950417Y-84710008D01*
X118949141Y-84699888D01*
X118948700Y-84694670D01*
X118948700Y-84613311D01*
X118935088Y-84562511D01*
X129310900Y-84562511D01*
X129310900Y-84703089D01*
X129347284Y-84838878D01*
X129417574Y-84960622D01*
X129516978Y-85060026D01*
X129638722Y-85130316D01*
X129774511Y-85166700D01*
X129774513Y-85166700D01*
X129915086Y-85166700D01*
X129915089Y-85166700D01*
X129931457Y-85162314D01*
X130001303Y-85163975D01*
X130059166Y-85203135D01*
X130083324Y-85249993D01*
X130109284Y-85346878D01*
X130179574Y-85468622D01*
X130278978Y-85568026D01*
X130400722Y-85638316D01*
X130536511Y-85674700D01*
X130536513Y-85674700D01*
X130677087Y-85674700D01*
X130677089Y-85674700D01*
X130812878Y-85638316D01*
X130934622Y-85568026D01*
X131034026Y-85468622D01*
X131104316Y-85346878D01*
X131140700Y-85211089D01*
X131140700Y-85070511D01*
X131104316Y-84934722D01*
X131034026Y-84812978D01*
X130934622Y-84713574D01*
X130812878Y-84643284D01*
X130677089Y-84606900D01*
X130536511Y-84606900D01*
X130536506Y-84606900D01*
X130520140Y-84611286D01*
X130450291Y-84609622D01*
X130392429Y-84570459D01*
X130368275Y-84523606D01*
X130342316Y-84426722D01*
X130272026Y-84304978D01*
X130172622Y-84205574D01*
X130086951Y-84156111D01*
X138302500Y-84156111D01*
X138302500Y-84296689D01*
X138338884Y-84432478D01*
X138409174Y-84554222D01*
X138508578Y-84653626D01*
X138630322Y-84723916D01*
X138766111Y-84760300D01*
X138766113Y-84760300D01*
X138906687Y-84760300D01*
X138906689Y-84760300D01*
X139042478Y-84723916D01*
X139164222Y-84653626D01*
X139263626Y-84554222D01*
X139333916Y-84432478D01*
X139370300Y-84296689D01*
X139370300Y-84156111D01*
X139333916Y-84020322D01*
X139263626Y-83898578D01*
X139164222Y-83799174D01*
X139042478Y-83728884D01*
X138906689Y-83692500D01*
X138766111Y-83692500D01*
X138630321Y-83728884D01*
X138508578Y-83799174D01*
X138508575Y-83799176D01*
X138409176Y-83898575D01*
X138409174Y-83898578D01*
X138338884Y-84020321D01*
X138338884Y-84020322D01*
X138302500Y-84156111D01*
X130086951Y-84156111D01*
X130050878Y-84135284D01*
X129915089Y-84098900D01*
X129774511Y-84098900D01*
X129638721Y-84135284D01*
X129516978Y-84205574D01*
X129516975Y-84205576D01*
X129417576Y-84304975D01*
X129417574Y-84304978D01*
X129347284Y-84426721D01*
X129333672Y-84477522D01*
X129310900Y-84562511D01*
X118935088Y-84562511D01*
X118912316Y-84477522D01*
X118842026Y-84355778D01*
X118742622Y-84256374D01*
X118620878Y-84186084D01*
X118485089Y-84149700D01*
X118344511Y-84149700D01*
X118208721Y-84186084D01*
X118086978Y-84256374D01*
X118086975Y-84256376D01*
X117987576Y-84355775D01*
X117987574Y-84355778D01*
X117917284Y-84477521D01*
X117896732Y-84554224D01*
X117880900Y-84613311D01*
X98141710Y-84613311D01*
X98141710Y-82987711D01*
X131546100Y-82987711D01*
X131546100Y-83128289D01*
X131582484Y-83264078D01*
X131652774Y-83385822D01*
X131752178Y-83485226D01*
X131873922Y-83555516D01*
X132009711Y-83591900D01*
X132009713Y-83591900D01*
X132150287Y-83591900D01*
X132150289Y-83591900D01*
X132286078Y-83555516D01*
X132407822Y-83485226D01*
X132507226Y-83385822D01*
X132577516Y-83264078D01*
X132613900Y-83128289D01*
X132613900Y-82987711D01*
X132577516Y-82851922D01*
X132507226Y-82730178D01*
X132407822Y-82630774D01*
X132286078Y-82560484D01*
X132150289Y-82524100D01*
X132009711Y-82524100D01*
X131873921Y-82560484D01*
X131752178Y-82630774D01*
X131752175Y-82630776D01*
X131652776Y-82730175D01*
X131652774Y-82730178D01*
X131582484Y-82851921D01*
X131582484Y-82851922D01*
X131546100Y-82987711D01*
X98141710Y-82987711D01*
X98141710Y-78595871D01*
X103684100Y-78595871D01*
X103684100Y-78801328D01*
X103716241Y-79004259D01*
X103779732Y-79199663D01*
X103873010Y-79382729D01*
X103993767Y-79548940D01*
X104139059Y-79694232D01*
X104294594Y-79807232D01*
X104305274Y-79814992D01*
X104488339Y-79908269D01*
X104683742Y-79971759D01*
X104886671Y-80003900D01*
X104886672Y-80003900D01*
X105092128Y-80003900D01*
X105092129Y-80003900D01*
X105295058Y-79971759D01*
X105490461Y-79908269D01*
X105673526Y-79814992D01*
X105766850Y-79747188D01*
X105839740Y-79694232D01*
X105839742Y-79694229D01*
X105839746Y-79694227D01*
X105985027Y-79548946D01*
X105985029Y-79548942D01*
X105985032Y-79548940D01*
X106037988Y-79476050D01*
X106105792Y-79382726D01*
X106199069Y-79199661D01*
X106262559Y-79004258D01*
X106294700Y-78801329D01*
X106294700Y-78595871D01*
X106262559Y-78392942D01*
X106199069Y-78197539D01*
X106199066Y-78197533D01*
X106179473Y-78159078D01*
X106154930Y-78110911D01*
X131546100Y-78110911D01*
X131546100Y-78251489D01*
X131582484Y-78387278D01*
X131652774Y-78509022D01*
X131752178Y-78608426D01*
X131873922Y-78678716D01*
X132009711Y-78715100D01*
X132009713Y-78715100D01*
X132150287Y-78715100D01*
X132150289Y-78715100D01*
X132286078Y-78678716D01*
X132407822Y-78608426D01*
X132507226Y-78509022D01*
X132577516Y-78387278D01*
X132613900Y-78251489D01*
X132613900Y-78110911D01*
X132577516Y-77975122D01*
X132507226Y-77853378D01*
X132407822Y-77753974D01*
X132286078Y-77683684D01*
X132150289Y-77647300D01*
X132009711Y-77647300D01*
X131873921Y-77683684D01*
X131752178Y-77753974D01*
X131752175Y-77753976D01*
X131652776Y-77853375D01*
X131652774Y-77853378D01*
X131582484Y-77975121D01*
X131582484Y-77975122D01*
X131546100Y-78110911D01*
X106154930Y-78110911D01*
X106105791Y-78014472D01*
X105985032Y-77848259D01*
X105839740Y-77702967D01*
X105673529Y-77582210D01*
X105673528Y-77582209D01*
X105673526Y-77582208D01*
X105490461Y-77488931D01*
X105389107Y-77455999D01*
X105295059Y-77425441D01*
X105193593Y-77409370D01*
X105092129Y-77393300D01*
X104886671Y-77393300D01*
X104819028Y-77404013D01*
X104683740Y-77425441D01*
X104488336Y-77488932D01*
X104305270Y-77582210D01*
X104139059Y-77702967D01*
X103993767Y-77848259D01*
X103873010Y-78014470D01*
X103779732Y-78197536D01*
X103716241Y-78392940D01*
X103684100Y-78595871D01*
X98141710Y-78595871D01*
X98141710Y-70389311D01*
X104215700Y-70389311D01*
X104215700Y-70529889D01*
X104246091Y-70643313D01*
X104252086Y-70665684D01*
X104252281Y-70666155D01*
X104252327Y-70666583D01*
X104254188Y-70673529D01*
X104253104Y-70673819D01*
X104259745Y-70735624D01*
X104252281Y-70761045D01*
X104252086Y-70761515D01*
X104252084Y-70761521D01*
X104252084Y-70761522D01*
X104215700Y-70897311D01*
X104215700Y-71037889D01*
X104252084Y-71173678D01*
X104322374Y-71295422D01*
X104421778Y-71394826D01*
X104543522Y-71465116D01*
X104679311Y-71501500D01*
X104679313Y-71501500D01*
X104819887Y-71501500D01*
X104819889Y-71501500D01*
X104955678Y-71465116D01*
X105077422Y-71394826D01*
X105176826Y-71295422D01*
X105247116Y-71173678D01*
X105283500Y-71037889D01*
X105283500Y-70897311D01*
X105247116Y-70761522D01*
X105247112Y-70761515D01*
X105246923Y-70761058D01*
X105246877Y-70760632D01*
X105245012Y-70753671D01*
X105246097Y-70753380D01*
X105244389Y-70737499D01*
X105237488Y-70714835D01*
X105240358Y-70700022D01*
X105239451Y-70691589D01*
X105242163Y-70679852D01*
X105245265Y-70668883D01*
X105247116Y-70665678D01*
X105253109Y-70643311D01*
X109346500Y-70643311D01*
X109346500Y-70783889D01*
X109382883Y-70919675D01*
X109382886Y-70919684D01*
X109383081Y-70920155D01*
X109383127Y-70920583D01*
X109384988Y-70927529D01*
X109383904Y-70927819D01*
X109390545Y-70989624D01*
X109383081Y-71015045D01*
X109382886Y-71015515D01*
X109382884Y-71015521D01*
X109382884Y-71015522D01*
X109346500Y-71151311D01*
X109346500Y-71291889D01*
X109382883Y-71427675D01*
X109382886Y-71427684D01*
X109383081Y-71428155D01*
X109383127Y-71428583D01*
X109384988Y-71435529D01*
X109383904Y-71435819D01*
X109390545Y-71497624D01*
X109383081Y-71523045D01*
X109382886Y-71523515D01*
X109382884Y-71523521D01*
X109382884Y-71523522D01*
X109346500Y-71659311D01*
X109346500Y-71799889D01*
X109382883Y-71935675D01*
X109382886Y-71935684D01*
X109383081Y-71936155D01*
X109383127Y-71936583D01*
X109384988Y-71943529D01*
X109383904Y-71943819D01*
X109390545Y-72005624D01*
X109383081Y-72031045D01*
X109382886Y-72031515D01*
X109382884Y-72031521D01*
X109382884Y-72031522D01*
X109346500Y-72167311D01*
X109346500Y-72307889D01*
X109382883Y-72443675D01*
X109382886Y-72443684D01*
X109383081Y-72444155D01*
X109383127Y-72444583D01*
X109384988Y-72451529D01*
X109383904Y-72451819D01*
X109390545Y-72513624D01*
X109383081Y-72539045D01*
X109382886Y-72539515D01*
X109382884Y-72539521D01*
X109382884Y-72539522D01*
X109346500Y-72675311D01*
X109346500Y-72815889D01*
X109382883Y-72951675D01*
X109382886Y-72951684D01*
X109383081Y-72952155D01*
X109383127Y-72952583D01*
X109384988Y-72959529D01*
X109383904Y-72959819D01*
X109390545Y-73021624D01*
X109383081Y-73047045D01*
X109382886Y-73047515D01*
X109382884Y-73047521D01*
X109382884Y-73047522D01*
X109346500Y-73183311D01*
X109346500Y-73323889D01*
X109382884Y-73459678D01*
X109453174Y-73581422D01*
X109552578Y-73680826D01*
X109674322Y-73751116D01*
X109775968Y-73778351D01*
X109835627Y-73814714D01*
X109863647Y-73866030D01*
X109868112Y-73882689D01*
X109890884Y-73967679D01*
X109905844Y-73993589D01*
X109961174Y-74089422D01*
X110060578Y-74188826D01*
X110182322Y-74259116D01*
X110283968Y-74286351D01*
X110343627Y-74322714D01*
X110371647Y-74374030D01*
X110376112Y-74390689D01*
X110398884Y-74475679D01*
X110428214Y-74526478D01*
X110469174Y-74597422D01*
X110568578Y-74696826D01*
X110690322Y-74767116D01*
X110826111Y-74803500D01*
X110826113Y-74803500D01*
X110966687Y-74803500D01*
X110966689Y-74803500D01*
X111102478Y-74767116D01*
X111102485Y-74767111D01*
X111102942Y-74766923D01*
X111103367Y-74766877D01*
X111110329Y-74765012D01*
X111110619Y-74766097D01*
X111172411Y-74759451D01*
X111197858Y-74766923D01*
X111198316Y-74767113D01*
X111198322Y-74767116D01*
X111334111Y-74803500D01*
X111334113Y-74803500D01*
X111474687Y-74803500D01*
X111474689Y-74803500D01*
X111610478Y-74767116D01*
X111732222Y-74696826D01*
X111831626Y-74597422D01*
X111901916Y-74475678D01*
X111938300Y-74339889D01*
X111938300Y-74199311D01*
X111901916Y-74063522D01*
X111901913Y-74063516D01*
X111901723Y-74063058D01*
X111901677Y-74062632D01*
X111899812Y-74055671D01*
X111900897Y-74055380D01*
X111894251Y-73993589D01*
X111901723Y-73968142D01*
X111901911Y-73967685D01*
X111901916Y-73967678D01*
X111938300Y-73831889D01*
X111938300Y-73742111D01*
X137286500Y-73742111D01*
X137286500Y-73882689D01*
X137322883Y-74018475D01*
X137322886Y-74018484D01*
X137323081Y-74018955D01*
X137323127Y-74019383D01*
X137324988Y-74026329D01*
X137323904Y-74026619D01*
X137330545Y-74088424D01*
X137323081Y-74113845D01*
X137322886Y-74114315D01*
X137322884Y-74114321D01*
X137322884Y-74114322D01*
X137286500Y-74250111D01*
X137286500Y-74390689D01*
X137322884Y-74526478D01*
X137393174Y-74648222D01*
X137492578Y-74747626D01*
X137614322Y-74817916D01*
X137750111Y-74854300D01*
X137750113Y-74854300D01*
X137890687Y-74854300D01*
X137890689Y-74854300D01*
X138026478Y-74817916D01*
X138026485Y-74817911D01*
X138026942Y-74817723D01*
X138027367Y-74817677D01*
X138034329Y-74815812D01*
X138034619Y-74816897D01*
X138096411Y-74810251D01*
X138121858Y-74817723D01*
X138122316Y-74817913D01*
X138122322Y-74817916D01*
X138258111Y-74854300D01*
X138258113Y-74854300D01*
X138398687Y-74854300D01*
X138398689Y-74854300D01*
X138534478Y-74817916D01*
X138656222Y-74747626D01*
X138755626Y-74648222D01*
X138825916Y-74526478D01*
X138862300Y-74390689D01*
X138862300Y-74250111D01*
X138825916Y-74114322D01*
X138825912Y-74114315D01*
X138825723Y-74113858D01*
X138825677Y-74113432D01*
X138823812Y-74106471D01*
X138824897Y-74106180D01*
X138818251Y-74044389D01*
X138825723Y-74018942D01*
X138825911Y-74018485D01*
X138825916Y-74018478D01*
X138862300Y-73882689D01*
X138862300Y-73742111D01*
X138825916Y-73606322D01*
X138755626Y-73484578D01*
X138656222Y-73385174D01*
X138534478Y-73314884D01*
X138398689Y-73278500D01*
X138258111Y-73278500D01*
X138122315Y-73314886D01*
X138121845Y-73315081D01*
X138121416Y-73315127D01*
X138114471Y-73316988D01*
X138114180Y-73315904D01*
X138052376Y-73322545D01*
X138026955Y-73315081D01*
X138026484Y-73314886D01*
X138026479Y-73314884D01*
X138026478Y-73314884D01*
X137890689Y-73278500D01*
X137750111Y-73278500D01*
X137614321Y-73314884D01*
X137492578Y-73385174D01*
X137492575Y-73385176D01*
X137393176Y-73484575D01*
X137393174Y-73484578D01*
X137322884Y-73606321D01*
X137322884Y-73606322D01*
X137286500Y-73742111D01*
X111938300Y-73742111D01*
X111938300Y-73691311D01*
X111901916Y-73555522D01*
X111898167Y-73549029D01*
X111894767Y-73532301D01*
X111896760Y-73508920D01*
X111894251Y-73485589D01*
X111900591Y-73463997D01*
X111900703Y-73462684D01*
X111901145Y-73462109D01*
X111901723Y-73460142D01*
X111901911Y-73459685D01*
X111901916Y-73459678D01*
X111938300Y-73323889D01*
X111938300Y-73183311D01*
X111901916Y-73047522D01*
X111901912Y-73047515D01*
X111901723Y-73047058D01*
X111901677Y-73046632D01*
X111899812Y-73039671D01*
X111900897Y-73039380D01*
X111894251Y-72977589D01*
X111901723Y-72952142D01*
X111901911Y-72951685D01*
X111901916Y-72951678D01*
X111938300Y-72815889D01*
X111938300Y-72675311D01*
X111901916Y-72539522D01*
X111901912Y-72539515D01*
X111901723Y-72539058D01*
X111901677Y-72538632D01*
X111899812Y-72531671D01*
X111900897Y-72531380D01*
X111894251Y-72469589D01*
X111901723Y-72444142D01*
X111901911Y-72443685D01*
X111901916Y-72443678D01*
X111938300Y-72307889D01*
X111938300Y-72167311D01*
X111901916Y-72031522D01*
X111901912Y-72031515D01*
X111901723Y-72031058D01*
X111901677Y-72030632D01*
X111899812Y-72023671D01*
X111900897Y-72023380D01*
X111894251Y-71961589D01*
X111901723Y-71936142D01*
X111901911Y-71935685D01*
X111901916Y-71935678D01*
X111938300Y-71799889D01*
X111938300Y-71659311D01*
X111901916Y-71523522D01*
X111901912Y-71523515D01*
X111901723Y-71523058D01*
X111901677Y-71522632D01*
X111899812Y-71515671D01*
X111900897Y-71515380D01*
X111894251Y-71453589D01*
X111901723Y-71428142D01*
X111901911Y-71427685D01*
X111901916Y-71427678D01*
X111938300Y-71291889D01*
X111938300Y-71151311D01*
X111901916Y-71015522D01*
X111901912Y-71015515D01*
X111901723Y-71015058D01*
X111901677Y-71014632D01*
X111899812Y-71007671D01*
X111900897Y-71007380D01*
X111894251Y-70945589D01*
X111901723Y-70920142D01*
X111901911Y-70919685D01*
X111901916Y-70919678D01*
X111938300Y-70783889D01*
X111938300Y-70643311D01*
X111901916Y-70507522D01*
X111831626Y-70385778D01*
X111732222Y-70286374D01*
X111610478Y-70216084D01*
X111474689Y-70179700D01*
X111334111Y-70179700D01*
X111198315Y-70216086D01*
X111197845Y-70216281D01*
X111197416Y-70216327D01*
X111190471Y-70218188D01*
X111190180Y-70217104D01*
X111128376Y-70223745D01*
X111102955Y-70216281D01*
X111102484Y-70216086D01*
X111102479Y-70216084D01*
X111102478Y-70216084D01*
X110966689Y-70179700D01*
X110826111Y-70179700D01*
X110690315Y-70216086D01*
X110689845Y-70216281D01*
X110689416Y-70216327D01*
X110682471Y-70218188D01*
X110682180Y-70217104D01*
X110620376Y-70223745D01*
X110594955Y-70216281D01*
X110594484Y-70216086D01*
X110594479Y-70216084D01*
X110594478Y-70216084D01*
X110458689Y-70179700D01*
X110318111Y-70179700D01*
X110182315Y-70216086D01*
X110181845Y-70216281D01*
X110181416Y-70216327D01*
X110174471Y-70218188D01*
X110174180Y-70217104D01*
X110112376Y-70223745D01*
X110086955Y-70216281D01*
X110086484Y-70216086D01*
X110086479Y-70216084D01*
X110086478Y-70216084D01*
X109950689Y-70179700D01*
X109810111Y-70179700D01*
X109674321Y-70216084D01*
X109552578Y-70286374D01*
X109552575Y-70286376D01*
X109453176Y-70385775D01*
X109453174Y-70385778D01*
X109382884Y-70507521D01*
X109371310Y-70550716D01*
X109346500Y-70643311D01*
X105253109Y-70643311D01*
X105283500Y-70529889D01*
X105283500Y-70389311D01*
X105247116Y-70253522D01*
X105176826Y-70131778D01*
X105077422Y-70032374D01*
X104991751Y-69982911D01*
X123672100Y-69982911D01*
X123672100Y-70123489D01*
X123708484Y-70259278D01*
X123778774Y-70381022D01*
X123878178Y-70480426D01*
X123999922Y-70550716D01*
X124135711Y-70587100D01*
X124135713Y-70587100D01*
X124276287Y-70587100D01*
X124276289Y-70587100D01*
X124412078Y-70550716D01*
X124412085Y-70550711D01*
X124412542Y-70550523D01*
X124412967Y-70550477D01*
X124419929Y-70548612D01*
X124420219Y-70549697D01*
X124482011Y-70543051D01*
X124507458Y-70550523D01*
X124507916Y-70550713D01*
X124507922Y-70550716D01*
X124643711Y-70587100D01*
X124643713Y-70587100D01*
X124784287Y-70587100D01*
X124784289Y-70587100D01*
X124920078Y-70550716D01*
X124920085Y-70550711D01*
X124920542Y-70550523D01*
X124920967Y-70550477D01*
X124927929Y-70548612D01*
X124928219Y-70549697D01*
X124990011Y-70543051D01*
X125015458Y-70550523D01*
X125015916Y-70550713D01*
X125015922Y-70550716D01*
X125151711Y-70587100D01*
X125151713Y-70587100D01*
X125292287Y-70587100D01*
X125292289Y-70587100D01*
X125428078Y-70550716D01*
X125428085Y-70550711D01*
X125428542Y-70550523D01*
X125428967Y-70550477D01*
X125435929Y-70548612D01*
X125436219Y-70549697D01*
X125498011Y-70543051D01*
X125523458Y-70550523D01*
X125523916Y-70550713D01*
X125523922Y-70550716D01*
X125659711Y-70587100D01*
X125659713Y-70587100D01*
X125800287Y-70587100D01*
X125800289Y-70587100D01*
X125936078Y-70550716D01*
X126057822Y-70480426D01*
X126157226Y-70381022D01*
X126227516Y-70259278D01*
X126263900Y-70123489D01*
X126263900Y-69982911D01*
X126236677Y-69881311D01*
X137794500Y-69881311D01*
X137794500Y-70021889D01*
X137830884Y-70157678D01*
X137901174Y-70279422D01*
X138000578Y-70378826D01*
X138122322Y-70449116D01*
X138258111Y-70485500D01*
X138258113Y-70485500D01*
X138398687Y-70485500D01*
X138398689Y-70485500D01*
X138534478Y-70449116D01*
X138656222Y-70378826D01*
X138755626Y-70279422D01*
X138825916Y-70157678D01*
X138862300Y-70021889D01*
X138862300Y-69881311D01*
X138825916Y-69745522D01*
X138755626Y-69623778D01*
X138656222Y-69524374D01*
X138534478Y-69454084D01*
X138398689Y-69417700D01*
X138258111Y-69417700D01*
X138122321Y-69454084D01*
X138000578Y-69524374D01*
X138000575Y-69524376D01*
X137901176Y-69623775D01*
X137901174Y-69623778D01*
X137830884Y-69745521D01*
X137826153Y-69763179D01*
X137794500Y-69881311D01*
X126236677Y-69881311D01*
X126227516Y-69847122D01*
X126225684Y-69843950D01*
X126222591Y-69833046D01*
X126222846Y-69805041D01*
X126219851Y-69777189D01*
X126223205Y-69765765D01*
X126223229Y-69763179D01*
X126224561Y-69761146D01*
X126227323Y-69751742D01*
X126227511Y-69751285D01*
X126227516Y-69751278D01*
X126263900Y-69615489D01*
X126263900Y-69474911D01*
X126227516Y-69339122D01*
X126227513Y-69339116D01*
X126227323Y-69338658D01*
X126227277Y-69338232D01*
X126225412Y-69331271D01*
X126226497Y-69330980D01*
X126219851Y-69269189D01*
X126227323Y-69243742D01*
X126227511Y-69243285D01*
X126227516Y-69243278D01*
X126263900Y-69107489D01*
X126263900Y-68966911D01*
X126227516Y-68831122D01*
X126227513Y-68831116D01*
X126227323Y-68830658D01*
X126227277Y-68830232D01*
X126225412Y-68823271D01*
X126226497Y-68822980D01*
X126219851Y-68761189D01*
X126227323Y-68735742D01*
X126227511Y-68735285D01*
X126227516Y-68735278D01*
X126263900Y-68599489D01*
X126263900Y-68458911D01*
X126227516Y-68323122D01*
X126157226Y-68201378D01*
X126057822Y-68101974D01*
X125936078Y-68031684D01*
X125800289Y-67995300D01*
X125659711Y-67995300D01*
X125523921Y-68031684D01*
X125402178Y-68101974D01*
X125402175Y-68101976D01*
X125302776Y-68201375D01*
X125302774Y-68201378D01*
X125232484Y-68323121D01*
X125205249Y-68424767D01*
X125168884Y-68484428D01*
X125117568Y-68512448D01*
X125065463Y-68526409D01*
X125015921Y-68539684D01*
X124894178Y-68609974D01*
X124894175Y-68609976D01*
X124794776Y-68709375D01*
X124794774Y-68709378D01*
X124724484Y-68831121D01*
X124697249Y-68932767D01*
X124660884Y-68992428D01*
X124609568Y-69020448D01*
X124557463Y-69034409D01*
X124507921Y-69047684D01*
X124386178Y-69117974D01*
X124386175Y-69117976D01*
X124286776Y-69217375D01*
X124286774Y-69217378D01*
X124216484Y-69339121D01*
X124216484Y-69339122D01*
X124195430Y-69417700D01*
X124189249Y-69440767D01*
X124152884Y-69500428D01*
X124101568Y-69528448D01*
X124049463Y-69542409D01*
X123999921Y-69555684D01*
X123878178Y-69625974D01*
X123878175Y-69625976D01*
X123778776Y-69725375D01*
X123778774Y-69725378D01*
X123708484Y-69847121D01*
X123692675Y-69906124D01*
X123672100Y-69982911D01*
X104991751Y-69982911D01*
X104955678Y-69962084D01*
X104819889Y-69925700D01*
X104679311Y-69925700D01*
X104543521Y-69962084D01*
X104421778Y-70032374D01*
X104421775Y-70032376D01*
X104322376Y-70131775D01*
X104322374Y-70131778D01*
X104252084Y-70253521D01*
X104243281Y-70286374D01*
X104215700Y-70389311D01*
X98141710Y-70389311D01*
X98141710Y-67239711D01*
X122402100Y-67239711D01*
X122402100Y-67380289D01*
X122437076Y-67510824D01*
X122438486Y-67516084D01*
X122438681Y-67516555D01*
X122438727Y-67516983D01*
X122440588Y-67523929D01*
X122439504Y-67524219D01*
X122446145Y-67586024D01*
X122438681Y-67611445D01*
X122438486Y-67611915D01*
X122438484Y-67611921D01*
X122438484Y-67611922D01*
X122402100Y-67747711D01*
X122402100Y-67888289D01*
X122429681Y-67991226D01*
X122438486Y-68024084D01*
X122438681Y-68024555D01*
X122438727Y-68024983D01*
X122440588Y-68031929D01*
X122439504Y-68032219D01*
X122446145Y-68094024D01*
X122438681Y-68119445D01*
X122438486Y-68119915D01*
X122438484Y-68119921D01*
X122438484Y-68119922D01*
X122402100Y-68255711D01*
X122402100Y-68396289D01*
X122438484Y-68532078D01*
X122508774Y-68653822D01*
X122608178Y-68753226D01*
X122729922Y-68823516D01*
X122865711Y-68859900D01*
X122865713Y-68859900D01*
X123006287Y-68859900D01*
X123006289Y-68859900D01*
X123142078Y-68823516D01*
X123263822Y-68753226D01*
X123363226Y-68653822D01*
X123433516Y-68532078D01*
X123469900Y-68396289D01*
X123469900Y-68255711D01*
X123465514Y-68239342D01*
X123467175Y-68169495D01*
X123506336Y-68111632D01*
X123553191Y-68087476D01*
X123650078Y-68061516D01*
X123771822Y-67991226D01*
X123871226Y-67891822D01*
X123941516Y-67770078D01*
X123941911Y-67768604D01*
X123942586Y-67767496D01*
X123944627Y-67762569D01*
X123945394Y-67762887D01*
X123978271Y-67708940D01*
X124023764Y-67684099D01*
X124023569Y-67683627D01*
X124027963Y-67681806D01*
X124029604Y-67680911D01*
X124029876Y-67680837D01*
X124031078Y-67680516D01*
X124152822Y-67610226D01*
X124252226Y-67510822D01*
X124322516Y-67389078D01*
X124322911Y-67387604D01*
X124323586Y-67386496D01*
X124325627Y-67381569D01*
X124326394Y-67381887D01*
X124359271Y-67327940D01*
X124404764Y-67303099D01*
X124404569Y-67302627D01*
X124408963Y-67300806D01*
X124410604Y-67299911D01*
X124410876Y-67299837D01*
X124412078Y-67299516D01*
X124533822Y-67229226D01*
X124633226Y-67129822D01*
X124703516Y-67008078D01*
X124703911Y-67006604D01*
X124704586Y-67005496D01*
X124706627Y-67000569D01*
X124707394Y-67000887D01*
X124740271Y-66946940D01*
X124785764Y-66922099D01*
X124785569Y-66921627D01*
X124789963Y-66919806D01*
X124791604Y-66918911D01*
X124791876Y-66918837D01*
X124793078Y-66918516D01*
X124914822Y-66848226D01*
X125014226Y-66748822D01*
X125084516Y-66627078D01*
X125120900Y-66491289D01*
X125120900Y-66350711D01*
X125084516Y-66214922D01*
X125084513Y-66214916D01*
X125084323Y-66214458D01*
X125084277Y-66214032D01*
X125082412Y-66207071D01*
X125083497Y-66206780D01*
X125081789Y-66190899D01*
X125074888Y-66168235D01*
X125077758Y-66153422D01*
X125076851Y-66144989D01*
X125079563Y-66133252D01*
X125082665Y-66122283D01*
X125084516Y-66119078D01*
X125090509Y-66096711D01*
X131038100Y-66096711D01*
X131038100Y-66237289D01*
X131074483Y-66373075D01*
X131074486Y-66373084D01*
X131074681Y-66373555D01*
X131074727Y-66373983D01*
X131076588Y-66380929D01*
X131075504Y-66381219D01*
X131082145Y-66443024D01*
X131074681Y-66468445D01*
X131074486Y-66468915D01*
X131074484Y-66468921D01*
X131074484Y-66468922D01*
X131038100Y-66604711D01*
X131038100Y-66745289D01*
X131074484Y-66881078D01*
X131144774Y-67002822D01*
X131244178Y-67102226D01*
X131365922Y-67172516D01*
X131501711Y-67208900D01*
X131554852Y-67208900D01*
X131621891Y-67228585D01*
X131646697Y-67251404D01*
X131647027Y-67251075D01*
X131652774Y-67256822D01*
X131752178Y-67356226D01*
X131873922Y-67426516D01*
X132009711Y-67462900D01*
X132009713Y-67462900D01*
X132150287Y-67462900D01*
X132150289Y-67462900D01*
X132286078Y-67426516D01*
X132407822Y-67356226D01*
X132507226Y-67256822D01*
X132507226Y-67256821D01*
X132512973Y-67251075D01*
X132514018Y-67252120D01*
X132563207Y-67216208D01*
X132605148Y-67208900D01*
X132658287Y-67208900D01*
X132658289Y-67208900D01*
X132794078Y-67172516D01*
X132915822Y-67102226D01*
X133015226Y-67002822D01*
X133085516Y-66881078D01*
X133121900Y-66745289D01*
X133121900Y-66604711D01*
X133085516Y-66468922D01*
X133085512Y-66468915D01*
X133085323Y-66468458D01*
X133085277Y-66468032D01*
X133083412Y-66461071D01*
X133084497Y-66460780D01*
X133077851Y-66398989D01*
X133085323Y-66373542D01*
X133085511Y-66373085D01*
X133085516Y-66373078D01*
X133121900Y-66237289D01*
X133121900Y-66096711D01*
X133085516Y-65960922D01*
X133015226Y-65839178D01*
X132915822Y-65739774D01*
X132794078Y-65669484D01*
X132658289Y-65633100D01*
X132658288Y-65633100D01*
X132605148Y-65633100D01*
X132538109Y-65613415D01*
X132513302Y-65590595D01*
X132512973Y-65590925D01*
X132407824Y-65485776D01*
X132407822Y-65485774D01*
X132286078Y-65415484D01*
X132150289Y-65379100D01*
X132009711Y-65379100D01*
X131873921Y-65415484D01*
X131752178Y-65485774D01*
X131752175Y-65485776D01*
X131647027Y-65590925D01*
X131645981Y-65589879D01*
X131596793Y-65625792D01*
X131554852Y-65633100D01*
X131501711Y-65633100D01*
X131365921Y-65669484D01*
X131244178Y-65739774D01*
X131244175Y-65739776D01*
X131144776Y-65839175D01*
X131144774Y-65839178D01*
X131074484Y-65960921D01*
X131050486Y-66050484D01*
X131038100Y-66096711D01*
X125090509Y-66096711D01*
X125120900Y-65983289D01*
X125120900Y-65842711D01*
X125084516Y-65706922D01*
X125014226Y-65585178D01*
X124914822Y-65485774D01*
X124793078Y-65415484D01*
X124657289Y-65379100D01*
X124516711Y-65379100D01*
X124380921Y-65415484D01*
X124259178Y-65485774D01*
X124259175Y-65485776D01*
X124154027Y-65590925D01*
X124152981Y-65589879D01*
X124103793Y-65625792D01*
X124061852Y-65633100D01*
X124008711Y-65633100D01*
X123872921Y-65669484D01*
X123751178Y-65739774D01*
X123751175Y-65739776D01*
X123651776Y-65839175D01*
X123651774Y-65839178D01*
X123581483Y-65960922D01*
X123581482Y-65960925D01*
X123581083Y-65962416D01*
X123580403Y-65963530D01*
X123578375Y-65968428D01*
X123577610Y-65968111D01*
X123544712Y-66022073D01*
X123499233Y-66046906D01*
X123499428Y-66047375D01*
X123495068Y-66049180D01*
X123493416Y-66050083D01*
X123491925Y-66050482D01*
X123491922Y-66050483D01*
X123370178Y-66120774D01*
X123370175Y-66120776D01*
X123270776Y-66220175D01*
X123270774Y-66220178D01*
X123200483Y-66341922D01*
X123200482Y-66341925D01*
X123200083Y-66343416D01*
X123199403Y-66344530D01*
X123197375Y-66349428D01*
X123196610Y-66349111D01*
X123163712Y-66403073D01*
X123118233Y-66427906D01*
X123118428Y-66428375D01*
X123114068Y-66430180D01*
X123112416Y-66431083D01*
X123110925Y-66431482D01*
X123110922Y-66431483D01*
X122989178Y-66501774D01*
X122989175Y-66501776D01*
X122889776Y-66601175D01*
X122889774Y-66601178D01*
X122819483Y-66722922D01*
X122819482Y-66722925D01*
X122819083Y-66724416D01*
X122818403Y-66725530D01*
X122816375Y-66730428D01*
X122815610Y-66730111D01*
X122782712Y-66784073D01*
X122737233Y-66808906D01*
X122737428Y-66809375D01*
X122733068Y-66811180D01*
X122731416Y-66812083D01*
X122729925Y-66812482D01*
X122729922Y-66812483D01*
X122608178Y-66882774D01*
X122608175Y-66882776D01*
X122508776Y-66982175D01*
X122508774Y-66982178D01*
X122438484Y-67103921D01*
X122405081Y-67228585D01*
X122402100Y-67239711D01*
X98141710Y-67239711D01*
X98141710Y-64140911D01*
X148310100Y-64140911D01*
X148310100Y-64281489D01*
X148346484Y-64417278D01*
X148416774Y-64539022D01*
X148516178Y-64638426D01*
X148637922Y-64708716D01*
X148773711Y-64745100D01*
X148773713Y-64745100D01*
X148914287Y-64745100D01*
X148914289Y-64745100D01*
X149050078Y-64708716D01*
X149171822Y-64638426D01*
X149271226Y-64539022D01*
X149341516Y-64417278D01*
X149377900Y-64281489D01*
X149377900Y-64140911D01*
X149341516Y-64005122D01*
X149271226Y-63883378D01*
X149171822Y-63783974D01*
X149050078Y-63713684D01*
X148914289Y-63677300D01*
X148773711Y-63677300D01*
X148637921Y-63713684D01*
X148516178Y-63783974D01*
X148516175Y-63783976D01*
X148416776Y-63883375D01*
X148416774Y-63883378D01*
X148346484Y-64005121D01*
X148346484Y-64005122D01*
X148310100Y-64140911D01*
X98141710Y-64140911D01*
X98141710Y-63175711D01*
X133628900Y-63175711D01*
X133628900Y-63316289D01*
X133665284Y-63452078D01*
X133735574Y-63573822D01*
X133834978Y-63673226D01*
X133956722Y-63743516D01*
X134092511Y-63779900D01*
X134092513Y-63779900D01*
X134233087Y-63779900D01*
X134233089Y-63779900D01*
X134368878Y-63743516D01*
X134490622Y-63673226D01*
X134590026Y-63573822D01*
X134660316Y-63452078D01*
X134696700Y-63316289D01*
X134696700Y-63175711D01*
X134660316Y-63039922D01*
X134590026Y-62918178D01*
X134490622Y-62818774D01*
X134368878Y-62748484D01*
X134233089Y-62712100D01*
X134092511Y-62712100D01*
X133956721Y-62748484D01*
X133834978Y-62818774D01*
X133834975Y-62818776D01*
X133735576Y-62918175D01*
X133735574Y-62918178D01*
X133665284Y-63039921D01*
X133665284Y-63039922D01*
X133628900Y-63175711D01*
X98141710Y-63175711D01*
X98141710Y-57519281D01*
X105459700Y-57519281D01*
X105459700Y-57788718D01*
X105487052Y-57996469D01*
X105494867Y-58055829D01*
X105529733Y-58185950D01*
X105564599Y-58316074D01*
X105667699Y-58564979D01*
X105667702Y-58564986D01*
X105802414Y-58798314D01*
X105802419Y-58798320D01*
X105802420Y-58798322D01*
X105966426Y-59012059D01*
X105966432Y-59012066D01*
X106156933Y-59202567D01*
X106156939Y-59202572D01*
X106370686Y-59366586D01*
X106604014Y-59501298D01*
X106764565Y-59567800D01*
X106852925Y-59604400D01*
X106852926Y-59604400D01*
X106852928Y-59604401D01*
X107113171Y-59674133D01*
X107380289Y-59709300D01*
X107380296Y-59709300D01*
X107649704Y-59709300D01*
X107649711Y-59709300D01*
X107916829Y-59674133D01*
X108177072Y-59604401D01*
X108425986Y-59501298D01*
X108659314Y-59366586D01*
X108873061Y-59202572D01*
X109063572Y-59012061D01*
X109227586Y-58798314D01*
X109362298Y-58564986D01*
X109465401Y-58316072D01*
X109535133Y-58055829D01*
X109570300Y-57788711D01*
X109570300Y-57519289D01*
X109565481Y-57482689D01*
X109565480Y-57482681D01*
X135873300Y-57482681D01*
X135873300Y-57752118D01*
X135878119Y-57788718D01*
X135908467Y-58019229D01*
X135918274Y-58055829D01*
X135978199Y-58279474D01*
X136081299Y-58528379D01*
X136081302Y-58528386D01*
X136216014Y-58761714D01*
X136216019Y-58761720D01*
X136216020Y-58761722D01*
X136380026Y-58975459D01*
X136380032Y-58975466D01*
X136570533Y-59165967D01*
X136570539Y-59165972D01*
X136784286Y-59329986D01*
X137017614Y-59464698D01*
X137105970Y-59501296D01*
X137266525Y-59567800D01*
X137266526Y-59567800D01*
X137266528Y-59567801D01*
X137526771Y-59637533D01*
X137773016Y-59669952D01*
X137793873Y-59672698D01*
X137793889Y-59672700D01*
X137793896Y-59672700D01*
X138063304Y-59672700D01*
X138063311Y-59672700D01*
X138330429Y-59637533D01*
X138590672Y-59567801D01*
X138839586Y-59464698D01*
X139072914Y-59329986D01*
X139286661Y-59165972D01*
X139477172Y-58975461D01*
X139641186Y-58761714D01*
X139775898Y-58528386D01*
X139879001Y-58279472D01*
X139948733Y-58019229D01*
X139983900Y-57752111D01*
X139983900Y-57482689D01*
X139948733Y-57215571D01*
X139879001Y-56955328D01*
X139775898Y-56706414D01*
X139688649Y-56555294D01*
X139688648Y-56555293D01*
X140873300Y-56555293D01*
X140873300Y-56555297D01*
X140873300Y-56555304D01*
X140873300Y-58679493D01*
X140873301Y-58679502D01*
X140876047Y-58725630D01*
X140876049Y-58725643D01*
X140919697Y-58926294D01*
X140919700Y-58926305D01*
X141000536Y-59115075D01*
X141000538Y-59115078D01*
X141000539Y-59115080D01*
X141115643Y-59285147D01*
X141260853Y-59430357D01*
X141430920Y-59545461D01*
X141430922Y-59545462D01*
X141430924Y-59545463D01*
X141556770Y-59599353D01*
X141619696Y-59626300D01*
X141619704Y-59626301D01*
X141619705Y-59626302D01*
X141820355Y-59669951D01*
X141820356Y-59669951D01*
X141820361Y-59669952D01*
X141866493Y-59672700D01*
X143990706Y-59672699D01*
X144036839Y-59669952D01*
X144237504Y-59626300D01*
X144426280Y-59545461D01*
X144596347Y-59430357D01*
X144741557Y-59285147D01*
X144856661Y-59115080D01*
X144937500Y-58926304D01*
X144981152Y-58725639D01*
X144983900Y-58679507D01*
X144983899Y-57482681D01*
X150548300Y-57482681D01*
X150548300Y-57752118D01*
X150553119Y-57788718D01*
X150583467Y-58019229D01*
X150593274Y-58055829D01*
X150653199Y-58279474D01*
X150756299Y-58528379D01*
X150756302Y-58528386D01*
X150891014Y-58761714D01*
X150891019Y-58761720D01*
X150891020Y-58761722D01*
X151055026Y-58975459D01*
X151055032Y-58975466D01*
X151245533Y-59165967D01*
X151245539Y-59165972D01*
X151459286Y-59329986D01*
X151692614Y-59464698D01*
X151780970Y-59501296D01*
X151941525Y-59567800D01*
X151941526Y-59567800D01*
X151941528Y-59567801D01*
X152201771Y-59637533D01*
X152448016Y-59669952D01*
X152468873Y-59672698D01*
X152468889Y-59672700D01*
X152468896Y-59672700D01*
X152738304Y-59672700D01*
X152738311Y-59672700D01*
X153005429Y-59637533D01*
X153265672Y-59567801D01*
X153514586Y-59464698D01*
X153747914Y-59329986D01*
X153961661Y-59165972D01*
X154152172Y-58975461D01*
X154316186Y-58761714D01*
X154450898Y-58528386D01*
X154554001Y-58279472D01*
X154623733Y-58019229D01*
X154658900Y-57752111D01*
X154658900Y-57482689D01*
X154623733Y-57215571D01*
X154554001Y-56955328D01*
X154450898Y-56706414D01*
X154363649Y-56555294D01*
X154363648Y-56555293D01*
X155548300Y-56555293D01*
X155548300Y-56555297D01*
X155548300Y-56555304D01*
X155548300Y-58679493D01*
X155548301Y-58679502D01*
X155551047Y-58725630D01*
X155551049Y-58725643D01*
X155594697Y-58926294D01*
X155594700Y-58926305D01*
X155675536Y-59115075D01*
X155675538Y-59115078D01*
X155675539Y-59115080D01*
X155790643Y-59285147D01*
X155935853Y-59430357D01*
X156105920Y-59545461D01*
X156105922Y-59545462D01*
X156105924Y-59545463D01*
X156231770Y-59599353D01*
X156294696Y-59626300D01*
X156294704Y-59626301D01*
X156294705Y-59626302D01*
X156495355Y-59669951D01*
X156495356Y-59669951D01*
X156495361Y-59669952D01*
X156541493Y-59672700D01*
X158665706Y-59672699D01*
X158711839Y-59669952D01*
X158912504Y-59626300D01*
X159101280Y-59545461D01*
X159271347Y-59430357D01*
X159416557Y-59285147D01*
X159531661Y-59115080D01*
X159612500Y-58926304D01*
X159656152Y-58725639D01*
X159658900Y-58679507D01*
X159658899Y-56555294D01*
X159656152Y-56509161D01*
X159612500Y-56308496D01*
X159531661Y-56119720D01*
X159416557Y-55949653D01*
X159271347Y-55804443D01*
X159101280Y-55689339D01*
X159101278Y-55689338D01*
X159101275Y-55689336D01*
X158912505Y-55608500D01*
X158912494Y-55608497D01*
X158711844Y-55564848D01*
X158698270Y-55564039D01*
X158665707Y-55562100D01*
X158665695Y-55562100D01*
X156541506Y-55562100D01*
X156541497Y-55562100D01*
X156541494Y-55562101D01*
X156529763Y-55562799D01*
X156495369Y-55564847D01*
X156495363Y-55564847D01*
X156495361Y-55564848D01*
X156495357Y-55564848D01*
X156495356Y-55564849D01*
X156294705Y-55608497D01*
X156294694Y-55608500D01*
X156105924Y-55689336D01*
X155935852Y-55804443D01*
X155790643Y-55949652D01*
X155675536Y-56119724D01*
X155594700Y-56308494D01*
X155594697Y-56308505D01*
X155551048Y-56509155D01*
X155551016Y-56509692D01*
X155548300Y-56555293D01*
X154363648Y-56555293D01*
X154316190Y-56473092D01*
X154316179Y-56473077D01*
X154152173Y-56259340D01*
X154152167Y-56259333D01*
X153961666Y-56068832D01*
X153961659Y-56068826D01*
X153747922Y-55904820D01*
X153747920Y-55904819D01*
X153747914Y-55904814D01*
X153577974Y-55806699D01*
X153514588Y-55770103D01*
X153514579Y-55770099D01*
X153265674Y-55666999D01*
X153135550Y-55632133D01*
X153005429Y-55597267D01*
X152946069Y-55589452D01*
X152738318Y-55562100D01*
X152738311Y-55562100D01*
X152468889Y-55562100D01*
X152468881Y-55562100D01*
X152231450Y-55593359D01*
X152201771Y-55597267D01*
X152159860Y-55608497D01*
X151941525Y-55666999D01*
X151692620Y-55770099D01*
X151692611Y-55770103D01*
X151459292Y-55904810D01*
X151459277Y-55904820D01*
X151245540Y-56068826D01*
X151245533Y-56068832D01*
X151055032Y-56259333D01*
X151055026Y-56259340D01*
X150891020Y-56473077D01*
X150891010Y-56473092D01*
X150756303Y-56706411D01*
X150756299Y-56706420D01*
X150653199Y-56955325D01*
X150583467Y-57215572D01*
X150548300Y-57482681D01*
X144983899Y-57482681D01*
X144983899Y-56555294D01*
X144981152Y-56509161D01*
X144937500Y-56308496D01*
X144856661Y-56119720D01*
X144741557Y-55949653D01*
X144596347Y-55804443D01*
X144426280Y-55689339D01*
X144426278Y-55689338D01*
X144426275Y-55689336D01*
X144237505Y-55608500D01*
X144237494Y-55608497D01*
X144036844Y-55564848D01*
X144023270Y-55564039D01*
X143990707Y-55562100D01*
X143990695Y-55562100D01*
X141866506Y-55562100D01*
X141866497Y-55562100D01*
X141866494Y-55562101D01*
X141854763Y-55562799D01*
X141820369Y-55564847D01*
X141820363Y-55564847D01*
X141820361Y-55564848D01*
X141820357Y-55564848D01*
X141820356Y-55564849D01*
X141619705Y-55608497D01*
X141619694Y-55608500D01*
X141430924Y-55689336D01*
X141260852Y-55804443D01*
X141115643Y-55949652D01*
X141000536Y-56119724D01*
X140919700Y-56308494D01*
X140919697Y-56308505D01*
X140876048Y-56509155D01*
X140876016Y-56509692D01*
X140873300Y-56555293D01*
X139688648Y-56555293D01*
X139641190Y-56473092D01*
X139641179Y-56473077D01*
X139477173Y-56259340D01*
X139477167Y-56259333D01*
X139286666Y-56068832D01*
X139286659Y-56068826D01*
X139072922Y-55904820D01*
X139072920Y-55904819D01*
X139072914Y-55904814D01*
X138902974Y-55806699D01*
X138839588Y-55770103D01*
X138839579Y-55770099D01*
X138590674Y-55666999D01*
X138460550Y-55632133D01*
X138330429Y-55597267D01*
X138271069Y-55589452D01*
X138063318Y-55562100D01*
X138063311Y-55562100D01*
X137793889Y-55562100D01*
X137793881Y-55562100D01*
X137556450Y-55593359D01*
X137526771Y-55597267D01*
X137484860Y-55608497D01*
X137266525Y-55666999D01*
X137017620Y-55770099D01*
X137017611Y-55770103D01*
X136784292Y-55904810D01*
X136784277Y-55904820D01*
X136570540Y-56068826D01*
X136570533Y-56068832D01*
X136380032Y-56259333D01*
X136380026Y-56259340D01*
X136216020Y-56473077D01*
X136216010Y-56473092D01*
X136081303Y-56706411D01*
X136081299Y-56706420D01*
X135978199Y-56955325D01*
X135908467Y-57215572D01*
X135873300Y-57482681D01*
X109565480Y-57482681D01*
X109535133Y-57252172D01*
X109465400Y-56991925D01*
X109362300Y-56743020D01*
X109362298Y-56743014D01*
X109227586Y-56509686D01*
X109073214Y-56308505D01*
X109063573Y-56295940D01*
X109063567Y-56295933D01*
X108873066Y-56105432D01*
X108873059Y-56105426D01*
X108659322Y-55941420D01*
X108659320Y-55941419D01*
X108659314Y-55941414D01*
X108425986Y-55806702D01*
X108425979Y-55806699D01*
X108177074Y-55703599D01*
X108040479Y-55666999D01*
X107916829Y-55633867D01*
X107857469Y-55626052D01*
X107649718Y-55598700D01*
X107649711Y-55598700D01*
X107380289Y-55598700D01*
X107380281Y-55598700D01*
X107142850Y-55629959D01*
X107113171Y-55633867D01*
X107048110Y-55651300D01*
X106852925Y-55703599D01*
X106604020Y-55806699D01*
X106604011Y-55806703D01*
X106370692Y-55941410D01*
X106370677Y-55941420D01*
X106156940Y-56105426D01*
X106156933Y-56105432D01*
X105966432Y-56295933D01*
X105966426Y-56295940D01*
X105802420Y-56509677D01*
X105802410Y-56509692D01*
X105667703Y-56743011D01*
X105667699Y-56743020D01*
X105564599Y-56991925D01*
X105494867Y-57252172D01*
X105459700Y-57519281D01*
X98141710Y-57519281D01*
X98141710Y-48796395D01*
X98950100Y-48796395D01*
X98950100Y-48993604D01*
X98980951Y-49188389D01*
X99041890Y-49375944D01*
X99041891Y-49375947D01*
X99118482Y-49526263D01*
X99131424Y-49551663D01*
X99247342Y-49711209D01*
X99386791Y-49850658D01*
X99546337Y-49966576D01*
X99632520Y-50010488D01*
X99722052Y-50056108D01*
X99722055Y-50056109D01*
X99815832Y-50086578D01*
X99909612Y-50117049D01*
X100104395Y-50147900D01*
X100104396Y-50147900D01*
X100301604Y-50147900D01*
X100301605Y-50147900D01*
X100496388Y-50117049D01*
X100683947Y-50056108D01*
X100859663Y-49966576D01*
X101019209Y-49850658D01*
X101158658Y-49711209D01*
X101274576Y-49551663D01*
X101364108Y-49375947D01*
X101425049Y-49188388D01*
X101455900Y-48993605D01*
X101455900Y-48796395D01*
X101451877Y-48770995D01*
X163847100Y-48770995D01*
X163847100Y-48968204D01*
X163877951Y-49162989D01*
X163938890Y-49350544D01*
X163938891Y-49350547D01*
X164028424Y-49526263D01*
X164144342Y-49685809D01*
X164283791Y-49825258D01*
X164443337Y-49941176D01*
X164529520Y-49985088D01*
X164619052Y-50030708D01*
X164619055Y-50030709D01*
X164697227Y-50056108D01*
X164806612Y-50091649D01*
X165001395Y-50122500D01*
X165001396Y-50122500D01*
X165198604Y-50122500D01*
X165198605Y-50122500D01*
X165393388Y-50091649D01*
X165580947Y-50030708D01*
X165756663Y-49941176D01*
X165916209Y-49825258D01*
X166055658Y-49685809D01*
X166171576Y-49526263D01*
X166261108Y-49350547D01*
X166322049Y-49162988D01*
X166352900Y-48968205D01*
X166352900Y-48770995D01*
X166322049Y-48576212D01*
X166261108Y-48388653D01*
X166261108Y-48388652D01*
X166194661Y-48258244D01*
X166171576Y-48212937D01*
X166055658Y-48053391D01*
X165916209Y-47913942D01*
X165756663Y-47798024D01*
X165580947Y-47708491D01*
X165580944Y-47708490D01*
X165393389Y-47647551D01*
X165295996Y-47632125D01*
X165198605Y-47616700D01*
X165001395Y-47616700D01*
X164936467Y-47626983D01*
X164806610Y-47647551D01*
X164619055Y-47708490D01*
X164619052Y-47708491D01*
X164443336Y-47798024D01*
X164283789Y-47913943D01*
X164144343Y-48053389D01*
X164028424Y-48212936D01*
X163938891Y-48388652D01*
X163938890Y-48388655D01*
X163877951Y-48576210D01*
X163847100Y-48770995D01*
X101451877Y-48770995D01*
X101425049Y-48601612D01*
X101364108Y-48414053D01*
X101364108Y-48414052D01*
X101284719Y-48258244D01*
X101274576Y-48238337D01*
X101158658Y-48078791D01*
X101019209Y-47939342D01*
X100859663Y-47823424D01*
X100809813Y-47798024D01*
X100683947Y-47733891D01*
X100683944Y-47733890D01*
X100496389Y-47672951D01*
X100398996Y-47657525D01*
X100301605Y-47642100D01*
X100104395Y-47642100D01*
X100039467Y-47652383D01*
X99909610Y-47672951D01*
X99722055Y-47733890D01*
X99722052Y-47733891D01*
X99546336Y-47823424D01*
X99386789Y-47939343D01*
X99247343Y-48078789D01*
X99131424Y-48238336D01*
X99041891Y-48414052D01*
X99041890Y-48414055D01*
X98980951Y-48601610D01*
X98950100Y-48796395D01*
X98141710Y-48796395D01*
X98141710Y-46932310D01*
X98161395Y-46865271D01*
X98214199Y-46819516D01*
X98265710Y-46808310D01*
X103640072Y-46808310D01*
X103707111Y-46827995D01*
G37*
%TD.AperFunction*%
%TD*%
M02*
