%TF.GenerationSoftware,KiCad,Pcbnew,9.0.0*%
%TF.CreationDate,2025-04-18T15:13:59+03:00*%
%TF.ProjectId,valkyriev3,76616c6b-7972-4696-9576-332e6b696361,rev?*%
%TF.SameCoordinates,Original*%
%TF.FileFunction,Plated,1,4,PTH,Mixed*%
%TF.FilePolarity,Positive*%
%FSLAX46Y46*%
G04 Gerber Fmt 4.6, Leading zero omitted, Abs format (unit mm)*
G04 Created by KiCad (PCBNEW 9.0.0) date 2025-04-18 15:13:59*
%MOMM*%
%LPD*%
G01*
G04 APERTURE LIST*
%TA.AperFunction,ViaDrill*%
%ADD10C,0.203200*%
%TD*%
%TA.AperFunction,ViaDrill*%
%ADD11C,0.204000*%
%TD*%
G04 aperture for slot hole*
%TA.AperFunction,ComponentDrill*%
%ADD12C,0.600000*%
%TD*%
%TA.AperFunction,ComponentDrill*%
%ADD13C,1.000000*%
%TD*%
%TA.AperFunction,ComponentDrill*%
%ADD14C,1.500000*%
%TD*%
%TA.AperFunction,ComponentDrill*%
%ADD15C,1.700000*%
%TD*%
%TA.AperFunction,ComponentDrill*%
%ADD16C,1.900000*%
%TD*%
%TA.AperFunction,ComponentDrill*%
%ADD17C,3.200000*%
%TD*%
G04 APERTURE END LIST*
D10*
X100025200Y-66040000D03*
X100203000Y-53975000D03*
X100203000Y-59055000D03*
X100203000Y-64135000D03*
X100203000Y-79375000D03*
X100203000Y-84455000D03*
X100203000Y-94615000D03*
X100203000Y-109855000D03*
X100203000Y-114935000D03*
X100203000Y-120015000D03*
X100203000Y-130175000D03*
X100203000Y-135255000D03*
X100203000Y-140335000D03*
X100431600Y-112268000D03*
X101193600Y-107340400D03*
X101752400Y-116332000D03*
X101752400Y-116840000D03*
X102260400Y-66040000D03*
X102260400Y-116332000D03*
X102260400Y-116840000D03*
X103022400Y-110388400D03*
X103022400Y-111404400D03*
X103276400Y-122428000D03*
X103428800Y-68072000D03*
X103581200Y-116332000D03*
X104597200Y-122123200D03*
X104698800Y-60604400D03*
X104749600Y-70459600D03*
X104749600Y-70967600D03*
X105054400Y-109982000D03*
X105054400Y-116332000D03*
X105283000Y-53975000D03*
X105283000Y-69215000D03*
X105283000Y-84455000D03*
X105283000Y-89535000D03*
X105283000Y-130175000D03*
X105283000Y-135255000D03*
X105283000Y-140335000D03*
X105283000Y-144907000D03*
X105359200Y-72593200D03*
X105359200Y-73101200D03*
X105359200Y-73609200D03*
X106222800Y-98755200D03*
X106222800Y-99263200D03*
X106222800Y-99771200D03*
X106324400Y-92913200D03*
X106324400Y-97332800D03*
X106324400Y-97739200D03*
X106476800Y-116332000D03*
X106730800Y-98755200D03*
X106730800Y-99263200D03*
X106730800Y-99771200D03*
X106832400Y-97332800D03*
X106832400Y-97739200D03*
X106883200Y-92405200D03*
X106883200Y-92913200D03*
X107340400Y-110134400D03*
X107442000Y-92405200D03*
X107543600Y-100279200D03*
X107543600Y-101752400D03*
X107645200Y-113538000D03*
X107645200Y-114046000D03*
X108153200Y-113538000D03*
X108153200Y-114046000D03*
X108357000Y-95300200D03*
X108610400Y-111150400D03*
X108610400Y-112166400D03*
X108762800Y-120396000D03*
X109321600Y-120396000D03*
X109829600Y-99161600D03*
X109880400Y-70713600D03*
X109880400Y-71221600D03*
X109880400Y-71729600D03*
X109880400Y-72237600D03*
X109880400Y-72745600D03*
X109880400Y-73253600D03*
X110337600Y-99161600D03*
X110363000Y-53975000D03*
X110363000Y-64135000D03*
X110363000Y-79375000D03*
X110363000Y-89535000D03*
X110363000Y-130175000D03*
X110363000Y-135255000D03*
X110363000Y-140335000D03*
X110363000Y-144907000D03*
X110388400Y-70713600D03*
X110388400Y-71221600D03*
X110388400Y-71729600D03*
X110388400Y-72237600D03*
X110388400Y-72745600D03*
X110388400Y-73253600D03*
X110388400Y-73761600D03*
X110896400Y-70713600D03*
X110896400Y-71221600D03*
X110896400Y-71729600D03*
X110896400Y-72237600D03*
X110896400Y-72745600D03*
X110896400Y-73253600D03*
X110896400Y-73761600D03*
X110896400Y-74269600D03*
X110896400Y-75082400D03*
X110896400Y-75590400D03*
X111353600Y-122986800D03*
X111353600Y-123494800D03*
X111353600Y-124002800D03*
X111353600Y-124510800D03*
X111353600Y-125018800D03*
X111404400Y-70713600D03*
X111404400Y-71221600D03*
X111404400Y-71729600D03*
X111404400Y-72237600D03*
X111404400Y-72745600D03*
X111404400Y-73253600D03*
X111404400Y-73761600D03*
X111404400Y-74269600D03*
X111404400Y-75082400D03*
X111404400Y-75590400D03*
X111607600Y-87833200D03*
X112268000Y-102819200D03*
X113842800Y-84480400D03*
X113944400Y-89154000D03*
X114401600Y-60706000D03*
X114401600Y-61214000D03*
X114401600Y-61722000D03*
X114401600Y-62230000D03*
X114401600Y-62738000D03*
X114401600Y-63246000D03*
X114427000Y-109855000D03*
X114604800Y-89154000D03*
X114909600Y-60706000D03*
X114909600Y-61214000D03*
X114909600Y-61722000D03*
X114909600Y-62230000D03*
X114909600Y-62738000D03*
X114909600Y-63246000D03*
X115163600Y-123037600D03*
X115163600Y-123545600D03*
X115163600Y-124053600D03*
X115163600Y-124561600D03*
X115163600Y-125069600D03*
X115163600Y-125577600D03*
X115443000Y-53975000D03*
X115443000Y-59055000D03*
X115443000Y-64135000D03*
X115443000Y-89535000D03*
X115443000Y-99695000D03*
X115443000Y-114935000D03*
X115443000Y-120015000D03*
X115443000Y-135255000D03*
X115443000Y-144907000D03*
X116636800Y-70713600D03*
X116636800Y-71221600D03*
X116992400Y-92252800D03*
X116992400Y-94030800D03*
X116992400Y-95656400D03*
X116992400Y-97434400D03*
X117144800Y-70713600D03*
X117144800Y-71221600D03*
X117348000Y-86614000D03*
X117398800Y-88747600D03*
X117652800Y-70713600D03*
X117652800Y-71221600D03*
X117856000Y-108610400D03*
X117957600Y-60756800D03*
X117957600Y-61264800D03*
X117957600Y-61772800D03*
X117957600Y-62280800D03*
X117957600Y-62788800D03*
X117957600Y-63296800D03*
X118414800Y-84683600D03*
X118465600Y-60756800D03*
X118465600Y-61264800D03*
X118465600Y-61772800D03*
X118465600Y-62280800D03*
X118465600Y-62788800D03*
X118465600Y-63296800D03*
X118719600Y-92252800D03*
X118719600Y-94030800D03*
X118719600Y-95656400D03*
X118719600Y-97434400D03*
X118719600Y-106832400D03*
X118719600Y-144627600D03*
X118973600Y-85344000D03*
X118973600Y-88747600D03*
X119227600Y-144627600D03*
X119735600Y-144627600D03*
X120345200Y-92252800D03*
X120345200Y-95656400D03*
X120396000Y-93980000D03*
X120396000Y-97434400D03*
X120523000Y-48895000D03*
X120523000Y-53975000D03*
X120523000Y-59055000D03*
X120523000Y-64135000D03*
X120751600Y-55626000D03*
X120751600Y-56134000D03*
X121259600Y-55626000D03*
X121259600Y-56134000D03*
X121412000Y-88747600D03*
X121767600Y-55626000D03*
X121767600Y-56134000D03*
X122174000Y-92252800D03*
X122174000Y-94030800D03*
X122174000Y-95656400D03*
X122174000Y-97434400D03*
X122224800Y-88747600D03*
X122275600Y-55626000D03*
X122275600Y-56134000D03*
X122783600Y-55626000D03*
X122783600Y-56134000D03*
X122936000Y-67310000D03*
X122936000Y-67818000D03*
X122936000Y-68326000D03*
X123291600Y-55626000D03*
X123291600Y-56134000D03*
X123317000Y-66929000D03*
X123342400Y-102920800D03*
X123444000Y-67564000D03*
X123647200Y-109220000D03*
X123698000Y-66548000D03*
X123825000Y-67183000D03*
X124079000Y-66167000D03*
X124206000Y-66802000D03*
X124206000Y-70053200D03*
X124460000Y-116281200D03*
X124587000Y-65913000D03*
X124587000Y-66421000D03*
X124714000Y-69545200D03*
X124714000Y-70053200D03*
X125171200Y-109474000D03*
X125222000Y-69037200D03*
X125222000Y-69545200D03*
X125222000Y-70053200D03*
X125526800Y-106070400D03*
X125603000Y-48895000D03*
X125603000Y-53975000D03*
X125603000Y-125095000D03*
X125603000Y-130175000D03*
X125603000Y-144907000D03*
X125730000Y-68529200D03*
X125730000Y-69037200D03*
X125730000Y-69545200D03*
X125730000Y-70053200D03*
X125780800Y-88595200D03*
X127101600Y-106070400D03*
X127558800Y-87223600D03*
X127558800Y-87731600D03*
X127660400Y-89916000D03*
X127660400Y-90424000D03*
X127863600Y-81076800D03*
X127863600Y-81584800D03*
X127863600Y-82092800D03*
X127863600Y-82600800D03*
X127863600Y-83108800D03*
X127863600Y-83616800D03*
X127863600Y-84124800D03*
X127863600Y-84632800D03*
X127914400Y-92862400D03*
X127914400Y-93878400D03*
X127914400Y-94894400D03*
X127914400Y-95910400D03*
X127914400Y-96926400D03*
X127914400Y-97942400D03*
X127914400Y-99110800D03*
X127914400Y-100990400D03*
X128066800Y-87223600D03*
X128066800Y-87731600D03*
X128168400Y-89408000D03*
X128168400Y-89916000D03*
X128371600Y-81076800D03*
X128371600Y-81584800D03*
X128371600Y-82092800D03*
X128371600Y-82600800D03*
X128371600Y-83108800D03*
X128371600Y-83616800D03*
X128371600Y-84124800D03*
X128371600Y-84632800D03*
X128371600Y-109220000D03*
X128473200Y-66040000D03*
X128574800Y-86106000D03*
X128574800Y-86614000D03*
X128574800Y-91287600D03*
X128676400Y-88849200D03*
X128676400Y-89357200D03*
X128981200Y-66040000D03*
X129082800Y-86106000D03*
X129082800Y-86614000D03*
X129235200Y-116281200D03*
X129489200Y-66040000D03*
X129844800Y-84632800D03*
X129895600Y-109474000D03*
X129997200Y-66040000D03*
X130124200Y-87553800D03*
X130505200Y-66040000D03*
X130606800Y-85140800D03*
X130683000Y-48895000D03*
X130683000Y-104775000D03*
X130683000Y-125095000D03*
X130683000Y-130175000D03*
X130683000Y-144907000D03*
X131572000Y-66167000D03*
X131572000Y-66675000D03*
X131826000Y-88265000D03*
X132080000Y-65913000D03*
X132080000Y-66421000D03*
X132080000Y-66929000D03*
X132080000Y-78181200D03*
X132080000Y-83058000D03*
X132588000Y-66167000D03*
X132588000Y-66675000D03*
X132842000Y-68376800D03*
X133146800Y-109220000D03*
X133299200Y-68630800D03*
X133299200Y-71170800D03*
X133299200Y-71678800D03*
X133807200Y-68630800D03*
X133807200Y-71170800D03*
X133807200Y-71678800D03*
X134010400Y-116281200D03*
X134162800Y-63246000D03*
X134315200Y-71170800D03*
X134315200Y-71678800D03*
X134620000Y-109474000D03*
X134772400Y-83362800D03*
X134772400Y-83870800D03*
X135280400Y-83362800D03*
X135280400Y-83870800D03*
X135763000Y-104775000D03*
X135763000Y-125095000D03*
X135763000Y-130175000D03*
X135763000Y-135255000D03*
X135763000Y-140335000D03*
X135763000Y-144907000D03*
X135788400Y-83362800D03*
X135788400Y-83870800D03*
X136347200Y-70408800D03*
X136855200Y-70408800D03*
X136906000Y-63601600D03*
X136906000Y-64109600D03*
X137109200Y-85953600D03*
X137109200Y-87020400D03*
X137363200Y-70408800D03*
X137414000Y-63601600D03*
X137414000Y-64109600D03*
X137820400Y-73812400D03*
X137820400Y-74320400D03*
X137922000Y-63601600D03*
X137922000Y-64109600D03*
X138328400Y-69951600D03*
X138328400Y-73812400D03*
X138328400Y-74320400D03*
X138836400Y-84226400D03*
X138836400Y-87020400D03*
X140843000Y-48895000D03*
X140843000Y-64135000D03*
X140843000Y-89535000D03*
X140843000Y-94615000D03*
X140843000Y-99695000D03*
X140843000Y-104775000D03*
X140843000Y-109855000D03*
X140843000Y-114935000D03*
X140843000Y-135255000D03*
X140843000Y-140335000D03*
X140843000Y-144907000D03*
X140970000Y-124714000D03*
X141173200Y-121259600D03*
X141274800Y-131216400D03*
X141274800Y-131724400D03*
X141681200Y-121259600D03*
X142189200Y-121259600D03*
X142494000Y-71069200D03*
X142494000Y-71577200D03*
X142494000Y-72085200D03*
X142494000Y-124714000D03*
X142697200Y-121259600D03*
X143002000Y-71069200D03*
X143002000Y-71577200D03*
X143002000Y-72085200D03*
X143205200Y-121259600D03*
X145923000Y-64135000D03*
X145923000Y-69215000D03*
X145923000Y-74295000D03*
X145923000Y-79375000D03*
X145923000Y-84455000D03*
X145923000Y-89535000D03*
X145923000Y-94615000D03*
X145923000Y-99695000D03*
X145923000Y-140335000D03*
X145923000Y-144907000D03*
X146354800Y-122275600D03*
X148082000Y-104952800D03*
X148082000Y-105460800D03*
X148590000Y-104952800D03*
X148590000Y-105460800D03*
X148844000Y-64211200D03*
X149098000Y-104952800D03*
X149098000Y-105460800D03*
X149504400Y-131013200D03*
X150723600Y-63144400D03*
X151003000Y-69215000D03*
X151003000Y-74295000D03*
X151003000Y-79375000D03*
X151003000Y-84455000D03*
X151003000Y-89535000D03*
X151003000Y-94615000D03*
X151003000Y-99695000D03*
X151003000Y-109855000D03*
X151003000Y-114935000D03*
X151003000Y-120015000D03*
X151003000Y-140335000D03*
X151003000Y-144907000D03*
X153568400Y-64008000D03*
X153568400Y-64516000D03*
X154076400Y-64008000D03*
X154076400Y-64516000D03*
X154584400Y-64008000D03*
X154584400Y-64516000D03*
X156083000Y-48895000D03*
X156083000Y-53975000D03*
X156083000Y-69215000D03*
X156083000Y-74295000D03*
X156083000Y-79375000D03*
X156083000Y-84455000D03*
X156083000Y-89535000D03*
X156083000Y-94615000D03*
X156083000Y-99695000D03*
X156083000Y-109855000D03*
X156083000Y-114935000D03*
X156083000Y-120015000D03*
X156083000Y-125095000D03*
X156083000Y-130175000D03*
X156083000Y-140335000D03*
X156083000Y-144907000D03*
X156514800Y-104952800D03*
X156514800Y-105460800D03*
X157022800Y-104952800D03*
X157022800Y-105460800D03*
X157530800Y-104952800D03*
X157530800Y-105460800D03*
X159054800Y-104952800D03*
X159054800Y-105460800D03*
X159562800Y-104952800D03*
X159562800Y-105460800D03*
X160070800Y-104952800D03*
X160070800Y-105460800D03*
X161163000Y-53975000D03*
X161163000Y-69215000D03*
X161163000Y-74295000D03*
X161163000Y-79375000D03*
X161163000Y-84455000D03*
X161163000Y-89535000D03*
X161163000Y-94615000D03*
X161163000Y-99695000D03*
X161163000Y-109855000D03*
X161163000Y-114935000D03*
X161163000Y-120015000D03*
X161163000Y-125095000D03*
X161163000Y-130175000D03*
X161163000Y-135255000D03*
X161163000Y-140335000D03*
X161163000Y-144907000D03*
X162560000Y-73507600D03*
X162560000Y-74015600D03*
X162560000Y-74523600D03*
X163068000Y-73507600D03*
X163068000Y-74015600D03*
X163068000Y-74523600D03*
X166243000Y-53975000D03*
X166243000Y-59055000D03*
X166243000Y-64135000D03*
X166243000Y-69215000D03*
X166243000Y-94615000D03*
X166243000Y-99695000D03*
X166243000Y-104775000D03*
X166243000Y-109855000D03*
X166243000Y-114935000D03*
X166243000Y-120015000D03*
X166243000Y-125095000D03*
X166243000Y-135255000D03*
X166243000Y-140335000D03*
X166243000Y-144907000D03*
D11*
X116213150Y-141026560D03*
X116352607Y-139989806D03*
X116752892Y-139023433D03*
X117212848Y-141051104D03*
X117316383Y-140256522D03*
X117404728Y-138174378D03*
X117622977Y-139516335D03*
X118111622Y-138881272D03*
X118236434Y-137539892D03*
X118729334Y-138409979D03*
X119202809Y-137139606D03*
X119469520Y-138103384D03*
X120239564Y-137000151D03*
X120264100Y-137999849D03*
X121076648Y-137000000D03*
X121076648Y-138000000D03*
X121901465Y-137000000D03*
X121901465Y-138000000D03*
X122726282Y-137000000D03*
X122726282Y-138000000D03*
X123551099Y-137000000D03*
X123551099Y-138000000D03*
X124375916Y-137000000D03*
X124375916Y-138000000D03*
X125200732Y-137000000D03*
X125200732Y-138000000D03*
X126025549Y-137000000D03*
X126025549Y-138000000D03*
D12*
%TO.C,J1*%
X99708000Y-91006200D02*
X100508000Y-91006200D01*
X99708000Y-99646200D02*
X100508000Y-99646200D01*
X103738000Y-91006200D02*
X104838000Y-91006200D01*
X103738000Y-99646200D02*
X104838000Y-99646200D01*
D13*
%TO.C,J8*%
X101955600Y-131445000D03*
X101955600Y-133985000D03*
X101955600Y-136525000D03*
%TO.C,J6*%
X104515000Y-47654000D03*
%TO.C,BZ1*%
X104989400Y-78698600D03*
X104989400Y-86298600D03*
%TO.C,J10*%
X112039400Y-112191800D03*
X112039400Y-114731800D03*
X112039400Y-117271800D03*
%TO.C,J6*%
X115515000Y-47654000D03*
%TO.C,J5*%
X134928600Y-47617400D03*
%TO.C,J9*%
X136017000Y-90754200D03*
X136017000Y-93294200D03*
X136017000Y-95834200D03*
X136017000Y-98374200D03*
X136017000Y-100914200D03*
%TO.C,J2*%
X145829200Y-135666200D03*
%TO.C,J5*%
X145928600Y-47617400D03*
%TO.C,J2*%
X147214200Y-138506200D03*
X148599200Y-135666200D03*
%TO.C,J7*%
X149603600Y-47617400D03*
%TO.C,J2*%
X149984200Y-138506200D03*
X151369200Y-135666200D03*
X152754200Y-138506200D03*
%TO.C,J11*%
X153847800Y-123850400D03*
X153847800Y-126390400D03*
X153847800Y-128930400D03*
%TO.C,J2*%
X154139200Y-135666200D03*
X155524200Y-138506200D03*
X156909200Y-135666200D03*
%TO.C,J7*%
X160603600Y-47617400D03*
D14*
%TO.C,J3*%
X128500000Y-137500000D03*
%TO.C,J4*%
X146000000Y-114000000D03*
D15*
%TO.C,J3*%
X125960000Y-134960000D03*
X125960000Y-140040000D03*
X131040000Y-134960000D03*
X131040000Y-140040000D03*
%TO.C,J4*%
X143460000Y-111460000D03*
X143460000Y-116540000D03*
X148540000Y-111460000D03*
X148540000Y-116540000D03*
D16*
%TO.C,J6*%
X107515000Y-57654000D03*
X112515000Y-57654000D03*
%TO.C,J5*%
X137928600Y-57617400D03*
X142928600Y-57617400D03*
%TO.C,J7*%
X152603600Y-57617400D03*
X157603600Y-57617400D03*
D17*
%TO.C,J2*%
X138869200Y-137086200D03*
X163869200Y-137086200D03*
M02*
