%TF.GenerationSoftware,KiCad,Pcbnew,9.0.0*%
%TF.CreationDate,2025-04-18T15:12:49+03:00*%
%TF.ProjectId,valkyriev3,76616c6b-7972-4696-9576-332e6b696361,rev?*%
%TF.SameCoordinates,Original*%
%TF.FileFunction,Soldermask,Top*%
%TF.FilePolarity,Negative*%
%FSLAX46Y46*%
G04 Gerber Fmt 4.6, Leading zero omitted, Abs format (unit mm)*
G04 Created by KiCad (PCBNEW 9.0.0) date 2025-04-18 15:12:49*
%MOMM*%
%LPD*%
G01*
G04 APERTURE LIST*
G04 Aperture macros list*
%AMRoundRect*
0 Rectangle with rounded corners*
0 $1 Rounding radius*
0 $2 $3 $4 $5 $6 $7 $8 $9 X,Y pos of 4 corners*
0 Add a 4 corners polygon primitive as box body*
4,1,4,$2,$3,$4,$5,$6,$7,$8,$9,$2,$3,0*
0 Add four circle primitives for the rounded corners*
1,1,$1+$1,$2,$3*
1,1,$1+$1,$4,$5*
1,1,$1+$1,$6,$7*
1,1,$1+$1,$8,$9*
0 Add four rect primitives between the rounded corners*
20,1,$1+$1,$2,$3,$4,$5,0*
20,1,$1+$1,$4,$5,$6,$7,0*
20,1,$1+$1,$6,$7,$8,$9,0*
20,1,$1+$1,$8,$9,$2,$3,0*%
%AMOutline5P*
0 Free polygon, 5 corners , with rotation*
0 The origin of the aperture is its center*
0 number of corners: always 5*
0 $1 to $10 corner X, Y*
0 $11 Rotation angle, in degrees counterclockwise*
0 create outline with 5 corners*
4,1,5,$1,$2,$3,$4,$5,$6,$7,$8,$9,$10,$1,$2,$11*%
%AMOutline6P*
0 Free polygon, 6 corners , with rotation*
0 The origin of the aperture is its center*
0 number of corners: always 6*
0 $1 to $12 corner X, Y*
0 $13 Rotation angle, in degrees counterclockwise*
0 create outline with 6 corners*
4,1,6,$1,$2,$3,$4,$5,$6,$7,$8,$9,$10,$11,$12,$1,$2,$13*%
%AMOutline7P*
0 Free polygon, 7 corners , with rotation*
0 The origin of the aperture is its center*
0 number of corners: always 7*
0 $1 to $14 corner X, Y*
0 $15 Rotation angle, in degrees counterclockwise*
0 create outline with 7 corners*
4,1,7,$1,$2,$3,$4,$5,$6,$7,$8,$9,$10,$11,$12,$13,$14,$1,$2,$15*%
%AMOutline8P*
0 Free polygon, 8 corners , with rotation*
0 The origin of the aperture is its center*
0 number of corners: always 8*
0 $1 to $16 corner X, Y*
0 $17 Rotation angle, in degrees counterclockwise*
0 create outline with 8 corners*
4,1,8,$1,$2,$3,$4,$5,$6,$7,$8,$9,$10,$11,$12,$13,$14,$15,$16,$1,$2,$17*%
%AMFreePoly0*
4,1,15,0.558779,0.580902,0.595106,0.530902,0.600000,0.500000,0.600000,-1.000000,0.580902,-1.058779,0.530902,-1.095106,0.469098,-1.095106,0.429289,-1.070711,-1.070711,0.429289,-1.098769,0.484357,-1.089101,0.545399,-1.045399,0.589101,-1.000000,0.600000,0.500000,0.600000,0.558779,0.580902,0.558779,0.580902,$1*%
%AMFreePoly1*
4,1,17,1.458779,0.580902,1.495106,0.530902,1.500000,0.500000,1.500000,-0.500000,1.480902,-0.558779,1.430902,-0.595106,1.400000,-0.600000,-1.400000,-0.600000,-1.458779,-0.580902,-1.495106,-0.530902,-1.500000,-0.500000,-1.500000,0.500000,-1.480902,0.558779,-1.430902,0.595106,-1.400000,0.600000,1.400000,0.600000,1.458779,0.580902,1.458779,0.580902,$1*%
G04 Aperture macros list end*
%ADD10R,0.950000X0.550000*%
%ADD11RoundRect,0.225000X-0.225000X-0.250000X0.225000X-0.250000X0.225000X0.250000X-0.225000X0.250000X0*%
%ADD12RoundRect,0.250000X-1.000000X-0.900000X1.000000X-0.900000X1.000000X0.900000X-1.000000X0.900000X0*%
%ADD13RoundRect,0.225000X-0.250000X0.225000X-0.250000X-0.225000X0.250000X-0.225000X0.250000X0.225000X0*%
%ADD14RoundRect,0.087500X-0.225000X-0.087500X0.225000X-0.087500X0.225000X0.087500X-0.225000X0.087500X0*%
%ADD15RoundRect,0.087500X-0.087500X-0.225000X0.087500X-0.225000X0.087500X0.225000X-0.087500X0.225000X0*%
%ADD16RoundRect,0.150000X0.150000X-0.587500X0.150000X0.587500X-0.150000X0.587500X-0.150000X-0.587500X0*%
%ADD17RoundRect,0.200000X0.275000X-0.200000X0.275000X0.200000X-0.275000X0.200000X-0.275000X-0.200000X0*%
%ADD18RoundRect,0.218750X0.256250X-0.218750X0.256250X0.218750X-0.256250X0.218750X-0.256250X-0.218750X0*%
%ADD19RoundRect,0.225000X0.225000X0.250000X-0.225000X0.250000X-0.225000X-0.250000X0.225000X-0.250000X0*%
%ADD20C,1.400000*%
%ADD21RoundRect,0.770000X-0.980000X-0.980000X0.980000X-0.980000X0.980000X0.980000X-0.980000X0.980000X0*%
%ADD22C,3.500000*%
%ADD23RoundRect,0.100000X0.100000X-0.637500X0.100000X0.637500X-0.100000X0.637500X-0.100000X-0.637500X0*%
%ADD24RoundRect,0.250000X1.500000X0.550000X-1.500000X0.550000X-1.500000X-0.550000X1.500000X-0.550000X0*%
%ADD25RoundRect,0.200000X-0.275000X0.200000X-0.275000X-0.200000X0.275000X-0.200000X0.275000X0.200000X0*%
%ADD26RoundRect,0.200000X-0.200000X-0.275000X0.200000X-0.275000X0.200000X0.275000X-0.200000X0.275000X0*%
%ADD27RoundRect,0.087500X0.087500X-0.125000X0.087500X0.125000X-0.087500X0.125000X-0.087500X-0.125000X0*%
%ADD28RoundRect,0.087500X0.125000X-0.087500X0.125000X0.087500X-0.125000X0.087500X-0.125000X-0.087500X0*%
%ADD29RoundRect,0.375000X0.625000X0.375000X-0.625000X0.375000X-0.625000X-0.375000X0.625000X-0.375000X0*%
%ADD30RoundRect,0.500000X0.500000X1.400000X-0.500000X1.400000X-0.500000X-1.400000X0.500000X-1.400000X0*%
%ADD31RoundRect,0.225000X0.250000X-0.225000X0.250000X0.225000X-0.250000X0.225000X-0.250000X-0.225000X0*%
%ADD32RoundRect,0.250000X0.250000X0.475000X-0.250000X0.475000X-0.250000X-0.475000X0.250000X-0.475000X0*%
%ADD33RoundRect,0.225000X-0.225000X-0.375000X0.225000X-0.375000X0.225000X0.375000X-0.225000X0.375000X0*%
%ADD34RoundRect,0.150000X-0.587500X-0.150000X0.587500X-0.150000X0.587500X0.150000X-0.587500X0.150000X0*%
%ADD35RoundRect,0.250000X-0.550000X1.500000X-0.550000X-1.500000X0.550000X-1.500000X0.550000X1.500000X0*%
%ADD36RoundRect,0.200000X0.200000X0.275000X-0.200000X0.275000X-0.200000X-0.275000X0.200000X-0.275000X0*%
%ADD37C,2.200000*%
%ADD38RoundRect,0.218750X-0.256250X0.218750X-0.256250X-0.218750X0.256250X-0.218750X0.256250X0.218750X0*%
%ADD39C,0.650000*%
%ADD40RoundRect,0.150000X-0.425000X0.150000X-0.425000X-0.150000X0.425000X-0.150000X0.425000X0.150000X0*%
%ADD41RoundRect,0.075000X-0.500000X0.075000X-0.500000X-0.075000X0.500000X-0.075000X0.500000X0.075000X0*%
%ADD42O,2.100000X1.000000*%
%ADD43O,1.800000X1.000000*%
%ADD44FreePoly0,180.000000*%
%ADD45FreePoly1,180.000000*%
%ADD46R,1.100000X2.000000*%
%ADD47R,0.800000X0.800000*%
%ADD48RoundRect,0.087500X-0.250000X-0.087500X0.250000X-0.087500X0.250000X0.087500X-0.250000X0.087500X0*%
%ADD49C,4.000000*%
%ADD50R,1.600000X1.600000*%
%ADD51C,1.600000*%
%ADD52RoundRect,0.250000X0.550000X-1.500000X0.550000X1.500000X-0.550000X1.500000X-0.550000X-1.500000X0*%
%ADD53RoundRect,0.250000X0.250000X-1.000000X0.250000X1.000000X-0.250000X1.000000X-0.250000X-1.000000X0*%
%ADD54R,1.700000X1.700000*%
%ADD55O,1.700000X1.700000*%
%ADD56RoundRect,0.195653X0.704347X2.554347X-0.704347X2.554347X-0.704347X-2.554347X0.704347X-2.554347X0*%
%ADD57C,2.050000*%
%ADD58C,2.250000*%
%ADD59R,2.000000X2.000000*%
%ADD60C,2.000000*%
%ADD61RoundRect,0.162500X-0.650000X-0.162500X0.650000X-0.162500X0.650000X0.162500X-0.650000X0.162500X0*%
%ADD62RoundRect,0.218750X0.218750X0.256250X-0.218750X0.256250X-0.218750X-0.256250X0.218750X-0.256250X0*%
%ADD63RoundRect,0.150000X-0.150000X0.587500X-0.150000X-0.587500X0.150000X-0.587500X0.150000X0.587500X0*%
%ADD64RoundRect,0.400000X-0.870000X-0.400000X0.870000X-0.400000X0.870000X0.400000X-0.870000X0.400000X0*%
%ADD65RoundRect,0.400000X0.400000X-0.870000X0.400000X0.870000X-0.400000X0.870000X-0.400000X-0.870000X0*%
%ADD66R,0.400000X0.800000*%
%ADD67R,0.800000X0.400000*%
%ADD68Outline5P,-0.600000X0.204000X-0.204000X0.600000X0.600000X0.600000X0.600000X-0.600000X-0.600000X-0.600000X270.000000*%
%ADD69R,1.200000X1.200000*%
%ADD70RoundRect,0.150000X0.587500X0.150000X-0.587500X0.150000X-0.587500X-0.150000X0.587500X-0.150000X0*%
%ADD71R,1.250000X1.000000*%
%ADD72R,1.000000X1.250000*%
G04 APERTURE END LIST*
D10*
%TO.C,U9*%
X102207300Y-70966900D03*
X102207300Y-69716900D03*
X102207300Y-68466900D03*
X102207300Y-67216900D03*
X100057300Y-67216900D03*
X100057300Y-68466900D03*
X100057300Y-69716900D03*
X100057300Y-70966900D03*
%TD*%
D11*
%TO.C,C13*%
X145231100Y-131471900D03*
X146781100Y-131471900D03*
%TD*%
D12*
%TO.C,D11*%
X156447600Y-62128400D03*
X160747600Y-62128400D03*
%TD*%
D13*
%TO.C,C10*%
X142488500Y-122226700D03*
X142488500Y-123776700D03*
%TD*%
D14*
%TO.C,U6*%
X101353000Y-112263000D03*
X101353000Y-112763000D03*
X101353000Y-113263000D03*
X101353000Y-113763000D03*
D15*
X102015500Y-113925500D03*
X102515500Y-113925500D03*
X103015500Y-113925500D03*
D14*
X103678000Y-113763000D03*
X103678000Y-113263000D03*
X103678000Y-112763000D03*
X103678000Y-112263000D03*
D15*
X103015500Y-112100500D03*
X102515500Y-112100500D03*
X102015500Y-112100500D03*
%TD*%
D16*
%TO.C,Q8*%
X152135800Y-62758800D03*
X154035800Y-62758800D03*
X153085800Y-60883800D03*
%TD*%
D17*
%TO.C,R26*%
X104710000Y-63206800D03*
X104710000Y-61556800D03*
%TD*%
D18*
%TO.C,D4*%
X136093200Y-112064900D03*
X136093200Y-110489900D03*
%TD*%
D19*
%TO.C,C31*%
X106544400Y-123165800D03*
X104994400Y-123165800D03*
%TD*%
D11*
%TO.C,C17*%
X127403400Y-63665000D03*
X128953400Y-63665000D03*
%TD*%
D20*
%TO.C,J6*%
X104515000Y-47654000D03*
X115515000Y-47654000D03*
D21*
X112515000Y-57654000D03*
D22*
X107515000Y-57654000D03*
%TD*%
D23*
%TO.C,U3*%
X143726500Y-129725800D03*
X144376500Y-129725800D03*
X145026500Y-129725800D03*
X145676500Y-129725800D03*
X146326500Y-129725800D03*
X146976500Y-129725800D03*
X147626500Y-129725800D03*
X148276500Y-129725800D03*
X148276500Y-124000800D03*
X147626500Y-124000800D03*
X146976500Y-124000800D03*
X146326500Y-124000800D03*
X145676500Y-124000800D03*
X145026500Y-124000800D03*
X144376500Y-124000800D03*
X143726500Y-124000800D03*
%TD*%
D11*
%TO.C,C4*%
X126018000Y-86093200D03*
X127568000Y-86093200D03*
%TD*%
D13*
%TO.C,C19*%
X127697000Y-74411000D03*
X127697000Y-75961000D03*
%TD*%
D24*
%TO.C,C41*%
X127399800Y-57378000D03*
X121999800Y-57378000D03*
%TD*%
D25*
%TO.C,R8*%
X129764800Y-91973800D03*
X129764800Y-93623800D03*
%TD*%
D26*
%TO.C,R27*%
X149048200Y-60655200D03*
X150698200Y-60655200D03*
%TD*%
D27*
%TO.C,U10*%
X106811000Y-112420900D03*
X107311000Y-112420900D03*
D28*
X107823500Y-112158400D03*
X107823500Y-111658400D03*
X107823500Y-111158400D03*
D27*
X107311000Y-110895900D03*
X106811000Y-110895900D03*
D28*
X106298500Y-111158400D03*
X106298500Y-111658400D03*
X106298500Y-112158400D03*
%TD*%
D11*
%TO.C,C3*%
X125256000Y-84569200D03*
X126806000Y-84569200D03*
%TD*%
%TO.C,C14*%
X142254700Y-131471900D03*
X143804700Y-131471900D03*
%TD*%
D13*
%TO.C,C8*%
X112584000Y-75297400D03*
X112584000Y-76847400D03*
%TD*%
%TO.C,C20*%
X126198400Y-74411000D03*
X126198400Y-75961000D03*
%TD*%
D29*
%TO.C,U4*%
X124090600Y-76252100D03*
X124090600Y-73952100D03*
D30*
X117790600Y-73952100D03*
D29*
X124090600Y-71652100D03*
%TD*%
D17*
%TO.C,R13*%
X123649500Y-112132200D03*
X123649500Y-110482200D03*
%TD*%
D31*
%TO.C,C21*%
X115733600Y-72605600D03*
X115733600Y-71055600D03*
%TD*%
D32*
%TO.C,C24*%
X132649000Y-60934000D03*
X130749000Y-60934000D03*
%TD*%
D26*
%TO.C,R4*%
X100354400Y-89255000D03*
X102004400Y-89255000D03*
%TD*%
D31*
%TO.C,C37*%
X138328400Y-72961800D03*
X138328400Y-71411800D03*
%TD*%
D26*
%TO.C,R19*%
X136167200Y-68948200D03*
X137817200Y-68948200D03*
%TD*%
D33*
%TO.C,D10*%
X105142800Y-65099600D03*
X108442800Y-65099600D03*
%TD*%
D34*
%TO.C,Q6*%
X137390900Y-60670400D03*
X137390900Y-62570400D03*
X139265900Y-61620400D03*
%TD*%
D35*
%TO.C,C34*%
X135280400Y-75709800D03*
X135280400Y-81109800D03*
%TD*%
D11*
%TO.C,C32*%
X112602000Y-123191200D03*
X114152000Y-123191200D03*
%TD*%
D18*
%TO.C,D3*%
X131368800Y-112064900D03*
X131368800Y-110489900D03*
%TD*%
D11*
%TO.C,C33*%
X112602000Y-124664400D03*
X114152000Y-124664400D03*
%TD*%
D34*
%TO.C,D1*%
X107912700Y-94350200D03*
X107912700Y-96250200D03*
X109787700Y-95300200D03*
%TD*%
D26*
%TO.C,R12*%
X109447600Y-76732800D03*
X111097600Y-76732800D03*
%TD*%
D13*
%TO.C,C15*%
X149511300Y-128461700D03*
X149511300Y-130011700D03*
%TD*%
D36*
%TO.C,R1*%
X101931900Y-72647900D03*
X100281900Y-72647900D03*
%TD*%
D26*
%TO.C,R24*%
X134072100Y-60629800D03*
X135722100Y-60629800D03*
%TD*%
D31*
%TO.C,C7*%
X127057000Y-105100800D03*
X127057000Y-103550800D03*
%TD*%
D37*
%TO.C,H3*%
X164871400Y-129616200D03*
%TD*%
D31*
%TO.C,C22*%
X114209600Y-72605600D03*
X114209600Y-71055600D03*
%TD*%
D38*
%TO.C,D5*%
X114133400Y-75284900D03*
X114133400Y-76859900D03*
%TD*%
D17*
%TO.C,R9*%
X125122700Y-112127800D03*
X125122700Y-110477800D03*
%TD*%
D37*
%TO.C,H1*%
X100203000Y-48895000D03*
%TD*%
D34*
%TO.C,Q3*%
X129239800Y-113553200D03*
X129239800Y-115453200D03*
X131114800Y-114503200D03*
%TD*%
D39*
%TO.C,J1*%
X103788000Y-92436200D03*
X103788000Y-98216200D03*
D40*
X104863000Y-92126200D03*
X104863000Y-92926200D03*
D41*
X104863000Y-94076200D03*
X104863000Y-95076200D03*
X104863000Y-95576200D03*
X104863000Y-96576200D03*
D40*
X104863000Y-97726200D03*
X104863000Y-98526200D03*
X104863000Y-98526200D03*
X104863000Y-97726200D03*
D41*
X104863000Y-97076200D03*
X104863000Y-96076200D03*
X104863000Y-94576200D03*
X104863000Y-93576200D03*
D40*
X104863000Y-92926200D03*
X104863000Y-92126200D03*
D42*
X104288000Y-91006200D03*
D43*
X100108000Y-91006200D03*
D42*
X104288000Y-99646200D03*
D43*
X100108000Y-99646200D03*
%TD*%
D25*
%TO.C,R5*%
X129764800Y-88989800D03*
X129764800Y-90639800D03*
%TD*%
D31*
%TO.C,C23*%
X112660200Y-72605600D03*
X112660200Y-71055600D03*
%TD*%
D44*
%TO.C,BAT1*%
X108168200Y-124613400D03*
D45*
X109068200Y-121413400D03*
%TD*%
D31*
%TO.C,C35*%
X135331200Y-72961800D03*
X135331200Y-71411800D03*
%TD*%
%TO.C,C36*%
X136829800Y-72961800D03*
X136829800Y-71411800D03*
%TD*%
D36*
%TO.C,R20*%
X137817200Y-67449600D03*
X136167200Y-67449600D03*
%TD*%
D46*
%TO.C,D7*%
X104614000Y-119400100D03*
D47*
X104614000Y-121300100D03*
%TD*%
D13*
%TO.C,C9*%
X140989900Y-122226700D03*
X140989900Y-123776700D03*
%TD*%
D36*
%TO.C,R28*%
X150698200Y-62153800D03*
X149048200Y-62153800D03*
%TD*%
%TO.C,R2*%
X101931900Y-74146500D03*
X100281900Y-74146500D03*
%TD*%
D48*
%TO.C,U5*%
X133460300Y-67152800D03*
X133460300Y-67652800D03*
X133460300Y-68152800D03*
X134885300Y-68152800D03*
X134885300Y-67652800D03*
X134885300Y-67152800D03*
%TD*%
D20*
%TO.C,J7*%
X149603600Y-47617400D03*
X160603600Y-47617400D03*
D21*
X157603600Y-57617400D03*
D22*
X152603600Y-57617400D03*
%TD*%
D12*
%TO.C,D9*%
X141766400Y-62153800D03*
X146066400Y-62153800D03*
%TD*%
D49*
%TO.C,J2*%
X138869200Y-137086200D03*
X163869200Y-137086200D03*
D50*
X145829200Y-135666200D03*
D51*
X148599200Y-135666200D03*
X151369200Y-135666200D03*
X154139200Y-135666200D03*
X156909200Y-135666200D03*
X147214200Y-138506200D03*
X149984200Y-138506200D03*
X152754200Y-138506200D03*
X155524200Y-138506200D03*
%TD*%
D18*
%TO.C,D8*%
X101439000Y-121245400D03*
X101439000Y-119670400D03*
%TD*%
D19*
%TO.C,C6*%
X110128200Y-100253200D03*
X108578200Y-100253200D03*
%TD*%
D17*
%TO.C,R15*%
X133121400Y-112102400D03*
X133121400Y-110452400D03*
%TD*%
D20*
%TO.C,J5*%
X134928600Y-47617400D03*
X145928600Y-47617400D03*
D21*
X142928600Y-57617400D03*
D22*
X137928600Y-57617400D03*
%TD*%
D34*
%TO.C,Q2*%
X124490000Y-113604000D03*
X124490000Y-115504000D03*
X126365000Y-114554000D03*
%TD*%
D26*
%TO.C,R7*%
X122970800Y-86093200D03*
X124620800Y-86093200D03*
%TD*%
D25*
%TO.C,R22*%
X102963000Y-119658300D03*
X102963000Y-121308300D03*
%TD*%
D31*
%TO.C,C39*%
X103712500Y-70652700D03*
X103712500Y-69102700D03*
%TD*%
D37*
%TO.C,H2*%
X165100000Y-48869600D03*
%TD*%
D11*
%TO.C,C2*%
X125256000Y-83096000D03*
X126806000Y-83096000D03*
%TD*%
D52*
%TO.C,C40*%
X112787200Y-67317000D03*
X112787200Y-61917000D03*
%TD*%
D25*
%TO.C,R18*%
X125930200Y-62103400D03*
X125930200Y-63753400D03*
%TD*%
D53*
%TO.C,U7*%
X119253000Y-127375000D03*
X116713000Y-127375000D03*
X114173000Y-127375000D03*
X111633000Y-127375000D03*
X109093000Y-127375000D03*
X106553000Y-127375000D03*
X106553000Y-142875000D03*
X109093000Y-142875000D03*
X111633000Y-142875000D03*
X114173000Y-142875000D03*
X116713000Y-142875000D03*
X119253000Y-142875000D03*
%TD*%
D54*
%TO.C,J9*%
X136017000Y-90754200D03*
D55*
X136017000Y-93294200D03*
X136017000Y-95834200D03*
X136017000Y-98374200D03*
X136017000Y-100914200D03*
%TD*%
D17*
%TO.C,R6*%
X125523000Y-105155400D03*
X125523000Y-103505400D03*
%TD*%
D11*
%TO.C,C1*%
X125256000Y-81597400D03*
X126806000Y-81597400D03*
%TD*%
D37*
%TO.C,H4*%
X100457000Y-143510000D03*
%TD*%
D11*
%TO.C,C18*%
X127403400Y-65163600D03*
X128953400Y-65163600D03*
%TD*%
D54*
%TO.C,J10*%
X112039400Y-112191800D03*
D55*
X112039400Y-114731800D03*
X112039400Y-117271800D03*
%TD*%
D17*
%TO.C,R14*%
X128371600Y-112102400D03*
X128371600Y-110452400D03*
%TD*%
D56*
%TO.C,L1*%
X130765000Y-70200000D03*
X127065000Y-70200000D03*
%TD*%
D11*
%TO.C,C16*%
X132915200Y-69659400D03*
X134465200Y-69659400D03*
%TD*%
D25*
%TO.C,R21*%
X106290400Y-119632900D03*
X106290400Y-121282900D03*
%TD*%
D17*
%TO.C,R11*%
X134594600Y-112102400D03*
X134594600Y-110452400D03*
%TD*%
D18*
%TO.C,D2*%
X126595900Y-112090300D03*
X126595900Y-110515300D03*
%TD*%
D57*
%TO.C,J4*%
X146000000Y-114000000D03*
D58*
X143460000Y-116540000D03*
X148540000Y-116540000D03*
X143460000Y-111460000D03*
X148540000Y-111460000D03*
%TD*%
D31*
%TO.C,C12*%
X142475500Y-130011700D03*
X142475500Y-128461700D03*
%TD*%
D59*
%TO.C,BZ1*%
X104989400Y-86298600D03*
D60*
X104989400Y-78698600D03*
%TD*%
D34*
%TO.C,Q4*%
X133987300Y-113527800D03*
X133987300Y-115427800D03*
X135862300Y-114477800D03*
%TD*%
D61*
%TO.C,U1*%
X102595700Y-103529800D03*
X102595700Y-104799800D03*
X102595700Y-106069800D03*
X102595700Y-107339800D03*
X109770700Y-107339800D03*
X109770700Y-106069800D03*
X109770700Y-104799800D03*
X109770700Y-103529800D03*
%TD*%
D19*
%TO.C,C30*%
X106544400Y-124664400D03*
X104994400Y-124664400D03*
%TD*%
D25*
%TO.C,R16*%
X134630000Y-64364000D03*
X134630000Y-66014000D03*
%TD*%
D54*
%TO.C,J11*%
X153847800Y-123850400D03*
D55*
X153847800Y-126390400D03*
X153847800Y-128930400D03*
%TD*%
D13*
%TO.C,C27*%
X105029000Y-113842200D03*
X105029000Y-115392200D03*
%TD*%
D62*
%TO.C,D6*%
X128965900Y-62166400D03*
X127390900Y-62166400D03*
%TD*%
D11*
%TO.C,C29*%
X101993400Y-115303000D03*
X103543400Y-115303000D03*
%TD*%
D36*
%TO.C,R25*%
X135722100Y-62128400D03*
X134072100Y-62128400D03*
%TD*%
D32*
%TO.C,C25*%
X132647800Y-62903000D03*
X130747800Y-62903000D03*
%TD*%
D19*
%TO.C,C5*%
X110128200Y-101751800D03*
X108578200Y-101751800D03*
%TD*%
D26*
%TO.C,R3*%
X100354400Y-101447000D03*
X102004400Y-101447000D03*
%TD*%
D32*
%TO.C,C26*%
X132647800Y-64878000D03*
X130747800Y-64878000D03*
%TD*%
D63*
%TO.C,Q1*%
X107985500Y-73132800D03*
X106085500Y-73132800D03*
X107035500Y-75007800D03*
%TD*%
D17*
%TO.C,R10*%
X129870200Y-112102400D03*
X129870200Y-110452400D03*
%TD*%
D64*
%TO.C,U8*%
X140780600Y-71526400D03*
X140780600Y-74066400D03*
X140780600Y-76606400D03*
X140780600Y-79146400D03*
X140780600Y-81686400D03*
X140780600Y-84226400D03*
X140780600Y-86766400D03*
D65*
X146030600Y-107166400D03*
X148570600Y-107166400D03*
X157030600Y-107166400D03*
X159570600Y-107166400D03*
D64*
X164820600Y-86766400D03*
X164820600Y-84226400D03*
X164820600Y-81686400D03*
X164820600Y-79146400D03*
X164820600Y-76606400D03*
X164820600Y-74066400D03*
X164820600Y-71526400D03*
%TD*%
D17*
%TO.C,R17*%
X115708200Y-76897400D03*
X115708200Y-75247400D03*
%TD*%
D31*
%TO.C,C38*%
X105029400Y-112397200D03*
X105029400Y-110847200D03*
%TD*%
D66*
%TO.C,U2*%
X125504000Y-87841200D03*
X124654000Y-87841200D03*
X123804000Y-87841200D03*
X122954000Y-87841200D03*
X122104000Y-87841200D03*
X121254000Y-87841200D03*
X120404000Y-87841200D03*
X119554000Y-87841200D03*
X118704000Y-87841200D03*
X117854000Y-87841200D03*
X117004000Y-87841200D03*
X116154000Y-87841200D03*
X115304000Y-87841200D03*
X114454000Y-87841200D03*
X113604000Y-87841200D03*
D67*
X112554000Y-88891200D03*
X112554000Y-89741200D03*
X112554000Y-90591200D03*
X112554000Y-91441200D03*
X112554000Y-92291200D03*
X112554000Y-93141200D03*
X112554000Y-93991200D03*
X112554000Y-94841200D03*
X112554000Y-95691200D03*
X112554000Y-96541200D03*
X112554000Y-97391200D03*
X112554000Y-98241200D03*
X112554000Y-99091200D03*
X112554000Y-99941200D03*
X112554000Y-100791200D03*
D66*
X113604000Y-101841200D03*
X114454000Y-101841200D03*
X115304000Y-101841200D03*
X116154000Y-101841200D03*
X117004000Y-101841200D03*
X117854000Y-101841200D03*
X118704000Y-101841200D03*
X119554000Y-101841200D03*
X120404000Y-101841200D03*
X121254000Y-101841200D03*
X122104000Y-101841200D03*
X122954000Y-101841200D03*
X123804000Y-101841200D03*
X124654000Y-101841200D03*
X125504000Y-101841200D03*
D67*
X126554000Y-100791200D03*
X126554000Y-99941200D03*
X126554000Y-99091200D03*
X126554000Y-98241200D03*
X126554000Y-97391200D03*
X126554000Y-96541200D03*
X126554000Y-95691200D03*
X126554000Y-94841200D03*
X126554000Y-93991200D03*
X126554000Y-93141200D03*
X126554000Y-92291200D03*
X126554000Y-91441200D03*
X126554000Y-90591200D03*
X126554000Y-89741200D03*
X126554000Y-88891200D03*
D68*
X121204000Y-93191200D03*
D69*
X119554000Y-93191200D03*
X117904000Y-93191200D03*
X121204000Y-94841200D03*
X119554000Y-94841200D03*
X117904000Y-94841200D03*
X121204000Y-96491200D03*
X119554000Y-96491200D03*
X117904000Y-96491200D03*
D47*
X126554000Y-87841200D03*
X112554000Y-87841200D03*
X112554000Y-101841200D03*
X126554000Y-101841200D03*
%TD*%
D26*
%TO.C,R23*%
X102544400Y-126874200D03*
X104194400Y-126874200D03*
%TD*%
D70*
%TO.C,Q5*%
X103263200Y-125081000D03*
X103263200Y-123181000D03*
X101388200Y-124131000D03*
%TD*%
D71*
%TO.C,SW2*%
X115029800Y-84442200D03*
X122779800Y-84442200D03*
%TD*%
D13*
%TO.C,C28*%
X106502200Y-113842200D03*
X106502200Y-115392200D03*
%TD*%
D52*
%TO.C,C42*%
X119924600Y-67317000D03*
X119924600Y-61917000D03*
%TD*%
D72*
%TO.C,SW1*%
X129714000Y-95629400D03*
X129714000Y-103379400D03*
%TD*%
D11*
%TO.C,C11*%
X143974100Y-122251700D03*
X145524100Y-122251700D03*
%TD*%
D16*
%TO.C,Q7*%
X106477800Y-62834400D03*
X108377800Y-62834400D03*
X107427800Y-60959400D03*
%TD*%
D57*
%TO.C,J3*%
X128500000Y-137500000D03*
D58*
X131040000Y-140040000D03*
X131040000Y-134960000D03*
X125960000Y-140040000D03*
X125960000Y-134960000D03*
%TD*%
D54*
%TO.C,J8*%
X101955600Y-136525000D03*
D55*
X101955600Y-133985000D03*
X101955600Y-131445000D03*
%TD*%
M02*
